<svg width="35" height="88" viewBox="0 0 35 88" fill="none" xmlns="http://www.w3.org/2000/svg">
<path d="M1.81801 23.46C1.40801 23.46 1.00799 23.33 0.667989 23.05C-0.112011 22.41 -0.222011 21.27 0.417989 20.49L17.198 0L34.428 20.47C35.078 21.24 34.978 22.38 34.208 23.03C33.438 23.67 32.298 23.58 31.648 22.81L17.238 5.69L3.238 22.79C2.858 23.23 2.33801 23.46 1.81801 23.46Z" fill="white"/>
<path d="M1.81784 44.8496C1.40784 44.8496 1.00782 44.7196 0.66782 44.4396C-0.11218 43.7996 -0.222159 42.6596 0.407841 41.8796L17.1878 21.3896L34.4178 41.8596C35.0678 42.6296 34.9678 43.7696 34.1978 44.4196C33.4278 45.0696 32.2878 44.9696 31.6378 44.1996L17.2278 27.0796L3.22782 44.1796C2.85782 44.6296 2.33784 44.8496 1.81784 44.8496Z" fill="white"/>
<path d="M1.81801 66.25C1.40801 66.25 1.00799 66.12 0.667989 65.84C-0.112011 65.2 -0.222011 64.06 0.417989 63.28L17.198 42.79L34.428 63.26C35.078 64.03 34.978 65.17 34.208 65.82C33.438 66.46 32.298 66.37 31.648 65.6L17.238 48.48L3.238 65.58C2.858 66.02 2.33801 66.25 1.81801 66.25Z" fill="white"/>
<path d="M1.81784 87.6499C1.40784 87.6499 1.00782 87.5199 0.66782 87.2399C-0.11218 86.5999 -0.222159 85.4599 0.407841 84.6799L17.1878 64.1899L34.4178 84.6599C35.0678 85.4299 34.9678 86.5699 34.1978 87.2199C33.4278 87.8699 32.2878 87.7699 31.6378 86.9999L17.2278 69.8799L3.22782 86.9799C2.85782 87.42 2.33784 87.6499 1.81784 87.6499Z" fill="white"/>
</svg>
