<svg width="875" height="671" viewBox="0 0 875 671" fill="none" xmlns="http://www.w3.org/2000/svg">
<g opacity="0.4" filter="url(#filter0_d_25_5524)">
<path d="M499.023 318.942L499.023 318.942C499.088 318.979 499.143 319.033 499.18 319.099L500.045 318.596L499.18 319.099C499.218 319.164 499.238 319.238 499.238 319.313V350.707C499.238 350.707 499.238 350.707 499.238 350.707C499.238 350.782 499.218 350.856 499.18 350.921C499.143 350.986 499.088 351.04 499.023 351.077L499.023 351.077L469.055 368.202L469.055 368.202C468.988 368.24 468.917 368.258 468.844 368.258C468.77 368.258 468.699 368.24 468.632 368.202L468.632 368.202L438.665 351.077L438.664 351.077C438.531 351.001 438.449 350.86 438.449 350.707V319.313C438.449 319.313 438.449 319.313 438.449 319.312C438.449 319.237 438.469 319.163 438.507 319.098C438.545 319.033 438.599 318.979 438.664 318.942L438.665 318.942L468.632 301.818L468.633 301.817C468.697 301.781 468.77 301.761 468.844 301.761C468.918 301.761 468.99 301.781 469.054 301.817L469.055 301.818L499.023 318.942Z" stroke="white" stroke-width="2"/>
<path d="M530.213 369.703L530.213 369.703C530.279 369.741 530.333 369.795 530.371 369.86L531.236 369.358L530.371 369.86C530.409 369.925 530.428 369.999 530.429 370.074V401.468C530.429 401.468 530.429 401.468 530.429 401.468C530.428 401.543 530.409 401.617 530.371 401.682C530.333 401.747 530.279 401.801 530.213 401.838L530.213 401.839L500.246 418.963L500.246 418.963C500.179 419.001 500.107 419.019 500.034 419.019C499.961 419.019 499.89 419.001 499.822 418.963L499.822 418.963L469.855 401.839L469.854 401.838C469.722 401.763 469.64 401.621 469.64 401.468V370.074C469.64 370.074 469.64 370.074 469.64 370.074C469.64 369.999 469.66 369.925 469.697 369.86C469.735 369.795 469.789 369.741 469.855 369.703L469.855 369.703L499.822 352.579L499.823 352.579C499.887 352.542 499.96 352.522 500.034 352.522C500.108 352.522 500.181 352.542 500.245 352.579L500.246 352.579L530.213 369.703Z" stroke="white" stroke-width="2"/>
<path d="M405.145 369.703L405.145 369.703C405.21 369.741 405.265 369.795 405.302 369.86L406.167 369.358L405.302 369.86C405.34 369.925 405.36 369.999 405.36 370.074V401.468C405.36 401.468 405.36 401.468 405.36 401.468C405.36 401.543 405.34 401.617 405.302 401.682C405.265 401.747 405.21 401.801 405.145 401.838L405.145 401.839L375.177 418.963L375.177 418.963C375.11 419.001 375.039 419.019 374.966 419.019C374.892 419.019 374.821 419.001 374.754 418.963L374.754 418.963L344.787 401.839L344.786 401.838C344.653 401.763 344.571 401.621 344.571 401.468V370.074C344.571 370.074 344.571 370.074 344.571 370.074C344.571 369.999 344.591 369.925 344.629 369.86C344.667 369.795 344.721 369.741 344.786 369.703L344.787 369.703L374.754 352.579L374.755 352.579C374.819 352.542 374.892 352.522 374.966 352.522C375.04 352.522 375.112 352.542 375.176 352.579L375.177 352.579L405.145 369.703Z" stroke="white" stroke-width="2"/>
<path d="M311.573 318.942L311.574 318.942C311.639 318.979 311.693 319.033 311.731 319.099L312.596 318.596L311.731 319.099C311.769 319.164 311.789 319.238 311.789 319.313V350.707C311.789 350.707 311.789 350.707 311.789 350.707C311.789 350.782 311.769 350.856 311.731 350.921C311.693 350.986 311.639 351.04 311.574 351.077L311.574 351.077L281.606 368.202L281.606 368.202C281.539 368.24 281.468 368.258 281.394 368.258C281.321 368.258 281.25 368.24 281.183 368.202L281.183 368.202L251.215 351.077L251.215 351.077C251.082 351.001 251 350.86 251 350.707V319.313C251 319.313 251 319.313 251 319.312C251 319.237 251.02 319.163 251.058 319.098C251.095 319.033 251.15 318.979 251.215 318.942L251.215 318.942L281.183 301.818L281.184 301.817C281.248 301.781 281.32 301.761 281.394 301.761C281.468 301.761 281.541 301.781 281.605 301.817L281.606 301.818L311.573 318.942Z" stroke="white" stroke-width="2"/>
<path d="M530.213 268.181L530.213 268.181C530.279 268.218 530.333 268.272 530.371 268.337L531.236 267.835L530.371 268.337C530.409 268.402 530.428 268.476 530.429 268.552V299.945C530.429 299.946 530.429 299.946 530.429 299.946C530.428 300.021 530.409 300.095 530.371 300.16C530.333 300.225 530.279 300.279 530.213 300.316L530.213 300.316L500.246 317.44L500.246 317.44C500.179 317.479 500.107 317.497 500.034 317.497C499.961 317.497 499.89 317.479 499.822 317.44L499.822 317.44L469.855 300.316L469.854 300.316C469.722 300.24 469.64 300.098 469.64 299.946V268.551C469.64 268.551 469.64 268.551 469.64 268.551C469.64 268.476 469.66 268.402 469.697 268.337C469.735 268.272 469.789 268.218 469.855 268.181L469.855 268.181L499.822 251.057L499.823 251.056C499.887 251.019 499.96 251 500.034 251C500.108 251 500.181 251.019 500.245 251.056L500.246 251.057L530.213 268.181Z" stroke="white" stroke-width="2"/>
<path d="M436.438 318.942L436.438 318.942C436.503 318.979 436.558 319.033 436.595 319.099L437.46 318.596L436.595 319.099C436.633 319.164 436.653 319.238 436.653 319.313V350.707C436.653 350.707 436.653 350.707 436.653 350.707C436.653 350.782 436.633 350.856 436.595 350.921C436.558 350.986 436.503 351.04 436.438 351.077L436.438 351.077L406.47 368.202L406.47 368.202C406.403 368.24 406.332 368.258 406.259 368.258C406.185 368.258 406.114 368.24 406.047 368.202L406.047 368.202L376.08 351.077L376.079 351.077C375.946 351.001 375.864 350.86 375.864 350.707V319.313C375.864 319.313 375.864 319.313 375.864 319.312C375.864 319.237 375.884 319.163 375.922 319.098C375.96 319.033 376.014 318.979 376.079 318.942L376.08 318.942L406.047 301.818L406.048 301.817C406.112 301.781 406.185 301.761 406.259 301.761C406.333 301.761 406.405 301.781 406.469 301.817L406.47 301.818L436.438 318.942Z" stroke="white" stroke-width="2"/>
<path d="M373.954 318.942L373.954 318.942C374.02 318.979 374.074 319.033 374.112 319.099L374.977 318.596L374.112 319.099C374.15 319.164 374.17 319.238 374.17 319.313V350.707C374.17 350.707 374.17 350.707 374.17 350.707C374.17 350.782 374.15 350.856 374.112 350.921C374.074 350.986 374.02 351.04 373.955 351.077L373.954 351.077L343.987 368.202L343.987 368.202C343.92 368.24 343.849 368.258 343.775 368.258C343.702 368.258 343.631 368.24 343.564 368.202L343.564 368.202L313.596 351.077L313.596 351.077C313.463 351.001 313.381 350.86 313.381 350.707V319.313C313.381 319.313 313.381 319.313 313.381 319.312C313.381 319.237 313.401 319.163 313.439 319.098C313.476 319.033 313.531 318.979 313.596 318.942L313.596 318.942L343.564 301.818L343.564 301.817C343.629 301.781 343.701 301.761 343.775 301.761C343.849 301.761 343.922 301.781 343.986 301.817L343.987 301.818L373.954 318.942Z" stroke="white" stroke-width="2"/>
<path d="M342.764 268.181L342.764 268.181C342.829 268.218 342.884 268.272 342.922 268.337L343.786 267.835L342.922 268.337C342.959 268.402 342.979 268.476 342.979 268.552V299.945C342.979 299.946 342.979 299.946 342.979 299.946C342.979 300.021 342.959 300.095 342.922 300.16C342.884 300.225 342.829 300.279 342.764 300.316L342.764 300.316L312.797 317.44L312.797 317.44C312.729 317.479 312.658 317.497 312.585 317.497C312.512 317.497 312.44 317.479 312.373 317.44L312.373 317.44L282.406 300.316L282.405 300.316C282.273 300.24 282.19 300.098 282.19 299.946V268.551C282.19 268.551 282.19 268.551 282.19 268.551C282.19 268.476 282.21 268.402 282.248 268.337C282.286 268.272 282.34 268.218 282.406 268.181L282.406 268.181L312.373 251.057L312.374 251.056C312.438 251.019 312.511 251 312.585 251C312.659 251 312.731 251.019 312.796 251.056L312.796 251.057L342.764 268.181Z" stroke="white" stroke-width="2"/>
<path d="M561.403 318.942L561.404 318.942C561.469 318.979 561.523 319.033 561.561 319.099L562.426 318.596L561.561 319.099C561.599 319.164 561.619 319.238 561.619 319.313V350.707C561.619 350.707 561.619 350.707 561.619 350.707C561.619 350.782 561.599 350.856 561.561 350.921C561.523 350.986 561.469 351.04 561.404 351.077L561.404 351.077L531.436 368.202L531.436 368.202C531.369 368.24 531.298 368.258 531.225 368.258C531.151 368.258 531.08 368.24 531.013 368.202L531.013 368.202L501.045 351.077L501.045 351.077C500.912 351.001 500.83 350.86 500.83 350.707V319.313C500.83 319.313 500.83 319.313 500.83 319.312C500.83 319.237 500.85 319.163 500.888 319.098C500.926 319.033 500.98 318.979 501.045 318.942L501.045 318.942L531.013 301.818L531.014 301.817C531.078 301.781 531.15 301.761 531.224 301.761C531.298 301.761 531.371 301.781 531.435 301.817L531.436 301.818L561.403 318.942Z" stroke="white" stroke-width="2"/>
<path d="M623.784 318.942L623.784 318.942C623.85 318.979 623.904 319.033 623.942 319.099L624.807 318.596L623.942 319.099C623.98 319.164 624 319.238 624 319.313V350.707C624 350.707 624 350.707 624 350.707C624 350.782 623.98 350.856 623.942 350.921C623.904 350.986 623.85 351.04 623.785 351.077L623.784 351.077L593.817 368.202L593.817 368.202C593.75 368.24 593.679 368.258 593.605 368.258C593.532 368.258 593.461 368.24 593.394 368.202L593.394 368.202L563.426 351.077L563.426 351.077C563.293 351.001 563.211 350.86 563.211 350.707V319.313C563.211 319.313 563.211 319.313 563.211 319.312C563.211 319.237 563.231 319.163 563.269 319.098C563.306 319.033 563.361 318.979 563.426 318.942L563.426 318.942L593.394 301.818L593.395 301.817C593.459 301.781 593.531 301.761 593.605 301.761C593.679 301.761 593.752 301.781 593.816 301.817L593.817 301.818L623.784 318.942Z" stroke="white" stroke-width="2"/>
</g>
<defs>
<filter id="filter0_d_25_5524" x="0" y="0" width="875" height="670.02" filterUnits="userSpaceOnUse" color-interpolation-filters="sRGB">
<feFlood flood-opacity="0" result="BackgroundImageFix"/>
<feColorMatrix in="SourceAlpha" type="matrix" values="0 0 0 0 0 0 0 0 0 0 0 0 0 0 0 0 0 0 127 0" result="hardAlpha"/>
<feOffset/>
<feGaussianBlur stdDeviation="125"/>
<feComposite in2="hardAlpha" operator="out"/>
<feColorMatrix type="matrix" values="0 0 0 0 0 0 0 0 0 1 0 0 0 0 0.82 0 0 0 1 0"/>
<feBlend mode="normal" in2="BackgroundImageFix" result="effect1_dropShadow_25_5524"/>
<feBlend mode="normal" in="SourceGraphic" in2="effect1_dropShadow_25_5524" result="shape"/>
</filter>
</defs>
</svg>
