<svg width="81" height="81" viewBox="0 0 81 81" fill="none" xmlns="http://www.w3.org/2000/svg">
<path d="M47.5455 80.9999C66.022 80.9999 81.0001 66.0217 81.0001 47.5452C81.0001 29.0687 66.022 14.0906 47.5455 14.0906C29.069 14.0906 14.0908 29.0687 14.0908 47.5452C14.0908 66.0217 29.069 80.9999 47.5455 80.9999Z" fill="#FFA800" fill-opacity="0.2"/>
<path d="M35.4547 68.9093C53.9312 68.9093 68.9093 53.9312 68.9093 35.4547C68.9093 16.9782 53.9312 2 35.4547 2C16.9782 2 2 16.9782 2 35.4547C2 53.9312 16.9782 68.9093 35.4547 68.9093Z" stroke="#FFA800" stroke-width="3" stroke-miterlimit="10" stroke-linecap="round" stroke-linejoin="round"/>
<path d="M35.4545 51.6537C44.401 51.6537 51.6536 44.4011 51.6536 35.4546C51.6536 26.5081 44.401 19.2555 35.4545 19.2555C26.508 19.2555 19.2554 26.5081 19.2554 35.4546C19.2554 44.4011 26.508 51.6537 35.4545 51.6537Z" stroke="#FFA800" stroke-width="3" stroke-miterlimit="10" stroke-linecap="round" stroke-linejoin="round"/>
</svg>
