<svg width="196" height="284" viewBox="0 0 196 284" fill="none" xmlns="http://www.w3.org/2000/svg">
<g opacity="0.2">
<path d="M230.354 31.206C229.163 30.2531 227.972 29.3003 226.781 28.3474L28.3477 226.781C29.3005 227.972 30.2534 229.163 31.2063 230.354L230.354 31.206Z" fill="#9BBC64"/>
<path d="M181.758 5.71671C180.09 5.24028 178.423 4.76385 176.755 4.28741L4.04883 176.994C4.52526 178.661 5.0017 180.329 5.47814 181.996L181.758 5.71671Z" fill="#9BBC64"/>
<path d="M215.823 20.9625C214.393 20.2478 213.202 19.295 211.773 18.5803L18.3418 212.011C19.0564 213.441 19.7711 214.632 20.724 216.061L215.823 20.9625Z" fill="#9BBC64"/>
<path d="M199.864 12.387C198.434 11.6723 197.005 11.1959 195.338 10.4813L10.4824 195.337C11.1971 196.766 11.6735 198.195 12.3881 199.863L199.864 12.387Z" fill="#9BBC64"/>
<path d="M161.51 1.42883C159.605 1.19061 157.699 0.952388 155.793 0.714172L0.476562 156.031C0.714778 157.936 0.953037 159.842 1.19125 161.748L161.51 1.42883Z" fill="#9BBC64"/>
<path d="M241.55 41.45C241.073 40.9736 240.597 40.4971 239.882 39.7825L39.543 240.122C40.0194 240.598 40.4958 241.075 41.2104 241.789C41.6869 242.266 42.1633 242.742 42.878 243.457L243.217 43.1175C242.741 42.4028 242.264 41.9264 241.55 41.45Z" fill="#9BBC64"/>
<path d="M138.403 0C136.259 0 133.877 0.238221 131.733 0.238221L0.23823 131.733C1.4536e-05 133.877 0 136.259 0 138.403L138.403 0Z" fill="#9BBC64"/>
<path d="M3.33594 110.532L110.295 3.57324C107.436 4.28789 104.578 5.00254 101.719 5.71719L5.47986 101.956C4.527 104.815 3.81237 107.673 3.33594 110.532Z" fill="#9BBC64"/>
<path d="M282.763 151.267C283.001 149.123 283.001 146.741 283.001 144.597L144.359 283.239C146.503 283.239 148.885 283.001 151.029 283.001L282.763 151.267Z" fill="#9BBC64"/>
<path d="M282.286 126.969C282.047 125.063 281.809 123.157 281.571 121.251L121.252 281.809C123.158 282.047 125.063 282.285 126.969 282.523L282.286 126.969Z" fill="#9BBC64"/>
<path d="M69.5585 19.5342C59.5534 25.4896 50.0248 32.8743 41.4491 41.45C32.8733 50.0258 25.4886 59.5544 19.5332 69.5594L69.5585 19.5342Z" fill="#9BBC64"/>
<path d="M277.522 181.282C278.237 178.423 278.951 175.565 279.666 172.706L172.707 279.665C175.566 278.95 178.424 278.236 181.283 277.521L277.522 181.282Z" fill="#9BBC64"/>
<path d="M264.42 71.2269C263.705 69.7976 262.991 68.6065 262.038 67.1772L66.9395 262.276C68.3687 262.99 69.5598 263.943 70.9891 264.658L264.42 71.2269Z" fill="#9BBC64"/>
<path d="M254.653 56.2191C253.7 55.028 252.747 53.837 251.795 52.6459L52.6465 251.794C53.8376 252.747 55.0286 253.7 56.2197 254.653L254.653 56.2191Z" fill="#9BBC64"/>
<path d="M278.713 106.244C278.236 104.577 277.76 102.909 277.283 101.242L101.004 277.521C102.671 277.997 104.339 278.474 106.006 278.95L278.713 106.244Z" fill="#9BBC64"/>
<path d="M272.518 87.6631C271.803 86.2338 271.327 84.8045 270.612 83.137L83.1367 270.613C84.566 271.327 85.9953 271.804 87.6628 272.518L272.518 87.6631Z" fill="#9BBC64"/>
</g>
</svg>
