<svg width="100" height="100" viewBox="0 0 100 100" fill="none" xmlns="http://www.w3.org/2000/svg">
<rect opacity="0.1" width="100" height="100" rx="20" fill="#8476DA"/>
<path d="M41.2067 50.933L56.9327 66.6155C57.4479 67.129 58.2821 67.1282 58.7965 66.6129C59.3105 66.0976 59.3092 65.263 58.7938 64.749L44.0039 49.9999L58.7944 35.2509C59.3096 34.7369 59.3109 33.9028 58.797 33.3875C58.6747 33.2645 58.5292 33.167 58.369 33.1005C58.2088 33.034 58.037 32.9998 57.8636 33C57.6907 32.9998 57.5195 33.0337 57.3598 33.0997C57.2001 33.1657 57.055 33.2626 56.9327 33.3848L41.2067 49.0669C40.9585 49.3138 40.8193 49.6499 40.8193 49.9999C40.8193 50.35 40.9589 50.6857 41.2067 50.933Z" fill="#8779DE"/>
</svg>
