<svg width="100" height="100" viewBox="0 0 100 100" fill="none" xmlns="http://www.w3.org/2000/svg">
<rect opacity="0.1" width="100" height="100" rx="20" fill="#8476DA"/>
<g clip-path="url(#clip0_59_4023)">
<path d="M58.7933 49.067L43.0673 33.3845C42.5521 32.871 41.7179 32.8718 41.2035 33.3871C40.6895 33.9024 40.6908 34.737 41.2062 35.251L55.9961 50.0001L41.2056 64.7491C40.6904 65.2631 40.6891 66.0972 41.203 66.6125C41.3253 66.7355 41.4708 66.833 41.631 66.8995C41.7912 66.966 41.963 67.0002 42.1364 67C42.3093 67.0002 42.4805 66.9663 42.6402 66.9003C42.7999 66.8343 42.945 66.7374 43.0672 66.6152L58.7933 50.9331C59.0415 50.6862 59.1807 50.3502 59.1807 50.0001C59.1807 49.65 59.0411 49.3144 58.7933 49.067Z" fill="#8779DE"/>
</g>
<defs>
<clipPath id="clip0_59_4023">
<rect width="34" height="34" fill="white" transform="translate(33 33)"/>
</clipPath>
</defs>
</svg>
