<svg width="160" height="160" viewBox="0 0 160 160" fill="none" xmlns="http://www.w3.org/2000/svg">
<path d="M152.202 68.4538C149.715 66.2826 147.142 64.0354 146.635 62.1448C146.09 60.1024 147.222 56.7664 148.314 53.5422C149.919 48.8244 151.576 43.9439 149.288 39.9876C146.968 35.977 141.864 34.9721 136.928 34.0012C133.624 33.353 130.211 32.6814 128.762 31.236C127.317 29.7891 126.647 26.3756 125.997 23.0723C125.028 18.1374 124.026 13.0335 120.011 10.7134C116.048 8.42277 111.177 10.0869 106.461 11.6873C103.235 12.7807 99.9054 13.9035 97.8614 13.3716C95.9662 12.8645 93.7205 10.2885 91.5509 7.79932C88.2041 3.96557 84.7426 0 80 0C75.259 0 71.7975 3.96557 68.4522 7.79932C66.281 10.2885 64.0338 12.8645 62.1371 13.3716C60.1024 13.9066 56.7618 12.7807 53.5422 11.6873C48.8213 10.0806 43.9408 8.42277 39.986 10.7134C35.9755 13.0351 34.9721 18.1374 34.0012 23.0723C33.353 26.3741 32.6814 29.7891 31.2345 31.236C29.7906 32.6799 26.3772 33.3499 23.0769 33.9997C18.1421 34.9705 13.0366 35.9755 10.7165 39.986C8.42277 43.9423 10.0822 48.8229 11.6842 53.5453C12.7761 56.7711 13.9097 60.1039 13.3654 62.1448C12.8598 64.0354 10.2854 66.2826 7.79932 68.4538C3.96557 71.799 0 75.2621 0 80.0015C0 84.7441 3.96712 88.2056 7.79932 91.5524C10.2854 93.7205 12.8598 95.9708 13.3654 97.8613C13.9097 99.9007 12.7761 103.238 11.6842 106.464C10.0822 111.18 8.42277 116.061 10.7103 120.014C13.0335 124.024 18.1359 125.029 23.0707 125.999C26.3756 126.65 29.7891 127.32 31.2345 128.766C32.683 130.214 33.353 133.626 34.0012 136.931C34.9721 141.867 35.9755 146.971 39.986 149.29C43.9532 151.583 48.8229 149.918 53.5422 148.314C56.7618 147.219 60.0853 146.081 62.1386 146.63C64.0354 147.137 66.281 149.713 68.4522 152.205C71.7975 156.038 75.2605 160.002 80 160.002C84.7441 160.002 88.2041 156.036 91.5509 152.205C93.7205 149.716 95.9693 147.137 97.8644 146.63C99.8961 146.082 103.235 147.219 106.461 148.314C111.177 149.918 116.058 151.576 120.011 149.29C124.026 146.971 125.028 141.867 125.997 136.931C126.647 133.626 127.322 130.214 128.762 128.766C130.209 127.32 133.623 126.653 136.923 126.003C141.858 125.033 146.965 124.032 149.284 120.017C151.576 116.062 149.916 111.18 148.313 106.455C147.216 103.235 146.086 99.8976 146.63 97.8613C147.136 95.9646 149.707 93.7205 152.199 91.5524C156.034 88.2056 160 84.7457 160 80.0015C160 75.2621 156.033 71.799 152.202 68.4538Z" fill="#FF3276" fill-opacity="0.1"/>
<path d="M146.152 62.2744L146.151 62.2736C145.845 61.1254 146.02 59.6771 146.374 58.1721C146.73 56.6624 147.289 55.0108 147.829 53.4147L147.841 53.3818L147.841 53.3811C148.647 51.0123 149.445 48.6584 149.766 46.4087C150.086 44.168 149.923 42.0845 148.855 40.2379C147.771 38.3638 146.026 37.1685 143.903 36.3187C141.772 35.4654 139.31 34.9794 136.831 34.4919C136.831 34.4919 136.831 34.4919 136.831 34.4918L136.831 34.4917C135.185 34.1688 133.481 33.8345 132.007 33.3969C130.549 32.964 129.228 32.4068 128.409 31.59L128.409 31.5894C127.592 30.7715 127.035 29.4506 126.602 27.9925C126.167 26.5264 125.834 24.8331 125.512 23.1959L125.507 23.1688L125.507 23.1686C125.02 20.6906 124.535 18.2294 123.682 16.0981C122.833 13.9755 121.637 12.2306 119.761 11.1463L119.761 11.1463C117.911 10.077 115.828 9.91554 113.589 10.2362C111.347 10.5573 109.001 11.3533 106.638 12.1552L106.622 12.1608L106.621 12.1609C105.014 12.7058 103.351 13.2683 101.833 13.6257C100.328 13.9796 98.8828 14.1541 97.7354 13.8555L97.7321 13.8546C96.6538 13.566 95.5406 12.7158 94.4642 11.6908C93.3775 10.6558 92.2607 9.37467 91.1825 8.13764L91.1742 8.12814C91.1741 8.12804 91.174 8.12795 91.174 8.12786C89.4936 6.20297 87.8228 4.29155 85.9904 2.85555C84.1658 1.42566 82.221 0.5 80 0.5C77.7799 0.5 75.8354 1.42562 74.0112 2.85552C72.1791 4.29156 70.5087 6.20307 68.829 8.12799C68.829 8.12801 68.829 8.12803 68.829 8.12805L68.8203 8.13799C67.7413 9.37495 66.6239 10.656 65.5364 11.6909C64.4593 12.716 63.3453 13.5661 62.2663 13.8546L62.2643 13.8552C61.1207 14.1559 59.6738 13.981 58.1694 13.6268C56.6497 13.269 54.986 12.7057 53.3814 12.1608L53.3811 12.1607C51.0106 11.3539 48.656 10.555 46.4062 10.2339C44.1654 9.91398 42.0824 10.077 40.2367 11.1461L40.2365 11.1461C38.3623 12.2311 37.1674 13.9762 36.318 16.0987C35.465 18.2299 34.9793 20.6908 34.4918 23.1688L34.4907 23.1747C34.1681 24.8178 33.834 26.5194 33.3967 27.9921C32.9636 29.4504 32.406 30.7717 31.588 31.5896C30.7716 32.4061 29.4513 32.9626 27.9941 33.395C26.5304 33.8293 24.8399 34.1622 23.2058 34.4839L23.1735 34.4903L23.1734 34.4903C20.6955 34.9778 18.2338 35.4639 16.102 36.3172C13.9789 37.167 12.2335 38.3622 11.1493 40.2364L11.1491 40.2368C10.0785 42.0834 9.91515 44.1666 10.2345 46.4078C10.5551 48.6581 11.3532 51.0132 12.1577 53.3847L12.1579 53.385L12.1771 53.4418C12.715 55.031 13.2709 56.6733 13.625 58.1746C13.9799 59.6788 14.1546 61.1261 13.8485 62.2737L13.8484 62.274C13.5606 63.35 12.7111 64.4625 11.6873 65.5387C10.6555 66.6232 9.37867 67.7383 8.14557 68.8152L8.12822 68.8304L8.12805 68.8305C6.20315 70.5101 4.2916 72.181 2.85554 74.0133C1.42561 75.8377 0.5 77.7822 0.5 80.0015C0.5 82.2225 1.426 84.1673 2.85611 85.992C4.29241 87.8245 6.20394 89.4953 8.12821 91.1758C9.36684 92.256 10.6507 93.3764 11.6873 94.4664C12.7113 95.543 13.5607 96.6562 13.8484 97.7322L13.8485 97.7324C14.1546 98.8793 13.9798 100.327 13.625 101.832C13.27 103.338 12.7123 104.986 12.1732 106.579L12.1579 106.624L12.1577 106.625C11.3532 108.993 10.555 111.347 10.2337 113.596C9.91358 115.836 10.0755 117.918 11.143 119.763C12.2287 121.638 13.9743 122.833 16.0969 123.683C18.2283 124.536 20.6893 125.021 23.1671 125.508L23.1674 125.508L23.2051 125.516C24.8398 125.838 26.5293 126.171 27.9922 126.605C29.4502 127.038 30.7708 127.595 31.588 128.412C32.4067 129.231 32.9644 130.551 33.3973 132.01C33.8342 133.481 34.1677 135.182 34.4902 136.826L34.4918 136.834C34.4919 136.834 34.4919 136.835 34.4919 136.835C34.9794 139.313 35.4651 141.775 36.318 143.906C37.1674 146.029 38.3622 147.773 40.2363 148.857L39.986 149.29L40.2363 148.857C42.0885 149.928 44.1719 150.089 46.4111 149.769C48.6545 149.447 51.0002 148.65 53.3649 147.846L53.3812 147.841L53.3813 147.841L53.4557 147.815C55.0361 147.278 56.6682 146.723 58.1626 146.369C59.6658 146.013 61.1139 145.838 62.2678 146.147C63.3469 146.435 64.4605 147.286 65.5373 148.311C66.6264 149.348 67.7455 150.633 68.8262 151.873L68.8289 151.877C70.5085 153.801 72.1794 155.711 74.0116 157.147C75.8361 158.576 77.7806 159.502 80 159.502C82.2218 159.502 84.1667 158.576 85.9911 157.146C87.8232 155.711 89.4935 153.8 91.174 151.877L146.152 62.2744ZM146.152 62.2744C146.44 63.3501 147.29 64.4625 148.314 65.5387C149.349 66.6272 150.632 67.7466 151.87 68.8273L151.873 68.8304M146.152 62.2744L151.873 68.8304M97.7352 146.147C96.6568 146.436 95.5428 147.287 94.4658 148.312C93.3776 149.349 92.2595 150.631 91.1807 151.869L91.1743 151.876L97.8644 146.63M97.7352 146.147L97.8644 146.63M97.7352 146.147C97.7349 146.147 97.7346 146.147 97.7344 146.147L97.8644 146.63M97.7352 146.147C98.8789 145.839 100.326 146.014 101.83 146.37C103.337 146.726 104.987 147.286 106.582 147.827L106.622 147.841L106.622 147.841C108.99 148.646 111.344 149.444 113.593 149.766C115.833 150.086 117.916 149.924 119.761 148.857L119.761 148.857C121.637 147.773 122.833 146.029 123.682 143.906C124.535 141.775 125.02 139.313 125.507 136.834L125.507 136.834C125.83 135.188 126.166 133.484 126.604 132.01C127.037 130.552 127.594 129.231 128.408 128.413L128.409 128.412C129.227 127.595 130.548 127.039 132.006 126.607C133.462 126.175 135.143 125.844 136.769 125.524L136.826 125.513L136.923 126.003M97.8644 146.63C99.8904 146.084 103.217 147.213 106.434 148.305L106.461 148.314C111.177 149.918 116.058 151.576 120.011 149.29C124.026 146.971 125.028 141.868 125.997 136.932L125.997 136.931C126.647 133.626 127.322 130.214 128.762 128.766C130.203 127.327 133.592 126.659 136.879 126.012L136.923 126.003M136.923 126.003L136.827 125.513C139.305 125.025 141.767 124.54 143.899 123.688C146.022 122.838 147.767 121.643 148.851 119.767L148.851 119.766C149.921 117.921 150.084 115.837 149.764 113.596C149.443 111.345 148.645 108.989 147.839 106.616M136.923 126.003L136.941 126C141.871 125.03 146.968 124.027 149.284 120.017C151.574 116.065 149.919 111.187 148.316 106.465L147.839 106.616M147.839 106.616C147.293 105.011 146.728 103.348 146.369 101.829C146.015 100.325 145.841 98.8776 146.147 97.7322M147.839 106.616L152.199 91.5524M146.147 97.7322C146.147 97.7323 146.147 97.7324 146.147 97.7326L146.63 97.8613L146.147 97.7322ZM146.147 97.7322C146.435 96.6532 147.283 95.54 148.307 94.4639C149.344 93.3747 150.629 92.2559 151.87 91.1757M151.87 91.1757L152.199 91.5524M151.87 91.1757C153.796 89.4952 155.708 87.8248 157.144 85.9925C158.574 84.1682 159.5 82.2233 159.5 80.0015C159.5 77.7822 158.574 75.8378 157.144 74.0133C155.708 72.1809 153.797 70.5101 151.873 68.8304M151.87 91.1757C151.871 91.1755 151.871 91.1753 151.871 91.1752L152.199 91.5524M152.199 91.5524L151.873 68.8304" stroke="#FF3276" stroke-opacity="0.4"/>
</svg>
