<svg width="84" height="84" viewBox="0 0 84 84" fill="none" xmlns="http://www.w3.org/2000/svg">
<g clip-path="url(#clip0_59_3132)">
<path d="M50.4151 75.9889L48.8465 74.4202C47.8053 73.3785 46.3639 72.7806 44.8896 72.7806H42.1445L38.1973 55.6763L35.4701 56.3061L39.2719 72.7806H31.2373V75.5789H44.8896C45.6261 75.5789 46.3475 75.8775 46.868 76.3987L48.4366 77.9673C48.5664 78.0974 48.7206 78.2006 48.8904 78.2709C49.0602 78.3413 49.2422 78.3773 49.4259 78.3771C49.7027 78.3772 49.9732 78.2952 50.2033 78.1415C50.4334 77.9877 50.6128 77.7692 50.7187 77.5136C50.8246 77.2579 50.8522 76.9765 50.7982 76.7051C50.7441 76.4337 50.6108 76.1845 50.4151 75.9889Z" fill="#615260"/>
<path d="M37.8234 75.9889L36.2548 74.4203C35.2137 73.3785 33.7722 72.7807 32.298 72.7807H29.3045L32.9498 65.4905C33.734 63.9228 33.734 62.0508 32.9498 60.4837L29.691 53.9663L27.1879 55.2179L30.4467 61.736C30.6401 62.1247 30.7408 62.553 30.7408 62.9872C30.7408 63.4214 30.6401 63.8497 30.4467 64.2384L26.1755 72.7807H20.3836C18.9093 72.7807 17.4679 73.3785 16.4267 74.4203L14.8581 75.9889C14.3116 76.5354 14.3116 77.4208 14.8581 77.9673C15.4046 78.5138 16.29 78.5138 16.8365 77.9673L18.4051 76.3987C18.9309 75.8755 19.6419 75.5809 20.3836 75.5789H32.298C33.0344 75.5789 33.7558 75.8775 34.2764 76.3987L35.845 77.9673C35.9747 78.0975 36.129 78.2007 36.2987 78.271C36.4685 78.3413 36.6505 78.3774 36.8343 78.3772C37.111 78.3772 37.3816 78.2952 37.6117 78.1415C37.8418 77.9878 38.0211 77.7693 38.127 77.5136C38.2329 77.2579 38.2606 76.9766 38.2065 76.7052C38.1525 76.4338 38.0192 76.1845 37.8234 75.9889Z" fill="#736572"/>
<path d="M46.1292 44.5891L44.8184 48.4482L52.7952 56.5389L78.3362 69.0577C78.9174 69.345 79.5574 69.4938 80.2058 69.4923C80.8542 69.4908 81.4934 69.3391 82.0733 69.0492L82.8418 68.665L82.1045 66.3039L46.1292 44.5891Z" fill="#887F88"/>
<path d="M83.1862 65.6047L47.211 43.8899L45.9082 46.3717L82.8413 68.665L83.0692 68.5511C84.2554 67.958 84.3215 66.29 83.1862 65.6047Z" fill="#736572"/>
<path d="M7.58594 39.8843L11.5549 45.299C17.7214 53.7117 27.7289 58.429 38.1426 57.8319L39.0083 57.8091L31.448 31.8856L7.58594 39.8843Z" fill="#FFAA5A"/>
<path d="M16.7588 42.6086L39.0083 57.8091L50.44 57.5076L50.0561 56.8111L31.8009 41.2411L16.7588 42.6086Z" fill="#FF8B57"/>
<path d="M40.3566 44.6425L27.1934 46.055L68.0749 73.9845C68.721 74.425 69.4771 74.6763 70.2583 74.7101C71.0394 74.7438 71.8145 74.5587 72.4961 74.1757L72.1862 72.0355L40.3566 44.6425Z" fill="#98DB7C"/>
<path d="M42.2355 44.6875L38.3389 45.0417L72.4962 74.1758C72.5897 74.1233 72.6775 74.0693 72.7679 74.0091C73.8436 73.2736 73.9266 71.7171 72.9352 70.8715L42.2355 44.6875Z" fill="#77CC7D"/>
<path d="M18.978 9.275L13.6028 5.76357C12.9812 5.66981 12.3535 5.62276 11.7249 5.6228H11.7195C8.17069 5.6228 4.64876 7.9369 3.56627 11.8114L3.25488 14.8313V26.65C3.25488 31.4097 4.77197 36.0456 7.5858 39.8845L28.2231 19.3607L18.978 9.275Z" fill="#1BADDE"/>
<path d="M13.6035 5.76355L28.1398 21.6281L30.2324 19.7694L20.9873 9.68382C19.0351 7.5643 16.4155 6.19093 13.6035 5.76355Z" fill="#008CDF"/>
<path d="M29.4343 38.8758L9.98863 36.3125L6.41797 37.2465C7.32573 40.6195 9.87723 42.9559 13.2425 43.7972L38.903 50.2124C42.8664 51.2033 47.198 50.4508 50.7614 47.8228L51.3829 46.4617L29.4343 38.8758Z" fill="#736572"/>
<path d="M16.8994 38.0781L59.9035 50.6253C60.9446 50.9291 61.6343 49.5663 60.7728 48.9072L49.1488 40.0154L35.4742 32.7223L16.8994 38.0781Z" fill="#887F88"/>
<path d="M36.9353 21.5521L32.5107 37.2685L55.531 43.9191L57.8518 44.5896L58.4461 43.0628L36.9353 21.5521Z" fill="#77CC7D"/>
<path d="M60.1502 42.9301L45.4705 28.2502L41.3896 28.1267L57.8523 44.5896L58.9785 44.9149C60.1599 45.2563 61.0197 43.7998 60.1502 42.9301Z" fill="#52BD7E"/>
<path d="M42.9113 33.6672L37.9811 28.5819L11.611 25.8353L10.4124 26.6059C9.07551 27.4654 7.97587 28.6467 7.21432 30.0417C6.45277 31.4366 6.0537 33.0004 6.05371 34.5897C6.05371 35.5126 6.16839 36.3947 6.41842 37.2467C11.572 38.5005 27.3459 41.5074 42.421 35.9427C43.3568 35.5972 43.606 34.3835 42.9113 33.6672Z" fill="#98DB7C"/>
<path d="M0.361241 14.2182L3.11487 11.6864C3.78391 11.0712 4.86837 11.47 4.9796 12.3722L5.45112 16.2001C5.55513 17.0442 4.71513 17.6903 3.92599 17.3731L0.700686 16.077C-0.0613843 15.7707 -0.24333 14.7742 0.361241 14.2182Z" fill="#C9C5C9"/>
<path d="M11.6501 15.4169C12.4228 15.4169 13.0492 14.7905 13.0492 14.0178C13.0492 13.2451 12.4228 12.6187 11.6501 12.6187C10.8774 12.6187 10.251 13.2451 10.251 14.0178C10.251 14.7905 10.8774 15.4169 11.6501 15.4169Z" fill="#4E3D4D"/>
<path d="M36.6173 21.4122L30.8185 17.5561C27.4844 17.0798 24.0816 17.8183 21.2485 19.6395L11.6104 25.8354C17.2285 28.1544 31.6247 33.2014 42.6941 29.4278L42.031 26.8258L36.6173 21.4122Z" fill="#B8EB7C"/>
<path d="M30.8184 17.5559L42.694 29.4278C43.6515 29.1021 44.5701 28.7154 45.47 28.2503L38.738 21.5185C36.5957 19.3765 33.8171 17.9862 30.8184 17.5559Z" fill="#98DB7C"/>
</g>
<defs>
<clipPath id="clip0_59_3132">
<rect width="84" height="84" fill="white"/>
</clipPath>
</defs>
</svg>
