<svg width="84" height="84" viewBox="0 0 84 84" fill="none" xmlns="http://www.w3.org/2000/svg">
<g clip-path="url(#clip0_59_3697)">
<path d="M28.4826 78.3852C33.6824 73.1854 33.1102 64.1994 27.1739 58.4077C21.3227 52.6991 12.3783 52.3201 7.3347 57.5591C4.68936 60.3071 3.60906 64.0619 4.03367 67.8381C4.03103 67.8143 4.02692 67.7906 4.02445 67.7669C4.03482 71.0798 5.3971 71.739 3.00673 74.1293C2.31127 74.8254 1.53168 75.432 0.686022 75.935C0.13821 76.2608 0.0985158 77.0534 0.599551 77.5592C0.645669 77.6058 0.692116 77.6522 0.738728 77.6985C8.64642 85.5507 20.7502 86.1153 27.7607 79.1063C28.2303 78.637 27.9883 78.8796 28.4826 78.3852Z" fill="url(#paint0_linear_59_3697)"/>
<path d="M28.4826 78.3852C33.6824 73.1854 33.1102 64.1994 27.1739 58.4077C21.3227 52.6991 12.3783 52.3201 7.3347 57.5591C4.68936 60.3071 3.60906 64.0619 4.03367 67.8381C4.03103 67.8143 4.02692 67.7906 4.02445 67.7669C4.03482 71.0798 5.3971 71.739 3.00673 74.1293C2.31127 74.8254 1.53168 75.432 0.686022 75.935C0.13821 76.2608 0.0985158 77.0534 0.599551 77.5592C0.645669 77.6058 0.692116 77.6522 0.738728 77.6985C8.64642 85.5507 20.7502 86.1153 27.7607 79.1063C28.2303 78.637 27.9883 78.8796 28.4826 78.3852Z" fill="url(#paint1_linear_59_3697)"/>
<path d="M23.5893 73.4909C28.7891 68.2912 30.4458 61.5341 27.2443 58.4772C24.0889 55.4642 17.3185 57.2593 12.2294 62.4528C9.56015 65.1767 7.8561 68.308 7.30121 71.1047C7.30467 71.087 7.30714 71.0699 7.31076 71.0523C6.5462 73.5902 7.43709 73.778 5.04671 76.1684C4.35725 76.859 3.62204 77.5024 2.84608 78.0941C2.61236 78.2722 2.4409 78.5033 2.35278 78.7263C2.25412 78.9765 4.47897 80.9038 5.74276 81.2189C10.4716 82.3981 17.3357 79.7437 22.8676 74.2123C23.337 73.7428 23.0949 73.9854 23.5893 73.4909Z" fill="url(#paint2_linear_59_3697)"/>
<path d="M28.4821 78.3847L27.7602 79.1066C20.7502 86.1148 8.64628 85.55 0.739248 77.6985C0.691926 77.6528 0.645417 77.6063 0.599742 77.559C0.401436 77.359 0.288448 77.1138 0.257812 76.8709C5.56892 80.1633 14.1387 78.1152 20.4537 71.8C20.9233 71.3305 20.6817 71.5739 21.1766 71.0791C25.8109 66.4448 28.854 61.9126 25.3463 56.8663C25.992 57.3353 26.6027 57.8505 27.1737 58.408C33.1107 64.1995 33.6817 73.1852 28.4821 78.3847Z" fill="url(#paint3_linear_59_3697)"/>
<path d="M27.1748 58.4076C26.6038 57.8506 25.9932 57.3356 25.3479 56.8668C29.4914 62.5589 29.4065 70.1144 24.8096 74.7112C24.3152 75.2057 24.5571 74.9631 24.0877 75.4323C17.9649 81.5539 7.9574 81.8978 0.252951 76.6559C0.229728 76.9647 0.343375 77.2996 0.600481 77.5592C0.646598 77.6058 0.693045 77.6522 0.739657 77.6985C8.64735 85.5507 20.7511 86.1153 27.7616 79.1062C28.231 78.637 27.9891 78.8796 28.4835 78.3852C33.6835 73.1854 33.1111 64.1994 27.1748 58.4076Z" fill="url(#paint4_linear_59_3697)"/>
<path d="M81.1618 2.5913C77.9372 -0.633316 72.7899 -0.878728 69.2733 2.02454L34.0747 31.0828C30.6026 33.9491 27.7444 37.4864 25.671 41.483L20.0371 52.3427L31.4104 63.716L42.2701 58.082C46.2666 56.0087 49.8039 53.1505 52.6703 49.6784L81.7285 14.4798C84.6316 10.9631 84.3862 5.81591 81.1618 2.5913Z" fill="url(#paint5_linear_59_3697)"/>
<path d="M81.1615 2.59127C78.6288 0.0585847 74.9102 -0.635157 71.727 0.590091C72.8815 1.03405 73.9297 1.71593 74.8035 2.59143C78.0281 5.81604 78.2735 10.9633 75.3703 14.4799L46.3122 49.6784C43.4458 53.1504 39.9086 56.0086 35.912 58.082L29.2383 61.5443L31.4101 63.7161L42.2698 58.0822C46.2664 56.0088 49.8036 53.1506 52.67 49.6785L81.7282 14.4797C84.6313 10.9631 84.3859 5.81588 81.1615 2.59127Z" fill="url(#paint6_linear_59_3697)"/>
<path d="M21.9047 45.1521L19.4835 50.2585C19.1656 50.929 19.0629 51.6814 19.1894 52.4126C19.3159 53.1438 19.6654 53.818 20.1901 54.3427L29.4093 63.562C29.934 64.0867 30.6082 64.4363 31.3394 64.5628C32.0706 64.6893 32.8231 64.5865 33.4935 64.2685L38.5999 61.8474C39.8652 61.2475 40.1546 59.5753 39.1644 58.585L25.1668 44.5875C24.1768 43.5976 22.5047 43.8869 21.9047 45.1521Z" fill="url(#paint7_linear_59_3697)"/>
<path d="M39.1658 58.5852L25.1683 44.5877C24.1781 43.5974 22.506 43.8868 21.9059 45.1521L21.0918 46.8692L32.8078 58.5852C33.798 59.5754 33.5086 61.2475 32.2434 61.8475L29.1588 63.3101L29.4106 63.5619C29.9353 64.0867 30.6095 64.4363 31.3407 64.5628C32.0719 64.6893 32.8243 64.5865 33.4948 64.2685L38.6012 61.8473C39.8666 61.2475 40.156 59.5754 39.1658 58.5852Z" fill="url(#paint8_linear_59_3697)"/>
<path d="M28.1707 20.774C33.2388 20.774 37.3473 16.6655 37.3473 11.5974C37.3473 6.52934 33.2388 2.42084 28.1707 2.42084C23.1026 2.42084 18.9941 6.52934 18.9941 11.5974C18.9941 16.6655 23.1026 20.774 28.1707 20.774Z" fill="url(#paint9_linear_59_3697)"/>
<path d="M12.3235 40.4246C16.0866 40.4246 19.1372 37.3739 19.1372 33.6108C19.1372 29.8477 16.0866 26.7971 12.3235 26.7971C8.56037 26.7971 5.50977 29.8477 5.50977 33.6108C5.50977 37.3739 8.56037 40.4246 12.3235 40.4246Z" fill="url(#paint10_linear_59_3697)"/>
<path d="M67.2062 49.323C60.2785 49.3398 54.5019 54.2513 53.1493 60.7819C52.913 61.9235 52.0791 62.8531 50.977 63.2332C47.3723 64.4767 44.7846 67.902 44.795 71.9317C44.8078 76.9155 48.8849 81.0289 53.8684 81.0835C56.4056 81.1114 58.708 80.109 60.3847 78.4692C61.2142 77.658 62.4145 77.3294 63.5357 77.6274C64.7449 77.9481 65.9908 78.1101 67.2419 78.1091C75.1909 78.1091 81.6349 71.6652 81.635 63.7161C81.6352 55.7605 75.1619 49.3035 67.2062 49.323Z" fill="url(#paint11_linear_59_3697)"/>
<path d="M60.6914 78.1093C59.4403 78.1102 58.1944 77.9483 56.9851 77.6275C55.864 77.3296 54.6636 77.6581 53.8342 78.4693C52.9388 79.3444 51.874 80.0272 50.7051 80.4758C51.7147 80.866 52.7861 81.0719 53.8684 81.0837C56.4055 81.1115 58.708 80.1091 60.3847 78.4693C60.5214 78.3364 60.6692 78.2154 60.8266 78.1076C60.7815 78.108 60.7367 78.1093 60.6914 78.1093Z" fill="url(#paint12_linear_59_3697)"/>
<path d="M67.2062 49.323C66.1158 49.3254 65.0291 49.4516 63.9671 49.699C70.3324 51.184 75.0848 56.8996 75.0846 63.7165C75.0844 70.5387 70.3378 76.2521 63.9668 77.7347C65.0406 77.9843 66.1395 78.1101 67.242 78.1095C75.191 78.1095 81.635 71.6655 81.6351 63.7165C81.6353 55.7603 75.162 49.3035 67.2062 49.323Z" fill="url(#paint13_linear_59_3697)"/>
</g>
<defs>
<linearGradient id="paint0_linear_59_3697" x1="5.38241" y1="59.4615" x2="26.371" y2="80.4501" gradientUnits="userSpaceOnUse">
<stop stop-color="#FEE903"/>
<stop offset="0.231" stop-color="#FEE505"/>
<stop offset="0.417" stop-color="#FEDB0B"/>
<stop offset="0.588" stop-color="#FECA15"/>
<stop offset="0.75" stop-color="#FEB223"/>
<stop offset="0.905" stop-color="#FE9435"/>
<stop offset="1" stop-color="#FE7D43"/>
</linearGradient>
<linearGradient id="paint1_linear_59_3697" x1="5.38241" y1="59.4615" x2="26.371" y2="80.4501" gradientUnits="userSpaceOnUse">
<stop stop-color="#FFE177"/>
<stop offset="0.573" stop-color="#FEB137"/>
<stop offset="1" stop-color="#FE646F"/>
</linearGradient>
<linearGradient id="paint2_linear_59_3697" x1="3.29793" y1="57.1541" x2="24.5001" y2="78.3563" gradientUnits="userSpaceOnUse">
<stop stop-color="#FFE177"/>
<stop offset="0.573" stop-color="#FEB137"/>
<stop offset="1" stop-color="#FE646F"/>
</linearGradient>
<linearGradient id="paint3_linear_59_3697" x1="-6.00311" y1="48.0765" x2="25.517" y2="79.5966" gradientUnits="userSpaceOnUse">
<stop stop-color="#FFE177"/>
<stop offset="0.573" stop-color="#FEB137"/>
<stop offset="1" stop-color="#FE646F"/>
</linearGradient>
<linearGradient id="paint4_linear_59_3697" x1="-1.96243" y1="52.1157" x2="22.2565" y2="76.3346" gradientUnits="userSpaceOnUse">
<stop stop-color="#FFE177"/>
<stop offset="0.573" stop-color="#FEB137"/>
<stop offset="1" stop-color="#FE646F"/>
</linearGradient>
<linearGradient id="paint5_linear_59_3697" x1="20.3807" y1="31.858" x2="80.2043" y2="31.858" gradientUnits="userSpaceOnUse">
<stop stop-color="#537983"/>
<stop offset="1" stop-color="#3E5959"/>
</linearGradient>
<linearGradient id="paint6_linear_59_3697" x1="5.36812" y1="31.8583" x2="73.9134" y2="31.8583" gradientUnits="userSpaceOnUse">
<stop stop-color="#537983"/>
<stop offset="1" stop-color="#384949"/>
</linearGradient>
<linearGradient id="paint7_linear_59_3697" x1="19.1883" y1="54.3048" x2="42.0057" y2="54.3048" gradientUnits="userSpaceOnUse">
<stop stop-color="#F9F3F1"/>
<stop offset="0.573" stop-color="#EFE2DD"/>
<stop offset="1" stop-color="#CDBFBA"/>
</linearGradient>
<linearGradient id="paint8_linear_59_3697" x1="6.43824" y1="54.3048" x2="36.8538" y2="54.3048" gradientUnits="userSpaceOnUse">
<stop stop-color="#F9F3F1"/>
<stop offset="0.573" stop-color="#EFE2DD"/>
<stop offset="1" stop-color="#CDBFBA"/>
</linearGradient>
<linearGradient id="paint9_linear_59_3697" x1="20.4249" y1="11.5974" x2="42.8202" y2="11.5974" gradientUnits="userSpaceOnUse">
<stop stop-color="#7ACAA6"/>
<stop offset="0.573" stop-color="#09A76D"/>
<stop offset="1" stop-color="#026841"/>
</linearGradient>
<linearGradient id="paint10_linear_59_3697" x1="6.1844" y1="33.6108" x2="27.7808" y2="33.6108" gradientUnits="userSpaceOnUse">
<stop stop-color="#6BD9E7"/>
<stop offset="0.573" stop-color="#26A6FE"/>
<stop offset="1" stop-color="#0172FB"/>
</linearGradient>
<linearGradient id="paint11_linear_59_3697" x1="41.5374" y1="65.2036" x2="86.9056" y2="65.2036" gradientUnits="userSpaceOnUse">
<stop stop-color="#FDB4BA"/>
<stop offset="0.573" stop-color="#BD80E1"/>
<stop offset="1" stop-color="#9857BD"/>
</linearGradient>
<linearGradient id="paint12_linear_59_3697" x1="28.0345" y1="79.3016" x2="80.558" y2="79.3016" gradientUnits="userSpaceOnUse">
<stop stop-color="#FDB4BA"/>
<stop offset="0.573" stop-color="#BD80E1"/>
<stop offset="1" stop-color="#9857BD"/>
</linearGradient>
<linearGradient id="paint13_linear_59_3697" x1="28.0346" y1="63.7161" x2="80.5581" y2="63.7161" gradientUnits="userSpaceOnUse">
<stop stop-color="#FDB4BA"/>
<stop offset="0.573" stop-color="#BD80E1"/>
<stop offset="1" stop-color="#9857BD"/>
</linearGradient>
<clipPath id="clip0_59_3697">
<rect width="84" height="84" fill="white"/>
</clipPath>
</defs>
</svg>
