<svg width="140" height="73" viewBox="0 0 140 73" fill="none" xmlns="http://www.w3.org/2000/svg">
<path d="M7.0565 5.95683L3.52825 0L0 5.95683H7.0565Z" fill="#402AC7"/>
<path d="M20.3456 5.95683L16.8173 0L13.2891 5.95683H20.3456Z" fill="#402AC7"/>
<path d="M33.633 5.95683L30.1048 0L26.5918 5.95683H33.633Z" fill="#402AC7"/>
<path d="M46.9364 5.95683L43.4081 0L39.8799 5.95683H46.9364Z" fill="#402AC7"/>
<path d="M60.2235 5.95683L56.6952 0L53.167 5.95683H60.2235Z" fill="#402AC7"/>
<path d="M73.5282 5.95683L69.9999 0L66.4717 5.95683H73.5282Z" fill="#402AC7"/>
<path d="M86.8163 5.95683L83.288 0L79.7598 5.95683H86.8163Z" fill="#402AC7"/>
<path d="M100.105 5.95683L96.5765 0L93.0635 5.95683H100.105Z" fill="#402AC7"/>
<path d="M113.408 5.95683L109.88 0L106.352 5.95683H113.408Z" fill="#402AC7"/>
<path d="M126.697 5.95683L123.169 0L119.641 5.95683H126.697Z" fill="#402AC7"/>
<path d="M140 5.95683L136.472 0L132.943 5.95683H140Z" fill="#402AC7"/>
<path d="M7.0565 19.245L3.52825 13.3035L0 19.245H7.0565Z" fill="#402AC7"/>
<path d="M20.3456 19.245L16.8173 13.3035L13.2891 19.245H20.3456Z" fill="#402AC7"/>
<path d="M33.633 19.245L30.1048 13.3035L26.5918 19.245H33.633Z" fill="#402AC7"/>
<path d="M46.9364 19.245L43.4081 13.3035L39.8799 19.245H46.9364Z" fill="#402AC7"/>
<path d="M60.2235 19.245L56.6952 13.3035L53.167 19.245H60.2235Z" fill="#402AC7"/>
<path d="M73.5282 19.245L69.9999 13.3035L66.4717 19.245H73.5282Z" fill="#402AC7"/>
<path d="M86.8163 19.245L83.288 13.3035L79.7598 19.245H86.8163Z" fill="#402AC7"/>
<path d="M100.105 19.245L96.5765 13.3035L93.0635 19.245H100.105Z" fill="#402AC7"/>
<path d="M113.408 19.245L109.88 13.3035L106.352 19.245H113.408Z" fill="#402AC7"/>
<path d="M126.697 19.245L123.169 13.3035L119.641 19.245H126.697Z" fill="#402AC7"/>
<path d="M140 19.245L136.472 13.3035L132.943 19.245H140Z" fill="#402AC7"/>
<path d="M7.0565 32.5484L3.52825 26.5916L0 32.5484H7.0565Z" fill="#402AC7"/>
<path d="M20.3456 32.5486L16.8173 26.5918L13.2891 32.5486H20.3456Z" fill="#402AC7"/>
<path d="M33.633 32.5484L30.1048 26.5916L26.5918 32.5484H33.633Z" fill="#402AC7"/>
<path d="M46.9364 32.5486L43.4081 26.5918L39.8799 32.5486H46.9364Z" fill="#402AC7"/>
<path d="M60.2235 32.5486L56.6952 26.5918L53.167 32.5486H60.2235Z" fill="#402AC7"/>
<path d="M73.5282 32.5486L69.9999 26.5918L66.4717 32.5486H73.5282Z" fill="#402AC7"/>
<path d="M86.8163 32.5484L83.288 26.5916L79.7598 32.5484H86.8163Z" fill="#402AC7"/>
<path d="M100.105 32.5486L96.5765 26.5918L93.0635 32.5486H100.105Z" fill="#402AC7"/>
<path d="M113.408 32.5484L109.88 26.5916L106.352 32.5484H113.408Z" fill="#402AC7"/>
<path d="M126.697 32.5486L123.169 26.5918L119.641 32.5486H126.697Z" fill="#402AC7"/>
<path d="M140 32.5484L136.472 26.5916L132.943 32.5484H140Z" fill="#402AC7"/>
<path d="M7.0565 45.837L3.52825 39.8955L0 45.837H7.0565Z" fill="#402AC7"/>
<path d="M20.3456 45.8368L16.8173 39.8953L13.2891 45.8368H20.3456Z" fill="#402AC7"/>
<path d="M33.633 45.837L30.1048 39.8955L26.5918 45.837H33.633Z" fill="#402AC7"/>
<path d="M46.9364 45.8368L43.4081 39.8953L39.8799 45.8368H46.9364Z" fill="#402AC7"/>
<path d="M60.2235 45.8368L56.6952 39.8953L53.167 45.8368H60.2235Z" fill="#402AC7"/>
<path d="M73.5282 45.8368L69.9999 39.8953L66.4717 45.8368H73.5282Z" fill="#402AC7"/>
<path d="M86.8163 45.837L83.288 39.8955L79.7598 45.837H86.8163Z" fill="#402AC7"/>
<path d="M100.105 45.8368L96.5765 39.8953L93.0635 45.8368H100.105Z" fill="#402AC7"/>
<path d="M113.408 45.837L109.88 39.8955L106.352 45.837H113.408Z" fill="#402AC7"/>
<path d="M126.697 45.8368L123.169 39.8953L119.641 45.8368H126.697Z" fill="#402AC7"/>
<path d="M140 45.837L136.472 39.8955L132.943 45.837H140Z" fill="#402AC7"/>
<path d="M7.0565 59.1251L3.52825 53.1836L0 59.1251H7.0565Z" fill="#402AC7"/>
<path d="M20.3456 59.1251L16.8173 53.1836L13.2891 59.1251H20.3456Z" fill="#402AC7"/>
<path d="M33.633 59.1251L30.1048 53.1836L26.5918 59.1251H33.633Z" fill="#402AC7"/>
<path d="M46.9364 59.1251L43.4081 53.1836L39.8799 59.1251H46.9364Z" fill="#402AC7"/>
<path d="M60.2235 59.1251L56.6952 53.1836L53.167 59.1251H60.2235Z" fill="#402AC7"/>
<path d="M73.5282 59.1251L69.9999 53.1836L66.4717 59.1251H73.5282Z" fill="#402AC7"/>
<path d="M86.8163 59.1251L83.288 53.1836L79.7598 59.1251H86.8163Z" fill="#402AC7"/>
<path d="M100.105 59.1251L96.5765 53.1836L93.0635 59.1251H100.105Z" fill="#402AC7"/>
<path d="M113.408 59.1251L109.88 53.1836L106.352 59.1251H113.408Z" fill="#402AC7"/>
<path d="M126.697 59.1251L123.169 53.1836L119.641 59.1251H126.697Z" fill="#402AC7"/>
<path d="M140 59.1251L136.472 53.1836L132.943 59.1251H140Z" fill="#402AC7"/>
<path d="M7.0565 72.4285L3.52825 66.4717L0 72.4285H7.0565Z" fill="#402AC7"/>
<path d="M20.3456 72.4287L16.8173 66.4719L13.2891 72.4287H20.3456Z" fill="#402AC7"/>
<path d="M33.633 72.4285L30.1048 66.4717L26.5918 72.4285H33.633Z" fill="#402AC7"/>
<path d="M46.9364 72.4287L43.4081 66.4719L39.8799 72.4287H46.9364Z" fill="#402AC7"/>
<path d="M60.2235 72.4287L56.6952 66.4719L53.167 72.4287H60.2235Z" fill="#402AC7"/>
<path d="M73.5282 72.4287L69.9999 66.4719L66.4717 72.4287H73.5282Z" fill="#402AC7"/>
<path d="M86.8163 72.4285L83.288 66.4717L79.7598 72.4285H86.8163Z" fill="#402AC7"/>
<path d="M100.105 72.4287L96.5765 66.4719L93.0635 72.4287H100.105Z" fill="#402AC7"/>
<path d="M113.408 72.4285L109.88 66.4717L106.352 72.4285H113.408Z" fill="#402AC7"/>
<path d="M126.697 72.4287L123.169 66.4719L119.641 72.4287H126.697Z" fill="#402AC7"/>
<path d="M140 72.4285L136.472 66.4717L132.943 72.4285H140Z" fill="#402AC7"/>
</svg>
