<svg width="156" height="166" viewBox="0 0 156 166" fill="none" xmlns="http://www.w3.org/2000/svg">
<g clip-path="url(#clip0_59_3713)">
<path d="M63.8053 40.5378L7.0687 110.709C7.0687 110.709 0.19017 119.961 5.10381 127.647C8.62361 132.708 17.7205 128.621 17.7205 128.621L83.6756 98.555C83.6756 98.555 90.2619 96.9568 82.8319 85.3287C75.4055 73.6896 66.6267 60.8801 66.6267 60.8801L74.1821 50.9676C74.1857 50.9565 68.2199 47.7694 63.8053 40.5378Z" fill="#558798"/>
<path d="M65.5789 43.0054L8.84232 113.177C8.84232 113.177 1.17327 121.33 6.08692 129.016C9.60671 134.076 18.7036 129.99 18.7036 129.99L84.6587 99.9238C84.6587 99.9238 91.245 98.3257 83.815 86.6976C76.3886 75.0585 67.6099 62.249 67.6099 62.249L75.1688 52.3254C75.1688 52.3254 69.2066 49.1272 65.5789 43.0054Z" fill="#9691C2"/>
<path d="M70.0564 67.6105C78.759 78.3179 88.1578 90.6801 88.1578 90.6801L99.9142 86.5861C99.9142 86.5861 101.07 93.2654 105.748 98.627L21.5372 130.723C21.5372 130.723 11.4188 135.481 5.67378 128.406C1.97895 123.472 8.6968 116.075 8.6968 116.075L57.781 62.6771C57.781 62.6771 61.3538 56.9031 70.0564 67.6105ZM65.7026 80.9286C66.9829 82.6989 69.4404 83.09 71.2089 81.8042C72.9739 80.5295 73.3715 78.0551 72.1022 76.2883C70.8329 74.5215 68.3644 74.1269 66.5959 75.4127C64.8274 76.6985 64.4333 79.1618 65.7026 80.9286Z" fill="#558798"/>
<path d="M71.6059 69.5289C79.8453 79.6711 88.7324 91.3913 88.7324 91.3913L100.337 87.126C100.337 87.126 101.293 93.5573 105.734 98.6345L59.492 117.109C45.8868 116.365 32.5172 113.082 20.3773 107.24L59.727 65.0658C59.7234 65.0768 63.3776 59.3902 71.6059 69.5289ZM67.1761 82.9691C68.4454 84.7358 70.9139 85.1305 72.6824 83.8447C74.451 82.5589 74.845 80.0955 73.5647 78.3252C72.2954 76.5584 69.8379 76.1673 68.0619 77.4385C66.3008 78.739 65.9032 81.2134 67.1761 82.9691Z" fill="#ADA7CF"/>
<path d="M59.5 117.124L22.4832 131.909C22.4832 131.909 12.4501 136.78 7.01263 130.073C3.529 125.391 10.2841 118.067 10.2841 118.067L20.3743 107.251C32.5142 113.094 45.8873 116.365 59.5 117.124Z" fill="#9691C2"/>
<path d="M132.052 70.8351C138.801 79.1391 137.542 91.3679 129.234 98.1409C120.937 104.918 108.736 103.674 101.987 95.3702C95.2377 87.0662 96.497 74.8374 104.805 68.0644C113.102 61.2878 125.302 62.531 132.052 70.8351ZM108.982 73.2029C103.52 77.6575 102.699 85.7019 107.136 91.1688C111.572 96.6356 119.598 97.4459 125.06 92.9913C130.508 88.5443 131.343 80.4923 126.903 75.0365C122.466 69.5697 114.444 68.7484 108.982 73.2029Z" fill="#63ADBB"/>
<path d="M70.4406 16.6903C79.4536 10.9028 91.4273 13.5269 97.1885 22.5503C102.95 31.5737 100.313 43.5771 91.3108 49.368C82.2977 55.1554 70.324 52.5314 64.5593 43.5191C58.7906 34.4811 61.4275 22.4777 70.4406 16.6903ZM70.1384 39.9089C73.9223 45.8491 81.8018 47.5652 87.7241 43.7604C93.65 39.9446 95.382 32.0603 91.5981 26.1201C87.8106 20.191 79.9347 18.4639 73.9977 22.2761C68.0754 26.0808 66.3509 33.9798 70.1384 39.9089Z" fill="#63ADBB"/>
<path d="M134.208 72.3872C140.957 80.6913 139.698 92.92 131.39 99.693C123.093 106.47 110.892 105.226 104.147 96.9113C97.3974 88.6072 98.6567 76.3785 106.965 69.6054C115.269 62.8435 127.458 64.0831 134.208 72.3872ZM111.149 74.7586C105.687 79.2132 104.866 87.2576 109.292 92.7209C113.728 98.1877 121.754 98.998 127.216 94.5434C132.678 90.0889 133.499 82.0444 129.063 76.5776C124.623 71.1218 116.6 70.3005 111.149 74.7586Z" fill="#7DBEAF"/>
<path d="M72.5968 18.2424C81.6099 12.455 93.5836 15.079 99.3448 24.1024C105.106 33.1258 102.469 45.1292 93.456 50.9166C84.443 56.704 72.4692 54.08 66.7081 45.0566C60.9579 36.0368 63.5838 24.0298 72.5968 18.2424ZM72.291 41.4721C76.0785 47.4012 83.9545 49.1284 89.8878 45.3272C95.8137 41.5114 97.5457 33.627 93.7618 27.6868C89.9743 21.7577 82.0874 20.027 76.165 23.8318C70.2427 27.6365 68.5071 35.5319 72.291 41.4721Z" fill="#7DBEAF"/>
</g>
<defs>
<clipPath id="clip0_59_3713">
<rect width="119" height="136" fill="white" transform="matrix(-0.951523 -0.307578 -0.307578 0.951523 155.062 36.6018)"/>
</clipPath>
</defs>
</svg>
