<svg width="171" height="169" viewBox="0 0 171 169" fill="none" xmlns="http://www.w3.org/2000/svg">
<path d="M100.062 124.762L43.9798 100.057L70.69 43.9753L126.772 68.6801L100.062 124.762ZM50.1227 97.7291L97.8824 118.768L120.629 71.0082L72.8692 49.9694L50.1227 97.7291Z" fill="#FF3276"/>
<path d="M93.1058 105.629L63.588 92.6263L77.6465 63.1086L107.164 76.1116L93.1058 105.629ZM68.7163 90.6828L91.2865 100.625L102.036 78.0551L79.4658 68.1126L68.7163 90.6828Z" fill="#FF3276"/>
<path d="M106.725 143.093L25.2125 107.185L64.0346 25.6725L145.561 61.5748L106.725 143.093ZM30.4044 105.202L104.858 138L140.332 63.5413L65.8597 30.7351L30.4044 105.202Z" fill="#FF3276"/>
</svg>
