<svg width="99" height="100" viewBox="0 0 99 100" fill="none" xmlns="http://www.w3.org/2000/svg">
<path d="M80.5837 10.9166C80.167 10.5833 79.7504 10.2499 79.3337 9.91659L9.91699 79.3333C10.2503 79.75 10.5837 80.1666 10.917 80.5833L80.5837 10.9166Z" fill="#8779DE"/>
<path d="M63.5837 1.99984C63.0004 1.83317 62.417 1.66651 61.8337 1.49984L1.41699 61.9166C1.58366 62.4999 1.75033 63.0832 1.917 63.6666L63.5837 1.99984Z" fill="#8779DE"/>
<path d="M75.5004 7.33317C75.0004 7.08317 74.5837 6.74983 74.0837 6.49983L6.41699 74.1666C6.66699 74.6666 6.91699 75.0832 7.25033 75.5832L75.5004 7.33317Z" fill="#8779DE"/>
<path d="M69.917 4.33326C69.417 4.08326 68.9171 3.91659 68.3337 3.66659L3.66699 68.3333C3.91699 68.8333 4.08365 69.3333 4.33365 69.9166L69.917 4.33326Z" fill="#8779DE"/>
<path d="M56.4994 0.499837C55.8327 0.416503 55.1661 0.333167 54.4994 0.249834L0.166016 54.5832C0.249349 55.2499 0.332698 55.9165 0.416031 56.5832L56.4994 0.499837Z" fill="#8779DE"/>
<path d="M84.4997 14.5002C84.3331 14.3335 84.1664 14.1668 83.9164 13.9168L13.833 84.0003C13.9997 84.1669 14.1663 84.3336 14.4163 84.5836C14.583 84.7503 14.7497 84.9169 14.9997 85.1669L85.0831 15.0835C84.9164 14.8335 84.7497 14.6668 84.4997 14.5002Z" fill="#8779DE"/>
<path d="M48.4167 0C47.6667 0 46.8334 0.0833353 46.0834 0.0833353L0.0833385 46.0834C5.08503e-06 46.8334 0 47.6667 0 48.4167L48.4167 0Z" fill="#8779DE"/>
<path d="M1.16602 38.6667L38.5827 1.25C37.5827 1.5 36.5827 1.75001 35.5827 2.00001L1.91601 35.6667C1.58268 36.6667 1.33268 37.6667 1.16602 38.6667Z" fill="#8779DE"/>
<path d="M98.9167 52.9169C99 52.1669 99 51.3335 99 50.5835L50.5 99.0836C51.25 99.0836 52.0833 99.0003 52.8333 99.0003L98.9167 52.9169Z" fill="#8779DE"/>
<path d="M98.7504 44.4166C98.667 43.75 98.5837 43.0833 98.5004 42.4166L42.417 98.5833C43.0837 98.6667 43.7503 98.75 44.417 98.8333L98.7504 44.4166Z" fill="#8779DE"/>
<path d="M24.333 6.83352C20.833 8.91685 17.4997 11.5002 14.4997 14.5002C11.4997 17.5002 8.91634 20.8335 6.83301 24.3335L24.333 6.83352Z" fill="#8779DE"/>
<path d="M97.0837 63.4167C97.3337 62.4167 97.5837 61.4167 97.8337 60.4167L60.417 97.8334C61.417 97.5834 62.417 97.3334 63.417 97.0834L97.0837 63.4167Z" fill="#8779DE"/>
<path d="M74.667 92.2502C78.167 90.1669 81.5003 87.5836 84.5003 84.5836C87.5003 81.5836 90.0837 78.2502 92.167 74.7502L74.667 92.2502Z" fill="#8779DE"/>
<path d="M92.5004 24.9169C92.2504 24.4169 92.0004 24.0002 91.6671 23.5002L23.417 91.7502C23.917 92.0002 24.3336 92.3336 24.8336 92.5836L92.5004 24.9169Z" fill="#8779DE"/>
<path d="M89.0837 19.6668C88.7504 19.2501 88.417 18.8334 88.0837 18.4168L18.417 88.0835C18.8337 88.4168 19.2503 88.7502 19.667 89.0835L89.0837 19.6668Z" fill="#8779DE"/>
<path d="M97.4997 37.1667C97.3331 36.5834 97.1664 36 96.9997 35.4167L35.333 97.0834C35.9163 97.2501 36.4997 97.4167 37.083 97.5834L97.4997 37.1667Z" fill="#8779DE"/>
<path d="M95.3331 30.6666C95.0831 30.1666 94.9164 29.6666 94.6664 29.0833L29.083 94.6667C29.583 94.9167 30.083 95.0833 30.6663 95.3333L95.3331 30.6666Z" fill="#8779DE"/>
</svg>
