<svg width="126" height="126" viewBox="0 0 126 126" fill="none" xmlns="http://www.w3.org/2000/svg">
<g clip-path="url(#clip0_59_4427)">
<path d="M67.0451 70.0057C64.4285 71.5164 63.5614 74.7523 65.0721 77.3689L67.7672 82.0369C69.2779 84.6536 72.5138 85.5206 75.1304 84.0099C77.747 82.4992 78.6141 79.2633 77.1034 76.6467L74.4083 71.9786C72.8976 69.362 69.6617 68.495 67.0451 70.0057ZM58.9598 56.0015C61.5764 54.4908 62.4434 51.2549 60.9327 48.6383L58.2376 43.9702C56.7269 41.3536 53.491 40.4866 50.8744 41.9973C48.2578 43.508 47.3908 46.7438 48.9015 49.3604L51.5966 54.0285C53.1073 56.6451 56.343 57.5123 58.9598 56.0015ZM1.27463 46.4637C0.971469 47.4478 1.29633 48.4424 2.01534 49.1481L34.9006 79.2282L44.5079 122.748C44.7597 123.723 45.4585 124.502 46.4623 124.731L64.4466 87.0662L63.0023 63.0037L35.5222 47.7486L1.27463 46.4637ZM91.1042 46.779L81.4967 3.25947C81.245 2.28406 80.5462 1.50533 79.5423 1.2758L61.5581 38.9411L63.0024 63.0036L83.119 76.2856L124.73 79.5435C125.033 78.5593 124.709 77.5647 123.989 76.8591L91.1042 46.779Z" fill="url(#paint0_linear_59_4427)"/>
<path d="M76.8575 2.01651L46.7773 34.9016L3.25788 44.5093C2.28247 44.761 1.50374 45.4598 1.2742 46.4637L63.002 63.0036L79.5419 1.2758C78.5576 0.972479 77.5631 1.29749 76.8575 2.01651ZM58.5982 49.9858C59.353 51.2931 58.919 52.9127 57.6118 53.6674C56.3045 54.4222 54.6849 53.9882 53.9302 52.681L51.2351 48.0129C50.4803 46.7057 50.9143 45.086 52.2215 44.3313C53.5288 43.5766 55.1484 44.0106 55.9031 45.3178L58.5982 49.9858ZM46.4621 124.731C47.4193 124.988 48.4408 124.71 49.1465 123.991L79.2266 91.1054L122.746 81.4979C123.688 81.1794 124.497 80.6413 124.73 79.5435L63.002 63.0036L46.4621 124.731ZM72.0738 73.3262L74.7689 77.9943C75.5236 79.3015 75.0897 80.9211 73.7824 81.6759C72.4752 82.4306 70.8556 81.9966 70.1008 80.6894L67.4057 76.0213C66.651 74.7141 67.085 73.0944 68.3922 72.3397C69.6994 71.585 71.3191 72.019 72.0738 73.3262ZM52.6794 72.0754C53.9695 71.3306 54.4107 69.6839 53.6658 68.3938C52.921 67.1037 51.2744 66.6625 49.9843 67.4073L45.3162 70.1024C44.0261 70.8473 43.5849 72.4939 44.3297 73.784C45.0745 75.0741 46.7212 75.5154 48.0113 74.7705L52.6794 72.0754ZM73.3246 53.9318C72.0345 54.6766 71.5933 56.3233 72.3381 57.6134C73.083 58.9035 74.7296 59.3447 76.0197 58.5998L80.6878 55.9047C81.9779 55.1599 82.4191 53.5132 81.6743 52.2231C80.9294 50.933 79.2828 50.4918 77.9927 51.2367L73.3246 53.9318Z" fill="url(#paint1_linear_59_4427)"/>
</g>
<defs>
<linearGradient id="paint0_linear_59_4427" x1="85.5963" y1="102.137" x2="40.4085" y2="23.8697" gradientUnits="userSpaceOnUse">
<stop stop-color="#C3FFE8"/>
<stop offset="0.997" stop-color="#F0FFF4"/>
</linearGradient>
<linearGradient id="paint1_linear_59_4427" x1="85.9978" y1="102.833" x2="40.002" y2="23.1664" gradientUnits="userSpaceOnUse">
<stop stop-color="#00B59C"/>
<stop offset="1" stop-color="#9CFFAC"/>
</linearGradient>
<clipPath id="clip0_59_4427">
<rect width="92" height="92" fill="white" transform="translate(0.163086 46.1628) rotate(-30)"/>
</clipPath>
</defs>
</svg>
