<svg width="1920" height="508" viewBox="0 0 1920 508" fill="none" xmlns="http://www.w3.org/2000/svg">
<path opacity="0.5" d="M0 152.766C0 152.766 228.608 27.8384 731.136 284.094C999.68 421.054 1130.24 266.686 1259.26 266.942C1453.82 267.454 1560.58 465.854 1920 240.574M0 175.038C0 175.038 242.944 17.5984 740.864 268.222C1019.39 407.23 1138.43 282.046 1273.34 281.278C1469.7 280.766 1583.1 456.126 1920 244.926M0 197.311C0 197.311 256.256 8.89456 750.336 252.351C1038.34 394.431 1146.37 296.895 1287.17 295.359C1485.31 293.311 1605.38 446.399 1919.74 249.279M0 219.326C0 219.326 270.336 -1.08992 760.064 236.478C1058.05 380.862 1154.56 311.998 1301.25 309.438C1501.18 306.11 1627.9 436.414 1919.74 253.374M0 241.599C0 241.599 284.16 -11.0733 769.792 220.607C1077.76 367.295 1162.5 327.103 1315.33 323.519C1517.06 318.911 1650.43 426.687 1920 257.727M0 263.87C0 263.87 298.24 -21.0578 779.52 204.734C1097.22 353.726 1170.69 342.206 1329.41 337.854C1532.93 331.966 1672.96 416.958 1920 262.078M0 285.886C0 285.886 312.576 -31.5537 789.248 188.606C1116.93 339.902 1178.88 357.31 1343.49 351.678C1548.8 344.766 1695.23 406.718 1920 265.918M0 308.159C0 308.159 326.656 -41.7934 798.976 172.735C1136.9 326.335 1187.07 372.415 1357.57 365.759C1564.67 357.823 1717.76 396.991 1920 270.271M0 330.43C0 330.43 340.992 -52.2896 808.448 156.862C1156.35 312.51 1195.01 387.774 1371.39 380.094C1580.54 370.878 1740.03 387.262 1920 274.622M0 352.446C0 352.446 355.328 -63.0417 818.176 140.734C1176.06 298.43 1203.2 402.622 1385.47 393.918C1596.42 383.678 1762.56 377.278 1920 278.718M0 374.719C0 374.719 369.664 -73.7935 827.904 124.863C1195.78 284.351 1211.14 417.983 1399.55 407.999C1612.29 396.735 1785.09 367.295 1920 282.815M0 396.991C0 396.991 384 -84.5455 837.632 108.99C1216 270.27 1219.58 433.342 1413.63 422.334C1628.16 410.046 1807.62 357.822 1920 287.422M0 419.006C0 419.006 398.336 -95.5535 847.36 92.8624C1235.71 255.934 1227.78 448.446 1427.71 436.158C1644.03 422.846 1830.14 347.582 1920 291.262M0 441.279C0 441.279 412.928 -106.561 856.832 76.9906C1255.42 241.599 1235.71 464.063 1441.54 450.239C1659.65 436.415 1852.42 337.855 1920 295.615M0 463.55C0 463.55 427.264 -117.314 866.56 61.1181C1275.39 227.262 1243.9 479.166 1455.62 464.318C1675.52 449.47 1874.94 327.87 1920 299.71M0 485.566C0 485.566 442.112 -129.346 876.288 44.9901C1295.87 211.902 1251.84 494.27 1469.7 478.398C1691.39 462.526 1897.47 318.142 1920 304.062M0 507.838C0 507.838 456.448 -139.842 886.016 29.1183C1315.58 198.078 1260.29 509.63 1483.78 492.478C1707.26 475.326 1920 308.158 1920 308.158" stroke="white" stroke-width="0.5" stroke-miterlimit="10"/>
</svg>
