<svg width="176" height="174" viewBox="0 0 176 174" fill="none" xmlns="http://www.w3.org/2000/svg">
<g opacity="0.3">
<path d="M85.9817 17.9265C90.4558 22.0004 91.215 29.7522 88.2571 39.4267C85.3241 49.02 78.8248 60.1397 69.4198 70.4684C60.0149 80.7971 49.551 88.3068 40.2736 92.1232C30.9177 95.9719 23.129 95.9402 18.6549 91.8663C14.1807 87.7923 13.4216 80.0406 16.3794 70.3661C19.3124 60.7727 25.8118 49.653 35.2167 39.3243C44.6216 28.9956 55.0855 21.4859 64.3629 17.6695C73.7188 13.8208 81.5076 13.8525 85.9817 17.9265Z" stroke="white" stroke-width="2"/>
<path d="M103.823 34.1718C108.297 38.2458 109.056 45.9975 106.098 55.672C103.165 65.2654 96.6656 76.3851 87.2607 86.7138C77.8557 97.0425 67.3918 104.552 58.1144 108.369C48.7586 112.217 40.9698 112.186 36.4957 108.112C32.0216 104.038 31.2624 96.2859 34.2202 86.6114C37.1532 77.0181 43.6526 65.8984 53.0575 55.5697C62.4625 45.241 72.9263 37.7313 82.2038 33.9149C91.5596 30.0662 99.3484 30.0979 103.823 34.1718Z" stroke="white" stroke-width="2"/>
<path d="M121.663 50.4169C126.137 54.4909 126.897 62.2427 123.939 71.9171C121.006 81.5105 114.506 92.6302 105.101 102.959C95.6965 113.288 85.2327 120.797 75.9552 124.614C66.5994 128.462 58.8106 128.431 54.3365 124.357C49.8624 120.283 49.1032 112.531 52.061 102.857C54.9941 93.2632 61.4934 82.1435 70.8984 71.8148C80.3033 61.4861 90.7672 53.9764 100.045 50.16C109.4 46.3113 117.189 46.343 121.663 50.4169Z" stroke="white" stroke-width="2"/>
<path d="M139.505 66.6623C143.979 70.7363 144.738 78.488 141.78 88.1625C138.847 97.7559 132.348 108.876 122.943 119.204C113.538 129.533 103.074 137.043 93.7966 140.859C84.4407 144.708 76.6519 144.676 72.1778 140.602C67.7037 136.528 66.9445 128.776 69.9024 119.102C72.8354 109.509 79.3347 98.3889 88.7397 88.0602C98.1446 77.7315 108.608 70.2217 117.886 66.4053C127.242 62.5567 135.031 62.5883 139.505 66.6623Z" stroke="white" stroke-width="2"/>
<path d="M157.345 82.9077C161.82 86.9816 162.579 94.7334 159.621 104.408C156.688 114.001 150.189 125.121 140.784 135.45C131.379 145.778 120.915 153.288 111.637 157.104C102.282 160.953 94.4927 160.921 90.0186 156.847C85.5445 152.774 84.7854 145.022 87.7432 135.347C90.6762 125.754 97.1755 114.634 106.58 104.306C115.985 93.9768 126.449 86.4671 135.727 82.6507C145.083 78.802 152.871 78.8337 157.345 82.9077Z" stroke="white" stroke-width="2"/>
</g>
</svg>
