<svg width="176" height="187" viewBox="0 0 176 187" fill="none" xmlns="http://www.w3.org/2000/svg">
<g opacity="0.3">
<mask id="path-1-inside-1_12_1459" fill="white">
<path fill-rule="evenodd" clip-rule="evenodd" d="M95.5778 10C95.5778 4.47716 100.055 0 105.578 0H165.721C171.243 0 175.721 4.47715 175.721 10V70.1429C175.721 75.6657 171.243 80.1429 165.721 80.1429H127.635V61.6476C127.635 56.1248 123.158 51.6476 117.635 51.6476H95.5778V10ZM47.4921 106.857V61.6476C47.4921 56.1248 51.9692 51.6476 57.4921 51.6476H95.5778V70.1429C95.5778 75.6657 100.055 80.1429 105.578 80.1429H127.635V121.79C127.635 127.313 123.158 131.79 117.635 131.79H80.1429V116.857C80.1429 111.334 75.6657 106.857 70.1429 106.857H47.4921ZM47.4921 106.857V121.79C47.4921 127.313 51.9692 131.79 57.4921 131.79H80.1429V177C80.1429 182.523 75.6657 187 70.1429 187H10C4.47716 187 0 182.523 0 177V116.857C0 111.334 4.47715 106.857 10 106.857H47.4921Z"/>
</mask>
<path d="M105.578 -2C98.9504 -2 93.5778 3.37259 93.5778 10H97.5778C97.5778 5.58173 101.159 2 105.578 2V-2ZM165.721 -2H105.578V2H165.721V-2ZM177.721 10C177.721 3.37258 172.348 -2 165.721 -2V2C170.139 2 173.721 5.58173 173.721 10H177.721ZM177.721 70.1429V10H173.721V70.1429H177.721ZM165.721 82.1429C172.348 82.1429 177.721 76.7703 177.721 70.1429H173.721C173.721 74.5611 170.139 78.1429 165.721 78.1429V82.1429ZM127.635 82.1429H165.721V78.1429H127.635V82.1429ZM129.635 80.1429V61.6476H125.635V80.1429H129.635ZM129.635 61.6476C129.635 55.0202 124.262 49.6476 117.635 49.6476V53.6476C122.053 53.6476 125.635 57.2293 125.635 61.6476H129.635ZM117.635 49.6476H95.5778V53.6476H117.635V49.6476ZM93.5778 10V51.6476H97.5778V10H93.5778ZM45.4921 61.6476V106.857H49.4921V61.6476H45.4921ZM57.4921 49.6476C50.8646 49.6476 45.4921 55.0202 45.4921 61.6476H49.4921C49.4921 57.2293 53.0738 53.6476 57.4921 53.6476V49.6476ZM95.5778 49.6476H57.4921V53.6476H95.5778V49.6476ZM93.5778 51.6476V70.1429H97.5778V51.6476H93.5778ZM93.5778 70.1429C93.5778 76.7703 98.9504 82.1429 105.578 82.1429V78.1429C101.16 78.1429 97.5778 74.5611 97.5778 70.1429H93.5778ZM105.578 82.1429H127.635V78.1429H105.578V82.1429ZM129.635 121.79V80.1429H125.635V121.79H129.635ZM117.635 133.79C124.262 133.79 129.635 128.418 129.635 121.79H125.635C125.635 126.209 122.053 129.79 117.635 129.79V133.79ZM80.1429 133.79H117.635V129.79H80.1429V133.79ZM78.1429 116.857V131.79H82.1429V116.857H78.1429ZM70.1429 108.857C74.5611 108.857 78.1429 112.439 78.1429 116.857H82.1429C82.1429 110.23 76.7703 104.857 70.1429 104.857V108.857ZM47.4921 108.857H70.1429V104.857H47.4921V108.857ZM45.4921 106.857V121.79H49.4921V106.857H45.4921ZM45.4921 121.79C45.4921 128.418 50.8647 133.79 57.4921 133.79V129.79C53.0738 129.79 49.4921 126.209 49.4921 121.79H45.4921ZM57.4921 133.79H80.1429V129.79H57.4921V133.79ZM78.1429 131.79V177H82.1429V131.79H78.1429ZM78.1429 177C78.1429 181.418 74.5611 185 70.1429 185V189C76.7703 189 82.1429 183.627 82.1429 177H78.1429ZM70.1429 185H10V189H70.1429V185ZM10 185C5.58173 185 2 181.418 2 177H-2C-2 183.627 3.37259 189 10 189V185ZM2 177V116.857H-2V177H2ZM2 116.857C2 112.439 5.58172 108.857 10 108.857V104.857C3.37258 104.857 -2 110.23 -2 116.857H2ZM10 108.857H47.4921V104.857H10V108.857Z" fill="white" mask="url(#path-1-inside-1_12_1459)"/>
</g>
</svg>
