<svg width="84" height="84" viewBox="0 0 84 84" fill="none" xmlns="http://www.w3.org/2000/svg">
<path d="M53.8125 60.375V55.125C58.4288 55.1249 62.9712 56.2843 67.0228 58.4968L70.1728 55.8652L68.4469 52.1653C65.7242 46.3344 64.313 39.9775 64.3125 33.5422C64.3124 28.8729 62.4575 24.3949 59.1557 21.0932C53.2132 15.151 45.1537 11.8126 36.75 11.8125C28.3463 11.8126 20.2868 15.151 14.3443 21.0932L13.125 22.3125V31.5L42 60.375H53.8125Z" fill="#C52C37"/>
<path d="M70.1701 55.8652L68.4442 52.1653C65.7224 46.3342 64.3121 39.9773 64.3124 33.5422C64.3123 28.8729 62.4574 24.3949 59.1556 21.0932C55.6128 17.5547 51.2817 14.9063 46.5175 13.3652C45.2526 13.2081 43.9793 13.1278 42.7047 13.125C42.0692 13.1291 41.4348 13.1804 40.8068 13.2786C28.6846 15.1003 23.8507 30.072 32.1443 39.1046C38.5493 46.0924 46.4624 53.8125 53.8124 58.5231V55.125C58.4287 55.1249 62.9711 56.2843 67.0227 58.4968L70.1701 55.8652Z" fill="#ED4241"/>
<path d="M53.8125 60.375L51.1875 72.1875C39.806 70.2253 29.2176 65.0654 20.659 57.3104C12.1004 49.5555 5.92478 39.5255 2.85338 28.392L2.625 27.5625L13.125 22.3125L14.4441 24.8312C22.9102 40.9934 36.8721 53.599 53.8125 60.375Z" fill="#C1CFE8"/>
<path d="M55.1251 55.1252H52.5001V51.6143C52.5017 46.257 51.6383 40.9346 49.9434 35.8524L52.4371 35.0229C54.2207 40.3726 55.1284 45.9752 55.1251 51.6143V55.1252Z" fill="#C52C37"/>
<path d="M73.5 70.875C77.8492 70.875 81.375 67.3492 81.375 63C81.375 58.6508 77.8492 55.125 73.5 55.125C69.1508 55.125 65.625 58.6508 65.625 63C65.625 67.3492 69.1508 70.875 73.5 70.875Z" fill="#C1CFE8"/>
<path d="M13.1248 22.3125L2.89648 27.4312C6.05571 36.276 11.2185 44.2698 17.9811 50.7874C24.7436 57.3049 32.9225 62.1694 41.8777 65.0002C42.8791 65.3147 43.9349 65.4176 44.9782 65.3025C46.0214 65.1874 47.0294 64.8567 47.9381 64.3315C48.8468 63.8063 49.6365 63.098 50.2571 62.2516C50.8776 61.4051 51.3155 60.4389 51.543 59.4143C35.6047 52.4393 22.5192 40.2412 14.4439 24.8312L13.1248 22.3125ZM73.4998 55.125C72.0547 55.1254 70.6379 55.5256 69.4061 56.2813C68.4852 57.7873 68.0976 59.5593 68.3059 61.3123C68.5142 63.0652 69.3062 64.6971 70.5545 65.9453C71.8027 67.1936 73.4346 67.9856 75.1875 68.1939C76.9405 68.4022 78.7125 68.0146 80.2185 67.0937C80.9482 65.9009 81.3467 64.5351 81.373 63.137C81.3992 61.7389 81.0522 60.3591 80.3677 59.1398C79.6832 57.9205 78.686 56.9057 77.4788 56.2C76.2716 55.4943 74.8981 55.1232 73.4998 55.125Z" fill="#D7E0EF"/>
</svg>
