<svg width="81" height="81" viewBox="0 0 81 81" fill="none" xmlns="http://www.w3.org/2000/svg">
<path d="M55.0952 81C40.8171 81 29.1904 69.3733 29.1904 55.0952C29.1904 40.8171 40.8171 29.1904 55.0952 29.1904C69.3733 29.1904 81 40.8171 81 55.0952C81 69.3885 69.3733 81 55.0952 81ZM55.0952 41.3809C47.5371 41.3809 41.3809 47.5371 41.3809 55.0952C41.3809 62.6533 47.5371 68.8095 55.0952 68.8095C62.6533 68.8095 68.8095 62.6533 68.8095 55.0952C68.8095 47.5371 62.6533 41.3809 55.0952 41.3809Z" fill="black"/>
<path d="M26.9048 52.8095C12.6267 52.8095 1 41.1829 1 26.9048C1 12.6267 12.6267 1 26.9048 1C41.1829 1 52.8095 12.6267 52.8095 26.9048C52.8095 41.1981 41.1829 52.8095 26.9048 52.8095ZM26.9048 13.1905C19.3467 13.1905 13.1905 19.3467 13.1905 26.9048C13.1905 34.4629 19.3467 40.619 26.9048 40.619C34.4629 40.619 40.619 34.4629 40.619 26.9048C40.619 19.3467 34.4629 13.1905 26.9048 13.1905Z" stroke="#FFAF00" stroke-width="2" stroke-miterlimit="10"/>
</svg>
