<svg width="84" height="84" viewBox="0 0 84 84" fill="none" xmlns="http://www.w3.org/2000/svg">
<g clip-path="url(#clip0_29_6306)">
<path d="M43.2628 58.6934L31.5061 60.0214L30.1611 65.6353L42.2194 66.6686L53.3561 65.6353L51.7878 59.8725L43.2628 58.6934Z" fill="#D16752"/>
<path d="M58.5015 50.5068L51.5705 60.0213H31.5061L24.7994 50.7354C19.8833 43.9294 19.4495 34.8638 23.6931 27.6208L27.7837 20.6399L41.981 19.481L54.7989 20.6399L58.8106 27.3819C63.1029 34.5983 63.374 43.6689 58.5015 50.5068Z" fill="#E07A69"/>
<path d="M54.2102 65.6353L52.2823 66.4788L49.1663 65.6353L47.8213 60.0214L52.0449 58.6934L52.8652 60.0214L54.2102 65.6353Z" fill="#BE563D"/>
<path d="M59.6446 50.5069L52.8655 60.0214H47.8216L54.6006 50.5069C59.4731 43.6689 59.848 34.5984 55.5557 27.3821L51.544 20.6401L54.799 19.4812L56.5879 20.6401L60.5996 27.3821C64.892 34.5984 64.5169 43.6689 59.6446 50.5069ZM41.4658 43.3167H32.2493C31.9148 43.3167 31.5941 43.1838 31.3576 42.9474C31.1211 42.7109 30.9883 42.3901 30.9883 42.0557C30.9883 41.7213 31.1211 41.4005 31.3576 41.1641C31.5941 40.9276 31.9148 40.7947 32.2493 40.7947H41.4658C41.8002 40.7947 42.121 40.9276 42.3575 41.1641C42.5939 41.4005 42.7268 41.7213 42.7268 42.0557C42.7268 42.3901 42.5939 42.7109 42.3575 42.9474C42.121 43.1838 41.8002 43.3167 41.4658 43.3167ZM43.5896 35.6948H33.0419C32.7074 35.6948 32.3867 35.562 32.1502 35.3255C31.9137 35.089 31.7809 34.7683 31.7809 34.4339C31.7809 34.0994 31.9137 33.7787 32.1502 33.5422C32.3867 33.3057 32.7074 33.1729 33.0419 33.1729H43.5896C43.924 33.1729 44.2448 33.3057 44.4812 33.5422C44.7177 33.7787 44.8506 34.0994 44.8506 34.4339C44.8506 34.7683 44.7177 35.089 44.4812 35.3255C44.2448 35.562 43.924 35.6948 43.5896 35.6948ZM39.342 50.9387H32.4668C32.4668 50.9387 30.9883 50.3742 30.9883 49.6777C30.9883 48.9813 31.5528 48.4167 32.2493 48.4167H39.342C39.6764 48.4167 39.9972 48.5496 40.2337 48.7861C40.4701 49.0226 40.603 49.3433 40.603 49.6777C40.603 50.0122 40.4701 50.3329 40.2337 50.5694C39.9972 50.8059 39.6764 50.9387 39.342 50.9387Z" fill="#D16752"/>
<path d="M0 0.959177V20.3138C0 20.403 0.023625 20.4908 0.0687422 20.5679L5.69133 30.2086C6.3028 31.2569 7.26971 32.0514 8.41673 32.448C9.49631 32.821 10.5438 33.2809 11.549 33.8234C12.5546 34.3642 13.5144 34.9861 14.419 35.6828C16.2805 37.1144 18.1042 38.5945 19.8883 40.1216C21.6715 41.6495 23.4145 43.2237 25.1155 44.8426L30.8236 50.2765C32.3418 51.7224 34.852 50.6447 34.852 48.5498C34.8519 47.3704 34.6099 46.2036 34.1408 45.1215C34.027 44.8586 33.9002 44.6016 33.7608 44.3514C33.7608 44.3514 32.0652 43.1918 31.4089 42.5763L31.0254 41.2277C32.5789 42.3374 34.852 41.2495 34.852 39.2336C34.8524 38.1678 34.6392 37.1127 34.2251 36.1306C33.8111 35.1484 33.2044 34.2592 32.4411 33.5154L19.5218 20.9257C17.4269 18.883 17.1949 16.7577 18.1145 14.5468C19.014 12.3863 21.114 11.0413 23.3669 11.0413C23.5554 11.0178 23.9539 11.07 24.3892 11.1501C24.9165 11.2469 26.1439 11.0407 26.471 11.1332C26.6623 11.1805 26.8415 11.2678 26.9968 11.3892C27.1522 11.5106 27.2801 11.6634 27.3722 11.8377L27.9909 13.0012C29.2888 15.4425 31.6255 16.7832 34.1289 15.6129C34.2736 15.545 34.396 15.4374 34.4817 15.3025C34.5675 15.1676 34.613 15.0111 34.6131 14.8513C34.6131 14.7453 34.5929 14.6379 34.5509 14.5352L32.6906 11.9094L32.8263 10.3185L32.076 8.48423C31.7762 7.75173 31.2762 7.11838 30.6334 6.65658L26.795 3.9059C25.2227 2.77816 23.3312 2.18204 21.3964 2.20441L18.3835 2.23968C15.3164 2.27544 12.2797 2.85319 9.41374 3.94626C8.09845 4.46946 6.18056 4.36692 4.78341 3.3645L0.795375 0.547216C0.461344 0.31113 0 0.550005 0 0.959177Z" fill="#FFD9C3"/>
<path d="M10.8695 26.0583C10.429 26.7022 10.5949 27.5808 11.2404 28.0188C15.261 30.7472 19.3126 33.8302 22.7814 37.2514L28.7333 43.03C29.7198 43.9891 31.0412 44.5258 32.417 44.5265C32.8659 44.5265 33.3165 44.4694 33.7603 44.3516C33.3261 43.5732 32.7743 42.8666 32.1245 42.2566L31.0265 41.2293C31.0265 41.2276 31.0249 41.2276 31.0249 41.2276C30.919 41.1524 30.8189 41.0692 30.7257 40.9788L29.8094 40.0894L29.8043 40.0843L29.7808 40.0625L24.7722 35.2002C21.2566 31.7217 17.0256 28.4897 12.8465 25.6535C12.2041 25.2176 11.3305 25.3845 10.8921 26.0251L10.8695 26.0583ZM24.3889 11.1507C24.9151 11.2465 25.4968 11.3844 25.8246 11.4769C26.016 11.5242 26.1952 11.6115 26.3505 11.7329C26.5058 11.8543 26.6337 12.0071 26.7258 12.1814L27.3445 13.3449C28.6424 15.7861 31.625 16.7832 34.1286 15.6131C34.2733 15.5452 34.3957 15.4375 34.4814 15.3026C34.5672 15.1678 34.6127 15.0113 34.6128 14.8515C34.6128 14.7455 34.5926 14.638 34.5506 14.5353L32.8257 10.3186H26.7864C25.9021 10.3184 25.0647 10.6144 24.3889 11.1507Z" fill="#FFC3AA"/>
<path d="M39.7734 78.3253V74.6101L40.7944 70.6785H43.8327L44.6656 74.6101V78.3253H39.7734Z" fill="#FEBA48"/>
<path d="M39.7734 70.6792H44.6661V74.6101H39.7734V70.6792Z" fill="#FE9A43"/>
<path d="M62.2874 70.7625L57.5967 71.2468H21.701C21.4781 71.2468 21.2642 71.1582 21.1066 71.0005C20.9489 70.8429 20.8604 70.6291 20.8604 70.4061V66.4752C20.8604 66.2522 20.9489 66.0384 21.1066 65.8807C21.2642 65.7231 21.4781 65.6345 21.701 65.6345H57.5969L62.2994 66.0038C62.5224 66.0038 62.7362 66.0924 62.8939 66.25C63.0515 66.4077 63.1401 66.6215 63.1401 66.8445L63.1283 69.9218C63.1282 70.1448 63.0396 70.3586 62.8819 70.5162C62.7243 70.6739 62.5104 70.7625 62.2874 70.7625Z" fill="#FFCD5F"/>
<path d="M63.5787 66.4759V70.4068C63.5786 70.6298 63.49 70.8435 63.3324 71.0012C63.1748 71.1588 62.961 71.2474 62.7381 71.2475H57.5967V65.6353H62.7381C62.8485 65.6352 62.9578 65.6568 63.0599 65.6991C63.1619 65.7413 63.2546 65.8032 63.3327 65.8813C63.4108 65.9594 63.4727 66.0521 63.5149 66.1541C63.5571 66.2561 63.5788 66.3655 63.5787 66.4759Z" fill="#FEBA48"/>
<path d="M67.6951 83.2204L61.8718 83.5463H16.5671C14.0712 83.5463 12.0479 81.5229 12.0479 79.027V78.2702C12.0479 78.181 12.0833 78.0954 12.1464 78.0323C12.2094 77.9693 12.295 77.9338 12.3842 77.9338H65.6651L66.0177 78.4257L71.6472 78.0736C71.6913 78.0736 71.7351 78.0823 71.7759 78.0992C71.8167 78.1161 71.8538 78.1409 71.885 78.1721C71.9162 78.2034 71.941 78.2404 71.9579 78.2812C71.9748 78.322 71.9835 78.3658 71.9835 78.4099V78.8372C71.9835 81.3331 70.1909 83.2204 67.6951 83.2204Z" fill="#FFCD5F"/>
<path d="M72.391 78.2702V79.0269C72.391 81.5236 70.3684 83.5463 67.8717 83.5463H61.1465C63.6432 83.5463 65.6657 81.5238 65.6657 79.0269V77.9341H72.0547C72.0989 77.9339 72.1427 77.9425 72.1835 77.9593C72.2244 77.9761 72.2616 78.0009 72.2928 78.0321C72.3241 78.0634 72.3489 78.1005 72.3657 78.1414C72.3826 78.1823 72.3912 78.226 72.391 78.2702Z" fill="#FEBA48"/>
<path d="M54.1901 40.0894L53.2739 40.9787C53.1806 41.0692 53.0806 41.1524 52.9746 41.2276L54.1901 40.0894Z" fill="#FFC3AA"/>
<path d="M84.0004 0.959177V20.3138C84.0004 20.403 83.9768 20.4908 83.9317 20.5679L78.3091 30.2086C77.6976 31.2569 76.7307 32.0514 75.5837 32.448C74.5041 32.821 73.4566 33.2809 72.4514 33.8234C71.4458 34.3642 70.486 34.9861 69.5814 35.6828C67.7199 37.1144 65.8962 38.5945 64.1121 40.1216C62.3289 41.6495 60.5859 43.2237 58.8849 44.8426L53.1768 50.2765C51.6586 51.7224 49.1484 50.6447 49.1484 48.5498C49.1485 47.3704 49.3905 46.2036 49.8596 45.1215C49.9734 44.8586 50.1002 44.6016 50.2396 44.3514C50.2396 44.3514 51.9352 43.1918 52.5915 42.5763L52.975 41.2277C51.4215 42.3374 49.1484 41.2495 49.1484 39.2336C49.148 38.1678 49.3612 37.1127 49.7753 36.1306C50.1893 35.1484 50.796 34.2592 51.5593 33.5154L64.4786 20.9257C66.5735 18.883 66.8055 16.7577 65.8859 14.5468C64.9864 12.3865 62.8865 11.0415 60.6335 11.0415C60.445 11.018 60.0465 11.0702 59.6112 11.1502C59.0839 11.247 57.8566 11.0408 57.5294 11.1333C57.3381 11.1807 57.1589 11.2679 57.0036 11.3893C56.8483 11.5107 56.7203 11.6636 56.6282 11.8378L56.0095 13.0014C54.7116 15.4426 52.3749 16.7833 49.8715 15.6131C49.7268 15.5452 49.6044 15.4375 49.5187 15.3027C49.4329 15.1678 49.3874 15.0113 49.3873 14.8515C49.3873 14.7455 49.4075 14.6381 49.4495 14.5353L51.3098 11.9095L51.1741 10.3186L51.9244 8.4844C52.2243 7.7519 52.7242 7.11855 53.367 6.65674L57.2054 3.90607C58.7778 2.77833 60.6692 2.18221 62.604 2.20458L65.6169 2.23985C68.684 2.2756 71.7207 2.85335 74.5867 3.94643C75.9019 4.46962 77.8198 4.36708 79.217 3.36466L83.2049 0.547216C83.5391 0.31113 84.0004 0.550005 84.0004 0.959177Z" fill="#FFD9C3"/>
<path d="M73.13 26.0583C73.5705 26.7022 73.4046 27.5808 72.7591 28.0188C68.7385 30.7472 64.6869 33.8302 61.2181 37.2514L55.2662 43.03C54.2797 43.9891 52.9583 44.5258 51.5825 44.5265C51.1337 44.5265 50.683 44.4694 50.2392 44.3516C50.6734 43.5732 51.2252 42.8666 51.8751 42.2566L52.973 41.2293C52.973 41.2276 52.9746 41.2276 52.9746 41.2276C53.0771 41.1553 53.178 41.0713 53.2739 40.9788L54.1901 40.0894L54.1952 40.0843L54.2187 40.0625L59.2274 35.2002C62.7429 31.7217 66.9739 28.4897 71.1531 25.6535C71.7954 25.2176 72.669 25.3845 73.1074 26.0251L73.13 26.0583ZM59.6106 11.1507C59.0843 11.2465 58.5027 11.3844 58.1749 11.4769C57.9835 11.5242 57.8043 11.6115 57.649 11.7329C57.4937 11.8543 57.3658 12.0071 57.2737 12.1814L56.655 13.3449C55.3571 15.7861 52.3745 16.7832 49.8709 15.6131C49.7262 15.5452 49.6038 15.4375 49.5181 15.3026C49.4324 15.1678 49.3868 15.0113 49.3867 14.8515C49.3867 14.7455 49.4069 14.638 49.4489 14.5353L51.1739 10.3186H57.2132C58.0975 10.3184 58.9348 10.6144 59.6106 11.1507Z" fill="#FFC3AA"/>
<path d="M55.8908 20.6393H27.7841L26.3402 14.3752C26.2188 13.8486 26.6188 13.3457 27.1594 13.3457H53.2256L56.3533 13.7045C56.8939 13.7045 57.2939 14.2074 57.1725 14.734L55.8908 20.6393Z" fill="#D16752"/>
<path d="M58.0321 14.3756L56.5879 20.6402H51.5439L53.2253 13.345H57.2133C57.7531 13.345 58.1532 13.8493 58.0321 14.3756Z" fill="#BE563D"/>
</g>
<defs>
<clipPath id="clip0_29_6306">
<rect width="84" height="84" fill="white"/>
</clipPath>
</defs>
</svg>
