<svg width="216" height="143" viewBox="0 0 216 143" fill="none" xmlns="http://www.w3.org/2000/svg">
<g clip-path="url(#clip0_59_3736)">
<path d="M41.2489 136.842C53.9231 136.693 59.9432 126.103 59.9432 126.103C59.9432 126.103 83.7472 131.776 100.148 124.868C116.55 117.959 122.87 103.029 122.87 103.029C122.87 103.029 143.074 110.553 161.013 97.6449C178.967 84.7543 177.776 76.0698 177.776 76.0698C177.776 76.0698 204.062 78.4543 205.286 61.0537C205.52 57.7295 205.416 54.6929 205.002 51.969C203.315 40.4148 196.316 34.2534 187.377 33.9333C176.323 33.5279 170.233 38.6796 170.233 38.6796C170.233 38.6796 167.36 26.9415 153.911 23.1247C140.462 19.3078 133.429 21.7477 130.387 25.2385C127.353 28.7174 127.586 32.8719 127.586 32.8719C127.586 32.8719 109.845 18.4214 88.8824 22.6829C67.9272 26.9325 57.9175 38.2815 55.3165 46.465C52.696 54.6528 54.039 60.2555 54.039 60.2555C54.039 60.2555 41.9949 53.5163 31.0651 62.1686C24.1797 67.6149 20.6643 73.0803 19.4065 77.9147C18.6422 80.7705 18.6667 83.3944 19.2312 85.6767C20.7533 91.8239 31.023 102.189 31.023 102.189C31.023 102.189 19.2926 105.05 17.0713 116.129C14.8619 127.215 28.567 137.003 41.2489 136.842Z" fill="#DEDEDE"/>
<path d="M41.2485 136.842C53.9227 136.693 59.9428 126.103 59.9428 126.103C59.9428 126.103 83.7468 131.776 100.148 124.868C116.549 117.959 122.87 103.029 122.87 103.029C122.87 103.029 143.074 110.553 161.013 97.6449C178.966 84.7543 177.776 76.0698 177.776 76.0698C177.776 76.0698 204.062 78.4544 205.286 61.0538C205.519 57.7295 205.416 54.6929 205.002 51.969C204.198 57.6262 201.919 64.0317 197.402 68.0354C189.518 75.0171 174.442 71.7666 174.442 71.7666C174.442 71.7666 169.056 89.4114 151.224 97.4163C133.394 105.431 120.984 97.6146 120.984 97.6146C119.953 101.602 104.768 119.021 91.4103 122.448C78.0409 125.867 56.0766 121.987 56.0766 121.987C52.546 129.276 43.7205 133.556 36.0849 130.744C28.4438 127.955 18.7263 119.199 21.5356 111.553C24.3254 103.912 35.1772 101.957 35.1772 101.957C35.1772 101.957 24.9075 91.5916 21.1921 84.3835C20.1327 82.3207 19.5962 80.0733 19.3943 77.9071C18.63 80.7628 18.6544 83.3868 19.219 85.669C20.741 91.8163 31.0107 102.182 31.0107 102.182C31.0107 102.182 19.2803 105.043 17.0591 116.121C14.8616 127.215 28.5666 137.003 41.2485 136.842Z" fill="#B1B1B1"/>
<path d="M115.355 46.3987C113.094 46.5392 110.8 47.3824 108.744 52.594C106.688 57.8055 114.687 62.9631 119.931 60.2447C125.173 57.5165 125.647 45.7821 115.355 46.3987Z" fill="#818181"/>
<path d="M114.342 47.3439C112.998 47.4194 111.625 47.9308 110.403 51.0387C109.182 54.1466 113.948 57.2196 117.077 55.6026C120.194 53.9779 120.483 46.9792 114.342 47.3439Z" fill="#DEDEDE"/>
<path d="M73.1614 63.9109C72.0147 66.1331 70.667 68.4191 73.5871 72.7503C76.5073 77.0814 85.3049 74.1889 86.8611 69.8834C88.4074 65.58 85.7614 60.1972 80.3468 60.3743C74.9126 60.5556 73.9461 62.3808 73.1614 63.9109Z" fill="#818181"/>
<path d="M74.1404 63.6076C73.4281 64.9993 72.5811 66.4304 74.4035 69.1367C76.2259 71.8429 81.7392 70.0384 82.7022 67.3443C83.6749 64.6482 82.017 61.2824 78.6256 61.401C75.2419 61.5077 74.6298 62.6528 74.1404 63.6076Z" fill="#DEDEDE"/>
<path d="M88.1722 81.8768C88.1722 81.8768 93.2892 91.9742 105.119 89.9512C116.939 87.9304 116.54 74.9521 116.719 73.3175C116.898 71.6829 118.958 70.7059 119.843 73.5737C120.731 76.4512 119.452 82.3745 116.25 86.6366C113.047 90.8988 105.862 93.3919 100.637 93.313C95.425 93.2418 90.3964 90.3277 87.9093 86.8648C85.432 83.3997 85.4564 81.6654 86.4902 80.9101C87.5339 80.1527 88.1722 81.8768 88.1722 81.8768Z" fill="#818181"/>
</g>
<defs>
<clipPath id="clip0_59_3736">
<rect width="198.33" height="102.9" fill="white" transform="matrix(-0.977462 0.21111 0.21111 0.977462 193.859 0)"/>
</clipPath>
</defs>
</svg>
