<svg width="84" height="84" viewBox="0 0 84 84" fill="none" xmlns="http://www.w3.org/2000/svg">
<g clip-path="url(#clip0_24_4723)">
<path d="M32.0076 18.2549H0L26.1534 46.5333H32.0076V18.2549Z" fill="#FE534E"/>
<path d="M45.8928 18.2549L18.1221 0L29.8653 41.2156L32.0075 46.5334L45.8928 18.2549Z" fill="#F7ABCD"/>
<path d="M71.5139 7.29761L69.4707 12.7924V29.2126H83.9998L71.5139 7.29761Z" fill="#E50057"/>
<path d="M66.4055 62.0844L20.4319 73.0422L18.4336 64.2287L20.4319 54.7279L45.8927 18.2551L53.077 27.0718L66.4055 62.0844Z" fill="#FFD0E5"/>
<path d="M66.4055 62.0846L20.4319 73.0423L18.4336 64.2289L53.077 27.072L66.4055 62.0846Z" fill="#F7ABCD"/>
<path d="M71.5152 7.29761L66.4063 62.0846L45.8936 18.2553L51.0812 7.29761H71.5152Z" fill="#F7ABCD"/>
<path d="M71.5144 7.29761L66.4055 62.0846L51.041 29.2557L71.5144 7.29761Z" fill="#E47DA8"/>
<path d="M20.4323 54.728V84.0001H0L20.4323 54.728Z" fill="#FE534E"/>
<path d="M20.4323 62.0862V84H0L20.4323 62.0862Z" fill="#E50057"/>
</g>
<defs>
<clipPath id="clip0_24_4723">
<rect width="84" height="84" fill="white"/>
</clipPath>
</defs>
</svg>
