<svg width="84" height="84" viewBox="0 0 84 84" fill="none" xmlns="http://www.w3.org/2000/svg">
<path d="M41.0645 41.8878L49.7288 46.1628L56.3124 32.7636C58.0525 29.222 59.387 25.4952 60.2904 21.654L63.0828 9.78289C63.2759 8.96209 62.228 8.44513 61.6965 9.09892L54.0098 18.555C51.5217 21.6159 49.3876 24.9483 47.6481 28.4886L41.0645 41.8878Z" fill="#D6E4EA"/>
<path d="M38.4264 50.2749L44.8249 53.4319C46.0773 54.05 47.5926 53.5335 48.2093 52.2784L50.7675 47.0719C51.3843 45.8168 50.8688 44.2984 49.6163 43.6804L43.2179 40.5233C41.9654 39.9053 40.4501 40.4218 39.8334 41.6769L37.2752 46.8836C36.6585 48.1386 37.174 49.657 38.4264 50.2749Z" fill="#C89B58"/>
<path d="M21.8101 18.5852C15.6701 23.7158 9.04673 27.2682 2.9267 29.0585C2.23321 29.2613 1.88113 30.0299 2.16939 30.6939C2.63772 31.7711 3.27927 32.7643 4.06858 33.6342C7.85383 37.817 14.323 38.3221 18.7143 34.7838C19.9316 33.803 20.8773 32.6127 21.5435 31.3076C24.907 32.3666 28.7218 31.7424 31.6306 29.3118C34.5396 26.881 35.8378 23.2329 35.4027 19.7269C36.7448 19.322 37.994 18.6565 39.0789 17.7687C43.6252 14.0566 44.3374 7.2736 40.6553 2.6997C39.8096 1.64921 38.8087 0.801008 37.713 0.160672C37.1104 -0.19157 36.331 0.062727 36.0394 0.697813C33.2533 6.76468 28.3651 13.108 21.8101 18.5852Z" fill="#FCB143"/>
<path d="M40.6554 2.69967C39.8704 1.72314 38.9203 0.891868 37.8481 0.243652C40.56 4.74093 39.6183 10.7269 35.449 14.1311C34.3641 15.0189 33.115 15.6843 31.7729 16.0893C32.208 19.5953 30.9097 23.2434 28.0007 25.6742C25.0917 28.1049 21.2771 28.729 17.9137 27.67C17.2474 28.9751 16.3018 30.1654 15.0844 31.1461C11.5189 34.0192 6.58352 34.2261 2.82715 31.9633C3.18643 32.5588 3.60222 33.1184 4.06877 33.6341C7.85402 37.8168 14.3232 38.3221 18.7145 34.7837C19.9317 33.803 20.8775 32.6127 21.5437 31.3076C24.9072 32.3666 28.722 31.7423 31.6308 29.3118C34.5398 26.881 35.838 23.2329 35.4029 19.7269C36.745 19.3219 37.9942 18.6565 39.0791 17.7686C43.6254 14.0567 44.3376 7.27357 40.6554 2.69967Z" fill="#FA9801"/>
<path d="M34.6639 55.2112C35.6758 53.4605 37.7763 50.4793 41.4546 47.9012L40.0015 45.8196C35.5014 48.9737 33.1274 52.6708 32.1272 54.5538C30.0673 54.3523 28.0386 54.9488 26.2824 56.304C24.1785 57.9277 22.5323 60.5401 21.5218 63.8587C20.5135 67.1702 20.4339 70.2347 21.2916 72.7214C22.203 75.3631 24.0832 77.187 26.729 77.9962C27.5769 78.2554 28.4174 78.3842 29.2418 78.3842C30.99 78.3842 32.6649 77.8049 34.1789 76.6619C36.276 75.0788 37.9172 72.4915 38.9256 69.1801C39.936 65.8616 40.0256 62.7733 39.1848 60.2492C38.4021 57.8995 36.8136 56.1409 34.6639 55.2112ZM36.5009 68.4387C35.6501 71.2332 34.3195 73.3749 32.6535 74.6329C31.0778 75.8223 29.3335 76.1364 27.4689 75.5664C25.6044 74.9963 24.3321 73.7601 23.6876 71.8916C23.0061 69.9158 23.0957 67.3945 23.9465 64.6001C24.8024 61.7894 26.1451 59.6166 27.8292 58.3167C29.4052 57.1005 31.203 56.7524 33.0277 57.3105C34.8526 57.8683 36.1501 59.1626 36.7801 61.0536C37.4533 63.074 37.3566 65.6278 36.5009 68.4387Z" fill="#C89B58"/>
<path d="M44.5193 41.8878L35.855 46.1628L29.2713 32.7636C27.5312 29.222 26.1968 25.4952 25.2933 21.654L22.501 9.78289C22.3079 8.96209 23.3557 8.44513 23.8873 9.09892L31.5741 18.5552C34.0622 21.6161 36.1963 24.9485 37.9358 28.4888L44.5193 41.8878Z" fill="#D6E4EA"/>
<path d="M31.5732 18.555L23.8863 9.09892C23.3548 8.44513 22.3069 8.96209 22.5 9.78289L23.6056 14.483L28.2491 20.1951C30.7372 23.2561 32.8713 26.5884 34.6108 30.1288L41.1944 43.5279L44.5187 41.8878L37.935 28.4886C36.1954 24.9483 34.0612 21.616 31.5732 18.555Z" fill="#C2D0DA"/>
<path d="M47.1564 50.2749L40.7579 53.4319C39.5055 54.05 37.9902 53.5335 37.3735 52.2784L34.8152 47.0719C34.1985 45.8168 34.714 44.2984 35.9665 43.6804L42.3649 40.5233C43.6174 39.9053 45.1326 40.4218 45.7494 41.6769L48.3076 46.8834C48.9243 48.1386 48.4088 49.657 47.1564 50.2749Z" fill="#F9C36E"/>
<path d="M48.3079 46.8836L45.7496 41.6771C45.1329 40.422 43.6177 39.9056 42.3652 40.5236L41.2427 41.0775L41.7938 42.199C43.2429 45.1483 42.0318 48.7165 39.0885 50.1687L36.874 51.2613L37.3738 52.2785C37.9905 53.5336 39.5058 54.05 40.7582 53.432L47.1566 50.275C48.4091 49.6571 48.9246 48.1387 48.3079 46.8836Z" fill="#E7B467"/>
<path d="M41.4829 49.4505C42.7534 49.4505 43.7833 48.4185 43.7833 47.1454C43.7833 45.8724 42.7534 44.8403 41.4829 44.8403C40.2125 44.8403 39.1826 45.8724 39.1826 47.1454C39.1826 48.4185 40.2125 49.4505 41.4829 49.4505Z" fill="#F4F8F8"/>
<path d="M42.2443 44.9722C42.328 45.2112 42.3759 45.4671 42.3759 45.7349C42.3759 47.008 41.346 48.04 40.0755 48.04C39.8162 48.0395 39.5588 47.9949 39.3145 47.9081C39.629 48.8058 40.4798 49.4504 41.4832 49.4504C42.7537 49.4504 43.7835 48.4185 43.7835 47.1453C43.7835 46.14 43.1401 45.2873 42.2443 44.9722Z" fill="#D6E4EA"/>
<path d="M47.1621 81.9967C47.1621 83.1822 48.2786 84.0393 49.4258 83.7495C68.1048 79.0306 81.932 62.0862 81.932 41.9031C81.932 21.72 68.1048 4.7756 49.4258 0.0566727C48.2787 -0.233062 47.1623 0.624001 47.1623 1.80952L47.1621 81.9967Z" fill="#FCE25C"/>
<path d="M66.3254 8.66138C72.4966 16.1287 76.2066 25.7126 76.2066 36.1658C76.2066 55.0806 64.0625 71.1507 47.1621 76.9798V81.9967C47.1621 83.1822 48.2786 84.0392 49.4258 83.7495C68.1048 79.0306 81.932 62.0862 81.932 41.9031C81.9319 28.5279 75.8581 16.5766 66.3254 8.66138Z" fill="#FBD307"/>
<path d="M70.0398 58.9356L71.1763 55.7349C71.2532 55.5186 71.2412 55.2807 71.1428 55.0733C71.0445 54.8659 70.8679 54.7059 70.6518 54.6286L62.6352 51.7705C62.5282 51.7324 62.4148 51.7158 62.3013 51.7216C62.1879 51.7274 62.0767 51.7555 61.9742 51.8044C61.8717 51.8532 61.7798 51.9217 61.7037 52.0061C61.6277 52.0905 61.5691 52.1891 61.5312 52.2961L58.679 60.3294C58.6021 60.5457 58.6141 60.7837 58.7125 60.9911C58.8108 61.1985 58.9874 61.3584 59.2035 61.4357L62.3975 62.5745C62.6136 62.6518 62.7902 62.8117 62.8885 63.0191C62.9869 63.2265 62.9989 63.4645 62.922 63.6808L61.7855 66.8814C61.7086 67.0977 61.7206 67.3357 61.819 67.5431C61.9173 67.7505 62.0939 67.9104 62.31 67.9877L65.5042 69.1265C65.7203 69.2038 65.8969 69.3637 65.9952 69.5711C66.0936 69.7785 66.1056 70.0165 66.0287 70.2328L64.8922 73.4335C64.8153 73.6497 64.8273 73.8877 64.9257 74.0951C65.024 74.3025 65.2006 74.4624 65.4167 74.5397L68.6107 75.6785C68.8268 75.7558 69.0034 75.9157 69.1017 76.1231C69.2001 76.3305 69.2121 76.5685 69.1352 76.7848L67.9987 79.9855C67.9218 80.2017 67.9339 80.4397 68.0322 80.6471C68.1305 80.8545 68.3071 81.0144 68.5232 81.0917L76.5398 83.9499C76.6468 83.9879 76.7603 84.0046 76.8737 83.9987C76.9871 83.9929 77.0983 83.9648 77.2008 83.916C77.3034 83.8672 77.3953 83.7986 77.4713 83.7142C77.5473 83.6298 77.6059 83.5313 77.6438 83.4242L80.496 75.3909C80.5729 75.1746 80.5609 74.9367 80.4626 74.7293C80.3642 74.5219 80.1876 74.3619 79.9715 74.2846L76.7774 73.1459C76.5613 73.0685 76.3847 72.9086 76.2863 72.7012C76.188 72.4938 76.176 72.2558 76.2529 72.0396L77.3893 68.8389C77.4663 68.6226 77.4542 68.3847 77.3559 68.1773C77.2576 67.9699 77.081 67.8099 76.8648 67.7326L73.6707 66.5938C73.4546 66.5165 73.278 66.3566 73.1797 66.1492C73.0813 65.9418 73.0693 65.7038 73.1462 65.4876L74.2827 62.2869C74.3596 62.0706 74.3475 61.8327 74.2492 61.6253C74.1509 61.4179 73.9743 61.2579 73.7581 61.1806L70.564 60.0418C70.348 59.9644 70.1714 59.8045 70.0732 59.5971C69.9749 59.3897 69.9629 59.1518 70.0398 58.9356Z" fill="#89C6FC"/>
<path d="M79.9715 74.2844L76.7774 73.1456C76.5612 73.0683 76.3846 72.9083 76.2863 72.7009C76.188 72.4935 76.1759 72.2556 76.2529 72.0393L77.3893 68.8386C77.4662 68.6224 77.4542 68.3844 77.3559 68.177C77.2575 67.9696 77.0809 67.8097 76.8648 67.7324L73.6708 66.5936C73.4547 66.5163 73.2781 66.3563 73.1798 66.1489C73.0814 65.9415 73.0694 65.7036 73.1463 65.4873L74.2828 62.2866C74.3597 62.0704 74.3477 61.8324 74.2493 61.625C74.151 61.4176 73.9744 61.2577 73.7583 61.1804L70.5643 60.0416C70.3482 59.9643 70.1716 59.8043 70.0733 59.5969C69.9749 59.3895 69.9629 59.1516 70.0398 58.9353L71.1763 55.7346C71.2532 55.5184 71.2411 55.2804 71.1428 55.073C71.0445 54.8656 70.8679 54.7057 70.6518 54.6284L62.6352 51.7702C62.5282 51.7321 62.4147 51.7155 62.3013 51.7213C62.1879 51.7272 62.0767 51.7553 61.9742 51.8041C61.8716 51.8529 61.7797 51.9215 61.7037 52.0059C61.6277 52.0903 61.5691 52.1888 61.5312 52.2959L60.8408 54.2405L66.7315 56.3407C66.9476 56.418 67.1242 56.5779 67.2225 56.7853C67.3209 56.9927 67.3329 57.2307 67.256 57.447L66.1195 60.6476C66.0426 60.8639 66.0547 61.1019 66.153 61.3093C66.2513 61.5167 66.4279 61.6766 66.644 61.7539L69.8382 62.8927C70.0543 62.97 70.2309 63.1299 70.3292 63.3373C70.4276 63.5447 70.4396 63.7827 70.3627 63.999L69.2262 67.1997C69.1493 67.4159 69.1613 67.6539 69.2597 67.8613C69.358 68.0687 69.5346 68.2286 69.7507 68.3059L72.9447 69.4447C73.1608 69.522 73.3374 69.6819 73.4357 69.8893C73.5341 70.0967 73.5461 70.3347 73.4692 70.551L72.3327 73.7516C72.2558 73.9679 72.2679 74.2059 72.3662 74.4133C72.4645 74.6207 72.6411 74.7806 72.8573 74.8579L76.0514 75.9967C76.2675 76.074 76.4441 76.2339 76.5424 76.4413C76.6408 76.6487 76.6528 76.8867 76.5759 77.103L74.414 83.1916L76.54 83.9496C76.647 83.9877 76.7604 84.0043 76.8738 83.9985C76.9873 83.9927 77.0984 83.9646 77.201 83.9157C77.3035 83.8669 77.3954 83.7983 77.4714 83.714C77.5474 83.6296 77.6061 83.531 77.6439 83.424L80.4962 75.3906C80.5731 75.1743 80.561 74.9364 80.4626 74.729C80.3643 74.5216 80.1876 74.3617 79.9715 74.2844Z" fill="#62B4FD"/>
</svg>
