<svg width="275" height="395" viewBox="0 0 275 395" fill="none" xmlns="http://www.w3.org/2000/svg">
<path d="M112.648 114.112C101.092 134.128 86.6896 149.803 72.8759 159.017C58.8862 168.349 46.3868 170.542 37.8731 165.626C29.3593 160.711 25.0084 148.79 26.0951 132.008C27.1682 115.438 33.542 95.1279 45.0981 75.1122C56.6542 55.0964 71.0565 39.4214 84.8702 30.207C98.8599 20.8752 111.359 18.6827 119.873 23.5981C128.387 28.5135 132.738 40.4345 131.651 57.2159C130.578 73.7861 124.204 94.0964 112.648 114.112Z" stroke="#FFAF00" stroke-width="6"/>
<path d="M148.155 134.612C136.599 154.628 122.196 170.303 108.383 179.517C94.393 188.849 81.8936 191.042 73.3799 186.126C64.8662 181.211 60.5152 169.29 61.602 152.508C62.675 135.938 69.0488 115.628 80.6049 95.6122C92.161 75.5964 106.563 59.9214 120.377 50.707C134.367 41.3752 146.866 39.1827 155.38 44.0981C163.894 49.0135 168.245 60.9345 167.158 77.7159C166.085 94.2861 159.711 114.596 148.155 134.612Z" stroke="#FFAF00" stroke-width="6"/>
<path d="M183.662 155.112C172.106 175.128 157.703 190.803 143.89 200.017C129.9 209.349 117.4 211.542 108.887 206.626C100.373 201.711 96.0221 189.79 97.1088 173.008C98.1818 156.438 104.556 136.128 116.112 116.112C127.668 96.0964 142.07 80.4214 155.884 71.207C169.874 61.8752 182.373 59.6827 190.887 64.5981C199.4 69.5135 203.751 81.4345 202.665 98.2159C201.592 114.786 195.218 135.096 183.662 155.112Z" stroke="#FFAF00" stroke-width="6"/>
<path d="M219.17 175.612C207.613 195.628 193.211 211.303 179.397 220.517C165.408 229.849 152.908 232.042 144.395 227.126C135.881 222.211 131.53 210.29 132.617 193.508C133.69 176.938 140.063 156.628 151.62 136.612C163.176 116.596 177.578 100.921 191.392 91.707C205.381 82.3752 217.881 80.1827 226.395 85.0981C234.908 90.0135 239.259 101.935 238.173 118.716C237.099 135.286 230.726 155.596 219.17 175.612Z" stroke="#FFAF00" stroke-width="6"/>
<path d="M254.676 196.112C243.12 216.128 228.718 231.803 214.904 241.017C200.915 250.349 188.415 252.542 179.901 247.626C171.388 242.711 167.037 230.79 168.123 214.008C169.196 197.438 175.57 177.128 187.126 157.112C198.683 137.096 213.085 121.421 226.899 112.207C240.888 102.875 253.388 100.683 261.901 105.598C270.415 110.513 274.766 122.435 273.679 139.216C272.606 155.786 266.232 176.096 254.676 196.112Z" stroke="#FFAF00" stroke-width="6"/>
<path d="M290.183 216.612C278.627 236.628 264.225 252.303 250.411 261.517C236.421 270.849 223.922 273.042 215.408 268.126C206.895 263.211 202.544 251.29 203.63 234.508C204.703 217.938 211.077 197.628 222.633 177.612C234.189 157.596 248.592 141.921 262.405 132.707C276.395 123.375 288.895 121.183 297.408 126.098C305.922 131.013 310.273 142.935 309.186 159.716C308.113 176.286 301.739 196.596 290.183 216.612Z" stroke="#FFAF00" stroke-width="6"/>
<path d="M325.69 237.112C314.134 257.128 299.732 272.803 285.918 282.017C271.928 291.349 259.429 293.542 250.915 288.626C242.401 283.711 238.05 271.79 239.137 255.008C240.21 238.438 246.584 218.128 258.14 198.112C269.696 178.096 284.099 162.421 297.912 153.207C311.902 143.875 324.401 141.683 332.915 146.598C341.429 151.513 345.78 163.435 344.693 180.216C343.62 196.786 337.246 217.096 325.69 237.112Z" stroke="#FFAF00" stroke-width="6"/>
<path d="M361.197 257.612C349.641 277.628 335.238 293.303 321.425 302.517C307.435 311.849 294.936 314.042 286.422 309.126C277.908 304.211 273.557 292.29 274.644 275.508C275.717 258.938 282.091 238.628 293.647 218.612C305.203 198.596 319.605 182.921 333.419 173.707C347.409 164.375 359.908 162.183 368.422 167.098C376.936 172.013 381.287 183.935 380.2 200.716C379.127 217.286 372.753 237.596 361.197 257.612Z" stroke="#FFAF00" stroke-width="6"/>
</svg>
