<svg width="196" height="284" viewBox="0 0 196 284" fill="none" xmlns="http://www.w3.org/2000/svg">
<path d="M230.354 31.206C229.163 30.2531 227.972 29.3003 226.781 28.3474L28.3477 226.781C29.3005 227.972 30.2534 229.163 31.2063 230.354L230.354 31.206Z" fill="#9BBC64"/>
<path d="M181.759 5.71665C180.091 5.24022 178.424 4.76378 176.756 4.28735L4.0498 176.994C4.52624 178.661 5.00268 180.329 5.47911 181.996L181.759 5.71665Z" fill="#9BBC64"/>
<path d="M215.824 20.9625C214.394 20.2478 213.203 19.295 211.774 18.5803L18.3428 212.011C19.0574 213.441 19.7721 214.632 20.7249 216.061L215.824 20.9625Z" fill="#9BBC64"/>
<path d="M199.863 12.3869C198.433 11.6723 197.004 11.1958 195.337 10.4812L10.4814 195.336C11.1961 196.766 11.6725 198.195 12.3871 199.863L199.863 12.3869Z" fill="#9BBC64"/>
<path d="M161.51 1.42877C159.605 1.19055 157.699 0.952327 155.793 0.714111L0.476562 156.031C0.714778 157.936 0.953037 159.842 1.19125 161.748L161.51 1.42877Z" fill="#9BBC64"/>
<path d="M241.551 41.45C241.074 40.9736 240.598 40.4971 239.883 39.7825L39.5439 240.122C40.0204 240.598 40.4968 241.075 41.2114 241.789C41.6878 242.266 42.1643 242.742 42.8789 243.457L243.218 43.1175C242.742 42.4028 242.265 41.9264 241.551 41.45Z" fill="#9BBC64"/>
<path d="M138.403 0C136.259 0 133.877 0.238221 131.733 0.238221L0.23823 131.733C1.4536e-05 133.877 0 136.259 0 138.403L138.403 0Z" fill="#9BBC64"/>
<path d="M3.33496 110.532L110.294 3.57324C107.435 4.28789 104.577 5.00254 101.718 5.71719L5.47889 101.956C4.52602 104.815 3.81139 107.673 3.33496 110.532Z" fill="#9BBC64"/>
<path d="M282.762 151.267C283 149.123 283 146.741 283 144.597L144.358 283.239C146.502 283.239 148.884 283 151.028 283L282.762 151.267Z" fill="#9BBC64"/>
<path d="M282.286 126.969C282.047 125.063 281.809 123.157 281.571 121.251L121.252 281.809C123.158 282.047 125.063 282.285 126.969 282.523L282.286 126.969Z" fill="#9BBC64"/>
<path d="M69.5585 19.5342C59.5534 25.4896 50.0248 32.8743 41.4491 41.45C32.8733 50.0258 25.4886 59.5544 19.5332 69.5594L69.5585 19.5342Z" fill="#9BBC64"/>
<path d="M277.521 181.282C278.236 178.423 278.95 175.565 279.665 172.706L172.706 279.665C175.565 278.95 178.423 278.236 181.282 277.521L277.521 181.282Z" fill="#9BBC64"/>
<path d="M264.419 71.2269C263.704 69.7976 262.99 68.6065 262.037 67.1772L66.9385 262.276C68.3678 262.99 69.5588 263.943 70.9881 264.658L264.419 71.2269Z" fill="#9BBC64"/>
<path d="M254.652 56.2192C253.699 55.0282 252.746 53.8371 251.794 52.646L52.6455 251.794C53.8366 252.747 55.0277 253.7 56.2187 254.653L254.652 56.2192Z" fill="#9BBC64"/>
<path d="M278.713 106.244C278.236 104.577 277.76 102.909 277.283 101.242L101.004 277.521C102.671 277.998 104.339 278.474 106.006 278.95L278.713 106.244Z" fill="#9BBC64"/>
<path d="M272.519 87.6631C271.804 86.2338 271.328 84.8045 270.613 83.137L83.1377 270.613C84.567 271.327 85.9963 271.804 87.6638 272.518L272.519 87.6631Z" fill="#9BBC64"/>
</svg>
