<svg width="160" height="160" viewBox="0 0 160 160" fill="none" xmlns="http://www.w3.org/2000/svg">
<path d="M152.202 68.4538C149.715 66.2826 147.142 64.0354 146.635 62.1448C146.09 60.1024 147.222 56.7664 148.314 53.5422C149.919 48.8244 151.576 43.9439 149.288 39.9876C146.968 35.977 141.864 34.9721 136.928 34.0012C133.624 33.353 130.211 32.6814 128.762 31.236C127.317 29.7891 126.647 26.3756 125.997 23.0723C125.028 18.1374 124.026 13.0335 120.011 10.7134C116.048 8.42277 111.177 10.0869 106.461 11.6873C103.235 12.7807 99.9054 13.9035 97.8614 13.3716C95.9662 12.8645 93.7205 10.2885 91.5509 7.79932C88.2041 3.96557 84.7426 0 80 0C75.259 0 71.7975 3.96557 68.4522 7.79932C66.281 10.2885 64.0338 12.8645 62.1371 13.3716C60.1024 13.9066 56.7618 12.7807 53.5422 11.6873C48.8213 10.0806 43.9408 8.42277 39.986 10.7134C35.9755 13.0351 34.9721 18.1374 34.0012 23.0723C33.353 26.3741 32.6814 29.7891 31.2345 31.236C29.7906 32.6799 26.3772 33.3499 23.0769 33.9997C18.1421 34.9705 13.0366 35.9755 10.7165 39.986C8.42277 43.9423 10.0822 48.8229 11.6842 53.5453C12.7761 56.7711 13.9097 60.1039 13.3654 62.1448C12.8598 64.0354 10.2854 66.2826 7.79932 68.4538C3.96557 71.799 0 75.2621 0 80.0015C0 84.7441 3.96712 88.2056 7.79932 91.5524C10.2854 93.7205 12.8598 95.9708 13.3654 97.8613C13.9097 99.9007 12.7761 103.238 11.6842 106.464C10.0822 111.18 8.42277 116.061 10.7103 120.014C13.0335 124.024 18.1359 125.029 23.0707 125.999C26.3756 126.65 29.7891 127.32 31.2345 128.766C32.683 130.214 33.353 133.626 34.0012 136.931C34.9721 141.867 35.9755 146.971 39.986 149.29C43.9532 151.583 48.8229 149.918 53.5422 148.314C56.7618 147.219 60.0853 146.081 62.1386 146.63C64.0354 147.137 66.281 149.713 68.4522 152.205C71.7975 156.038 75.2605 160.002 80 160.002C84.7441 160.002 88.2041 156.036 91.5509 152.205C93.7205 149.716 95.9693 147.137 97.8644 146.63C99.8961 146.082 103.235 147.219 106.461 148.314C111.177 149.918 116.058 151.576 120.011 149.29C124.026 146.971 125.028 141.867 125.997 136.931C126.647 133.626 127.322 130.214 128.762 128.766C130.209 127.32 133.623 126.653 136.923 126.003C141.858 125.033 146.965 124.032 149.284 120.017C151.576 116.062 149.916 111.18 148.313 106.455C147.216 103.235 146.086 99.8976 146.63 97.8613C147.136 95.9646 149.707 93.7205 152.199 91.5524C156.034 88.2056 160 84.7457 160 80.0015C160 75.2621 156.033 71.799 152.202 68.4538Z" fill="#8779DE" fill-opacity="0.1"/>
</svg>
