<svg width="2148" height="1654" viewBox="0 0 2148 1654" fill="none" xmlns="http://www.w3.org/2000/svg">
<path d="M108.24 0H54V1634H2094V40H2048.6C2007.31 40 1966.47 48.5239 1928.62 65.0382L1908.09 73.9964C1818.96 112.889 1754.21 192.571 1734.38 287.772L1716 376L1710.63 444.657C1703.59 534.578 1626.44 602.671 1536.34 598.481C1476.72 595.708 1420.16 624.951 1387.95 675.193L1357.83 722.188C1345.99 740.657 1331.89 757.577 1315.86 772.555L1227.47 855.156C1108.19 966.611 913.695 918.529 860.091 764.335L842.703 714.318C824.027 660.597 775.506 622.881 718.837 618.037C640.615 611.352 582.13 543.293 587.29 464.955L589.565 430.427C595.214 344.667 527.176 272 441.23 272C375.285 272 317.222 228.555 298.615 165.29L290 136C266.285 55.3695 192.285 0 108.24 0Z" fill="#8779DE"/>
<g filter="url(#filter0_d_267_278)">
<path d="M108.24 171H54V1636H2094V211H2048.6C2007.31 211 1966.47 219.524 1928.62 236.038L1908.09 244.996C1818.96 283.889 1754.21 363.571 1734.38 458.772L1722.82 514.245C1718.32 535.85 1718.32 558.15 1722.82 579.755C1744.51 683.851 1660.88 779.906 1554.79 772.746L1540.96 771.814C1478.69 767.611 1419.07 797.648 1385.39 850.193L1373.61 868.57C1351.68 902.774 1320.22 929.808 1283.11 946.336L1164.46 999.177C1056.47 1047.27 929.621 1005.38 871.513 902.433L852.404 868.58C827.122 823.79 781.348 794.38 730.103 790C645.623 782.78 582.461 709.277 588.034 624.673L589.565 601.427C595.214 515.667 527.176 443 441.23 443C375.285 443 317.222 399.555 298.615 336.29L290 307C266.285 226.37 192.285 171 108.24 171Z" fill="#8779DE"/>
</g>
<g filter="url(#filter1_d_267_278)">
<path d="M155.98 536H54V1636H2094V561.026H2026.22C1999.52 561.026 1972.95 564.588 1947.2 571.617L1860.12 595.393C1801.32 611.445 1754.43 655.823 1735.18 713.651L1725.34 743.207C1719.28 761.405 1719.28 781.077 1725.34 799.275C1744.97 858.231 1699.49 918.587 1637.4 915.965L1514.8 910.789C1467.06 908.773 1420.61 926.551 1386.42 959.923L1377.23 968.898C1352.8 992.735 1322.77 1010.03 1289.89 1019.19L1113.73 1068.28C1028.11 1092.13 936.37 1065.5 876.834 999.513L856.228 976.673C827.903 945.278 788.294 926.384 746.07 924.126L680.099 920.598C624.582 917.629 582.884 868.747 588.705 813.456C594.742 756.116 549.783 706.174 492.126 706.174H424.02C366.634 706.174 314.414 673.021 290 621.087C265.586 569.154 213.366 536 155.98 536Z" fill="#8779DE"/>
</g>
<defs>
<filter id="filter0_d_267_278" x="0" y="81" width="2148" height="1573" filterUnits="userSpaceOnUse" color-interpolation-filters="sRGB">
<feFlood flood-opacity="0" result="BackgroundImageFix"/>
<feColorMatrix in="SourceAlpha" type="matrix" values="0 0 0 0 0 0 0 0 0 0 0 0 0 0 0 0 0 0 127 0" result="hardAlpha"/>
<feOffset dy="-36"/>
<feGaussianBlur stdDeviation="27"/>
<feComposite in2="hardAlpha" operator="out"/>
<feColorMatrix type="matrix" values="0 0 0 0 0 0 0 0 0 0 0 0 0 0 0 0 0 0 0.2 0"/>
<feBlend mode="normal" in2="BackgroundImageFix" result="effect1_dropShadow_267_278"/>
<feBlend mode="normal" in="SourceGraphic" in2="effect1_dropShadow_267_278" result="shape"/>
</filter>
<filter id="filter1_d_267_278" x="0" y="446" width="2148" height="1208" filterUnits="userSpaceOnUse" color-interpolation-filters="sRGB">
<feFlood flood-opacity="0" result="BackgroundImageFix"/>
<feColorMatrix in="SourceAlpha" type="matrix" values="0 0 0 0 0 0 0 0 0 0 0 0 0 0 0 0 0 0 127 0" result="hardAlpha"/>
<feOffset dy="-36"/>
<feGaussianBlur stdDeviation="27"/>
<feComposite in2="hardAlpha" operator="out"/>
<feColorMatrix type="matrix" values="0 0 0 0 0 0 0 0 0 0 0 0 0 0 0 0 0 0 0.2 0"/>
<feBlend mode="normal" in2="BackgroundImageFix" result="effect1_dropShadow_267_278"/>
<feBlend mode="normal" in="SourceGraphic" in2="effect1_dropShadow_267_278" result="shape"/>
</filter>
</defs>
</svg>
