<svg width="84" height="84" viewBox="0 0 84 84" fill="none" xmlns="http://www.w3.org/2000/svg">
<g clip-path="url(#clip0_59_2913)">
<path d="M78.329 65.5399H5.671C2.53904 65.5399 0 63.001 0 59.8689V58.7524C0 55.6205 2.53904 53.0814 5.671 53.0814H78.3292C81.4611 53.0814 84.0002 55.6205 84.0002 58.7524V59.8689C84 63.001 81.4611 65.5399 78.329 65.5399Z" fill="#E94444"/>
<path d="M83.9997 58.7518V59.8686C83.9997 63.0012 81.4618 65.5408 78.3292 65.5408H75.0107C78.1434 65.5408 80.6813 63.0012 80.6813 59.8686V58.7518C80.6813 55.6208 78.1434 53.0813 75.0107 53.0813H78.3292C81.4618 53.0813 83.9997 55.621 83.9997 58.7518Z" fill="#D83131"/>
<path d="M78.3294 65.5399H5.67141C5.67141 65.5399 3.16574 77.6391 17.4245 82.3988C19.867 83.2142 22.417 83.5939 24.9742 83.5939H59.027C61.5842 83.5939 64.1342 83.2142 66.5767 82.3988C80.8351 77.6391 78.3294 65.5399 78.3294 65.5399Z" fill="#FE9738"/>
<path d="M66.5762 82.3985C64.133 83.2147 61.5833 83.5948 59.0268 83.5948H55.1777C57.7359 83.5948 60.2856 83.2147 62.7288 82.3985C76.986 77.6387 74.4803 65.5409 74.4803 65.5409H78.3294C78.3294 65.5407 80.8352 77.6387 66.5762 82.3985Z" fill="#FE860A"/>
<path d="M78.4617 55.3403C78.4617 58.1716 75.1718 59.7065 72.9844 57.9088C72.0853 57.1698 71.0234 56.5842 69.3405 56.5842C64.7806 56.5842 64.7806 60.1962 60.2205 60.1962C55.6605 60.1962 55.6605 56.5842 51.1004 56.5842C46.5405 56.5842 46.5405 60.1962 41.9806 60.1962C37.4209 60.1962 37.4209 56.5842 32.861 56.5842C28.3009 56.5842 28.3009 60.1962 23.7409 60.1962C19.181 60.1962 19.181 56.5842 14.6211 56.5842C12.939 56.5842 11.8774 57.1694 10.9785 57.9081C8.79094 59.7059 5.50098 58.1713 5.50098 55.3398V48.639H78.4614V55.3403H78.4617Z" fill="#BBEC6C"/>
<path d="M78.4628 48.6393V55.3404C78.4628 57.9899 75.5819 59.5037 73.4209 58.2144C74.3755 57.6568 75.0615 56.6346 75.0615 55.3404V48.6393H78.4628Z" fill="#A2E62E"/>
<path d="M5.53809 43.2699V48.6888H13.3598C14.987 48.6888 16.3061 50.008 16.3061 51.6352V67.242C16.3061 69.3224 17.9927 71.0089 20.0731 71.0089C22.1535 71.0089 23.8398 69.3224 23.8398 67.242V51.6352C23.8398 50.008 25.159 48.6888 26.7861 48.6888H78.4622V43.2699H5.53809Z" fill="#FEE45A"/>
<path d="M75.0615 43.2696H78.4629V48.6884H75.0615V43.2696Z" fill="#FEDF30"/>
<path d="M78.329 43.6409H5.671C2.53904 43.6409 0 41.102 0 37.9699V36.8534C0 33.7214 2.53904 31.1824 5.671 31.1824H78.3292C81.4611 31.1824 84.0002 33.7214 84.0002 36.8534V37.9699C84 41.102 81.4611 43.6409 78.329 43.6409Z" fill="#9E5528"/>
<path d="M83.9997 36.8531V37.9699C83.9997 41.1025 81.4618 43.6404 78.3292 43.6404H75.0107C78.1434 43.6404 80.6813 41.1025 80.6813 37.9699V36.8531C80.6813 33.7221 78.1434 31.1826 75.0107 31.1826H78.3292C81.4618 31.1827 83.9997 33.7222 83.9997 36.8531Z" fill="#904D24"/>
<path d="M41.9996 0.406128C13.6757 0.816024 4.15926 16.1803 1.01765 25.1075C-0.0589405 28.1666 2.23638 31.3679 5.47924 31.3679H78.5197C81.7866 31.3679 84.0523 28.1343 82.9628 25.0544C79.8022 16.1194 70.2674 0.815207 41.9996 0.406128Z" fill="#FE9738"/>
<path d="M78.5202 31.3682H78.1163C79.2163 30.1414 79.6691 28.3555 79.0559 26.6186C75.8945 17.682 66.3599 2.37889 38.0921 1.96998C30.7792 2.07466 24.7184 3.17808 19.7002 4.90991C25.391 2.29596 32.6767 0.54041 42.0001 0.405304C70.268 0.815855 79.8027 16.1191 82.9639 25.0539C84.052 28.1342 81.7861 31.3682 78.5202 31.3682Z" fill="#FE860A"/>
<path d="M30.3087 13.3944C30.0964 13.3942 29.8877 13.3389 29.7031 13.2339C29.5186 13.1289 29.3644 12.9778 29.2558 12.7954C29.1471 12.6129 29.0877 12.4054 29.0833 12.1931C29.0789 11.9808 29.1296 11.771 29.2306 11.5842L30.33 9.55011C30.4848 9.26417 30.7469 9.05142 31.0585 8.95859C31.3701 8.86577 31.7059 8.90048 31.992 9.05509C32.278 9.2097 32.491 9.47156 32.5841 9.78312C32.6772 10.0947 32.6427 10.4305 32.4884 10.7167L31.3891 12.7508C31.2838 12.9456 31.1279 13.1083 30.9376 13.2216C30.7474 13.3349 30.5301 13.3946 30.3087 13.3944ZM41.9849 13.5333C41.6595 13.5333 41.3475 13.404 41.1174 13.174C40.8874 12.9439 40.7581 12.6319 40.7581 12.3065V9.99435C40.7581 9.669 40.8874 9.35697 41.1174 9.12691C41.3475 8.89685 41.6595 8.76761 41.9849 8.76761C42.3102 8.76761 42.6222 8.89685 42.8523 9.12691C43.0824 9.35697 43.2116 9.669 43.2116 9.99435V12.3065C43.2116 12.6319 43.0824 12.9439 42.8523 13.174C42.6222 13.404 42.3102 13.5333 41.9849 13.5333ZM53.6914 13.3774C53.4763 13.3776 53.2648 13.3212 53.0784 13.2139C52.8919 13.1065 52.7369 12.952 52.6291 12.7658L51.4691 10.7656C51.3863 10.6261 51.332 10.4717 51.3092 10.3111C51.2865 10.1506 51.2959 9.98708 51.3367 9.83016C51.3776 9.67323 51.4491 9.52596 51.5473 9.39686C51.6454 9.26777 51.7682 9.15941 51.9084 9.07806C52.0487 8.9967 52.2037 8.94397 52.3645 8.9229C52.5253 8.90183 52.6887 8.91285 52.8452 8.95532C53.0017 8.99779 53.1482 9.07086 53.2763 9.17031C53.4043 9.26977 53.5114 9.39363 53.5913 9.53473L54.7514 11.535C54.9146 11.8164 54.9593 12.1512 54.8757 12.4656C54.7921 12.78 54.5871 13.0483 54.3056 13.2115C54.1192 13.3202 53.9073 13.3775 53.6914 13.3774Z" fill="#E57917"/>
</g>
<defs>
<clipPath id="clip0_59_2913">
<rect width="84" height="84" fill="white"/>
</clipPath>
</defs>
</svg>
