<svg width="84" height="84" viewBox="0 0 84 84" fill="none" xmlns="http://www.w3.org/2000/svg">
<g clip-path="url(#clip0_87_436)">
<path d="M82.8161 56.26H32.4609V74.2829H82.8161C83.8433 74.2829 84.3816 73.0628 83.689 72.3042L77.9958 66.0683C77.797 65.8505 77.6867 65.5663 77.6867 65.2714C77.6867 64.9765 77.797 64.6922 77.9958 64.4745L83.689 58.2386C84.3816 57.4801 83.8433 56.26 82.8161 56.26Z" fill="#FD4755"/>
<path d="M77.9955 66.0683C77.7966 65.8505 77.6864 65.5663 77.6864 65.2714C77.6864 64.9765 77.7966 64.6922 77.9955 64.4745L83.6886 58.2388C84.3813 57.4801 83.843 56.26 82.8158 56.26H77.7505C78.7777 56.26 79.316 57.4801 78.6233 58.2388L72.9302 64.4745C72.7313 64.6922 72.6211 64.9765 72.6211 65.2714C72.6211 65.5663 72.7313 65.8505 72.9302 66.0683L78.6233 72.3042C79.316 73.0628 78.7777 74.2829 77.7505 74.2829H82.8158C83.843 74.2829 84.3813 73.0628 83.6886 72.3042L77.9955 66.0683Z" fill="#FB2B3A"/>
<path d="M32.1781 74.2829C49.9495 74.2829 64.3561 59.8294 64.3561 42C64.3561 24.1707 49.9495 9.7171 32.1781 9.7171C14.4066 9.7171 0 24.1707 0 42C0 59.8294 14.4066 74.2829 32.1781 74.2829Z" fill="#FD4755"/>
<path d="M32.1773 9.7171C31.3249 9.7171 30.4804 9.75106 29.6447 9.81636C46.2321 11.1121 59.29 25.0258 59.29 42C59.29 58.9742 46.2321 72.8879 29.6445 74.1837C30.4803 74.249 31.3247 74.2829 32.1772 74.2829C49.9486 74.2829 64.3552 59.8293 64.3552 42C64.3552 24.1707 49.9487 9.7171 32.1773 9.7171Z" fill="#FB2B3A"/>
<path d="M32.179 58.6138C41.3247 58.6138 48.7388 51.1756 48.7388 42C48.7388 32.8245 41.3247 25.3862 32.179 25.3862C23.0332 25.3862 15.6191 32.8245 15.6191 42C15.6191 51.1756 23.0332 58.6138 32.179 58.6138Z" fill="white"/>
<path d="M33.237 36.6965L34.3231 38.8972C34.4079 39.0691 34.5332 39.2177 34.6882 39.3303C34.8432 39.443 35.0233 39.5162 35.2129 39.5438L37.6416 39.8967C38.611 40.0376 38.998 41.2289 38.2967 41.9127L36.5392 43.6257C36.402 43.7594 36.2994 43.9245 36.2401 44.1068C36.1809 44.289 36.1669 44.4829 36.1993 44.6718L36.6142 47.0905C36.7797 48.056 35.7663 48.7924 34.8993 48.3364L32.7271 47.1944C32.5574 47.1052 32.3687 47.0587 32.1771 47.0587C31.9854 47.0587 31.7967 47.1052 31.627 47.1944L29.4548 48.3364C28.5878 48.7924 27.5744 48.056 27.7399 47.0905L28.1548 44.6718C28.1872 44.4829 28.1732 44.289 28.114 44.1068C28.0548 43.9245 27.9521 43.7594 27.8149 43.6257L26.0574 41.9127C25.3559 41.2289 25.7431 40.0376 26.7125 39.8967L29.1412 39.5438C29.3308 39.5162 29.5109 39.443 29.6659 39.3303C29.8209 39.2177 29.9462 39.0691 30.031 38.8972L31.1171 36.6965C31.5507 35.818 32.8034 35.818 33.237 36.6965Z" fill="#FD4755"/>
</g>
<defs>
<clipPath id="clip0_87_436">
<rect width="84" height="84" fill="white"/>
</clipPath>
</defs>
</svg>
