<svg width="76" height="102" viewBox="0 0 76 102" fill="none" xmlns="http://www.w3.org/2000/svg">
<path d="M7.36941 68.1595C4.39941 68.1595 2 65.7601 2 62.7901V39.8787C2 36.9087 4.39941 34.5093 7.36941 34.5093C10.3394 34.5093 12.7388 36.9087 12.7388 39.8787V62.8047C12.7242 65.7601 10.3248 68.1595 7.36941 68.1595Z" stroke="white" stroke-width="2.5" stroke-miterlimit="10" stroke-linecap="round" stroke-linejoin="round"/>
<path d="M69.301 68.16C66.331 68.16 63.9316 65.7606 63.9316 62.7906V39.8792C63.9316 36.9092 66.331 34.5098 69.301 34.5098C72.271 34.5098 74.6705 36.9092 74.6705 39.8792V62.8052C74.6705 65.7606 72.271 68.16 69.301 68.16Z" stroke="white" stroke-width="2.5" stroke-miterlimit="10" stroke-linecap="round" stroke-linejoin="round"/>
<path d="M38.3284 100.668C35.3584 100.668 32.959 98.2689 32.959 95.2989V72.3875C32.959 69.4321 35.3584 67.0181 38.3284 67.0181C41.2984 67.0181 43.6978 69.4175 43.6978 72.3875V95.3135C43.6978 98.2689 41.2984 100.668 38.3284 100.668Z" stroke="white" stroke-width="2.5" stroke-miterlimit="10" stroke-linecap="round" stroke-linejoin="round"/>
<path d="M38.3284 35.6649C35.3584 35.6649 32.959 33.2655 32.959 30.2955V7.36941C32.959 4.39941 35.3584 2 38.3284 2C41.2984 2 43.6978 4.39941 43.6978 7.36941V30.2955C43.6978 33.2655 41.2984 35.6649 38.3284 35.6649Z" stroke="white" stroke-width="2.5" stroke-miterlimit="10" stroke-linecap="round" stroke-linejoin="round"/>
</svg>
