<svg width="84" height="84" viewBox="0 0 84 84" fill="none" xmlns="http://www.w3.org/2000/svg">
<g clip-path="url(#clip0_59_4683)">
<path d="M16.3432 28.2119C19.6479 17.171 29.8987 9.10059 42.0005 9.10059C54.1022 9.10059 64.353 17.171 67.6577 28.2121C69.9456 28.8368 72.0324 30.2346 73.8066 32.1113C71.942 16.1981 58.4144 3.8501 42.0005 3.8501C25.5865 3.8501 12.0589 16.1981 10.1943 32.1113C11.9685 30.2345 14.0552 28.8367 16.3432 28.2119Z" fill="#F6A96C"/>
<path d="M79.968 47.3053L79.7094 44.0717C79.4937 42.695 79.147 41.3254 78.6848 39.9977L77.6659 37.521C75.0128 31.9719 70.3262 27.6812 64.9863 27.6812C60.1182 27.6812 55.7932 31.2474 53.0566 36.0816C55.3658 39.6735 56.7659 44.1356 56.7659 48.3944C56.7659 50.4716 56.4322 52.3767 55.8231 54.0844H78.5876C79.4707 52.116 79.9654 49.8471 79.9678 47.3244L79.968 47.3053Z" fill="#62DBFB"/>
<path d="M44.6045 3.95657C43.7383 3.88625 42.8696 3.85073 42.0005 3.8501C25.5865 3.8501 12.0589 16.1981 10.1943 32.1113C11.9026 30.3042 13.9013 28.9435 16.0896 28.287C19.3 15.0789 30.6971 5.07597 44.6045 3.95657Z" fill="#EA9B58"/>
<path d="M30.9437 36.0816C28.2072 31.2474 23.8821 27.6812 19.0141 27.6812C12.9032 27.6812 7.64784 33.2998 5.31684 39.9934L4.03895 46.8069L4.03912 46.8062C4.03469 46.9726 4.0324 47.1389 4.03223 47.3053C4.03223 49.8357 4.5272 52.111 5.41265 54.0844H28.1771C27.5681 52.3768 27.2343 50.4716 27.2343 48.3944C27.2344 44.1356 28.6345 39.6735 30.9437 36.0816Z" fill="#FE93D3"/>
<path d="M10.0299 41.4862C11.7852 35.1437 16.1965 29.441 21.604 28.0204C20.7629 27.7994 19.8978 27.6812 19.0145 27.6812C12.9038 27.6812 7.64838 33.2998 5.31738 39.9932C6.99744 40.0374 8.63091 40.5549 10.0299 41.4862Z" fill="#FE73C5"/>
<path d="M4.03906 46.8061C4.23066 46.7839 4.42294 46.7679 4.61558 46.7582C7.33048 46.6248 9.79684 47.6992 11.5251 49.4905C11.7687 49.7431 12.1728 49.7581 12.4159 49.5049C14.0485 47.8052 16.3441 46.747 18.887 46.747C21.43 46.747 23.7256 47.8052 25.3582 49.5049C25.6013 49.7581 26.0054 49.7431 26.249 49.4905C26.5568 49.1721 26.8876 48.8769 27.2388 48.6072C27.238 48.5358 27.2345 48.4659 27.2345 48.394C27.2345 45.9324 27.7025 43.4029 28.5431 41.0125C27.6916 41.4587 26.9171 42.0385 26.249 42.7298C26.0054 42.9824 25.6013 42.9974 25.3582 42.7442C23.7256 41.0444 21.43 39.9863 18.887 39.9863C16.3441 39.9863 14.0485 41.0445 12.4159 42.7442C12.1728 42.9974 11.7689 42.9824 11.5251 42.7298C9.94712 41.0942 7.75295 40.0595 5.31695 39.9929C4.54782 42.2015 4.09681 44.5269 4.03906 46.8066V46.8061Z" fill="#62DBFB"/>
<path d="M49.4748 31.7135L45.2103 29.2932C44.176 28.9544 43.1022 28.77 42.0002 28.77C34.0007 28.77 27.4661 38.3984 27.041 47.4625L27.7442 53.4284C27.8116 53.6485 27.884 53.8671 27.9612 54.0839H56.0392C56.6482 52.3763 56.9821 50.4711 56.9821 48.3939C56.9821 42.1383 53.9619 35.4423 49.4748 31.7135Z" fill="#A2E62E"/>
<path d="M4.03923 46.806C4.23083 46.7838 4.4231 46.7678 4.61574 46.7581C6.28098 46.6764 7.85171 47.0505 9.21688 47.7641C9.21327 47.6121 9.2113 47.459 9.2113 47.3051C9.2113 45.3739 9.49955 43.4009 10.0295 41.4861C8.63042 40.5549 6.99698 40.0374 5.31695 39.9932C4.54782 42.2016 4.09698 44.5269 4.03906 46.8064L4.03923 46.806Z" fill="#01D0FB"/>
<path d="M10.5224 53.92C9.73455 52.1056 9.27173 50.0429 9.21677 47.7642C7.8516 47.0505 6.28087 46.6763 4.61563 46.7582C4.42299 46.7679 4.23072 46.7839 4.03912 46.8061L4.03895 46.8064C4.03458 46.9726 4.03234 47.1389 4.03223 47.3052C4.03223 49.7656 4.4998 51.985 5.33964 53.92H10.5224Z" fill="#FE73C5"/>
<path d="M56.9817 48.394C56.9817 50.4056 56.6662 52.2541 56.0933 53.92H59.1957C58.3557 51.985 57.8872 49.7658 57.8872 47.3052C57.8872 39.5192 62.5656 31.053 68.9274 28.4723C67.6713 27.9627 66.3502 27.6812 64.9858 27.6812C60.1773 27.6812 55.8985 31.1604 53.1572 35.9045C55.5348 39.5258 56.9817 44.0649 56.9817 48.394Z" fill="#01D0FB"/>
<path d="M56.256 42.9206L58.4648 40.6365L60.8409 43.0939C60.9556 43.2125 61.0931 43.3069 61.2451 43.3713C61.397 43.4358 61.5604 43.469 61.7255 43.469C61.8905 43.469 62.0539 43.4358 62.2059 43.3714C62.3579 43.307 62.4954 43.2127 62.6101 43.094L64.9864 40.6367L67.3625 43.094C67.4773 43.2127 67.6147 43.307 67.7667 43.3715C67.9187 43.4359 68.0821 43.4692 68.2471 43.4692C68.4122 43.4692 68.5756 43.436 68.7276 43.3716C68.8795 43.3072 69.017 43.2128 69.1318 43.0942L71.5081 40.6369L73.8839 43.0942C73.9981 43.2124 74.135 43.3065 74.2862 43.371C74.4375 43.4354 74.6001 43.4689 74.7645 43.4694H74.7685C74.9322 43.4694 75.0943 43.4367 75.2453 43.3733C75.3962 43.3098 75.533 43.2169 75.6475 43.0999L78.685 39.9982C78.3914 39.1544 78.0512 38.3276 77.666 37.5215L74.7741 40.4746L72.3927 38.0117C72.278 37.893 72.1405 37.7987 71.9886 37.7342C71.8366 37.6698 71.6732 37.6365 71.5082 37.6365C71.3431 37.6365 71.1797 37.6697 71.0278 37.7341C70.8758 37.7985 70.7384 37.8929 70.6236 38.0115L68.2473 40.4689L65.8712 38.0115C65.7565 37.8929 65.619 37.7985 65.467 37.7341C65.3151 37.6696 65.1517 37.6364 64.9866 37.6364C64.8216 37.6364 64.6582 37.6696 64.5062 37.734C64.3542 37.7984 64.2167 37.8927 64.102 38.0114L61.7257 40.4687L59.3496 38.0114C59.2348 37.8927 59.0974 37.7984 58.9454 37.7339C58.7934 37.6695 58.63 37.6363 58.465 37.6362C58.2999 37.6362 58.1365 37.6694 57.9845 37.7338C57.8326 37.7983 57.6951 37.8926 57.5803 38.0112L55.3975 40.2685C55.7345 41.1353 56.0212 42.0208 56.256 42.9206ZM79.7092 44.0717L75.9448 47.9135L73.173 45.0467C73.0582 44.928 72.9208 44.8337 72.7689 44.7692C72.6169 44.7047 72.4535 44.6715 72.2885 44.6715C72.1234 44.6715 71.96 44.7047 71.8081 44.7691C71.6561 44.8335 71.5186 44.9279 71.4039 45.0465L68.6373 47.9075L65.8707 45.0465C65.756 44.9279 65.6185 44.8335 65.4665 44.7691C65.3145 44.7047 65.1511 44.6715 64.9861 44.6715C64.821 44.6715 64.6576 44.7047 64.5056 44.7692C64.3537 44.8337 64.2162 44.928 64.1015 45.0467L61.335 47.9076L58.5686 45.0467C58.4539 44.9281 58.3164 44.8337 58.1644 44.7693C58.0125 44.7048 57.8491 44.6716 57.684 44.6716C57.519 44.6716 57.3556 44.7047 57.2036 44.7692C57.0516 44.8336 56.9142 44.9279 56.7994 45.0465L56.7182 45.1304C56.8904 46.2198 56.9816 47.3136 56.9816 48.3942V48.3982L57.684 47.6719L60.4504 50.5328C60.5652 50.6514 60.7026 50.7458 60.8546 50.8102C61.0066 50.8747 61.1699 50.9079 61.335 50.9079C61.5001 50.9079 61.6635 50.8748 61.8154 50.8103C61.9674 50.7459 62.1049 50.6516 62.2197 50.533L64.9861 47.672L67.7527 50.533C67.8674 50.6516 68.0049 50.746 68.1569 50.8104C68.3088 50.8749 68.4722 50.9081 68.6373 50.9081C68.8024 50.9081 68.9658 50.8749 69.1177 50.8104C69.2697 50.746 69.4072 50.6516 69.5219 50.533L72.2884 47.672L75.0543 50.5328C75.1686 50.651 75.3053 50.745 75.4566 50.8095C75.6078 50.8739 75.7704 50.9074 75.9348 50.908H75.9389C76.1026 50.908 76.2647 50.8753 76.4156 50.8119C76.5665 50.7485 76.7032 50.6556 76.8178 50.5387L79.9676 47.3241L79.9678 47.3052C79.9678 46.2347 79.8784 45.151 79.7092 44.0717Z" fill="#C8EFFE"/>
<path d="M33.9147 40.5889C35.9514 35.1255 39.935 30.4664 44.7115 29.1454C43.832 28.9026 42.9264 28.77 42.0002 28.77C34.0007 28.77 27.4661 38.3982 27.041 47.4625L33.9147 40.5889ZM27.7499 53.4389C27.7996 53.6004 27.8494 53.7618 27.9037 53.92H33.3377C32.7975 52.3483 32.4922 50.6103 32.4592 48.7297L27.7499 53.4389Z" fill="#97D729"/>
<path d="M41.7712 54.0843L55.4501 40.4054C54.8513 38.8376 54.0921 37.3394 53.2001 35.9701L35.086 54.0843H41.7712ZM56.0392 54.0843C56.6482 52.3767 56.9821 50.4715 56.9821 48.3943C56.9821 47.9021 56.9623 47.4071 56.9257 46.9111L49.7525 54.0843H56.0392ZM45.2103 29.2935L27.041 47.4629C27.0263 47.7732 27.0188 48.0838 27.0186 48.3944C27.0186 50.2144 27.2751 51.9021 27.7481 53.441L49.4751 31.714C48.1657 30.6256 46.731 29.7916 45.2103 29.2935Z" fill="#FED402"/>
<path d="M3.12695 58.9331V59.106C3.12695 70.7284 12.5487 80.1502 24.1711 80.1502H59.8292C71.4516 80.1502 80.8734 70.7284 80.8734 59.106V58.9331H3.12695Z" fill="#F6A96C"/>
<path d="M12.3061 67.1013C11.2928 64.6361 10.7326 61.9369 10.7326 59.1065V58.9336H3.12695V59.1065C3.12695 61.9369 3.68706 64.6362 4.70048 67.1013H12.3061ZM15.5535 72.5106H7.94793C11.8078 77.177 17.6422 80.1505 24.1713 80.1505H31.7769C25.2478 80.1505 19.4134 77.177 15.5535 72.5106Z" fill="#EA9B58"/>
<path d="M10.4053 58.9331H17.7827V67.2649H10.4053V58.9331ZM24.3583 58.9331H31.7357V67.2649H24.3583V58.9331ZM38.3113 58.9331H45.6887V67.2649H38.3113V58.9331ZM52.2643 58.9331H59.6417V67.2649H52.2643V58.9331ZM66.2175 58.9331H73.5949V67.2649H66.2175V58.9331Z" fill="#FED2A4"/>
<path d="M76.0523 72.5105C77.4006 70.8809 78.4954 69.0572 79.2997 67.1011H4.7002C5.5046 69.0572 6.59939 70.8809 7.94765 72.5105H76.0523Z" fill="#D88A55"/>
<path d="M7.94765 72.5105H15.5533C14.205 70.8809 13.1102 69.0572 12.3058 67.1011H4.7002C5.50452 69.0573 6.59932 70.8809 7.94765 72.5105Z" fill="#C57A44"/>
<path d="M83.1549 59.0972H0.845086C0.734102 59.0973 0.6242 59.0754 0.52166 59.033C0.41912 58.9905 0.32595 58.9283 0.247472 58.8498C0.168994 58.7713 0.106746 58.6781 0.0642845 58.5756C0.0218225 58.473 -2.15365e-05 58.3631 1.5933e-08 58.2522V54.765C-2.15365e-05 54.654 0.0218225 54.5441 0.0642845 54.4416C0.106746 54.339 0.168994 54.2459 0.247472 54.1674C0.32595 54.0889 0.41912 54.0267 0.52166 53.9842C0.6242 53.9417 0.734102 53.9199 0.845086 53.9199H83.1549C83.2659 53.9199 83.3758 53.9417 83.4783 53.9842C83.5809 54.0267 83.674 54.0889 83.7525 54.1674C83.831 54.2459 83.8933 54.339 83.9357 54.4416C83.9782 54.5441 84 54.654 84 54.765V58.2522C84 58.4763 83.911 58.6912 83.7525 58.8497C83.594 59.0082 83.379 59.0972 83.1549 59.0972Z" fill="#FFBD86"/>
<path d="M7.6901 58.2523V54.765C7.69008 54.654 7.71192 54.5441 7.75438 54.4416C7.79685 54.339 7.8591 54.2459 7.93757 54.1674C8.01605 54.0889 8.10922 54.0267 8.21176 53.9842C8.3143 53.9417 8.4242 53.9199 8.53519 53.9199H0.845086C0.734102 53.9199 0.6242 53.9417 0.52166 53.9842C0.41912 54.0267 0.32595 54.0889 0.247472 54.1674C0.168994 54.2459 0.106746 54.339 0.0642845 54.4416C0.0218225 54.5441 -2.15365e-05 54.654 1.5933e-08 54.765V58.2523C-2.15365e-05 58.3633 0.0218225 58.4732 0.0642845 58.5757C0.106746 58.6783 0.168994 58.7715 0.247472 58.8499C0.32595 58.9284 0.41912 58.9907 0.52166 59.0331C0.6242 59.0756 0.734102 59.0974 0.845086 59.0974H8.53519C8.31106 59.0974 8.09611 59.0084 7.93762 58.8499C7.77914 58.6914 7.6901 58.4765 7.6901 58.2523Z" fill="#F6A96C"/>
<path d="M32.4525 48.3941C32.4525 45.7865 32.9776 43.1026 33.9148 40.5889L27.041 47.4626C27.0263 47.7729 27.0188 48.0835 27.0186 48.3941C27.0186 50.2139 27.277 51.9003 27.7499 53.4389L32.4592 48.7297C32.4571 48.6178 32.4525 48.507 32.4525 48.3941Z" fill="#FAC600"/>
</g>
<defs>
<clipPath id="clip0_59_4683">
<rect width="84" height="84" fill="white"/>
</clipPath>
</defs>
</svg>
