<svg width="24" height="18" viewBox="0 0 24 18" fill="none" xmlns="http://www.w3.org/2000/svg">
<path d="M14.0057 11.7044C13.4086 12.1024 12.7151 12.3129 12 12.3129C11.285 12.3129 10.5914 12.1024 9.99431 11.7044L0.159797 5.14783C0.105506 5.11153 0.0522208 5.07375 0 5.03453L0 15.7781C0 17.0099 0.999609 17.9875 2.20936 17.9875H21.7906C23.0224 17.9875 24 16.9879 24 15.7781V5.03448C23.9476 5.07381 23.8942 5.11167 23.8398 5.14802L14.0057 11.7044Z" fill="#FF3276"/>
<path d="M0.939845 3.97773L10.7744 10.5343C11.1466 10.7825 11.5733 10.9066 12 10.9066C12.4267 10.9066 12.8534 10.7825 13.2256 10.5343L23.0602 3.97773C23.6487 3.58562 24 2.92937 24 2.22109C24 1.00323 23.0092 0.0124817 21.7914 0.0124817H2.20861C0.990798 0.0125286 1.16255e-06 1.00328 1.16255e-06 2.22226C-0.000363928 2.5697 0.085267 2.91183 0.249256 3.21814C0.413246 3.52444 0.650496 3.7854 0.939845 3.97773Z" fill="#FF3276"/>
</svg>
