<svg width="28" height="28" viewBox="0 0 28 28" fill="none" xmlns="http://www.w3.org/2000/svg">
<g clip-path="url(#clip0_12_1491)">
<path d="M14 0C11.2311 0 8.52431 0.821086 6.22202 2.35943C3.91973 3.89777 2.12532 6.08427 1.06569 8.64243C0.00606595 11.2006 -0.271181 14.0155 0.269012 16.7313C0.809205 19.447 2.14258 21.9416 4.10051 23.8995C6.05845 25.8574 8.55301 27.1908 11.2687 27.731C13.9845 28.2712 16.7994 27.9939 19.3576 26.9343C21.9157 25.8747 24.1022 24.0803 25.6406 21.778C27.1789 19.4757 28 16.7689 28 14C28 10.287 26.525 6.72601 23.8995 4.1005C21.274 1.475 17.713 0 14 0ZM17.5479 12.6737L17.3158 14.6245C17.3058 14.715 17.2626 14.7986 17.1945 14.8592C17.1265 14.9197 17.0385 14.9529 16.9474 14.9524H14.9211V20.7366C14.9216 20.8056 14.8947 20.8721 14.8464 20.9214C14.7981 20.9708 14.7322 20.999 14.6632 21H12.6C12.5657 20.9995 12.5317 20.9923 12.5002 20.9787C12.4686 20.9651 12.4401 20.9454 12.4161 20.9208C12.3922 20.8962 12.3733 20.867 12.3606 20.8351C12.3479 20.8032 12.3416 20.7691 12.3421 20.7347L12.3532 14.9524H10.8187C10.721 14.9524 10.6273 14.9136 10.5582 14.8445C10.4891 14.7754 10.4503 14.6817 10.4503 14.5839V12.635C10.4503 12.5373 10.4891 12.4436 10.5582 12.3745C10.6273 12.3054 10.721 12.2666 10.8187 12.2666H12.3421V10.3766C12.3421 8.19 13.6445 7 15.5474 7H17.1076C17.2053 7 17.2991 7.03882 17.3681 7.10791C17.4372 7.177 17.4761 7.27071 17.4761 7.36842V9.00974C17.4761 9.10745 17.4372 9.20116 17.3681 9.27025C17.2991 9.33934 17.2053 9.37816 17.1076 9.37816H16.1516C15.1163 9.39474 14.9211 9.89026 14.9211 10.6308V12.2611H17.1905C17.2419 12.2622 17.2925 12.2741 17.339 12.296C17.3856 12.3179 17.427 12.3493 17.4606 12.3882C17.4943 12.427 17.5195 12.4725 17.5345 12.5217C17.5495 12.5709 17.5541 12.6226 17.5479 12.6737Z" fill="white"/>
</g>
<defs>
<clipPath id="clip0_12_1491">
<rect width="28" height="28" fill="white"/>
</clipPath>
</defs>
</svg>
