<svg width="43" height="147" viewBox="0 0 43 147" fill="none" xmlns="http://www.w3.org/2000/svg">
<path d="M2 7.1C2 4.28 4.28999 2 7.09999 2C9.91999 2 12.2 4.29 12.2 7.1" stroke="white" stroke-width="2.5" stroke-miterlimit="10" stroke-linecap="round" stroke-linejoin="round"/>
<path d="M2 26.8002C2 23.9802 4.28999 21.7002 7.09999 21.7002C9.91999 21.7002 12.2 23.9902 12.2 26.8002" stroke="white" stroke-width="2.5" stroke-miterlimit="10" stroke-linecap="round" stroke-linejoin="round"/>
<path d="M2 46.5102C2 43.6902 4.28999 41.4102 7.09999 41.4102C9.91999 41.4102 12.2 43.7002 12.2 46.5102" stroke="white" stroke-width="2.5" stroke-miterlimit="10" stroke-linecap="round" stroke-linejoin="round"/>
<path d="M2 66.2201C2 63.4001 4.28999 61.1201 7.09999 61.1201C9.91999 61.1201 12.2 63.4101 12.2 66.2201" stroke="white" stroke-width="2.5" stroke-miterlimit="10" stroke-linecap="round" stroke-linejoin="round"/>
<path d="M2 85.9203C2 83.1003 4.28999 80.8203 7.09999 80.8203C9.91999 80.8203 12.2 83.1103 12.2 85.9203" stroke="white" stroke-width="2.5" stroke-miterlimit="10" stroke-linecap="round" stroke-linejoin="round"/>
<path d="M2 105.63C2 102.81 4.28999 100.53 7.09999 100.53C9.91999 100.53 12.2 102.82 12.2 105.63" stroke="white" stroke-width="2.5" stroke-miterlimit="10" stroke-linecap="round" stroke-linejoin="round"/>
<path d="M2 125.33C2 122.51 4.28999 120.23 7.09999 120.23C9.91999 120.23 12.2 122.52 12.2 125.33" stroke="white" stroke-width="2.5" stroke-miterlimit="10" stroke-linecap="round" stroke-linejoin="round"/>
<path d="M2 145.04C2 142.22 4.28999 139.94 7.09999 139.94C9.91999 139.94 12.2 142.23 12.2 145.04" stroke="white" stroke-width="2.5" stroke-miterlimit="10" stroke-linecap="round" stroke-linejoin="round"/>
<path d="M31.4902 7.1C31.4902 4.28 33.7802 2 36.5902 2C39.4102 2 41.6902 4.29 41.6902 7.1" stroke="white" stroke-width="2.5" stroke-miterlimit="10" stroke-linecap="round" stroke-linejoin="round"/>
<path d="M31.4902 26.8002C31.4902 23.9802 33.7802 21.7002 36.5902 21.7002C39.4102 21.7002 41.6902 23.9902 41.6902 26.8002" stroke="white" stroke-width="2.5" stroke-miterlimit="10" stroke-linecap="round" stroke-linejoin="round"/>
<path d="M31.4902 46.5102C31.4902 43.6902 33.7802 41.4102 36.5902 41.4102C39.4102 41.4102 41.6902 43.7002 41.6902 46.5102" stroke="white" stroke-width="2.5" stroke-miterlimit="10" stroke-linecap="round" stroke-linejoin="round"/>
<path d="M31.4902 66.2201C31.4902 63.4001 33.7802 61.1201 36.5902 61.1201C39.4102 61.1201 41.6902 63.4101 41.6902 66.2201" stroke="white" stroke-width="2.5" stroke-miterlimit="10" stroke-linecap="round" stroke-linejoin="round"/>
<path d="M31.4902 85.9203C31.4902 83.1003 33.7802 80.8203 36.5902 80.8203C39.4102 80.8203 41.6902 83.1103 41.6902 85.9203" stroke="white" stroke-width="2.5" stroke-miterlimit="10" stroke-linecap="round" stroke-linejoin="round"/>
<path d="M31.4902 105.63C31.4902 102.81 33.7802 100.53 36.5902 100.53C39.4102 100.53 41.6902 102.82 41.6902 105.63" stroke="white" stroke-width="2.5" stroke-miterlimit="10" stroke-linecap="round" stroke-linejoin="round"/>
<path d="M31.4902 125.33C31.4902 122.51 33.7802 120.23 36.5902 120.23C39.4102 120.23 41.6902 122.52 41.6902 125.33" stroke="white" stroke-width="2.5" stroke-miterlimit="10" stroke-linecap="round" stroke-linejoin="round"/>
<path d="M31.4902 145.04C31.4902 142.22 33.7802 139.94 36.5902 139.94C39.4102 139.94 41.6902 142.23 41.6902 145.04" stroke="white" stroke-width="2.5" stroke-miterlimit="10" stroke-linecap="round" stroke-linejoin="round"/>
</svg>
