<svg width="84" height="84" viewBox="0 0 84 84" fill="none" xmlns="http://www.w3.org/2000/svg">
<path d="M23.0221 21.9918C23.0221 21.9918 22.4652 27.5603 15.1468 36.5495C15.1468 36.5495 9.65766 41.402 9.02148 49.1989C9.02148 49.1989 12.4267 46.4566 16.0216 45.8312C16.0216 45.8312 9.60973 57.1841 13.7793 68.2432C13.7793 68.2432 14.9259 64.8034 17.3236 63.0303C17.3236 63.0303 14.8217 72.0165 23.6822 76.8942C23.6187 75.6442 24.0282 74.4162 24.829 73.4544C24.829 73.4544 28.0603 69.0763 28.0603 63.343C28.0603 63.343 30.2179 66.6783 30.1816 69.5973C30.1816 69.5973 34.0021 65.532 33.2725 57.5055C33.2725 57.5055 36.2955 68.4411 46.4069 73.8714C46.4069 73.8714 47.8663 69.389 46.4069 62.9267C46.4069 62.9267 49.2214 73.5594 67.0467 71.7873C67.0467 71.7873 72.0504 71.3702 75.3862 72.4128C75.3862 72.4128 74.1351 60.5293 63.7109 52.7111C63.7109 52.7111 67.151 51.4602 70.0697 51.9813C70.0697 51.9813 68.2976 40.7233 55.9973 35.0943C57.7638 34.9578 59.4947 34.525 61.1175 33.8141C62.8054 33.0756 64.617 32.661 66.458 32.5919C67.4238 32.5567 68.3906 32.6265 69.3414 32.8001C69.3414 32.8001 68.5073 28.7348 64.9633 27.5872C64.9633 27.5872 68.2986 28.7338 72.3644 26.9616C72.3644 26.9616 76.0127 25.1895 78.8272 25.1895C78.8272 25.1895 76.534 16.5375 64.442 17.5801C64.442 17.5801 67.9863 16.225 69.7582 12.8894C69.7582 12.8894 65.3801 9.34511 52.5584 12.4724C48.8899 13.367 46.0749 13.784 43.925 13.9231C43.925 13.9231 46.1838 12.3958 47.1367 10.2832C47.1367 10.2832 43.0771 9.59389 36.7961 13.2709C34.6251 14.5398 32.3359 15.5947 29.9607 16.4206C27.3293 17.3387 24.0212 19.0441 23.0221 21.9918Z" fill="#F29251"/>
<path d="M31.7859 27.3339C35.6465 26.0593 40.5983 25.4039 43.0348 25.1393C43.4966 25.0886 43.9387 24.9247 44.3219 24.662C44.7051 24.3993 45.0174 24.046 45.2311 23.6335L45.492 23.1302C40.1649 22.8318 36.1218 23.1994 33.355 23.6631C32.1955 23.8599 31.004 23.7299 29.9142 23.2877C28.8244 22.8455 27.8793 22.1085 27.1847 21.1594C23.9976 16.7939 20.672 12.0429 17.4437 7.10547C16.9156 8.51035 16.4989 9.95457 16.1973 11.4248C16.1973 11.4248 20.1643 17.4553 25.6596 24.9103C26.2041 25.6487 26.5809 26.497 26.7639 27.3961C26.9469 28.2951 26.9317 29.2232 26.7192 30.1158C25.9808 33.2186 25.0538 37.592 24.6934 41.3075L26.0645 40.8769C26.5668 40.7198 27.015 40.4252 27.3585 40.0264C27.7019 39.6277 27.9269 39.1408 28.0079 38.6208C28.3212 36.6016 28.9482 33.1966 29.9322 30.5681C34.9853 37.0954 40.6793 43.8278 45.6244 48.1442L45.7042 46.5136C45.7601 45.3744 45.3802 44.2566 44.6419 43.3873C42.5147 40.8809 37.6392 35.0328 31.7859 27.3339ZM6.35616 20.9798C6.35616 20.9798 1.74778 26.0704 4.58772 29.7143C7.42766 33.3582 8.23159 34.8729 8.23159 34.8729C8.23159 34.8729 13.3758 26.1241 6.35616 20.9798ZM70.6352 37.8346C70.6352 37.8346 70.0022 41.9946 77.0572 44.0751C77.0572 44.0751 79.3181 44.6186 80.3127 45.341C80.3115 45.3405 81.3066 36.7948 70.6352 37.8346Z" fill="#CC4729"/>
<path d="M67.0467 71.7863C67.0467 71.7863 72.0504 71.3692 75.3862 72.4118C75.3862 72.4118 74.6566 65.4887 69.6767 58.7346C34.0162 61.9056 21.411 43.8316 17.2088 33.8672C16.5467 34.7803 15.8591 35.6747 15.1468 36.5493C15.1468 36.5493 9.65766 41.4017 9.02148 49.1987C9.02148 49.1987 12.4267 46.4563 16.0216 45.831C16.0216 45.831 9.60973 57.1839 13.7793 68.243C13.7793 68.243 14.9259 64.8032 17.3236 63.03C17.3236 63.03 14.8217 72.0163 23.6822 76.894C23.6187 75.644 24.0282 74.416 24.829 73.4542C24.829 73.4542 28.0603 69.076 28.0603 63.3428C28.0603 63.3428 30.2179 66.6781 30.1816 69.5971C30.1816 69.5971 34.0021 65.5317 33.2725 57.5053C33.2725 57.5053 36.2955 68.4408 46.4069 73.8712C46.4069 73.8712 47.8663 69.3886 46.4069 62.9265C46.4069 62.9255 49.2214 73.5584 67.0467 71.7863Z" fill="#EA7649"/>
</svg>
