<svg width="275" height="395" viewBox="0 0 275 395" fill="none" xmlns="http://www.w3.org/2000/svg">
<g opacity="0.2">
<path d="M110.916 113.112C99.4798 132.92 85.2734 148.343 71.7661 157.354C57.9654 166.559 46.3665 168.221 38.8731 163.894C31.3796 159.568 27.0189 148.692 28.0909 132.138C29.1402 115.935 35.394 95.9202 46.8301 76.1122C58.2663 56.3041 72.4727 40.8808 85.9801 31.8708C99.7808 22.665 111.38 21.0038 118.873 25.3301C126.367 29.6565 130.727 40.532 129.655 57.0866C128.606 73.2893 122.352 93.3041 110.916 113.112Z" stroke="#FF7878" stroke-width="10"/>
<path d="M146.424 133.612C134.988 153.42 120.781 168.843 107.274 177.854C93.4732 187.059 81.8743 188.721 74.3809 184.394C66.8874 180.068 62.5267 169.192 63.5987 152.638C64.648 136.435 70.9018 116.42 82.3379 96.6122C93.7741 76.8041 107.981 61.3808 121.488 52.3708C135.289 43.165 146.887 41.5038 154.381 45.8301C161.874 50.1565 166.235 61.032 165.163 77.5866C164.114 93.7893 157.86 113.804 146.424 133.612Z" stroke="#FF7878" stroke-width="10"/>
<path d="M181.93 154.112C170.494 173.92 156.287 189.343 142.78 198.354C128.979 207.559 117.38 209.221 109.887 204.894C102.393 200.568 98.0326 189.692 99.1046 173.138C100.154 156.935 106.408 136.92 117.844 117.112C129.28 97.3041 143.486 81.8808 156.994 72.8708C170.794 63.665 182.393 62.0038 189.887 66.3301C197.38 70.6565 201.741 81.532 200.669 98.0866C199.62 114.289 193.366 134.304 181.93 154.112Z" stroke="#FF7878" stroke-width="10"/>
<path d="M217.437 174.612C206.001 194.42 191.795 209.843 178.288 218.854C164.487 228.059 152.888 229.721 145.395 225.394C137.901 221.068 133.54 210.192 134.612 193.638C135.662 177.435 141.915 157.42 153.352 137.612C164.788 117.804 178.994 102.381 192.502 93.3708C206.302 84.165 217.901 82.5038 225.395 86.8301C232.888 91.1565 237.249 102.032 236.177 118.587C235.127 134.789 228.874 154.804 217.437 174.612Z" stroke="#FF7878" stroke-width="10"/>
<path d="M252.943 195.112C241.507 214.92 227.301 230.343 213.793 239.354C199.993 248.559 188.394 250.221 180.9 245.894C173.407 241.568 169.046 230.692 170.118 214.138C171.168 197.935 177.421 177.92 188.857 158.112C200.294 138.304 214.5 122.881 228.007 113.871C241.808 104.665 253.407 103.004 260.9 107.33C268.394 111.656 272.755 122.532 271.683 139.087C270.633 155.289 264.38 175.304 252.943 195.112Z" stroke="#FF7878" stroke-width="10"/>
<path d="M288.451 215.612C277.015 235.42 262.809 250.843 249.301 259.854C235.501 269.059 223.902 270.721 216.408 266.394C208.915 262.068 204.554 251.192 205.626 234.638C206.675 218.435 212.929 198.42 224.365 178.612C235.801 158.804 250.008 143.381 263.515 134.371C277.316 125.165 288.915 123.504 296.408 127.83C303.902 132.156 308.262 143.032 307.19 159.587C306.141 175.789 299.887 195.804 288.451 215.612Z" stroke="#FF7878" stroke-width="10"/>
<path d="M323.959 236.112C312.523 255.92 298.316 271.343 284.809 280.354C271.008 289.559 259.409 291.221 251.916 286.894C244.423 282.568 240.062 271.692 241.134 255.138C242.183 238.935 248.437 218.92 259.873 199.112C271.309 179.304 285.516 163.881 299.023 154.871C312.824 145.665 324.423 144.004 331.916 148.33C339.409 152.656 343.77 163.532 342.698 180.087C341.649 196.289 335.395 216.304 323.959 236.112Z" stroke="#FF7878" stroke-width="10"/>
<path d="M359.465 256.612C348.029 276.42 333.822 291.843 320.315 300.854C306.514 310.059 294.915 311.721 287.422 307.394C279.928 303.068 275.568 292.192 276.64 275.638C277.689 259.435 283.943 239.42 295.379 219.612C306.815 199.804 321.022 184.381 334.529 175.371C348.33 166.165 359.928 164.504 367.422 168.83C374.915 173.156 379.276 184.032 378.204 200.587C377.155 216.789 370.901 236.804 359.465 256.612Z" stroke="#FF7878" stroke-width="10"/>
</g>
</svg>
