<svg width="84" height="84" viewBox="0 0 84 84" fill="none" xmlns="http://www.w3.org/2000/svg">
<g clip-path="url(#clip0_59_3153)">
<path d="M0 68.8741L0.0127969 70.0939C19.4125 88.8366 50.3339 88.633 69.4834 69.4834C88.6331 50.3339 88.8366 19.4125 70.0941 0.0127969L68.8743 0L0 68.8741Z" fill="#98DB7C"/>
<path d="M69.4836 64.8779C50.902 83.4593 21.239 84.1987 1.77122 67.1029L0 68.8741L0.0127969 70.094C19.4125 88.8366 50.3339 88.6332 69.4836 69.4835C79.7472 59.2199 84.5673 45.575 83.946 32.1346C83.3956 44.0407 78.5753 55.7861 69.4836 64.8779Z" fill="#82D361"/>
<path d="M5.12891 63.745L5.1294 63.7455C21.3158 79.9318 47.5589 79.9318 63.7452 63.7455C79.9314 47.5593 79.9314 21.316 63.7452 5.12976L63.7447 5.12927L5.12891 63.745Z" fill="#FF4755"/>
<path d="M63.7453 59.1398C48.3339 74.5512 23.8059 75.2883 7.52143 61.3525L5.12891 63.745L5.1294 63.7455C21.3158 79.9318 47.5589 79.9318 63.7452 63.7455C72.4242 55.0664 76.447 43.4959 75.8187 32.1348C75.2753 41.9619 71.2525 51.6326 63.7453 59.1398Z" fill="#FC2B3A"/>
<path d="M49.4112 51.8479C50.0621 51.8479 50.674 51.5944 51.1344 51.1342C51.5948 50.674 51.8482 50.0621 51.8482 49.4111C51.8482 48.7601 51.5948 48.1483 51.1346 47.6879L51.1342 47.6876C50.7877 47.3411 48.1695 45.3661 46.7677 46.7677C46.3469 47.1887 45.9799 47.9983 46.6215 49.4649C46.9022 50.1065 47.3309 50.7774 47.6879 51.1341C47.9137 51.3611 48.1823 51.5411 48.4781 51.6636C48.7739 51.7862 49.0911 51.8488 49.4112 51.8479ZM36.733 52.7381C34.7718 53.0275 34.7959 56.3063 34.8673 56.7918C35.0454 58.0014 36.0886 58.8737 37.2769 58.8737C38.2899 58.8737 39.2162 58.2245 39.566 57.2749C39.9457 56.2444 39.5004 55.1311 38.9852 54.2296C38.1908 52.8398 37.3221 52.6523 36.733 52.7381ZM21.5986 56.4005C21.4858 56.7001 21.4335 57.0191 21.4449 57.3391C21.4562 57.659 21.5309 57.9735 21.6647 58.2644C22.0706 59.1534 22.9957 59.726 23.9742 59.6889C24.9484 59.652 25.8246 59.0164 26.1647 58.1048C26.3414 57.6316 26.4527 56.8434 26.4417 56.1434C26.4166 54.5426 25.7464 53.9584 25.1887 53.7504C23.3312 53.0567 21.77 55.9413 21.5986 56.4005ZM52.7383 36.733C52.4492 38.6945 55.5964 39.6174 56.081 39.6887C57.3965 39.8817 58.6537 38.9472 58.8476 37.633C59.0414 36.3179 58.1051 35.0602 56.7919 34.8668C56.3063 34.7961 53.0275 34.7715 52.7383 36.733ZM56.1434 26.4415C56.7918 26.4517 57.4926 26.3933 58.1048 26.1646C59.3479 25.7008 60.001 24.2752 59.5357 23.0295C59.0717 21.7862 57.6465 21.1334 56.4006 21.5982C55.9275 21.7748 55.2589 22.2072 54.7372 22.6743C53.5443 23.742 53.5422 24.6311 53.7504 25.1887C53.9586 25.7464 54.5426 26.4164 56.1434 26.4415Z" fill="#5B5B5B"/>
</g>
<defs>
<clipPath id="clip0_59_3153">
<rect width="84" height="84" fill="white"/>
</clipPath>
</defs>
</svg>
