<svg width="195" height="24" viewBox="0 0 195 24" fill="none" xmlns="http://www.w3.org/2000/svg">
<path d="M2.09 4.17999C0.939996 4.17999 0 3.24 0 2.09C0 0.939996 0.939996 0 2.09 0C3.24 0 4.17999 0.939996 4.17999 2.09C4.17999 3.24 3.24 4.17999 2.09 4.17999Z" fill="white"/>
<path d="M29.2599 4.17999C28.1099 4.17999 27.1699 3.24 27.1699 2.09C27.1699 0.939996 28.1099 0 29.2599 0C30.4099 0 31.3499 0.939996 31.3499 2.09C31.3499 3.24 30.4099 4.17999 29.2599 4.17999Z" fill="white"/>
<path d="M56.4201 4.17999C55.2701 4.17999 54.3301 3.24 54.3301 2.09C54.3301 0.939996 55.2701 0 56.4201 0C57.5701 0 58.5101 0.939996 58.5101 2.09C58.5101 3.24 57.5801 4.17999 56.4201 4.17999Z" fill="white"/>
<path d="M83.59 4.17999C82.44 4.17999 81.5 3.24 81.5 2.09C81.5 0.939996 82.44 0 83.59 0C84.74 0 85.68 0.939996 85.68 2.09C85.68 3.24 84.74 4.17999 83.59 4.17999Z" fill="white"/>
<path d="M110.76 4.17999C109.61 4.17999 108.67 3.24 108.67 2.09C108.67 0.939996 109.61 0 110.76 0C111.91 0 112.85 0.939996 112.85 2.09C112.85 3.24 111.91 4.17999 110.76 4.17999Z" fill="white"/>
<path d="M137.92 4.17999C136.77 4.17999 135.83 3.24 135.83 2.09C135.83 0.939996 136.77 0 137.92 0C139.07 0 140.01 0.939996 140.01 2.09C140.01 3.24 139.08 4.17999 137.92 4.17999Z" fill="white"/>
<path d="M165.09 4.17999C163.94 4.17999 163 3.24 163 2.09C163 0.939996 163.94 0 165.09 0C166.24 0 167.18 0.939996 167.18 2.09C167.18 3.24 166.24 4.17999 165.09 4.17999Z" fill="white"/>
<path d="M192.26 4.17999C191.11 4.17999 190.17 3.24 190.17 2.09C190.17 0.939996 191.11 0 192.26 0C193.41 0 194.35 0.939996 194.35 2.09C194.35 3.24 193.41 4.17999 192.26 4.17999Z" fill="white"/>
<path d="M2.09 23.18C0.939996 23.18 0 22.24 0 21.09C0 19.94 0.939996 19 2.09 19C3.24 19 4.17999 19.94 4.17999 21.09C4.17999 22.24 3.24 23.18 2.09 23.18Z" fill="white"/>
<path d="M29.2599 23.18C28.1099 23.18 27.1699 22.24 27.1699 21.09C27.1699 19.94 28.1099 19 29.2599 19C30.4099 19 31.3499 19.94 31.3499 21.09C31.3499 22.24 30.4099 23.18 29.2599 23.18Z" fill="white"/>
<path d="M56.4201 23.18C55.2701 23.18 54.3301 22.24 54.3301 21.09C54.3301 19.94 55.2701 19 56.4201 19C57.5701 19 58.5101 19.94 58.5101 21.09C58.5101 22.24 57.5801 23.18 56.4201 23.18Z" fill="white"/>
<path d="M83.59 23.18C82.44 23.18 81.5 22.24 81.5 21.09C81.5 19.94 82.44 19 83.59 19C84.74 19 85.68 19.94 85.68 21.09C85.68 22.24 84.74 23.18 83.59 23.18Z" fill="white"/>
<path d="M110.76 23.18C109.61 23.18 108.67 22.24 108.67 21.09C108.67 19.94 109.61 19 110.76 19C111.91 19 112.85 19.94 112.85 21.09C112.85 22.24 111.91 23.18 110.76 23.18Z" fill="white"/>
<path d="M137.92 23.18C136.77 23.18 135.83 22.24 135.83 21.09C135.83 19.94 136.77 19 137.92 19C139.07 19 140.01 19.94 140.01 21.09C140.01 22.24 139.08 23.18 137.92 23.18Z" fill="white"/>
<path d="M165.09 23.18C163.94 23.18 163 22.24 163 21.09C163 19.94 163.94 19 165.09 19C166.24 19 167.18 19.94 167.18 21.09C167.18 22.24 166.24 23.18 165.09 23.18Z" fill="white"/>
<path d="M192.26 23.18C191.11 23.18 190.17 22.24 190.17 21.09C190.17 19.94 191.11 19 192.26 19C193.41 19 194.35 19.94 194.35 21.09C194.35 22.24 193.41 23.18 192.26 23.18Z" fill="white"/>
</svg>
