<svg width="84" height="84" viewBox="0 0 84 84" fill="none" xmlns="http://www.w3.org/2000/svg">
<path d="M57.1397 20.0555C58.827 18.797 60.8678 18.1018 62.9724 18.0684C72.0484 18.0684 79.4062 31.7991 79.4062 48.7369C79.4062 65.6747 72.0484 79.4061 62.9724 79.4061C60.8676 79.3727 58.8268 78.6772 57.1397 77.4183V20.0555ZM26.8603 20.0555C25.173 18.797 23.1322 18.1018 21.0276 18.0684C11.9516 18.0684 4.59375 31.7991 4.59375 48.7369C4.59375 65.6747 11.9516 79.4061 21.0276 79.4061C23.1324 79.3727 25.1732 78.6772 26.8603 77.4183V20.0555Z" fill="#FB931F"/>
<path d="M37.6911 22.1851C35.6338 20.1638 33.3094 19.0259 30.8484 19.0259C22.436 19.0259 15.6162 32.3281 15.6162 48.7369C15.6162 65.1458 22.436 78.4487 30.8484 78.4487C33.3094 78.4487 35.6338 77.3101 37.6918 75.2888H46.3084C48.3657 77.3101 50.6908 78.4487 53.1517 78.4487C61.5642 78.4487 68.3833 65.1465 68.3833 48.7369C68.3833 32.3274 61.5642 19.0259 53.1517 19.0259C50.6908 19.0259 48.3664 20.1638 46.309 22.1851H37.6911Z" fill="#FB7717"/>
<path d="M45.5118 21.4239C44.7097 19.1817 44.3334 16.8094 44.4021 14.429V13.0837C44.4021 12.1064 44.7903 11.1691 45.4814 10.4781C46.1724 9.78704 47.1096 9.39881 48.0869 9.39881H49.9566L48.0869 4.59375C45.8353 4.59375 43.6758 5.48822 42.0837 7.08039C40.4915 8.67255 39.597 10.832 39.597 13.0837V14.429C39.6657 16.8094 39.2894 19.1817 38.4873 21.4239H45.5118Z" fill="#9CDD03"/>
<path d="M41.9998 77.4906C48.1924 77.4906 53.2125 64.6172 53.2125 48.737C53.2125 32.8568 48.1924 19.9834 41.9998 19.9834C35.8072 19.9834 30.7871 32.8568 30.7871 48.737C30.7871 64.6172 35.8072 77.4906 41.9998 77.4906Z" fill="#FB931F"/>
<path d="M46.538 49.4669L42.0001 42.5698L37.4621 49.4669H46.538ZM46.538 35.1417L60.8351 32.0986L52.9109 42.0861L46.538 35.1417ZM37.4621 35.1417L23.165 32.0986L31.0893 42.0861L37.4621 35.1417ZM42.0001 65.3758L48.0914 61.7611L51.4179 64.3474L60.8351 55.9658L52.6346 57.8702L48.0888 54.4951L42.0001 57.9254L35.9114 54.4951L31.3655 57.8702L23.165 55.9658L32.5822 64.3474L35.9088 61.7611L42.0001 65.3758Z" fill="#474287"/>
</svg>
