<svg width="84" height="84" viewBox="0 0 84 84" fill="none" xmlns="http://www.w3.org/2000/svg">
<path d="M58.4357 60.9419C58.1057 60.8322 57.7456 60.8579 57.4346 61.0134C57.1235 61.169 56.8869 61.4416 56.7767 61.7714L56.2806 63.2624C55.1669 66.6339 53.3955 69.7509 51.0689 72.433C48.7423 75.1151 45.9067 77.3091 42.7264 78.8877C42.4148 79.0433 42.1778 79.3163 42.0676 79.6467C41.9573 79.977 41.9828 80.3376 42.1384 80.6491C42.294 80.9607 42.5669 81.1976 42.8973 81.3079C43.2276 81.4182 43.5882 81.3927 43.8997 81.2371C47.389 79.5045 50.5 77.0969 53.0523 74.1537C55.6047 71.2104 57.5478 67.79 58.769 64.0906L59.2652 62.6022C59.3753 62.2721 59.3498 61.9117 59.1942 61.6003C59.0387 61.289 58.7658 61.0521 58.4357 60.9419Z" fill="#4891D3"/>
<path d="M45.9381 55.1526C45.9454 54.8045 45.8141 54.4677 45.5732 54.2164C45.3322 53.9651 45.0013 53.8198 44.6532 53.8125C44.3051 53.8052 43.9683 53.9365 43.717 54.1774C43.4657 54.4184 43.3204 54.7493 43.3131 55.0974L43.2711 57.1515C42.9936 64.0263 41.254 70.763 38.1681 76.9125L37.4764 78.2972L34.4117 76.7655C30.3077 74.6952 26.8008 71.6104 24.2239 67.8039C21.647 63.9974 20.0857 59.5955 19.6881 55.0161C19.6592 54.668 19.4932 54.3456 19.2267 54.1199C18.9601 53.8942 18.6148 53.7836 18.2667 53.8125C17.9186 53.8414 17.5962 54.0074 17.3705 54.274C17.1448 54.5405 17.0342 54.8858 17.0631 55.2339C17.4979 60.2638 19.2118 65.0989 22.0417 69.2799C24.8716 73.4608 28.7237 76.8486 33.2318 79.1214L37.4712 81.2411C37.6254 81.3182 37.7934 81.3642 37.9654 81.3764C38.1374 81.3886 38.3101 81.3667 38.4737 81.3121C38.6373 81.2575 38.7885 81.1712 38.9187 81.0581C39.0489 80.9451 39.1556 80.8074 39.2325 80.6531L40.5109 78.0938C43.7675 71.6032 45.6021 64.4927 45.8922 57.2368L45.9381 55.1526ZM66.9381 48.5625L66.9788 48.8906C67.3689 52.0099 66.9687 55.1772 65.8149 58.1013C64.661 61.0255 62.7906 63.6126 60.3756 65.625L60.3362 65.4688C59.9727 64.0139 59.1332 62.7223 57.9512 61.7994C56.7693 60.8764 55.3127 60.3751 53.8131 60.375L54.3814 58.6688C54.8593 57.2405 55.8847 56.0603 57.2322 55.3875C58.1775 54.9151 58.9723 54.1886 59.5276 53.2895C60.0829 52.3904 60.3765 51.3544 60.3756 50.2976V47.25L66.9381 48.5625Z" fill="#FCBC04"/>
<path d="M66.0712 57.3956C64.0772 58.3916 61.8936 58.9509 59.6662 59.0362C59.8324 59.4781 60.1133 59.8677 60.48 60.165L63.3937 62.4356C62.5161 63.6135 61.5029 64.684 60.375 65.625L60.3356 65.4675C59.9716 64.013 59.132 62.7218 57.9501 61.7991C56.7682 60.8765 55.3119 60.3752 53.8125 60.375L54.3769 58.6688C54.8584 57.2392 55.8875 56.0591 57.2381 55.3875C58.1796 54.9103 58.9709 54.1822 59.5244 53.2835C60.078 52.3848 60.3724 51.3505 60.375 50.295V47.25L66.9375 48.5625L66.9769 48.8906C67.3405 51.7575 67.0304 54.6696 66.0712 57.3956Z" fill="#E59730"/>
<path d="M64.3125 56.4375C73.011 56.4375 80.0625 49.386 80.0625 40.6875C80.0625 31.989 73.011 24.9375 64.3125 24.9375C55.614 24.9375 48.5625 31.989 48.5625 40.6875C48.5625 49.386 55.614 56.4375 64.3125 56.4375Z" fill="#F9E109"/>
<path d="M77.9756 48.5493C76.6075 50.9257 74.6426 52.9038 72.2753 54.2877C69.9081 55.6717 67.2205 56.4136 64.4785 56.4402C61.7365 56.4667 59.0351 55.7769 56.6415 54.4389C54.248 53.101 52.2452 51.1614 50.8313 48.8119C49.4174 46.4624 48.6414 43.7844 48.5801 41.043C48.5188 38.3015 49.1743 35.5916 50.4818 33.1812C51.7892 30.7709 53.7033 28.7437 56.0347 27.3001C58.3661 25.8565 61.0339 25.0466 63.7744 24.9506C62.4011 27.3473 61.6813 30.0626 61.6872 32.8249C61.693 35.5872 62.4243 38.2995 63.8078 40.6903C65.1912 43.0812 67.1784 45.0667 69.5704 46.4482C71.9624 47.8298 74.6752 48.5588 77.4375 48.5624C77.6213 48.5624 77.7919 48.5624 77.9756 48.5493Z" fill="#FCBC04"/>
<path d="M74.0456 38.0625C74.2607 38.0626 74.4725 38.0098 74.6624 37.9088C74.8523 37.8078 75.0145 37.6617 75.1346 37.4833C75.2548 37.305 75.3293 37.0998 75.3516 36.8859C75.3738 36.6719 75.3432 36.4558 75.2623 36.2565C74.5654 34.5475 73.4798 33.0244 72.0917 31.808C70.7035 30.5916 69.051 29.7155 67.2652 29.2491C66.9312 29.1705 66.5797 29.2259 66.286 29.4034C65.9924 29.5809 65.7798 29.8663 65.694 30.1985C65.6082 30.5308 65.656 30.8834 65.827 31.1809C65.998 31.4784 66.2787 31.697 66.609 31.7901C67.9982 32.1532 69.2837 32.8351 70.3634 33.7818C71.4431 34.7284 72.2873 35.9137 72.8289 37.2435C72.9272 37.4856 73.0955 37.6929 73.3122 37.8388C73.529 37.9847 73.7843 38.0626 74.0456 38.0625Z" fill="#F7F754"/>
<path d="M74.8125 43.3125C75.5374 43.3125 76.125 42.7249 76.125 42C76.125 41.2751 75.5374 40.6875 74.8125 40.6875C74.0876 40.6875 73.5 41.2751 73.5 42C73.5 42.7249 74.0876 43.3125 74.8125 43.3125Z" fill="#F7F754"/>
<path d="M42 43.3125C38.6386 46.6742 36.7501 51.2334 36.75 55.9873V57.75C38.3801 56.9349 40.1775 56.5106 42 56.5106C43.8225 56.5106 45.6199 56.9349 47.25 57.75L49.98 55.7025C50.7624 55.1157 51.3975 54.3547 51.8349 53.4799C52.2723 52.6052 52.5 51.6405 52.5 50.6625C52.5 49.2994 52.0579 47.973 51.24 46.8825L48.5625 43.3125H42Z" fill="#CC5144"/>
<path d="M51.7125 53.6813C51.2919 54.475 50.7001 55.1654 49.98 55.7025L47.25 57.75C45.6189 56.9386 43.8218 56.5163 42 56.5163C40.1782 56.5163 38.3812 56.9386 36.75 57.75V55.9913C36.7492 53.6366 37.2124 51.3049 38.1133 49.1294C39.0141 46.9539 40.3348 44.9773 42 43.3125H48.5625L50.3213 45.6619C48.5075 47.3946 46.3143 48.6799 43.9163 49.4156C44.3598 50.3988 45.0383 51.2578 45.892 51.917C46.7457 52.5762 47.7485 53.0153 48.8119 53.1956L51.7125 53.6813Z" fill="#AD4038"/>
<path d="M63 22.3125C63 32.4608 54.7733 45.9375 44.625 45.9375C34.4768 45.9375 26.25 32.4608 26.25 22.3125C26.25 17.4391 28.1859 12.7654 31.6319 9.31941C35.0779 5.87343 39.7516 3.9375 44.625 3.9375C49.4984 3.9375 54.1721 5.87343 57.6181 9.31941C61.0641 12.7654 63 17.4391 63 22.3125Z" fill="#F8664F"/>
<path d="M59.7188 34.5187C56.3981 40.8187 50.8725 45.9375 44.625 45.9375C34.4794 45.9375 26.25 32.4581 26.25 22.3125C26.2483 18.6049 27.3699 14.9839 29.4668 11.9264C31.5637 8.86886 34.5377 6.51828 37.9969 5.18433C37.1669 7.29528 36.7439 9.54421 36.75 11.8125C36.75 21.9581 44.9794 35.4375 55.125 35.4375C56.7011 35.4294 58.2608 35.1174 59.7188 34.5187Z" fill="#CC5144"/>
<path d="M44.625 10.5C46.923 10.5021 49.1707 11.1735 51.0934 12.4321C53.0161 13.6908 54.5306 15.4822 55.4518 17.5875C55.5172 17.7507 55.6146 17.899 55.7384 18.0238C55.8622 18.1486 56.0097 18.2472 56.1724 18.3139C56.335 18.3805 56.5093 18.4139 56.6851 18.4119C56.8608 18.4099 57.0344 18.3726 57.1954 18.3023C57.3565 18.2319 57.5018 18.13 57.6227 18.0024C57.7436 17.8749 57.8377 17.7243 57.8993 17.5597C57.961 17.3951 57.9889 17.2199 57.9815 17.0443C57.9741 16.8687 57.9316 16.6963 57.8563 16.5375C56.7305 13.9646 54.8797 11.7752 52.53 10.2369C50.1803 8.69855 47.4335 7.87784 44.625 7.875C44.2769 7.875 43.9431 8.01328 43.6969 8.25942C43.4508 8.50556 43.3125 8.8394 43.3125 9.1875C43.3125 9.5356 43.4508 9.86944 43.6969 10.1156C43.9431 10.3617 44.2769 10.5 44.625 10.5Z" fill="#F89C8D"/>
<path d="M57.75 23.625C58.4749 23.625 59.0625 23.0374 59.0625 22.3125C59.0625 21.5876 58.4749 21 57.75 21C57.0251 21 56.4375 21.5876 56.4375 22.3125C56.4375 23.0374 57.0251 23.625 57.75 23.625Z" fill="#F89C8D"/>
<path d="M17.0625 43.3125L14.0437 47.8498C12.5909 50.0259 11.8146 52.5833 11.8125 55.1998V55.3639C11.8127 55.6668 11.9027 55.963 12.0711 56.2148C12.2394 56.4667 12.4787 56.663 12.7586 56.779C13.0384 56.895 13.3464 56.9255 13.6436 56.8666C13.9408 56.8076 14.2138 56.662 14.4283 56.448L14.6659 56.2104C14.8082 56.068 14.9772 55.9551 15.1633 55.878C15.3493 55.801 15.5487 55.7613 15.75 55.7613C15.9513 55.7613 16.1507 55.801 16.3367 55.878C16.5228 55.9551 16.6918 56.068 16.8341 56.2104L17.6623 57.0386C17.9079 57.2842 18.2049 57.4722 18.5319 57.5892C18.8589 57.7061 19.2078 57.749 19.5534 57.7149C19.899 57.6807 20.2328 57.5704 20.5306 57.3917C20.8284 57.213 21.0828 56.9705 21.2756 56.6816C21.4014 56.4924 21.5676 56.3335 21.7624 56.2164C21.9571 56.0993 22.1754 56.027 22.4015 56.0046C22.6276 55.9823 22.8558 56.0105 23.0697 56.0871C23.2836 56.1638 23.4777 56.2871 23.6381 56.448C23.8529 56.6607 24.1257 56.8052 24.4223 56.8633C24.719 56.9214 25.0262 56.8905 25.3053 56.7745C25.5844 56.6585 25.823 56.4626 25.9911 56.2114C26.1592 55.9601 26.2493 55.6648 26.25 55.3626C26.2491 51.8487 24.8532 48.479 22.3689 45.9939L19.6875 43.3125H17.0625Z" fill="#4891D3"/>
<path d="M26.25 55.3612C26.2495 55.5639 26.209 55.7644 26.1308 55.9513C26.0526 56.1383 25.9383 56.3079 25.7944 56.4506C25.6506 56.5933 25.4799 56.7061 25.2923 56.7827C25.1047 56.8593 24.9039 56.8981 24.7013 56.8969C24.5032 56.8973 24.3071 56.858 24.1245 56.7814C23.9419 56.7047 23.7765 56.5923 23.6381 56.4506C23.4771 56.2918 23.2833 56.1701 23.0702 56.0942C22.8571 56.0183 22.63 55.99 22.4048 56.0113C22.1797 56.0326 21.9619 56.1029 21.7668 56.2173C21.5717 56.3318 21.4041 56.4876 21.2756 56.6737C21.0843 56.9635 20.8309 57.207 20.5338 57.3868C20.2368 57.5666 19.9035 57.6781 19.5581 57.7133C19.2126 57.7485 18.8637 57.7064 18.5365 57.5902C18.2093 57.474 17.9121 57.2865 17.6663 57.0412L16.8394 56.2144C16.6966 56.0709 16.5268 55.957 16.3399 55.8793C16.1529 55.8016 15.9525 55.7616 15.75 55.7616C15.5476 55.7616 15.3471 55.8016 15.1601 55.8793C14.9732 55.957 14.8034 56.0709 14.6606 56.2144L14.4244 56.4506C14.2094 56.6636 13.9362 56.8082 13.6392 56.8661C13.3422 56.9241 13.0347 56.8929 12.7554 56.7764C12.4761 56.6599 12.2375 56.4634 12.0697 56.2115C11.902 55.9597 11.8124 55.6639 11.8125 55.3612V55.2038C11.8108 52.5867 12.5875 50.0282 14.0438 47.8537L17.0625 43.3125H19.6875L22.365 45.99C23.1731 46.7986 23.8744 47.7072 24.4519 48.6937C22.7341 50.3933 20.5965 51.607 18.2569 52.2112L18.6638 53.445C18.7554 53.7538 18.9131 54.0389 19.126 54.2806C19.3388 54.5223 19.6018 54.7147 19.8965 54.8446C20.1912 54.9745 20.5107 55.0387 20.8327 55.0327C21.1547 55.0267 21.4716 54.9507 21.7613 54.81C21.7744 54.81 21.7875 54.7969 21.8006 54.7969C22.7444 54.2493 23.7978 53.9176 24.885 53.8256H26.1581C26.2214 54.335 26.2521 54.8479 26.25 55.3612Z" fill="#2D72BC"/>
<path d="M35.4375 27.5625C35.4375 38.0625 28.3854 48.5625 19.6875 48.5625C10.9896 48.5625 3.9375 38.0625 3.9375 27.5625C3.9375 23.3853 5.59687 19.3793 8.55057 16.4256C11.5043 13.4719 15.5103 11.8125 19.6875 11.8125C23.8647 11.8125 27.8707 13.4719 30.8244 16.4256C33.7781 19.3793 35.4375 23.3853 35.4375 27.5625Z" fill="#57B7EB"/>
<path d="M32.34 39.6112C29.4656 44.8481 24.8719 48.5625 19.6875 48.5625C10.9856 48.5625 3.9375 38.0625 3.9375 27.5625C3.93649 24.5312 4.81025 21.5641 6.45389 19.0171C8.09754 16.4701 10.4413 14.4516 13.2038 13.2037C12.2849 15.2417 11.8106 17.452 11.8125 19.6875C11.8125 30.1875 18.8606 40.6875 27.5625 40.6875C29.2144 40.6809 30.8449 40.3136 32.34 39.6112Z" fill="#4891D3"/>
<path d="M19.6875 18.375C21.2991 18.3796 22.8814 18.8061 24.277 19.612C25.6727 20.418 26.833 21.5752 27.6426 22.9688C27.7578 23.1683 27.9234 23.334 28.123 23.4491C28.3225 23.5643 28.5488 23.625 28.7792 23.625C29.0098 23.6254 29.2364 23.5642 29.4354 23.4478C29.7364 23.2733 29.9558 22.9865 30.0454 22.6503C30.135 22.3141 30.0874 21.9561 29.9132 21.6549C28.8729 19.8634 27.3814 18.3755 25.5874 17.3395C23.7933 16.3035 21.7592 15.7555 19.6875 15.75C19.3394 15.75 19.0056 15.8883 18.7594 16.1344C18.5133 16.3806 18.375 16.7144 18.375 17.0625C18.375 17.4106 18.5133 17.7444 18.7594 17.9906C19.0056 18.2367 19.3394 18.375 19.6875 18.375Z" fill="#84D2F4"/>
<path d="M30.1875 28.875C30.9124 28.875 31.5 28.2874 31.5 27.5625C31.5 26.8376 30.9124 26.25 30.1875 26.25C29.4626 26.25 28.875 26.8376 28.875 27.5625C28.875 28.2874 29.4626 28.875 30.1875 28.875Z" fill="#84D2F4"/>
<path d="M68.25 10.5H69.5625V11.8125C69.5625 12.1606 69.7008 12.4944 69.9469 12.7406C70.1931 12.9867 70.5269 13.125 70.875 13.125C71.2231 13.125 71.5569 12.9867 71.8031 12.7406C72.0492 12.4944 72.1875 12.1606 72.1875 11.8125V10.5H73.5C73.8481 10.5 74.1819 10.3617 74.4281 10.1156C74.6742 9.86944 74.8125 9.5356 74.8125 9.1875C74.8125 8.8394 74.6742 8.50556 74.4281 8.25942C74.1819 8.01328 73.8481 7.875 73.5 7.875H72.1875V6.5625C72.1875 6.2144 72.0492 5.88056 71.8031 5.63442C71.5569 5.38828 71.2231 5.25 70.875 5.25C70.5269 5.25 70.1931 5.38828 69.9469 5.63442C69.7008 5.88056 69.5625 6.2144 69.5625 6.5625V7.875H68.25C67.9019 7.875 67.5681 8.01328 67.3219 8.25942C67.0758 8.50556 66.9375 8.8394 66.9375 9.1875C66.9375 9.5356 67.0758 9.86944 67.3219 10.1156C67.5681 10.3617 67.9019 10.5 68.25 10.5Z" fill="#84D2F4"/>
<path d="M10.5 6.5625H9.1875V5.25C9.1875 4.9019 9.04922 4.56806 8.80308 4.32192C8.55694 4.07578 8.2231 3.9375 7.875 3.9375C7.5269 3.9375 7.19306 4.07578 6.94692 4.32192C6.70078 4.56806 6.5625 4.9019 6.5625 5.25V6.5625H5.25C4.9019 6.5625 4.56806 6.70078 4.32192 6.94692C4.07578 7.19306 3.9375 7.5269 3.9375 7.875C3.9375 8.2231 4.07578 8.55694 4.32192 8.80308C4.56806 9.04922 4.9019 9.1875 5.25 9.1875H6.5625V10.5C6.5625 10.8481 6.70078 11.1819 6.94692 11.4281C7.19306 11.6742 7.5269 11.8125 7.875 11.8125C8.2231 11.8125 8.55694 11.6742 8.80308 11.4281C9.04922 11.1819 9.1875 10.8481 9.1875 10.5V9.1875H10.5C10.8481 9.1875 11.1819 9.04922 11.4281 8.80308C11.6742 8.55694 11.8125 8.2231 11.8125 7.875C11.8125 7.5269 11.6742 7.19306 11.4281 6.94692C11.1819 6.70078 10.8481 6.5625 10.5 6.5625Z" fill="#F9E109"/>
<path d="M78.75 14.4375C79.4749 14.4375 80.0625 13.8499 80.0625 13.125C80.0625 12.4001 79.4749 11.8125 78.75 11.8125C78.0251 11.8125 77.4375 12.4001 77.4375 13.125C77.4375 13.8499 78.0251 14.4375 78.75 14.4375Z" fill="#F89C8D"/>
<path d="M17.0625 7.875C17.7874 7.875 18.375 7.28737 18.375 6.5625C18.375 5.83763 17.7874 5.25 17.0625 5.25C16.3376 5.25 15.75 5.83763 15.75 6.5625C15.75 7.28737 16.3376 7.875 17.0625 7.875Z" fill="#F89C8D"/>
<path d="M10.5 63H9.1875V61.6875C9.1875 61.3394 9.04922 61.0056 8.80308 60.7594C8.55694 60.5133 8.2231 60.375 7.875 60.375C7.5269 60.375 7.19306 60.5133 6.94692 60.7594C6.70078 61.0056 6.5625 61.3394 6.5625 61.6875V63H5.25C4.9019 63 4.56806 63.1383 4.32192 63.3844C4.07578 63.6306 3.9375 63.9644 3.9375 64.3125C3.9375 64.6606 4.07578 64.9944 4.32192 65.2406C4.56806 65.4867 4.9019 65.625 5.25 65.625H6.5625V66.9375C6.5625 67.2856 6.70078 67.6194 6.94692 67.8656C7.19306 68.1117 7.5269 68.25 7.875 68.25C8.2231 68.25 8.55694 68.1117 8.80308 67.8656C9.04922 67.6194 9.1875 67.2856 9.1875 66.9375V65.625H10.5C10.8481 65.625 11.1819 65.4867 11.4281 65.2406C11.6742 64.9944 11.8125 64.6606 11.8125 64.3125C11.8125 63.9644 11.6742 63.6306 11.4281 63.3844C11.1819 63.1383 10.8481 63 10.5 63Z" fill="#F89C8D"/>
<path d="M78.75 66.5437H77.4375V65.2312C77.4375 64.8831 77.2992 64.5493 77.0531 64.3031C76.8069 64.057 76.4731 63.9187 76.125 63.9187C75.7769 63.9187 75.4431 64.057 75.1969 64.3031C74.9508 64.5493 74.8125 64.8831 74.8125 65.2312V66.5437H73.5C73.1519 66.5437 72.8181 66.682 72.5719 66.9281C72.3258 67.1743 72.1875 67.5081 72.1875 67.8562C72.1875 68.2043 72.3258 68.5381 72.5719 68.7843C72.8181 69.0304 73.1519 69.1687 73.5 69.1687H74.8125V70.4812C74.8125 70.8293 74.9508 71.1631 75.1969 71.4093C75.4431 71.6554 75.7769 71.7937 76.125 71.7937C76.4731 71.7937 76.8069 71.6554 77.0531 71.4093C77.2992 71.1631 77.4375 70.8293 77.4375 70.4812V69.1687H78.75C79.0981 69.1687 79.4319 69.0304 79.6781 68.7843C79.9242 68.5381 80.0625 68.2043 80.0625 67.8562C80.0625 67.5081 79.9242 67.1743 79.6781 66.9281C79.4319 66.682 79.0981 66.5437 78.75 66.5437Z" fill="#84D2F4"/>
<path d="M14.4375 70.875C15.1624 70.875 15.75 70.2874 15.75 69.5625C15.75 68.8376 15.1624 68.25 14.4375 68.25C13.7126 68.25 13.125 68.8376 13.125 69.5625C13.125 70.2874 13.7126 70.875 14.4375 70.875Z" fill="#F89C8D"/>
<path d="M74.8125 60.375C75.5374 60.375 76.125 59.7874 76.125 59.0625C76.125 58.3376 75.5374 57.75 74.8125 57.75C74.0876 57.75 73.5 58.3376 73.5 59.0625C73.5 59.7874 74.0876 60.375 74.8125 60.375Z" fill="#F9E109"/>
<path d="M69.1113 74.8125C69.8362 74.8125 70.4238 74.2249 70.4238 73.5C70.4238 72.7751 69.8362 72.1875 69.1113 72.1875C68.3865 72.1875 67.7988 72.7751 67.7988 73.5C67.7988 74.2249 68.3865 74.8125 69.1113 74.8125Z" fill="#F9E109"/>
<path d="M7.875 52.5C8.59987 52.5 9.1875 51.9124 9.1875 51.1875C9.1875 50.4626 8.59987 49.875 7.875 49.875C7.15013 49.875 6.5625 50.4626 6.5625 51.1875C6.5625 51.9124 7.15013 52.5 7.875 52.5Z" fill="#84D2F4"/>
<path d="M63 6.5625C63.7249 6.5625 64.3125 5.97487 64.3125 5.25C64.3125 4.52513 63.7249 3.9375 63 3.9375C62.2751 3.9375 61.6875 4.52513 61.6875 5.25C61.6875 5.97487 62.2751 6.5625 63 6.5625Z" fill="#F9E109"/>
<path d="M66.9375 22.3125C68.3299 22.3125 69.6652 21.7594 70.6498 20.7748C71.6344 19.7902 72.1875 18.4549 72.1875 17.0625C72.1875 16.7144 72.0492 16.3806 71.8031 16.1344C71.5569 15.8883 71.2231 15.75 70.875 15.75C70.5269 15.75 70.1931 15.8883 69.9469 16.1344C69.7008 16.3806 69.5625 16.7144 69.5625 17.0625C69.5625 17.7587 69.2859 18.4264 68.7937 18.9187C68.3014 19.4109 67.6337 19.6875 66.9375 19.6875C66.5894 19.6875 66.2556 19.8258 66.0094 20.0719C65.7633 20.3181 65.625 20.6519 65.625 21C65.625 21.3481 65.7633 21.6819 66.0094 21.9281C66.2556 22.1742 66.5894 22.3125 66.9375 22.3125Z" fill="#F89C8D"/>
<path d="M25.0066 9.60221C25.0611 9.76595 25.1473 9.91736 25.2603 10.0478C25.3732 10.1782 25.5108 10.2851 25.6651 10.3624C25.8194 10.4397 25.9874 10.4858 26.1595 10.4981C26.3316 10.5105 26.5045 10.4888 26.6683 10.4343C26.832 10.3799 26.9834 10.2937 27.1138 10.1807C27.2443 10.0677 27.3512 9.93016 27.4284 9.77586C27.5057 9.62156 27.5518 9.45356 27.5642 9.28144C27.5765 9.10932 27.5548 8.93645 27.5004 8.77271L26.1879 4.83521C26.1334 4.67147 26.0472 4.52006 25.9342 4.38962C25.8213 4.25919 25.6837 4.15228 25.5294 4.07501C25.3751 3.99774 25.2071 3.95162 25.035 3.93928C24.8629 3.92694 24.69 3.94862 24.5263 4.00308C24.3625 4.05755 24.2111 4.14373 24.0807 4.25671C23.9502 4.3697 23.8433 4.50726 23.7661 4.66156C23.6888 4.81585 23.6427 4.98386 23.6303 5.15598C23.618 5.3281 23.6397 5.50097 23.6941 5.66471L25.0066 9.60221Z" fill="#F7F754"/>
<path d="M78.75 21H74.8125C74.4644 21 74.1306 21.1383 73.8844 21.3844C73.6383 21.6306 73.5 21.9644 73.5 22.3125C73.5 22.6606 73.6383 22.9944 73.8844 23.2406C74.1306 23.4867 74.4644 23.625 74.8125 23.625H78.75C79.0981 23.625 79.4319 23.4867 79.6781 23.2406C79.9242 22.9944 80.0625 22.6606 80.0625 22.3125C80.0625 21.9644 79.9242 21.6306 79.6781 21.3844C79.4319 21.1383 79.0981 21 78.75 21Z" fill="#F9E109"/>
</svg>
