<svg width="28" height="28" viewBox="0 0 28 28" fill="none" xmlns="http://www.w3.org/2000/svg">
<g clip-path="url(#clip0_12_1471)">
<path d="M14 16.2123C15.2218 16.2123 16.2123 15.2218 16.2123 14C16.2123 12.7781 15.2218 11.7876 14 11.7876C12.7781 11.7876 11.7876 12.7781 11.7876 14C11.7876 15.2218 12.7781 16.2123 14 16.2123Z" fill="white"/>
<path d="M16.8293 8.40918H11.1704C10.4375 8.40918 9.73473 8.7003 9.21654 9.21849C8.69834 9.73668 8.40723 10.4395 8.40723 11.1723V16.8294C8.40723 17.5623 8.69834 18.2651 9.21654 18.7833C9.73473 19.3015 10.4375 19.5926 11.1704 19.5926H16.8293C17.5622 19.5926 18.265 19.3015 18.7832 18.7833C19.3014 18.2651 19.5925 17.5623 19.5925 16.8294V11.1705C19.592 10.438 19.3007 9.73563 18.7825 9.21784C18.2644 8.70004 17.5619 8.40918 16.8293 8.40918ZM13.9999 17.6216C13.2835 17.6219 12.5831 17.4098 11.9873 17.0121C11.3915 16.6144 10.927 16.0489 10.6526 15.3872C10.3783 14.7254 10.3063 13.9972 10.4458 13.2946C10.5853 12.5919 10.9301 11.9465 11.4365 11.4398C11.9429 10.9331 12.5882 10.588 13.2908 10.4481C13.9934 10.3082 14.7216 10.3798 15.3835 10.6539C16.0454 10.9279 16.6111 11.3921 17.0091 11.9877C17.4071 12.5833 17.6196 13.2836 17.6196 14C17.6186 14.9599 17.237 15.8802 16.5584 16.5591C15.8799 17.238 14.9597 17.6201 13.9999 17.6216ZM17.6417 11.2737C17.4645 11.274 17.2911 11.2218 17.1436 11.1235C16.9961 11.0253 16.8811 10.8855 16.8131 10.7218C16.7451 10.5582 16.7272 10.378 16.7617 10.2042C16.7962 10.0304 16.8815 9.87066 17.0068 9.74535C17.1321 9.62003 17.2918 9.53473 17.4657 9.50024C17.6395 9.46576 17.8197 9.48364 17.9833 9.55163C18.147 9.61962 18.2868 9.73465 18.385 9.88216C18.4832 10.0297 18.5355 10.203 18.5351 10.3802C18.5346 10.617 18.4404 10.844 18.2729 11.0114C18.1055 11.1789 17.8785 11.2732 17.6417 11.2737Z" fill="white"/>
<path d="M14 0C11.2311 0 8.52431 0.821086 6.22202 2.35943C3.91973 3.89777 2.12532 6.08427 1.06569 8.64243C0.00606595 11.2006 -0.271181 14.0155 0.269012 16.7313C0.809205 19.447 2.14258 21.9416 4.10051 23.8995C6.05845 25.8574 8.55301 27.1908 11.2687 27.731C13.9845 28.2712 16.7994 27.9939 19.3576 26.9343C21.9157 25.8747 24.1022 24.0803 25.6406 21.778C27.1789 19.4757 28 16.7689 28 14C28 10.287 26.525 6.72601 23.8995 4.1005C21.274 1.475 17.713 0 14 0ZM21 16.8295C20.999 17.9353 20.5593 18.9955 19.7774 19.7774C18.9955 20.5593 17.9353 20.999 16.8295 21H11.1705C10.0649 20.9985 9.00495 20.5587 8.22314 19.7769C7.44133 18.9951 7.00147 17.9351 7.00001 16.8295V11.1705C7.00147 10.0649 7.44133 9.00494 8.22314 8.22313C9.00495 7.44133 10.0649 7.00146 11.1705 7H16.8295C17.9351 7.00146 18.9951 7.44133 19.7769 8.22313C20.5587 9.00494 20.9985 10.0649 21 11.1705V16.8295Z" fill="white"/>
</g>
<defs>
<clipPath id="clip0_12_1471">
<rect width="28" height="28" fill="white"/>
</clipPath>
</defs>
</svg>
