<svg width="84" height="84" viewBox="0 0 84 84" fill="none" xmlns="http://www.w3.org/2000/svg">
<g clip-path="url(#clip0_59_2948)">
<path d="M42.0006 2.089C42.4839 2.08831 42.9582 1.95812 43.3741 1.71199C44.6863 0.93942 46.9377 0 50.1285 0C56.2512 0 60.9676 2.70965 60.9676 2.70965L58.258 5.4193C61.1704 6.19597 62.8306 6.66125 66.0294 8.33731C77.279 14.2316 82.645 27.0967 82.645 27.0967H77.2257C83.9997 37.9354 83.9997 52.8387 83.9997 52.8387L79.9352 51.4839C79.9352 51.4839 79.9352 63.6775 74.5159 71.8064L70.4514 69.0967C70.4514 69.0967 66.3869 75.8709 59.6127 79.9355L56.903 77.2259C56.903 77.2259 50.1289 82.6452 41.9998 84C33.8708 82.6452 27.0965 77.2259 27.0965 77.2259L24.3869 79.9355C17.6127 75.871 13.5481 69.0967 13.5481 69.0967L9.48361 71.8064C4.06448 63.6775 4.06448 51.4839 4.06448 51.4839L0 52.8387C0 52.8387 0 37.9354 6.77413 27.0968H1.35483C1.35483 27.0968 6.72081 14.2317 17.9704 8.33748C21.1693 6.66142 22.8294 6.19614 25.7418 5.41947L23.0322 2.70982C23.0322 2.70982 27.7485 0.000164062 33.8713 0.000164062C37.0621 0.000164062 39.3136 0.939584 40.6257 1.71232C41.0417 1.95845 41.516 2.08863 41.9993 2.08933" fill="#D26437"/>
<path d="M30.7156 14.9423C30.7156 14.9423 34.6329 6.9436 41.2255 1.96546C41.0196 1.90329 40.8169 1.8247 40.6256 1.71215C39.3136 0.93942 37.0621 0 33.8713 0C27.7487 0 23.0322 2.70965 23.0322 2.70965L25.7418 5.4193C22.8294 6.19597 21.1693 6.66125 17.9704 8.33731C6.72081 14.2316 1.35483 27.0967 1.35483 27.0967H6.77413C0 37.9354 0 52.8387 0 52.8387L4.06448 51.4839C4.06448 51.4839 4.06448 63.6775 9.48378 71.8064L13.5483 69.0967C13.5483 69.0967 17.6127 75.8709 24.387 79.9355L27.0967 77.2259C27.0967 77.2259 33.8708 82.6452 41.9999 84C41.9999 83.9998 32.1773 79.9354 30.7156 14.9423Z" fill="#B44632"/>
<path d="M67.3041 8.22132C70.5109 7.59953 73.4489 10.2053 73.1393 13.457C72.7549 17.494 69.7889 24.6128 65.7244 28.8044L52.6699 15.6653C57.672 11.6947 63.8851 8.8843 67.3041 8.22132Z" fill="#EBAF4B"/>
<path d="M56.209 19.2278C60.369 16.0479 66.5188 11.8648 68.2221 11.6937C70.1797 11.497 71.4002 14.1973 70.6348 17.1115C69.9704 19.6417 67.4359 24.2827 64.913 27.9882L56.209 19.2278Z" fill="#E18C46"/>
<path d="M16.6956 8.22132C13.4888 7.59953 10.5508 10.2053 10.8604 13.457C11.2448 17.494 14.2108 24.6128 18.2753 28.8044L31.3298 15.6653C26.3277 11.6947 20.1146 8.8843 16.6956 8.22132Z" fill="#EBAF4B"/>
<path d="M27.7917 19.2278C23.6317 16.0479 17.4819 11.8648 15.7786 11.6937C13.821 11.497 12.6005 14.1973 13.3659 17.1116C14.0303 19.6417 16.5647 24.2827 19.0877 27.9882L27.7917 19.2278Z" fill="#E18C46"/>
<path d="M58.2587 16.2581C52.9114 12.0991 42.0006 18.9678 42.0006 18.9678C42.0006 18.9678 31.0897 12.0991 25.7425 16.2581C13.5488 25.7419 10.8392 52.8388 12.194 58.2581C13.1799 62.2012 21.6778 69.0969 31.1618 71.8065H52.8392C62.323 69.0969 70.8211 62.2013 71.8069 58.2581C73.1618 52.8388 70.4521 25.7419 58.2587 16.2581Z" fill="#FFC850"/>
<path d="M20.5469 66.2511C19.5063 59.753 21.9674 30.9213 30.7162 14.9423C28.8769 14.8537 27.1234 15.184 25.7425 16.2581C13.5488 25.7419 10.8392 52.8388 12.194 58.2581C12.7874 60.6319 16.1133 64.0723 20.728 67.0285C20.6585 66.7642 20.5866 66.4988 20.5469 66.2511Z" fill="#EBAF4B"/>
<path d="M71.8058 51.4665C70.82 55.4095 62.322 62.3053 52.8381 65.0149H31.1606C21.6769 62.3053 13.1787 55.4097 12.1929 51.4665C12.1312 51.2202 12.0813 50.9147 12.037 50.5825C11.7688 54.1079 11.849 56.8827 12.1929 58.258C13.1787 62.2011 21.6767 69.0968 31.1606 71.8064H52.8381C62.3219 69.0968 70.82 62.2012 71.8058 58.258C72.1497 56.8827 72.2299 54.1079 71.9617 50.5825C71.9175 50.9146 71.8675 51.22 71.8058 51.4665Z" fill="#FAEBC8"/>
<path d="M30.7559 69.6067C31.4592 73.9274 35.2083 77.2257 39.7278 77.2257H44.2731C48.7739 77.2257 52.5109 73.9547 53.2364 69.6603L42.0014 67.7419L30.7559 69.6067Z" fill="#F5DCB4"/>
<path d="M49.4517 56.9032C46.3091 56.9032 43.5586 58.1733 42.0001 60.0788C40.4417 58.1733 37.691 56.9032 34.5486 56.9032C29.6849 56.9032 25.7422 59.936 25.7422 63.6773C25.7422 67.4186 29.6849 70.4515 34.5486 70.4515C37.6912 70.4515 40.4417 69.1813 42.0001 67.2759C43.5586 69.1813 46.3092 70.4515 49.4517 70.4515C54.3153 70.4515 58.2581 67.4186 58.2581 63.6773C58.2581 59.936 54.3155 56.9032 49.4517 56.9032Z" fill="#FAEBC8"/>
<path d="M48.8932 71.7626C46.5263 71.7626 44.2968 70.9781 42.4459 69.4941C42.1839 69.2838 41.8174 69.2838 41.5527 69.4941C39.7031 70.9779 37.4736 71.7626 35.1067 71.7626C29.3883 71.7626 24.7363 67.077 24.7363 61.3176C24.7363 60.5695 25.3424 59.9628 26.0912 59.9628C26.8399 59.9628 27.446 60.5695 27.446 61.3176C27.446 65.5832 30.8821 69.053 35.1067 69.053C36.8505 69.053 38.4938 68.4748 39.858 67.3799C41.1203 66.3691 42.8811 66.3691 44.1408 67.3799C45.5063 68.4747 47.1496 69.053 48.8934 69.053C53.118 69.053 56.5541 65.5832 56.5541 61.3176C56.5541 60.5695 57.1602 59.9628 57.9089 59.9628C58.6577 59.9628 59.2638 60.5695 59.2638 61.3176C59.2636 67.077 54.6116 71.7626 48.8932 71.7626Z" fill="#D4AF91"/>
<path d="M34.6891 59.2706L37.5669 61.67C40.1342 63.8103 43.8641 63.8103 46.4312 61.67L49.3091 59.2707C50.584 58.2078 49.8406 56.1326 48.1808 56.1326L35.8174 56.1324C34.1576 56.1324 33.4142 58.2076 34.6891 59.2706Z" fill="#5D5360"/>
<path d="M41.9994 35.2258C41.8214 35.2259 41.6452 35.1908 41.4808 35.1228C41.3164 35.0547 41.1671 34.9549 41.0413 34.8291C40.9154 34.7033 40.8156 34.5539 40.7476 34.3895C40.6795 34.2251 40.6445 34.0489 40.6445 33.871V22.8101C40.6445 22.0619 41.2506 21.4552 41.9994 21.4552C42.7481 21.4552 43.3542 22.0619 43.3542 22.8101V33.871C43.3542 34.0489 43.3192 34.2251 43.2511 34.3895C43.1831 34.5539 43.0833 34.7033 42.9575 34.8291C42.8316 34.9549 42.6823 35.0547 42.5179 35.1228C42.3535 35.1908 42.1773 35.2259 41.9994 35.2258Z" fill="#FFDC64"/>
<path d="M28.4512 48.7741C26.2065 48.7741 24.3867 46.9543 24.3867 44.7096V43.3547C24.3867 41.11 26.2065 39.2903 28.4512 39.2903C30.6959 39.2903 32.5157 41.11 32.5157 43.3547V44.7096C32.5159 46.9544 30.6961 48.7741 28.4512 48.7741Z" fill="#4B3F4E"/>
<path d="M28.4512 39.2903V44.0322C28.4512 45.1545 29.3611 46.0644 30.4834 46.0644C31.6058 46.0644 32.5157 45.1545 32.5157 44.0322V43.3547C32.5158 41.11 30.696 39.2903 28.4512 39.2903Z" fill="#5D5360"/>
<path d="M28.4525 43.3547C29.2007 43.3547 29.8073 42.7482 29.8073 41.9999C29.8073 41.2517 29.2007 40.6451 28.4525 40.6451C27.7042 40.6451 27.0977 41.2517 27.0977 41.9999C27.0977 42.7482 27.7042 43.3547 28.4525 43.3547Z" fill="white"/>
<path d="M55.5489 48.7741C53.3042 48.7741 51.4844 46.9543 51.4844 44.7096V43.3547C51.4844 41.11 53.3042 39.2903 55.5489 39.2903C57.7936 39.2903 59.6133 41.11 59.6133 43.3547V44.7096C59.6133 46.9544 57.7936 48.7741 55.5489 48.7741Z" fill="#4B3F4E"/>
<path d="M55.5488 39.2903V44.0322C55.5488 45.1545 56.4587 46.0644 57.5811 46.0644C58.7034 46.0644 59.6133 45.1545 59.6133 44.0322V43.3547C59.6133 41.11 57.7935 39.2903 55.5488 39.2903Z" fill="#5D5360"/>
<path d="M55.5482 43.3547C56.2964 43.3547 56.903 42.7482 56.903 41.9999C56.903 41.2517 56.2964 40.6451 55.5482 40.6451C54.7999 40.6451 54.1934 41.2517 54.1934 41.9999C54.1934 42.7482 54.7999 43.3547 55.5482 43.3547Z" fill="white"/>
<path d="M42.8116 61.4631L39.9336 58.1535C39.4539 57.6017 39.2608 56.8526 39.2937 56.1324H35.8174C34.1576 56.1324 33.4142 58.2076 34.689 59.2706L37.5668 61.67C39.5261 63.3036 42.1594 63.6809 44.4396 62.8211C43.867 62.4696 43.3129 62.0396 42.8116 61.4631Z" fill="#4B3F4E"/>
<path d="M12.1929 51.4665C12.1312 51.2202 12.0813 50.9147 12.037 50.5825C11.7688 54.1079 11.849 56.8827 12.1929 58.258C12.7863 60.6318 16.1122 64.072 20.7269 67.0284C20.6574 66.7641 20.5855 66.4987 20.5458 66.251C20.3391 64.9604 20.2733 62.7789 20.3647 60.0021C15.9393 57.0995 12.7706 53.7776 12.1929 51.4665Z" fill="#F5DCB4"/>
</g>
<defs>
<clipPath id="clip0_59_2948">
<rect width="84" height="84" fill="white"/>
</clipPath>
</defs>
</svg>
