<svg width="192" height="48" viewBox="0 0 192 48" fill="none" xmlns="http://www.w3.org/2000/svg">
<path d="M32.78 24.54L34.188 26.696C33.748 28.28 33.1467 29.6147 32.384 30.7C31.6213 31.7853 30.8147 32.5627 29.964 33.032C28.468 33.8533 27.0453 34.264 25.696 34.264C23.3493 34.264 21.604 33.5893 20.46 32.24C19.3453 30.8613 18.7587 29.028 18.7 26.74C18.612 23.044 18.392 20.7413 18.04 19.832C17.688 18.9227 16.8813 18.4093 15.62 18.292L15.928 14.992C16.456 14.904 16.8667 14.7867 17.16 14.64C17.4533 14.4933 17.8347 14.2 18.304 13.76C19.3013 12.88 20.0347 10.812 20.504 7.556C20.8853 5.092 21.6627 3.30266 22.836 2.188C24.0387 1.07333 25.3293 0.515998 26.708 0.515998C28.0867 0.515998 29.304 0.926665 30.36 1.748C31.416 2.54 31.944 3.83067 31.944 5.62C31.944 7.996 31.0787 10.0493 29.348 11.78C27.6467 13.5107 25.2707 15.08 22.22 16.488C23.276 16.9867 24.0533 17.8227 24.552 18.996C25.0507 20.1693 25.3293 21.4013 25.388 22.692C25.4467 23.9827 25.4907 25.2293 25.52 26.432C25.6373 29.248 26.4733 30.656 28.028 30.656C29.8467 30.656 31.4307 28.6173 32.78 24.54ZM5.368 34.264C3.81333 34.264 2.56667 33.7947 1.628 32.856C0.689333 31.9173 0.22 30.7147 0.22 29.248C0.22 25.816 2.816 22.868 8.008 20.404C8.21333 18.6733 8.50667 16.224 8.888 13.056C9.62133 6.544 10.0613 2.76 10.208 1.704C11.4107 0.941331 12.6573 0.559998 13.948 0.559998C15.268 0.559998 16.2653 0.633331 16.94 0.779998L13.684 25.64C12.804 31.3893 10.032 34.264 5.368 34.264ZM28.864 6.632C28.864 6.192 28.732 5.85467 28.468 5.62C28.2333 5.38533 27.9987 5.268 27.764 5.268C27.5293 5.268 27.3387 5.29733 27.192 5.356C27.0747 5.41466 26.9573 5.51733 26.84 5.664C26.752 5.78133 26.6787 5.91333 26.62 6.06C26.5613 6.17733 26.488 6.368 26.4 6.632C26.3413 6.896 26.2827 7.13067 26.224 7.336C26.1947 7.512 26.136 7.776 26.048 8.128C25.96 8.48 25.8427 8.964 25.696 9.58C25.5493 10.1667 25.3733 10.768 25.168 11.384C27.632 9.8 28.864 8.216 28.864 6.632ZM3.476 28.676C3.476 29.732 3.97467 30.26 4.972 30.26C5.38267 30.26 5.808 29.996 6.248 29.468C6.71733 28.9107 7.04 28.0453 7.216 26.872L7.568 24.144C4.84 25.728 3.476 27.2387 3.476 28.676ZM34.7882 1.616C35.4629 0.911998 36.2842 0.559998 37.2522 0.559998C38.2202 0.559998 39.0415 0.911998 39.7162 1.616C40.4202 2.29066 40.7722 3.112 40.7722 4.08C40.7722 5.048 40.4202 5.86933 39.7162 6.544C39.0415 7.21867 38.2202 7.556 37.2522 7.556C36.2842 7.556 35.4629 7.21867 34.7882 6.544C34.1135 5.86933 33.7762 5.048 33.7762 4.08C33.7762 3.112 34.1135 2.29066 34.7882 1.616ZM32.9842 14.508C33.2775 13.98 33.8349 13.584 34.6562 13.32C35.4775 13.0267 36.2842 12.88 37.0762 12.88C37.8975 12.88 38.6162 12.9827 39.2322 13.188C38.0882 22.0173 37.5162 26.476 37.5162 26.564C37.3695 27.1507 37.2962 27.6493 37.2962 28.06C37.2962 28.4413 37.3255 28.7787 37.3842 29.072C37.5015 29.8347 38.0295 30.216 38.9682 30.216C39.9362 30.216 40.8162 29.6 41.6082 28.368C42.4295 27.1067 43.0455 25.684 43.4562 24.1C43.6615 24.2173 43.9842 24.5693 44.4242 25.156C44.8642 25.7427 45.1282 26.1827 45.2162 26.476C44.6295 28.8227 43.6322 30.7147 42.2242 32.152C40.8162 33.5893 39.1295 34.308 37.1642 34.308C35.1989 34.308 33.7322 33.824 32.7642 32.856C31.8255 31.888 31.3562 30.6413 31.3562 29.116C31.3562 28.7933 31.3709 28.456 31.4002 28.104L32.9842 14.508ZM58.4358 2.276C58.6411 1.77733 59.0958 1.36667 59.7998 1.044C60.5331 0.691999 61.3984 0.515998 62.3958 0.515998C63.4224 0.515998 64.1851 0.662665 64.6838 0.955998C64.3905 3.244 63.9211 6.83733 63.2758 11.736C61.9264 21.9733 61.2518 27.62 61.2518 28.676C61.2518 29.7027 61.6918 30.216 62.5718 30.216C63.3344 30.216 64.1264 29.7467 64.9478 28.808C65.7691 27.84 66.5171 26.2707 67.1918 24.1C68.0131 24.892 68.5851 25.7573 68.9078 26.696C67.8518 30.1867 66.1944 32.4453 63.9358 33.472C62.9091 33.9707 61.9411 34.22 61.0318 34.22C58.4211 34.22 56.6758 33.2813 55.7958 31.404C54.2704 33.3107 52.3198 34.264 49.9438 34.264C47.5678 34.264 45.5584 33.4573 43.9158 31.844C42.3024 30.2307 41.4958 28.104 41.4958 25.464C41.4958 21.6213 42.6251 18.556 44.8838 16.268C47.1424 13.98 50.0024 12.836 53.4638 12.836C53.5518 12.836 53.6398 12.836 53.7278 12.836C54.9304 12.836 56.0598 13.012 57.1158 13.364L58.4358 2.276ZM54.1238 16.268C52.2464 16.268 50.7504 16.9867 49.6358 18.424C48.5504 19.832 47.9051 21.944 47.6998 24.76C47.6704 25.024 47.6558 25.2733 47.6558 25.508C47.6558 26.9453 47.9931 28.0893 48.6678 28.94C49.3718 29.7907 50.2664 30.216 51.3518 30.216C53.1998 30.216 54.5931 28.9107 55.5318 26.3L56.6758 16.84C55.7078 16.4587 54.8571 16.268 54.1238 16.268ZM84.1253 20.536C86.4426 22.2373 87.6013 24.2467 87.6013 26.564C87.6013 28.8813 86.6919 30.744 84.8733 32.152C83.0546 33.56 80.7666 34.264 78.0093 34.264C76.2199 34.264 74.7239 33.824 73.5213 32.944C72.3479 32.0347 71.7613 30.92 71.7613 29.6C71.7613 28.28 72.2013 27.2387 73.0813 26.476C73.9613 25.684 75.0613 25.2 76.3813 25.024C75.7653 25.904 75.4573 26.7547 75.4573 27.576C75.4573 28.368 75.7359 29.0133 76.2933 29.512C76.8506 30.0107 77.5546 30.26 78.4053 30.26C79.2559 30.26 79.9599 29.952 80.5173 29.336C81.0746 28.6907 81.3533 27.9573 81.3533 27.136C81.3533 25.7867 80.7226 24.584 79.4613 23.528C78.6986 22.912 77.8773 22.34 76.9973 21.812C76.1173 21.2547 75.6479 20.9613 75.5892 20.932C75.4719 20.844 75.3546 20.7707 75.2373 20.712C74.7093 21.328 73.9466 22.1787 72.9493 23.264C71.9519 24.32 71.1599 25.1707 70.5733 25.816C68.9306 27.6053 68.0066 29.1013 67.8013 30.304C67.7426 30.5387 67.7133 30.9933 67.7133 31.668C67.7133 32.3133 67.9039 32.988 68.2853 33.692C68.6959 34.396 69.1799 34.924 69.7373 35.276C70.2946 35.628 70.8373 35.9067 71.3653 36.112C71.9226 36.3467 72.3919 36.508 72.7733 36.596C73.1839 36.684 73.3893 36.7427 73.3893 36.772C73.3893 36.9773 73.0666 37.212 72.4213 37.476C71.2186 37.916 69.9573 38.136 68.6373 38.136C67.3466 38.136 66.0853 37.6667 64.8533 36.728C63.1812 35.4373 62.3452 33.7213 62.3452 31.58C62.3452 30.26 62.6826 28.9547 63.3572 27.664C64.5599 25.376 67.3759 22.2373 71.8053 18.248C70.7199 17.1627 70.1773 16.004 70.1773 14.772C70.1773 13.54 70.6319 12.4987 71.5413 11.648C72.4799 10.7973 73.5799 10.372 74.8413 10.372C75.9853 10.372 76.9826 10.8267 77.8333 11.736C78.3906 12.352 78.6693 13.1293 78.6693 14.068C78.6693 15.0067 78.3613 16.0627 77.7453 17.236C80.8839 18.644 83.0106 19.744 84.1253 20.536ZM74.5773 15.564C75.2813 14.8307 75.6333 14.3027 75.6333 13.98C75.6333 13.2467 75.3106 12.8507 74.6653 12.792C73.9319 12.792 73.5653 13.2027 73.5653 14.024C73.5653 14.5227 73.9026 15.036 74.5773 15.564ZM98.4418 10.196C98.4418 7.40933 99.6738 5.10667 102.138 3.288C104.602 1.44 107.858 0.515998 111.906 0.515998C114.047 0.515998 115.968 0.735998 117.67 1.176C119.371 1.58666 120.72 2.11466 121.718 2.76C122.715 3.40533 123.551 4.15333 124.226 5.004C125.34 6.47067 125.883 8.11333 125.854 9.932C125.854 11.7213 125.15 13.32 123.742 14.728C122.334 16.136 120.632 16.8693 118.638 16.928C121.131 17.104 123.287 17.9253 125.106 19.392C126.954 20.8587 127.878 22.7067 127.878 24.936C127.878 27.8693 126.748 30.1573 124.49 31.8C122.231 33.4427 119.474 34.264 116.218 34.264C112.991 34.264 110.791 33.8387 109.618 32.988L110.982 29.292C112.272 29.9667 113.768 30.304 115.47 30.304C117.2 30.304 118.608 29.8053 119.694 28.808C120.779 27.7813 121.322 26.432 121.322 24.76C121.322 23.088 120.574 21.68 119.078 20.536C117.611 19.392 115.602 18.82 113.05 18.82L113.446 15.564C115.206 15.564 116.687 15.1533 117.89 14.332C119.122 13.4813 119.752 12.22 119.782 10.548C119.84 8.876 119.092 7.468 117.538 6.324C115.866 5.12133 113.578 4.52 110.674 4.52C108.767 4.52 106.904 5.01867 105.086 6.016C103.267 6.984 102.358 8.28933 102.358 9.932C102.358 10.724 102.68 11.3987 103.326 11.956C103.971 12.484 104.822 12.8067 105.878 12.924L105.394 16.18C103.164 16.092 101.448 15.4613 100.246 14.288C99.0431 13.1147 98.4418 11.7507 98.4418 10.196ZM111.026 25.552C110.556 28.6907 109.647 30.92 108.298 32.24C106.948 33.5307 105.364 34.176 103.546 34.176C101.727 34.176 100.348 33.7067 99.4098 32.768C98.4711 31.8293 98.0018 30.6267 98.0018 29.16C98.0018 25.6987 100.627 22.7507 105.878 20.316C106.024 19.084 106.23 17.4267 106.494 15.344C106.787 13.232 107.007 11.5307 107.154 10.24C107.33 8.94933 107.447 8.09866 107.506 7.688C108.708 6.92533 110.102 6.544 111.686 6.544C112.419 6.544 113.123 6.61733 113.798 6.764L111.026 25.552ZM101.258 28.588C101.258 29.644 101.756 30.172 102.754 30.172C103.164 30.172 103.59 29.908 104.03 29.38C104.499 28.8227 104.822 27.9573 104.998 26.784L105.394 24.056C102.636 25.6107 101.258 27.1213 101.258 28.588ZM135.051 34.308C133.262 34.308 131.854 33.8093 130.827 32.812C129.8 31.7853 129.287 30.392 129.287 28.632C129.287 28.1627 130.079 21.196 131.663 7.732C132.074 4.27067 133.174 2.08533 134.963 1.176C135.784 0.735998 136.767 0.515998 137.911 0.515998C141.783 0.515998 143.719 2.30533 143.719 5.884C143.719 6.17733 143.704 6.48533 143.675 6.808C143.382 10.7387 140.918 14.7427 136.283 18.82C136.136 20.2573 135.975 21.6507 135.799 23C135.447 26.0213 135.271 27.6933 135.271 28.016C135.271 29.5413 135.931 30.304 137.251 30.304C138.688 30.304 140.023 29.4827 141.255 27.84C142.516 26.168 143.484 24.0413 144.159 21.46C144.423 21.548 144.79 21.7973 145.259 22.208C145.728 22.5893 146.051 22.9267 146.227 23.22C145.758 25.6547 144.702 27.9867 143.059 30.216C142.238 31.36 141.196 32.2987 139.935 33.032C138.498 33.8827 136.87 34.308 135.051 34.308ZM136.767 14.42C139.466 11.4573 140.815 8.80267 140.815 6.456C140.815 5.048 140.287 4.344 139.231 4.344C138.556 4.40266 138.102 4.84266 137.867 5.664C137.662 6.48533 137.456 7.82 137.251 9.668C137.075 11.516 136.958 12.66 136.899 13.1L136.767 14.42ZM154.132 12.836C156.831 12.836 159.075 13.7013 160.864 15.432C162.683 17.1627 163.592 19.2747 163.592 21.768C163.592 25.552 162.478 28.588 160.248 30.876C158.048 33.1347 155.379 34.264 152.24 34.264C149.102 34.264 146.608 33.3693 144.76 31.58C142.942 29.7907 142.032 27.576 142.032 24.936C142.032 21.24 143.162 18.3067 145.42 16.136C147.708 13.936 150.612 12.836 154.132 12.836ZM153.252 16.4C151.874 16.4 150.715 17.192 149.776 18.776C148.838 20.36 148.324 22.3547 148.236 24.76C148.236 26.4613 148.574 27.8693 149.248 28.984C149.952 30.0987 151.008 30.656 152.416 30.656C153.824 30.656 154.998 29.8787 155.936 28.324C156.904 26.7693 157.388 24.9947 157.388 23C157.388 21.0053 157.051 19.4213 156.376 18.248C155.702 17.016 154.66 16.4 153.252 16.4ZM177.3 12.836C178.913 12.836 180.394 13.1 181.744 13.628C182.653 13.0707 183.606 12.792 184.604 12.792C185.601 12.792 186.393 12.924 186.98 13.188L185.396 25.596C187.566 23.924 189.209 22.3987 190.324 21.02L191.6 23.704C189.928 25.464 187.698 27.3413 184.912 29.336L183.724 38.532C183.401 41.2893 182.492 43.4013 180.996 44.868C179.529 46.364 177.622 47.112 175.276 47.112C173.926 47.112 172.606 46.672 171.316 45.792C169.966 44.8533 169.292 43.3427 169.292 41.26C169.292 38.708 170.509 36.376 172.944 34.264C170.861 34.1173 169.072 33.252 167.576 31.668C166.08 30.084 165.332 28.016 165.332 25.464C165.332 21.6213 166.461 18.556 168.72 16.268C170.978 13.98 173.838 12.836 177.3 12.836ZM177.96 16.268C176.082 16.268 174.586 16.9867 173.472 18.424C172.386 19.832 171.741 21.944 171.536 24.76C171.506 25.024 171.492 25.2733 171.492 25.508C171.492 26.9453 171.829 28.0893 172.504 28.94C173.208 29.7907 174.102 30.216 175.188 30.216C177.036 30.216 178.429 28.9253 179.368 26.344L180.468 16.796C179.558 16.444 178.722 16.268 177.96 16.268ZM172.68 40.6C172.68 41.392 172.9 42.008 173.34 42.448C173.809 42.9173 174.337 43.152 174.924 43.152C176.566 43.152 177.52 42.1107 177.784 40.028L178.532 33.428C174.63 35.7453 172.68 38.136 172.68 40.6Z" fill="#FF004D"/>
</svg>
