<svg width="44" height="44" viewBox="0 0 44 44" fill="none" xmlns="http://www.w3.org/2000/svg">
<path d="M37.227 17.7283C37.0681 17.6962 36.9243 17.6122 36.8181 17.4896C36.712 17.367 36.6495 17.2127 36.6404 17.0507C36.5197 14.9083 35.6791 12.8694 34.2548 11.2645C32.8305 9.65951 30.9059 8.58253 28.7931 8.20806C26.6802 7.83359 24.5027 8.18357 22.6136 9.20129C20.7245 10.219 19.2344 11.8448 18.3848 13.8153C18.3432 13.9112 18.2816 13.9972 18.2041 14.0674C18.1266 14.1376 18.035 14.1904 17.9354 14.2223C17.8358 14.2542 17.7305 14.2644 17.6267 14.2522C17.5228 14.2401 17.4227 14.2059 17.3332 14.1519C16.3771 13.5732 15.2895 13.2473 14.1728 13.205C13.0561 13.1626 11.9469 13.4051 10.9498 13.9097C9.95265 14.4143 9.10033 15.1643 8.47306 16.0892C7.84578 17.0141 7.4642 18.0834 7.36423 19.1965C7.35552 19.2965 7.32635 19.3937 7.27854 19.482C7.23073 19.5703 7.1653 19.6478 7.0863 19.7098C7.00775 19.7718 6.91722 19.8168 6.82042 19.842C6.72361 19.8673 6.62263 19.8722 6.52383 19.8565C5.86588 19.7541 5.19328 19.8024 4.55669 19.9977C3.92011 20.193 3.33616 20.5302 2.84884 20.984C2.36152 21.4377 1.98355 21.9962 1.7434 22.6172C1.50325 23.2383 1.40718 23.9058 1.46245 24.5693C1.51771 25.2329 1.72286 25.8753 2.06244 26.448C2.40201 27.0208 2.86716 27.509 3.42283 27.8759C3.97849 28.2428 4.61019 28.4788 5.2703 28.5661C5.93042 28.6535 6.60175 28.5898 7.2337 28.38C7.33167 28.3488 7.43507 28.3383 7.53732 28.3491C7.63958 28.36 7.73846 28.392 7.8277 28.4431C7.91669 28.4947 7.99383 28.5645 8.0541 28.6478C8.11436 28.7312 8.15641 28.8264 8.1775 28.9271C8.34559 29.7297 8.70392 30.4802 9.22235 31.1155C9.74079 31.7509 10.4042 32.2525 11.1568 32.5781C11.9093 32.9038 12.7291 33.044 13.5471 32.987C14.3652 32.93 15.1576 32.6774 15.8577 32.2505C16.0173 32.1538 16.2079 32.1215 16.3904 32.1603C16.573 32.1992 16.7339 32.3062 16.8404 32.4595C17.7073 33.7124 18.9116 34.6939 20.3137 35.2902C21.7157 35.8865 23.2581 36.0731 24.7619 35.8285C26.2657 35.5839 27.6694 34.918 28.8101 33.908C29.9509 32.8981 30.782 31.5855 31.2071 30.1224C31.2392 30.0124 31.2967 29.9115 31.3749 29.8277C31.4531 29.7439 31.5498 29.6796 31.6573 29.64C31.7648 29.6003 31.8802 29.5864 31.994 29.5994C32.1079 29.6124 32.2171 29.6519 32.313 29.7147C33.1266 30.2501 34.0487 30.5988 35.0131 30.7357C35.9775 30.8726 36.9602 30.7944 37.8907 30.5066C38.8213 30.2189 39.6766 29.7287 40.3953 29.0713C41.1141 28.4139 41.6784 27.6056 42.0478 26.7044C42.4172 25.8031 42.5826 24.8312 42.532 23.8585C42.4814 22.8858 42.2162 21.9363 41.7553 21.0783C41.2944 20.2202 40.6493 19.4747 39.8663 18.8954C39.0832 18.3161 38.1817 17.9173 37.2263 17.7276L37.227 17.7283Z" fill="#FF3074"/>
</svg>
