<svg width="84" height="84" viewBox="0 0 84 84" fill="none" xmlns="http://www.w3.org/2000/svg">
<path d="M37.9219 46.767L56.2339 19.7794C56.4745 19.4248 56.7982 19.1345 57.1769 18.9338C57.5555 18.7331 57.9775 18.6282 58.4061 18.6282C58.8346 18.6282 59.2566 18.7331 59.6352 18.9338C60.0139 19.1345 60.3376 19.4248 60.5782 19.7794L78.8902 46.7644L37.9219 46.767Z" fill="#5BBD45"/>
<path d="M37.9219 46.767H67.6251L52.7741 24.8798L37.9219 46.767Z" fill="#50A32F"/>
<path d="M58.406 28.5994L62.7767 31.878L66.0894 27.9025L60.5769 19.7807C60.3363 19.4261 60.0125 19.1358 59.6339 18.9351C59.2553 18.7345 58.8332 18.6295 58.4047 18.6295C57.9762 18.6295 57.5542 18.7345 57.1755 18.9351C56.7969 19.1358 56.4731 19.4261 56.2325 19.7807L50.7227 27.9025L54.0354 31.8767L58.406 28.5994Z" fill="#E3F5FF"/>
<path d="M56.3454 30.1442L52.7741 24.8798L50.7227 27.9011L54.0354 31.8767L56.3454 30.1442Z" fill="#CFEBF5"/>
<path d="M82.5277 13.6106C81.8181 12.7292 81.4289 11.6329 81.4242 10.5013C81.4194 9.36975 81.7993 8.27015 82.5015 7.38281C82.5818 7.28649 82.6346 7.17024 82.6543 7.04636C82.674 6.92248 82.6598 6.79558 82.6133 6.6791C82.5668 6.56262 82.4896 6.46089 82.39 6.38468C82.2903 6.30847 82.1719 6.26062 82.0473 6.24619C80.9617 6.0861 79.9569 5.57924 79.1829 4.80125C78.4089 4.02326 77.9073 3.01585 77.7528 1.92937C77.7384 1.80538 77.6908 1.68757 77.6151 1.58835C77.5394 1.48912 77.4383 1.41215 77.3225 1.36554C77.2067 1.31892 77.0804 1.30439 76.9571 1.32346C76.8337 1.34254 76.7178 1.39452 76.6215 1.47394C75.7372 2.1806 74.639 2.56565 73.5071 2.56589C72.3752 2.56613 71.2769 2.18154 70.3923 1.47525C70.2957 1.39587 70.1795 1.34399 70.0559 1.32509C69.9323 1.30619 69.8059 1.32095 69.6899 1.36783C69.574 1.41471 69.4729 1.49197 69.3971 1.59149C69.3214 1.691 69.2739 1.80908 69.2597 1.93331C69.1035 3.02513 68.5974 4.03684 67.8174 4.81661C67.0374 5.59637 66.0255 6.10214 64.9337 6.258C64.8095 6.27248 64.6916 6.32012 64.5923 6.39593C64.4929 6.47173 64.4158 6.5729 64.3691 6.68879C64.3224 6.80468 64.3077 6.93102 64.3267 7.05453C64.3457 7.17804 64.3976 7.29416 64.4769 7.39069C65.1829 8.2752 65.5672 9.37354 65.5664 10.5053C65.5657 11.637 65.1801 12.7349 64.473 13.6185C64.3935 13.7149 64.3416 13.8309 64.3225 13.9544C64.3035 14.0779 64.3182 14.2042 64.3649 14.32C64.4117 14.4358 64.4888 14.5369 64.5882 14.6126C64.6876 14.6882 64.8056 14.7357 64.9297 14.7499C66.021 14.9045 67.0326 15.4094 67.8121 16.1887C68.5916 16.968 69.0968 17.9794 69.2518 19.0706C69.2659 19.195 69.3133 19.3132 69.389 19.4128C69.4647 19.5124 69.566 19.5897 69.682 19.6365C69.7981 19.6833 69.9246 19.6979 70.0483 19.6787C70.1719 19.6594 70.2881 19.6072 70.3845 19.5274C71.2684 18.8209 72.3663 18.4358 73.4979 18.4353C74.6295 18.4348 75.7277 18.819 76.6123 19.5248C76.7088 19.6041 76.8249 19.656 76.9484 19.675C77.072 19.6939 77.1983 19.6793 77.3142 19.6325C77.4301 19.5858 77.5312 19.5087 77.607 19.4094C77.6828 19.31 77.7305 19.1921 77.745 19.068C77.9011 17.9764 78.407 16.9648 79.1867 16.1851C79.9665 15.4053 80.978 14.8994 82.0697 14.7433C82.1941 14.7292 82.3125 14.6817 82.4122 14.6059C82.5119 14.5301 82.5893 14.4288 82.6362 14.3127C82.6831 14.1965 82.6978 14.0699 82.6787 13.9461C82.6596 13.8223 82.6075 13.7072 82.5277 13.6106Z" fill="#FFC839"/>
<path d="M73.4902 14.4427C75.6649 14.4427 77.4277 12.6799 77.4277 10.5052C77.4277 8.33063 75.6649 6.56775 73.4902 6.56775C71.3156 6.56775 69.5527 8.33063 69.5527 10.5052C69.5527 12.6799 71.3156 14.4427 73.4902 14.4427Z" fill="#FFF05B"/>
<path d="M11.3438 47.25L35.8901 11.0762C36.1307 10.7216 36.4545 10.4313 36.8331 10.2306C37.2118 10.03 37.6338 9.92505 38.0623 9.92505C38.4908 9.92505 38.9129 10.03 39.2915 10.2306C39.6701 10.4313 39.9939 10.7216 40.2345 11.0762L64.7809 47.25H11.3438Z" fill="#6BCA5A"/>
<path d="M64.7811 47.25L41.2821 12.6197C40.7656 12.4983 40.2245 12.5367 39.7304 12.7298C39.2363 12.923 38.8125 13.2617 38.5153 13.7012L15.75 47.25H64.7811Z" fill="#5BBD45"/>
<path d="M38.0623 19.8949L42.4329 23.1735L45.7457 19.198L40.2332 11.0762C39.9926 10.7216 39.6688 10.4313 39.2902 10.2306C38.9115 10.03 38.4895 9.92505 38.061 9.92505C37.6324 9.92505 37.2104 10.03 36.8318 10.2306C36.4531 10.4313 36.1294 10.7216 35.8888 11.0762L30.3789 19.198L33.6917 23.1722L38.0623 19.8949Z" fill="#F4FBFF"/>
<path d="M33.6913 23.1722L38.0619 19.8962L42.4325 23.1748L45.7453 19.1992L41.2815 12.621C40.765 12.4996 40.2239 12.538 39.7298 12.7311C39.2357 12.9243 38.8119 13.263 38.5147 13.7025L32.8066 22.113L33.6913 23.1722Z" fill="#E3F5FF"/>
<path d="M75.3021 44.1C74.2495 44.9279 72.9504 45.3801 71.6112 45.3849C70.2721 45.3896 68.9698 44.9466 67.9114 44.1262L67.8825 44.1039C66.8426 43.2428 65.5344 42.772 64.1842 42.7729C62.834 42.7739 61.5266 43.2465 60.4879 44.1092L60.4511 44.1394C59.416 44.9988 58.1117 45.4669 56.7663 45.4616C55.4209 45.4563 54.1202 44.978 53.0919 44.1105L53.0893 44.1079C52.061 43.2403 50.7603 42.762 49.415 42.7568C48.0696 42.7515 46.7652 43.2195 45.7301 44.079L45.6711 44.1275C44.6347 44.9881 43.3294 45.4579 41.9823 45.4553C40.6352 45.4527 39.3317 44.9777 38.2988 44.1131L38.2882 44.1039C37.2605 43.2434 35.9647 42.7686 34.6243 42.7614C33.2839 42.7542 31.983 43.2151 30.9461 44.0646L30.9015 44.1013C29.858 44.9564 28.5508 45.4244 27.2017 45.4258C25.8525 45.4272 24.5444 44.9621 23.499 44.1092L23.4321 44.054C22.3945 43.2079 21.0942 42.7505 19.7554 42.7608C18.4167 42.7711 17.1235 43.2485 16.0991 44.1105C15.0931 44.9887 13.8073 45.4799 12.4721 45.4963C11.1368 45.5126 9.83933 45.053 8.81213 44.1997C7.96774 43.4864 6.9394 43.0256 5.84506 42.8701C4.75072 42.7145 3.63469 42.8719 2.625 43.3217C2.62604 53.7646 6.77547 63.778 14.1605 71.1615C21.5454 78.545 31.561 82.6925 42.0039 82.6914C52.4468 82.6904 62.4616 78.541 69.8451 71.156C77.2286 63.771 81.376 53.7554 81.375 43.3125C80.3877 42.8748 79.2992 42.7168 78.2282 42.8557C77.1573 42.9946 76.1451 43.425 75.3021 44.1Z" fill="#8796FF"/>
<path d="M18.375 9.1875C18.0269 9.1875 17.6931 9.04922 17.4469 8.80308C17.2008 8.55694 17.0625 8.2231 17.0625 7.875C17.0615 6.83103 16.6463 5.83012 15.9081 5.09192C15.1699 4.35372 14.169 3.93854 13.125 3.9375C12.7769 3.9375 12.4431 3.79922 12.1969 3.55308C11.9508 3.30694 11.8125 2.9731 11.8125 2.625C11.8125 2.2769 11.9508 1.94306 12.1969 1.69692C12.4431 1.45078 12.7769 1.3125 13.125 1.3125C14.1442 1.31265 15.1493 1.55033 16.0606 2.00667C16.9719 2.46301 17.7643 3.12545 18.375 3.94144C18.9857 3.12545 19.7781 2.46301 20.6894 2.00667C21.6007 1.55033 22.6058 1.31265 23.625 1.3125C23.9731 1.3125 24.3069 1.45078 24.5531 1.69692C24.7992 1.94306 24.9375 2.2769 24.9375 2.625C24.9375 2.9731 24.7992 3.30694 24.5531 3.55308C24.3069 3.79922 23.9731 3.9375 23.625 3.9375C22.581 3.93854 21.5801 4.35372 20.8419 5.09192C20.1037 5.83012 19.6885 6.83103 19.6875 7.875C19.6875 8.2231 19.5492 8.55694 19.3031 8.80308C19.0569 9.04922 18.7231 9.1875 18.375 9.1875ZM7.875 14.4375C7.5269 14.4375 7.19306 14.2992 6.94692 14.0531C6.70078 13.8069 6.5625 13.4731 6.5625 13.125C6.56181 12.429 6.28502 11.7617 5.79289 11.2696C5.30076 10.7775 4.63348 10.5007 3.9375 10.5C3.5894 10.5 3.25556 10.3617 3.00942 10.1156C2.76328 9.86944 2.625 9.5356 2.625 9.1875C2.625 8.8394 2.76328 8.50556 3.00942 8.25942C3.25556 8.01328 3.5894 7.875 3.9375 7.875C4.68276 7.87461 5.41951 8.03329 6.09854 8.34043C6.77756 8.64757 7.3832 9.09611 7.875 9.65606C8.3668 9.09611 8.97244 8.64757 9.65146 8.34043C10.3305 8.03329 11.0672 7.87461 11.8125 7.875C12.1606 7.875 12.4944 8.01328 12.7406 8.25942C12.9867 8.50556 13.125 8.8394 13.125 9.1875C13.125 9.5356 12.9867 9.86944 12.7406 10.1156C12.4944 10.3617 12.1606 10.5 11.8125 10.5C11.1165 10.5007 10.4492 10.7775 9.95711 11.2696C9.46498 11.7617 9.18819 12.429 9.1875 13.125C9.1875 13.4731 9.04922 13.8069 8.80308 14.0531C8.55694 14.2992 8.2231 14.4375 7.875 14.4375Z" fill="#455378"/>
<path d="M22.3117 24.9375C22.3147 23.8345 21.9692 22.7587 21.3246 21.8636C20.68 20.9685 19.7691 20.2999 18.722 19.9531C17.6749 19.6064 16.545 19.5992 15.4936 19.9326C14.4421 20.266 13.5229 20.923 12.8669 21.8098C12.2853 21.3634 11.5902 21.0892 10.8606 21.0181C10.1309 20.9471 9.39593 21.0821 8.73918 21.4079C8.08242 21.7337 7.53021 22.2371 7.14528 22.8611C6.76036 23.485 6.55816 24.2044 6.56166 24.9375C6.56166 25.0176 6.58004 25.0924 6.58529 25.1711C5.70655 25.4746 4.96394 26.08 4.4895 26.8795C4.01506 27.679 3.83955 28.6208 3.99418 29.5375C4.1488 30.4543 4.62354 31.2865 5.33397 31.8861C6.04441 32.4858 6.94449 32.814 7.87416 32.8125H22.3117C23.356 32.8125 24.3575 32.3977 25.0959 31.6592C25.8343 30.9208 26.2492 29.9193 26.2492 28.875C26.2492 27.8307 25.8343 26.8292 25.0959 26.0908C24.3575 25.3523 23.356 24.9375 22.3117 24.9375Z" fill="#F4FBFF"/>
<path d="M22.3118 24.9375C22.3058 24.0895 22.0922 23.2558 21.6896 22.5094C20.6801 22.2207 19.6061 22.2508 18.6143 22.5954C17.6225 22.94 16.7613 23.5824 16.1483 24.4348C15.5667 23.9885 14.8716 23.7142 14.1419 23.6431C13.4122 23.5721 12.6773 23.7071 12.0205 24.0329C11.3638 24.3587 10.8116 24.8621 10.4266 25.4861C10.0417 26.11 9.83951 26.8294 9.84301 27.5625C9.84301 27.6426 9.86139 27.7174 9.86664 27.7961C9.37701 27.9579 8.92474 28.2161 8.53653 28.5556C8.14833 28.895 7.83203 29.3087 7.60633 29.7724C7.38062 30.236 7.25006 30.7402 7.22237 31.2551C7.19468 31.7701 7.2704 32.2853 7.44508 32.7705C7.58725 32.7924 7.73053 32.8065 7.87426 32.8125H22.3118C23.3561 32.8125 24.3576 32.3977 25.096 31.6592C25.8344 30.9208 26.2493 29.9193 26.2493 28.875C26.2493 27.8307 25.8344 26.8292 25.096 26.0908C24.3576 25.3523 23.3561 24.9375 22.3118 24.9375Z" fill="#E3F5FF"/>
<path d="M36.7497 76.125C31.5563 76.1313 26.4134 75.107 21.6188 73.1113C16.8243 71.1156 12.4734 68.1882 8.81836 64.4989C13.4007 71.6785 20.1877 77.1785 28.1611 80.1735C36.1345 83.1685 44.8641 83.4969 53.04 81.1096C61.2159 78.7222 68.3971 73.7478 73.506 66.9328C78.6149 60.1178 81.3759 51.8298 81.3747 43.3125C80.4133 42.8888 79.3562 42.7294 78.3126 42.8508C77.269 42.9722 76.2767 43.3699 75.4382 44.0029C73.7473 53.0284 68.9549 61.1791 61.89 67.0449C54.8252 72.9106 45.9322 76.1226 36.7497 76.125Z" fill="#7F8CF0"/>
<path d="M14.4375 57.0938C14.4375 57.0938 18.2569 52.5 22.9688 52.5C27.6806 52.5 31.5 57.0938 31.5 57.0938C31.5 57.0938 27.6806 61.6875 22.9688 61.6875C18.2569 61.6875 14.4375 57.0938 14.4375 57.0938ZM36.8484 61.1047L31.5 57.0938L36.8484 53.0828C37.6402 54.2706 38.0627 55.6662 38.0627 57.0938C38.0627 58.5213 37.6402 59.9169 36.8484 61.1047ZM40.6875 67.5938C40.6875 67.5938 43.9189 63.7061 47.9062 63.7061C51.8936 63.7061 55.125 67.5938 55.125 67.5938C55.125 67.5938 51.8936 71.4814 47.9062 71.4814C43.9189 71.4814 40.6875 67.5938 40.6875 67.5938ZM60.4734 71.6047L55.125 67.5938L60.4734 63.5828C61.2652 64.7706 61.6877 66.1662 61.6877 67.5938C61.6877 69.0213 61.2652 70.4169 60.4734 71.6047Z" fill="#B9ECFB"/>
<path d="M60.4726 71.6048C61.3298 70.3108 61.7464 68.7747 61.6604 67.2249C60.5241 68.158 59.3367 69.0269 58.1035 69.8276L60.4726 71.6048Z" fill="#A8E4F1"/>
</svg>
