<svg width="100" height="100" viewBox="0 0 100 100" fill="none" xmlns="http://www.w3.org/2000/svg">
<g clip-path="url(#clip0_59_4404)">
<path d="M9.37441 46.4846C8.59753 46.4844 7.85253 46.1756 7.30325 45.6262C6.75396 45.0768 6.44536 44.3318 6.44531 43.5549V2.92988C6.44531 2.34925 6.61784 1.78172 6.94099 1.29933C7.26414 0.81694 7.72335 0.441451 8.2603 0.220533C8.79726 -0.000386049 9.38775 -0.0567706 9.95681 0.0585372C10.5259 0.173845 11.0478 0.455645 11.4564 0.86816L31.6723 21.2783C32.8072 22.424 32.8025 24.2713 31.6623 25.4115L11.4465 45.6264C11.1744 45.8985 10.8514 46.1144 10.4958 46.2617C10.1403 46.4089 9.75924 46.4847 9.37441 46.4846Z" fill="#6AA9FF"/>
<path d="M90.6258 46.4846C90.241 46.4847 89.8599 46.409 89.5043 46.2617C89.1488 46.1145 88.8258 45.8986 88.5537 45.6264L68.3385 25.4111C67.1983 24.2709 67.194 22.4236 68.3285 21.2779L88.5438 0.868151C88.9525 0.455828 89.4744 0.174199 90.0434 0.0590001C90.6124 -0.0561989 91.2028 0.000224688 91.7397 0.221111C92.2766 0.441998 92.7357 0.817391 93.0589 1.29966C93.3821 1.78193 93.5547 2.34933 93.5549 2.92987V43.5549C93.555 44.3318 93.2464 45.0769 92.6971 45.6263C92.1478 46.1757 91.4027 46.4845 90.6258 46.4846Z" fill="#4097FF"/>
<path d="M99.1429 52.0724L52.0726 99.1426C51.5004 99.7149 50.7504 100 50.0004 100C49.2504 100 48.5004 99.7149 47.9281 99.1426L0.857908 52.0724C-0.284667 50.9279 -0.284667 49.0724 0.857908 47.9279L47.9281 0.857664C48.5004 0.2854 49.2504 0.000244141 50.0004 0.000244141C50.7504 0.000244141 51.5004 0.2854 52.0726 0.857664L99.1429 47.9279C100.285 49.0724 100.285 50.9279 99.1429 52.0724Z" fill="#88C4FF"/>
<path d="M99.1425 52.0723L52.0723 99.1426C51.8004 99.415 51.4773 99.631 51.1217 99.7781C50.7661 99.9253 50.3849 100.001 50 100V0.000183105C50.75 0.000183105 51.5 0.285339 52.0723 0.857603L99.1425 47.9278C100.285 49.0723 100.285 50.9278 99.1425 52.0723Z" fill="#6AA9FF"/>
<path d="M99.9998 50.0001C99.9998 50.7638 99.7029 51.5118 99.1424 52.0724L52.0722 99.1426C51.4999 99.7149 50.7499 100 49.9999 100C49.2499 100 48.4999 99.7149 47.9276 99.1426L0.85742 52.0724C0.296874 51.5118 0 50.7638 0 50.0001H35.7433C36.128 50.0001 36.509 50.0759 36.8645 50.2232C37.2199 50.3704 37.5429 50.5862 37.815 50.8583L49.9999 63.045L62.1848 50.8583C62.4569 50.5862 62.7798 50.3704 63.1353 50.2231C63.4908 50.0759 63.8718 50.0001 64.2565 50.0001H99.9998Z" fill="#4097FF"/>
<path d="M100 50.0001C100 50.7638 99.7031 51.5118 99.1426 52.0724L52.0723 99.1427C51.8004 99.4151 51.4773 99.6311 51.1217 99.7782C50.7661 99.9254 50.3849 100.001 50 100V63.045L62.185 50.8583C62.457 50.5862 62.78 50.3704 63.1354 50.2231C63.4909 50.0759 63.8719 50.0001 64.2566 50.0001H100Z" fill="#1D7BD8"/>
<path d="M35.7434 50.0001H29.6014L14.5428 81.5529C14.2824 82.0994 14.1976 82.7131 14.3001 83.3097C14.4026 83.9063 14.6873 84.4566 15.1151 84.8849C15.5435 85.3124 16.0938 85.5969 16.6903 85.6994C17.2869 85.8019 17.9005 85.7172 18.4471 85.4571L49.9998 63.045L37.8151 50.8583C37.543 50.5862 37.2201 50.3704 36.8646 50.2231C36.5091 50.0759 36.1281 50.0001 35.7434 50.0001Z" fill="#6AA9FF"/>
<path d="M85.457 81.5529L70.3984 50.0001H64.2566C63.8719 50.0001 63.4909 50.0759 63.1354 50.2232C62.78 50.3704 62.457 50.5862 62.185 50.8583L50 63.045L81.5527 85.4571C82.0993 85.7172 82.7129 85.8019 83.3095 85.6994C83.9061 85.5969 84.4563 85.3124 84.8848 84.8849C85.3126 84.4566 85.5972 83.9063 85.6997 83.3097C85.8022 82.7131 85.7174 82.0994 85.457 81.5529Z" fill="#4097FF"/>
</g>
<defs>
<clipPath id="clip0_59_4404">
<rect width="100" height="100" fill="white"/>
</clipPath>
</defs>
</svg>
