<svg width="202" height="203" viewBox="0 0 202 203" fill="none" xmlns="http://www.w3.org/2000/svg">
<path d="M51.7461 162.623L59.6116 170.47" stroke="#402AC7" stroke-width="1.1533" stroke-miterlimit="10" stroke-linecap="round" stroke-linejoin="round"/>
<path d="M24.7861 135.664L39.2252 150.103" stroke="#402AC7" stroke-width="1.1533" stroke-miterlimit="10" stroke-linecap="round" stroke-linejoin="round"/>
<path d="M49.2578 137.393L103.633 191.768" stroke="#402AC7" stroke-width="1.1533" stroke-miterlimit="10" stroke-linecap="round" stroke-linejoin="round"/>
<path d="M21.5371 109.673L32.5565 120.692" stroke="#402AC7" stroke-width="1.1533" stroke-miterlimit="10" stroke-linecap="round" stroke-linejoin="round"/>
<path d="M88.3369 153.751L136.176 201.609" stroke="#402AC7" stroke-width="1.1533" stroke-miterlimit="10" stroke-linecap="round" stroke-linejoin="round"/>
<path d="M16.1416 81.5735L67.1536 132.585" stroke="#402AC7" stroke-width="1.1533" stroke-miterlimit="10" stroke-linecap="round" stroke-linejoin="round"/>
<path d="M56.1543 98.8441L140.585 183.294" stroke="#402AC7" stroke-width="1.1533" stroke-miterlimit="10" stroke-linecap="round" stroke-linejoin="round"/>
<path d="M21.2344 63.9244L39.0933 81.8024" stroke="#402AC7" stroke-width="1.1533" stroke-miterlimit="10" stroke-linecap="round" stroke-linejoin="round"/>
<path d="M125.86 145.828L146.17 166.138" stroke="#402AC7" stroke-width="1.1533" stroke-miterlimit="10" stroke-linecap="round" stroke-linejoin="round"/>
<path d="M1 20.9683L104.525 124.493" stroke="#402AC7" stroke-width="1.1533" stroke-miterlimit="10" stroke-linecap="round" stroke-linejoin="round"/>
<path d="M84.0439 81.2702L185.175 182.401" stroke="#402AC7" stroke-width="1.1533" stroke-miterlimit="10" stroke-linecap="round" stroke-linejoin="round"/>
<path d="M39.3594 36.6034L62.861 60.105" stroke="#402AC7" stroke-width="1.1533" stroke-miterlimit="10" stroke-linecap="round" stroke-linejoin="round"/>
<path d="M103.67 78.1736L168.988 143.511" stroke="#402AC7" stroke-width="1.1533" stroke-miterlimit="10" stroke-linecap="round" stroke-linejoin="round"/>
<path d="M36.9639 11.4874L85.2399 59.7635" stroke="#402AC7" stroke-width="1.1533" stroke-miterlimit="10" stroke-linecap="round" stroke-linejoin="round"/>
<path d="M157.552 109.332L191.674 143.472" stroke="#402AC7" stroke-width="1.1533" stroke-miterlimit="10" stroke-linecap="round" stroke-linejoin="round"/>
<path d="M66.4697 18.2511L132.757 84.5571" stroke="#402AC7" stroke-width="1.1533" stroke-miterlimit="10" stroke-linecap="round" stroke-linejoin="round"/>
<path d="M124.492 53.5502L170.583 99.6605" stroke="#402AC7" stroke-width="1.1533" stroke-miterlimit="10" stroke-linecap="round" stroke-linejoin="round"/>
<path d="M71.9414 1L106.424 35.4829" stroke="#402AC7" stroke-width="1.1533" stroke-miterlimit="10" stroke-linecap="round" stroke-linejoin="round"/>
<path d="M165.474 71.8088L183.409 89.7437" stroke="#402AC7" stroke-width="1.1533" stroke-miterlimit="10" stroke-linecap="round" stroke-linejoin="round"/>
<path d="M99.5283 5.86383L144.974 51.3281" stroke="#402AC7" stroke-width="1.1533" stroke-miterlimit="10" stroke-linecap="round" stroke-linejoin="round"/>
<path d="M156.145 39.7575L167.164 50.7769" stroke="#402AC7" stroke-width="1.1533" stroke-miterlimit="10" stroke-linecap="round" stroke-linejoin="round"/>
<path d="M136.805 20.4172L144.404 28.0168" stroke="#402AC7" stroke-width="1.1533" stroke-miterlimit="10" stroke-linecap="round" stroke-linejoin="round"/>
<path d="M125.327 109.692L201 185.384" stroke="#402AC7" stroke-width="1.15" stroke-miterlimit="10" stroke-linecap="round" stroke-linejoin="round"/>
</svg>
