<svg width="100" height="100" viewBox="0 0 100 100" fill="none" xmlns="http://www.w3.org/2000/svg">
<path d="M26.483 56.1059L25.0859 56.8043L26.1338 60.2098L31.7223 79.0711C31.9006 79.6947 31.2131 72.8828 31.7223 73.1332L33.5891 58.5191L79.6219 27.6104L95.5641 14.6992L96.0725 12.9375C95.9746 12.8627 95.8703 12.7966 95.7607 12.7402L95.76 12.7408L75.8957 20.8066L26.483 56.1055V56.1059Z" fill="url(#paint0_linear_59_4431)"/>
<path d="M94.2024 12.5985L4.40751 40.4337C2.88075 40.9071 2.66044 42.977 4.0534 43.761L19.221 52.2987L24.2132 51.9143L70.1917 27.6096L95.76 12.7395C95.5228 12.6136 95.2629 12.5363 94.9955 12.512C94.728 12.4878 94.4584 12.5173 94.2024 12.5985Z" fill="url(#paint1_linear_59_4431)"/>
<path d="M28.9062 59.0137L33.5895 87.2711C34.3936 87.6664 35.427 87.5566 36.1186 86.8016L51.2215 70.3115L52.8475 65.023L41.2369 59.8184L28.9062 59.0137Z" fill="url(#paint2_linear_59_4431)"/>
<path d="M96.0719 12.937L77.4486 27.321L31.7227 57.7649L70.1904 73.3079C71.7523 74.1872 73.498 77.7999 74.0732 76.1022L92.1775 28.7634L96.7627 15.2263C97.0682 14.3245 96.7213 13.4425 96.0719 12.937Z" fill="url(#paint3_linear_59_4431)"/>
<path d="M77.0291 27.3188C74.7258 27.3188 72.4457 27.4183 70.1922 27.6105L23.5508 54.7354V54.7358L32.4838 85.9452C32.5639 86.2318 32.7039 86.4981 32.8944 86.7266C33.085 86.9551 33.3218 87.1407 33.5893 87.271L34.1955 60.7286L77.4494 27.3216C77.3092 27.3208 77.1693 27.3188 77.0291 27.3188Z" fill="url(#paint4_linear_59_4431)"/>
<path d="M23.5502 54.7357L70.1902 27.6104C50.1498 29.3205 32.2344 38.4756 19.2207 52.2988L23.5502 54.7357Z" fill="url(#paint5_linear_59_4431)"/>
<path d="M77.4484 27.3215L34.1963 60.728L70.7939 81.3284C72.3557 82.2077 74.3322 81.4506 74.9072 79.753L92.1779 28.7633C87.4065 27.8415 82.4828 27.3475 77.4484 27.3215Z" fill="url(#paint6_linear_59_4431)"/>
<defs>
<linearGradient id="paint0_linear_59_4431" x1="29.2105" y1="65.7785" x2="88.7641" y2="27.4941" gradientUnits="userSpaceOnUse">
<stop offset="0.001" stop-color="#6B17F2"/>
<stop offset="1" stop-color="#8C47E6"/>
</linearGradient>
<linearGradient id="paint1_linear_59_4431" x1="18.9763" y1="57.5422" x2="98.5474" y2="-22.0288" gradientUnits="userSpaceOnUse">
<stop stop-color="#EDBAF7"/>
<stop offset="0.999" stop-color="#EEE6F5"/>
</linearGradient>
<linearGradient id="paint2_linear_59_4431" x1="40.8768" y1="89.9147" x2="40.8768" y2="47.3477" gradientUnits="userSpaceOnUse">
<stop stop-color="#9C40F2"/>
<stop offset="0.999" stop-color="#E9A5F0"/>
</linearGradient>
<linearGradient id="paint3_linear_59_4431" x1="62.1693" y1="57.6388" x2="115.904" y2="3.33253" gradientUnits="userSpaceOnUse">
<stop stop-color="#EDBAF7"/>
<stop offset="0.999" stop-color="#EEE6F5"/>
</linearGradient>
<linearGradient id="paint4_linear_59_4431" x1="31.2412" y1="68.6714" x2="126.203" y2="-14.2284" gradientUnits="userSpaceOnUse">
<stop offset="0.001" stop-color="#6B17F2"/>
<stop offset="1" stop-color="#8C47E6"/>
</linearGradient>
<linearGradient id="paint5_linear_59_4431" x1="39.3498" y1="45.2846" x2="112.728" y2="-28.0932" gradientUnits="userSpaceOnUse">
<stop stop-color="#EDBAF7"/>
<stop offset="0.999" stop-color="#EEE6F5"/>
</linearGradient>
<linearGradient id="paint6_linear_59_4431" x1="68.8268" y1="56.1758" x2="136.741" y2="-11.738" gradientUnits="userSpaceOnUse">
<stop stop-color="#EDBAF7"/>
<stop offset="0.999" stop-color="#EEE6F5"/>
</linearGradient>
</defs>
</svg>
