<svg width="82" height="82" viewBox="0 0 82 82" fill="none" xmlns="http://www.w3.org/2000/svg">
<path d="M41 0.483826V33.5258L74.6165 0.483826H41Z" fill="#FFBFE7"/>
<path d="M68.0169 0.483826L41 27.039V33.5258L74.6165 0.483826H68.0169Z" fill="#FFB0E1"/>
<path d="M7.86906 33.5258H41.0003L7.86906 0V33.5258ZM41.0003 66.568V33.5258L7.38379 66.568H41.0003Z" fill="#FC5DC2"/>
<path d="M74.1312 33.5258H41L74.1312 67.0518V33.5258Z" fill="#FFBFE7"/>
<path d="M67.5449 33.5258V60.3736L74.1445 67.0518V33.5258H67.5449Z" fill="#FFB0E1"/>
<path d="M7.86914 33.5258L24.3263 49.9388L41.0003 33.5258H7.86914Z" fill="#FFBFE7"/>
<path d="M40.9998 0.483826L24.5537 16.8856L40.9998 33.5258V0.483826ZM40.9998 66.568L57.4442 50.1678L40.9998 33.5258V66.568Z" fill="#FC90D4"/>
<path d="M41 33.5258H74.1312L57.6758 17.1148L41 33.5258Z" fill="#FC5DC2"/>
<path d="M38.0713 33.2986H43.9296V82H38.0713V33.2986Z" fill="#FFF4CF"/>
<path d="M41 40.0162C44.5941 40.0162 47.5078 37.1103 47.5078 33.5258C47.5078 29.9413 44.5941 27.0355 41 27.0355C37.4058 27.0355 34.4922 29.9413 34.4922 33.5258C34.4922 37.1103 37.4058 40.0162 41 40.0162Z" fill="#F7DF8A"/>
<path d="M41.0001 27.0357C39.8399 27.0337 38.7004 27.3428 37.7002 27.9308C39.62 29.0594 40.9083 31.1427 40.9083 33.526C40.9083 35.9094 39.6201 37.9926 37.7002 39.1212C38.7004 39.7091 39.8399 40.0182 41.0001 40.0163C44.5943 40.0163 47.5078 37.1104 47.5078 33.526C47.5078 29.9415 44.5943 27.0357 41.0001 27.0357Z" fill="#F7D765"/>
</svg>
