<svg width="153" height="123" viewBox="0 0 153 123" fill="none" xmlns="http://www.w3.org/2000/svg">
<path d="M26.7866 74.1076C26.7029 73.2671 27.2796 72.7768 27.9068 72.3227C29.734 70.9956 31.5611 69.6685 33.3905 68.3508C37.883 65.114 42.3756 61.8772 46.8825 58.6566C53.4427 53.9561 60.0075 49.2744 66.5557 44.5672C72.1629 40.5411 77.7371 36.464 83.3444 32.4379C89.7855 27.8104 96.2454 23.2179 102.686 18.5904C106.571 15.8023 110.483 13.037 114.304 10.1561C115.791 9.03316 117.188 8.85893 118.821 9.37261C122.268 10.4508 125.294 12.1874 128.07 14.3341C130.897 16.517 133.263 19.1483 135.497 21.8863C135.776 22.2212 135.933 22.66 136.141 23.0543C133.452 25.0408 130.751 27.0206 128.062 29.0072C125.266 31.0734 122.462 33.1518 119.672 35.2463C117.104 37.1692 114.567 39.1338 112.002 41.0662C110.096 42.5053 108.179 43.9377 106.271 45.3674C103.095 47.7389 99.9155 50.0916 96.7424 52.4726C94.0052 54.5226 91.2945 56.5954 88.5672 58.6426C86.8211 59.9574 85.0442 61.2305 83.2981 62.5453C80.573 64.602 77.8623 66.6747 75.1251 68.7247C72.5573 70.6476 69.9631 72.5477 67.3953 74.4706C64.0605 76.9665 60.7422 79.4879 57.4096 81.9932C55.1751 83.6837 52.9384 85.3647 50.704 87.0551C49.1819 88.2077 47.6335 89.3375 46.1423 90.5319C45.0826 91.3763 43.9173 92.1293 43.1494 93.2749C41.8309 93.3371 40.8685 92.5983 39.9633 91.924C38.3267 90.6881 37.3012 89.063 37.3124 86.8507C37.3216 84.1872 38.2147 81.8423 39.9111 79.6977C40.0648 79.5046 40.1702 79.2848 40.4087 78.9178C39.2778 79.0187 38.3507 79.0935 37.4357 79.1751C34.8089 79.3871 32.385 78.8604 30.1523 77.6784C28.6184 76.8762 27.495 75.6796 26.7866 74.1076ZM74.2349 45.3422C72.6812 45.5195 71.1503 46.6344 69.5272 47.4936C63.5707 50.6218 58.5718 54.9119 54.0613 59.8005C53.1175 60.8238 52.4737 62.0055 52.3206 63.3531C52.1833 64.5457 52.2905 65.7513 53.2587 66.5588C54.513 67.5988 55.9947 68.0037 57.7304 67.5754C59.6654 67.1022 61.4953 66.407 63.2129 65.3711C66.8495 63.1736 70.3294 60.7583 73.5171 57.9515C75.7831 55.9511 77.8082 53.7761 79.2855 51.1497C79.8674 50.1056 80.1314 49.0488 80.1495 47.9292C80.1556 47.5559 80.0595 47.1506 79.8783 46.829C78.8762 45.0367 77.4784 44.4983 75.3584 45.0325C75.0802 45.0991 74.8164 45.1819 74.2349 45.3422ZM85.6013 37.3988C84.4917 37.8554 83.1213 38.5846 82.3196 40.0307C81.7659 41.0168 81.6005 42.0464 82.2426 42.984C82.9178 43.9728 83.8929 44.5876 85.1531 44.7222C87.1141 44.9347 89.1818 43.471 89.948 41.4322C90.4409 40.1014 90.1335 38.9811 89.2688 38.0346C88.3943 37.0908 87.2523 36.9236 85.6013 37.3988Z" fill="#E7C289"/>
<path d="M141.043 31.8145C142.376 34.4356 142.812 37.2939 142.972 40.228C142.995 40.6828 142.946 41.1376 142.918 41.5965C142.846 42.7093 142.351 43.5377 141.357 44.2526C135.467 48.452 129.624 52.7186 123.752 56.9529C117.048 61.7875 110.34 66.6033 103.631 71.4191C91.3817 80.2277 79.1322 89.0364 66.8827 97.845C62.6115 100.917 58.3238 103.963 54.0745 107.038C53.2694 107.621 52.4416 108.019 51.4626 108.088C49.2258 105.987 48.6426 103.39 49.3423 100.369C49.6917 98.8794 50.37 97.5394 51.1819 96.2328C51.6547 95.9723 52.1703 95.7601 52.5979 95.4418C53.9058 94.4598 55.1663 93.4107 56.4885 92.4449C60.058 89.8173 63.6462 87.2246 67.2299 84.6132C71.4125 81.566 75.6027 78.5067 79.7854 75.4595C83.4782 72.7779 87.1952 70.1096 90.8881 67.428C95.1874 64.2985 99.4725 61.1529 103.772 58.0234C108.019 54.9385 112.283 51.879 116.546 48.8196C119.205 46.9041 121.856 45.0007 124.517 43.0946C127.458 41.001 130.397 38.8979 133.353 36.8204C135.303 35.4512 137.264 34.0886 139.243 32.7516C139.808 32.3953 140.447 32.1291 141.043 31.8145Z" fill="#E3AB6D"/>
<path d="M140.635 31.5763C140.04 31.8905 139.399 32.1469 138.839 32.5214C136.863 33.8567 134.901 35.208 132.956 36.5849C130.004 38.6596 127.065 40.7504 124.13 42.8507C121.469 44.7448 118.814 46.6578 116.168 48.5681C111.911 51.6329 107.652 54.6883 103.408 57.7597C99.1109 60.8757 94.8328 64.0265 90.5382 67.1519C86.8495 69.83 83.1464 72.492 79.4478 75.1728C75.2578 78.2092 71.082 81.2618 66.9063 84.3144C63.3265 86.9224 59.7423 89.5116 56.1769 92.1358C54.8561 93.1003 53.609 94.1548 52.2905 95.1287C51.8634 95.4466 51.3483 95.6585 50.8761 95.9187C51.0367 95.0931 51.7244 94.5933 52.1808 93.9567C52.4253 93.619 52.8994 93.2781 52.4762 92.6833C51.2185 93.0294 49.9425 93.4306 48.642 93.7284C46.9244 94.1209 45.2258 94.1075 43.5863 93.5468C44.35 92.3949 45.5241 91.6511 46.571 90.812C48.058 89.6214 49.6021 88.4952 51.12 87.3462C53.3482 85.661 55.5764 83.9759 57.8069 82.3002C61.1182 79.7961 64.4393 77.2893 67.7649 74.8013C70.3255 72.8844 72.9124 70.9904 75.4731 69.0735C78.1928 67.0328 80.8938 64.9571 83.6233 62.9136C85.3645 61.6029 87.1343 60.3245 88.8777 59.0232C91.5974 56.9825 94.3104 54.9135 97.0301 52.8727C100.197 50.5086 103.365 48.154 106.532 45.7899C108.444 44.362 110.347 42.9368 112.247 41.5022C114.803 39.5666 117.335 37.6175 119.896 35.7007C122.678 33.6127 125.466 31.5531 128.262 29.4812C130.944 27.501 133.636 25.5181 136.319 23.5473C137.857 25.1378 138.692 27.1622 139.672 29.0964C140.067 29.8795 140.313 30.7434 140.635 31.5763Z" fill="#E4B67C"/>
<path d="M45.3481 93.2745C47.0236 93.8299 48.7637 93.8498 50.5206 93.4487C51.8509 93.1444 53.156 92.7354 54.4425 92.3823C54.8759 92.9841 54.3889 93.3209 54.1413 93.6731C53.6771 94.3285 52.964 94.839 52.8082 95.6636C51.9895 96.9848 51.2873 98.3452 50.9313 99.8542C50.2184 102.913 50.8062 105.544 53.1034 107.665C50.9366 108.412 48.7361 108.884 46.4835 109.228C43.7024 109.646 40.914 109.945 38.1242 110.193C37.8515 110.217 37.5851 110.178 37.3156 110.171C37.1074 109.213 36.9416 108.253 36.6831 107.309C36.5863 106.95 36.3008 106.652 36.1058 106.33C35.7454 105.363 35.4609 104.355 35.0247 103.429C33.3306 99.8021 30.8909 96.6847 28.0625 93.867C25.7959 91.6057 23.3146 89.5658 20.218 88.3548C20.6241 87.5021 21.0056 86.6359 21.4589 85.8008C23.571 81.9213 25.7425 78.066 28.2324 74.3772C28.3434 74.2148 28.5015 74.0699 28.6349 73.9114C29.3561 75.4902 30.4949 76.7107 32.0722 77.5265C34.3603 78.7158 36.833 79.2453 39.5022 79.0304C40.4378 78.9563 41.3811 78.87 42.5346 78.7665C42.3016 79.1351 42.1842 79.3602 42.0275 79.5555C40.2983 81.7258 39.3987 84.0947 39.3807 86.7902C39.3705 89.0267 40.4173 90.6684 42.0874 91.9156C43.0188 92.5839 44.0132 93.3364 45.3481 93.2745Z" fill="#B8A08C"/>
<path d="M20.9174 88.1488C24.0109 89.3639 26.4697 91.4022 28.7227 93.6492C31.537 96.4609 33.9667 99.5812 35.6501 103.191C36.0864 104.124 36.3672 105.121 36.7258 106.086C33.8768 107.053 30.9428 107.263 28.012 107.442C23.4517 107.714 19.081 106.952 14.8344 105.639C14.5068 104.625 14.6041 103.605 14.8514 102.544C15.6138 99.2239 16.9635 96.0864 18.4291 92.9878C19.2109 91.3541 20.0887 89.765 20.9174 88.1488Z" fill="#E3AB6D"/>
<path d="M15.3439 105.801C19.5205 107.108 23.8075 107.863 28.3059 107.607C31.1914 107.444 34.0778 107.24 36.8789 106.278C37.0696 106.597 37.3489 106.891 37.4434 107.246C37.6958 108.179 37.8574 109.128 38.0605 110.075C36.728 110.201 35.398 110.427 34.0781 110.429C30.6141 110.451 27.1533 110.441 23.693 110.301C22.1058 110.237 20.5415 109.916 18.9991 109.598C17.4567 109.281 16.2537 108.449 15.5004 107.082C15.282 106.691 15.1227 106.283 15.3439 105.801Z" fill="#CC9C63"/>
<path d="M74.6093 45.1574C75.1912 44.9969 75.4553 44.914 75.714 44.8527C77.836 44.3178 79.2353 44.8564 80.2385 46.6498C80.4199 46.9715 80.5161 47.3771 80.51 47.7506C80.5018 48.8683 80.2377 49.9259 79.6454 50.9735C78.1669 53.6021 76.1521 55.7857 73.8719 57.7811C70.6814 60.5904 67.1982 63.0081 63.5583 65.2078C61.8489 66.2419 60.0074 66.9407 58.0706 67.4146C56.331 67.834 54.8501 67.4386 53.5945 66.3981C52.6253 65.5901 52.5202 64.3932 52.6553 63.1903C52.8084 61.8417 53.4528 60.6591 54.3974 59.6349C58.912 54.7421 63.9153 50.448 69.8774 47.3166C71.5217 46.4511 73.0442 45.3378 74.6093 45.1574Z" fill="#F1DBB9"/>
<path d="M85.1782 37.2576C86.8451 36.7775 87.9981 36.9445 88.8693 37.8865C89.7551 38.8446 90.0638 39.962 89.5567 41.3044C88.7841 43.3567 86.6971 44.8318 84.717 44.6201C83.4545 44.4833 82.4697 43.8658 81.7776 42.8744C81.1265 41.9222 81.2953 40.8954 81.8539 39.9026C82.6771 38.4629 84.0604 37.7276 85.1782 37.2576Z" fill="#F1DBB9"/>
</svg>
