<svg width="136" height="136" viewBox="0 0 136 136" fill="none" xmlns="http://www.w3.org/2000/svg">
<g clip-path="url(#clip0_59_4159)">
<path d="M81.6094 125.743L94.9419 112.411L86.6701 104.139L81.6094 125.743Z" fill="url(#paint0_linear_59_4159)"/>
<path d="M81.6094 125.743L94.9419 112.411L86.6701 104.139L81.6094 125.743Z" fill="url(#paint1_linear_59_4159)"/>
<path d="M81.6094 125.743L94.9419 112.411L86.6701 104.139L81.6094 125.743Z" fill="url(#paint2_linear_59_4159)"/>
<path d="M111.818 135.028L79.2738 102.484L55.1842 92.2176C52.9761 91.2764 53.0749 88.1136 55.3375 87.3123L132.088 60.125C134.397 59.4992 136.514 61.6162 135.889 63.9261L117 133.647C116.377 135.946 113.502 136.712 111.818 135.028Z" fill="url(#paint3_linear_59_4159)"/>
<path d="M135.091 60.928H135.083C134.998 60.843 134.863 60.8456 134.775 60.9226L82.6394 99.9639C82.2152 100.282 81.6104 99.9788 81.6104 99.4489V78.0047L132.087 60.1255C133.245 59.8123 134.353 60.1869 135.091 60.928Z" fill="url(#paint4_linear_59_4159)"/>
<path d="M81.6424 77.9941L55.3373 87.3123C53.075 88.1137 52.9762 91.2765 55.184 92.2176L79.2736 102.484L100.346 86.7035C100.346 86.7035 89.7963 81.765 81.6424 77.9941Z" fill="url(#paint5_linear_59_4159)"/>
<path d="M135.888 63.9253L117.001 133.648C116.377 135.945 113.503 136.713 111.818 135.028L87.1885 110.398C87.7143 109.522 88.3429 108.711 89.0609 107.984L135.092 61.2382C135.171 61.1503 135.171 61.0127 135.086 60.9306V60.9219C135.827 61.6603 136.202 62.768 135.888 63.9253Z" fill="url(#paint6_linear_59_4159)"/>
<path d="M100.072 93.4841L84.7783 107.989L111.818 135.028C113.502 136.712 116.377 135.946 117 133.647L122.665 112.737L100.072 93.4841Z" fill="url(#paint7_linear_59_4159)"/>
<path d="M135.087 60.9304L135.084 60.9275C135 60.8438 134.864 60.8443 134.775 60.9224L79.2744 102.484V124.715C79.2744 126.291 81.4857 126.647 81.9798 125.15L85.9833 113.021C86.6081 111.127 87.6607 109.404 89.0595 107.983L135.092 61.2396C135.17 61.1503 135.17 61.014 135.087 60.9304Z" fill="url(#paint8_linear_59_4159)"/>
<path d="M135.087 60.9304L135.084 60.9275C135 60.8438 134.864 60.8443 134.775 60.9224L79.2744 102.484V124.715C79.2744 126.291 81.4857 126.647 81.9798 125.15L85.9833 113.021C86.6081 111.127 87.6607 109.404 89.0595 107.983L135.092 61.2396C135.17 61.1503 135.17 61.014 135.087 60.9304Z" fill="url(#paint9_linear_59_4159)"/>
<path d="M37.1816 87.2631L54.8693 69.5754L43.8956 58.6014L37.1816 87.2631Z" fill="url(#paint10_linear_59_4159)"/>
<path d="M37.1816 87.2631L54.8693 69.5754L43.8956 58.6014L37.1816 87.2631Z" fill="url(#paint11_linear_59_4159)"/>
<path d="M37.1816 87.2631L54.8693 69.5754L43.8956 58.6014L37.1816 87.2631Z" fill="url(#paint12_linear_59_4159)"/>
<path d="M77.2581 99.5807L34.0829 56.4057L2.12424 42.7855C-0.805071 41.5371 -0.674118 37.341 2.32744 36.2777L104.149 0.209559C107.213 -0.62052 110.022 2.1882 109.192 5.25218L84.1325 97.7489C83.3064 100.798 79.492 101.815 77.2581 99.5807Z" fill="url(#paint13_linear_59_4159)"/>
<path d="M37.2255 23.9161L2.32744 36.278C-0.674118 37.3413 -0.805071 41.5374 2.12424 42.7855L34.0829 56.4057L62.0394 35.4705C62.0394 35.4705 48.0431 28.9186 37.2255 23.9161Z" fill="url(#paint14_linear_59_4159)"/>
<path d="M109.191 5.25114L84.1341 97.75C83.3062 100.798 79.4929 101.816 77.2576 99.581L44.582 66.9056C45.2796 65.7429 46.1135 64.6676 47.0659 63.7024L108.133 1.68672C108.238 1.57011 108.238 1.38736 108.126 1.27872V1.26703C109.109 2.24639 109.606 3.71583 109.191 5.25114Z" fill="url(#paint15_linear_59_4159)"/>
<path d="M61.676 44.4659L41.3857 63.7083L77.2581 99.5807C79.492 101.815 83.3064 100.798 84.1325 97.7489L91.6481 70.0084L61.676 44.4659Z" fill="url(#paint16_linear_59_4159)"/>
<path d="M108.127 1.27815L108.123 1.27416C108.012 1.16313 107.831 1.16393 107.713 1.26726L34.083 56.4057V85.8986C34.083 87.9901 37.0166 88.4618 37.6721 86.4755L42.9833 70.3839C43.8123 67.8725 45.2088 65.5858 47.0644 63.7014L108.134 1.68827C108.237 1.57007 108.238 1.38918 108.127 1.27815Z" fill="url(#paint17_linear_59_4159)"/>
<path d="M108.127 1.27815L108.123 1.27416C108.012 1.16313 107.831 1.16393 107.713 1.26726L34.083 56.4057V85.8986C34.083 87.9901 37.0166 88.4618 37.6721 86.4755L42.9833 70.3839C43.8123 67.8725 45.2088 65.5858 47.0644 63.7014L108.134 1.68827C108.237 1.57007 108.238 1.38918 108.127 1.27815Z" fill="url(#paint18_linear_59_4159)"/>
</g>
<defs>
<linearGradient id="paint0_linear_59_4159" x1="79.0735" y1="105.216" x2="90.2132" y2="121.996" gradientUnits="userSpaceOnUse">
<stop stop-color="#FEF0AE"/>
<stop offset="1" stop-color="#FAC600"/>
</linearGradient>
<linearGradient id="paint1_linear_59_4159" x1="81.7895" y1="118.164" x2="88.2643" y2="111.062" gradientUnits="userSpaceOnUse">
<stop stop-color="#FE9738" stop-opacity="0"/>
<stop offset="1" stop-color="#FE9738"/>
</linearGradient>
<linearGradient id="paint2_linear_59_4159" x1="93.3269" y1="118.546" x2="85.0763" y2="115.309" gradientUnits="userSpaceOnUse">
<stop stop-color="#FE9738" stop-opacity="0"/>
<stop offset="1" stop-color="#FE9738"/>
</linearGradient>
<linearGradient id="paint3_linear_59_4159" x1="67.7645" y1="49.4859" x2="144.421" y2="125.725" gradientUnits="userSpaceOnUse">
<stop stop-color="#FEF0AE"/>
<stop offset="1" stop-color="#FAC600"/>
</linearGradient>
<linearGradient id="paint4_linear_59_4159" x1="99.2247" y1="77.7303" x2="89.5045" y2="75.0794" gradientUnits="userSpaceOnUse">
<stop stop-color="#FE9738" stop-opacity="0"/>
<stop offset="1" stop-color="#FE9738"/>
</linearGradient>
<linearGradient id="paint5_linear_59_4159" x1="74.6052" y1="94.2307" x2="71.9944" y2="101.124" gradientUnits="userSpaceOnUse">
<stop stop-color="#FE9738" stop-opacity="0"/>
<stop offset="1" stop-color="#FE9738"/>
</linearGradient>
<linearGradient id="paint6_linear_59_4159" x1="118.719" y1="96.8562" x2="127.282" y2="99.2582" gradientUnits="userSpaceOnUse">
<stop stop-color="#FE9738" stop-opacity="0"/>
<stop offset="1" stop-color="#FE9738"/>
</linearGradient>
<linearGradient id="paint7_linear_59_4159" x1="104.908" y1="116.719" x2="98.3632" y2="123.821" gradientUnits="userSpaceOnUse">
<stop stop-color="#FE9738" stop-opacity="0"/>
<stop offset="1" stop-color="#FE9738"/>
</linearGradient>
<linearGradient id="paint8_linear_59_4159" x1="126.49" y1="112.428" x2="97.4086" y2="83.3462" gradientUnits="userSpaceOnUse">
<stop stop-color="#FEF0AE"/>
<stop offset="1" stop-color="#FAC600"/>
</linearGradient>
<linearGradient id="paint9_linear_59_4159" x1="97.5523" y1="84.9769" x2="106.534" y2="92.6009" gradientUnits="userSpaceOnUse">
<stop stop-color="#FE9738" stop-opacity="0"/>
<stop offset="1" stop-color="#FE9738"/>
</linearGradient>
<linearGradient id="paint10_linear_59_4159" x1="33.8172" y1="60.0304" x2="48.5961" y2="82.2911" gradientUnits="userSpaceOnUse">
<stop stop-color="#C9F6B0"/>
<stop offset="1" stop-color="#0BB494"/>
</linearGradient>
<linearGradient id="paint11_linear_59_4159" x1="37.4204" y1="77.2079" x2="46.0107" y2="67.7864" gradientUnits="userSpaceOnUse">
<stop stop-color="#00A887" stop-opacity="0"/>
<stop offset="0.36" stop-color="#01A58C" stop-opacity="0.36"/>
<stop offset="0.794" stop-color="#069C9A" stop-opacity="0.795"/>
<stop offset="1" stop-color="#0996A4"/>
</linearGradient>
<linearGradient id="paint12_linear_59_4159" x1="52.7268" y1="77.715" x2="41.7812" y2="73.4198" gradientUnits="userSpaceOnUse">
<stop stop-color="#00A887" stop-opacity="0"/>
<stop offset="0.36" stop-color="#01A58C" stop-opacity="0.36"/>
<stop offset="0.794" stop-color="#069C9A" stop-opacity="0.795"/>
<stop offset="1" stop-color="#0996A4"/>
</linearGradient>
<linearGradient id="paint13_linear_59_4159" x1="18.814" y1="-13.9047" x2="120.511" y2="87.2384" gradientUnits="userSpaceOnUse">
<stop stop-color="#C9F6B0"/>
<stop offset="1" stop-color="#0BB494"/>
</linearGradient>
<linearGradient id="paint14_linear_59_4159" x1="27.8896" y1="45.4567" x2="24.4258" y2="54.6011" gradientUnits="userSpaceOnUse">
<stop stop-color="#00A887" stop-opacity="0"/>
<stop offset="0.36" stop-color="#01A58C" stop-opacity="0.36"/>
<stop offset="0.794" stop-color="#069C9A" stop-opacity="0.795"/>
<stop offset="1" stop-color="#0996A4"/>
</linearGradient>
<linearGradient id="paint15_linear_59_4159" x1="86.4121" y1="48.9395" x2="97.7734" y2="52.1262" gradientUnits="userSpaceOnUse">
<stop stop-color="#00A887" stop-opacity="0"/>
<stop offset="0.36" stop-color="#01A58C" stop-opacity="0.36"/>
<stop offset="0.794" stop-color="#069C9A" stop-opacity="0.795"/>
<stop offset="1" stop-color="#0996A4"/>
</linearGradient>
<linearGradient id="paint16_linear_59_4159" x1="68.0912" y1="75.2906" x2="59.4084" y2="84.7121" gradientUnits="userSpaceOnUse">
<stop stop-color="#00A887" stop-opacity="0"/>
<stop offset="0.36" stop-color="#01A58C" stop-opacity="0.36"/>
<stop offset="0.794" stop-color="#069C9A" stop-opacity="0.795"/>
<stop offset="1" stop-color="#0996A4"/>
</linearGradient>
<linearGradient id="paint17_linear_59_4159" x1="96.7227" y1="69.5982" x2="58.1409" y2="31.0165" gradientUnits="userSpaceOnUse">
<stop stop-color="#C9F6B0"/>
<stop offset="1" stop-color="#0BB494"/>
</linearGradient>
<linearGradient id="paint18_linear_59_4159" x1="58.3316" y1="33.1797" x2="70.2471" y2="43.2942" gradientUnits="userSpaceOnUse">
<stop stop-color="#00A887" stop-opacity="0"/>
<stop offset="0.36" stop-color="#01A58C" stop-opacity="0.36"/>
<stop offset="0.794" stop-color="#069C9A" stop-opacity="0.795"/>
<stop offset="1" stop-color="#0996A4"/>
</linearGradient>
<clipPath id="clip0_59_4159">
<rect width="136" height="136" fill="white"/>
</clipPath>
</defs>
</svg>
