<svg width="84" height="84" viewBox="0 0 84 84" fill="none" xmlns="http://www.w3.org/2000/svg">
<path fill-rule="evenodd" clip-rule="evenodd" d="M12.2551 56.9512L61.2661 6.81286V0.492188C61.2661 0.361651 61.2143 0.236461 61.122 0.144158C61.0297 0.0518553 60.9045 0 60.7739 0L4.80859 0C4.67806 0 4.55287 0.0518553 4.46056 0.144158C4.36826 0.236461 4.31641 0.361651 4.31641 0.492188V56.459C4.31641 56.5895 4.36826 56.7147 4.46056 56.807C4.55287 56.8993 4.67806 56.9512 4.80859 56.9512H12.2551Z" fill="#FFC243"/>
<path fill-rule="evenodd" clip-rule="evenodd" d="M58.3637 63.769H69.2103V7.30505C69.2103 7.17452 69.1585 7.04933 69.0662 6.95702C68.9739 6.86472 68.8487 6.81287 68.7181 6.81287H12.748C12.6175 6.81287 12.4923 6.86472 12.4 6.95702C12.3077 7.04933 12.2559 7.17452 12.2559 7.30505V63.7688H58.3637V63.769Z" fill="#60B6FF"/>
<path fill-rule="evenodd" clip-rule="evenodd" d="M30.638 59.4809C29.3396 58.2351 27.2557 58.2735 26.0005 59.5671L25.9957 59.5719L25.9909 59.5814L24.6878 60.9422L24.4099 61.2296C22.1054 63.6298 20.6202 62.2022 14.9909 61.3541C14.4375 61.2728 13.8777 61.2439 13.3189 61.2678C11.2396 61.3731 9.18913 62.2404 7.63694 63.8741C4.4223 67.2471 4.53714 72.5699 7.89091 75.7847C11.2447 78.9995 16.5672 78.8845 19.8012 75.5308L26.8342 68.2004L30.7866 64.0802C31.9891 62.7675 31.9267 60.7171 30.638 59.4809ZM11.163 67.252C12.514 65.8386 14.7561 65.7907 16.1695 67.1418C17.5829 68.4928 17.6308 70.735 16.2798 72.1484C14.9287 73.5618 12.6866 73.6098 11.2732 72.2587C9.85982 70.9075 9.80699 68.6654 11.163 67.252Z" fill="#EC5469"/>
<path fill-rule="evenodd" clip-rule="evenodd" d="M25.9912 59.5816L25.996 59.5721C25.996 59.5767 25.9912 59.5767 25.9912 59.5816ZM26.0009 59.5671L29.9438 55.4564L26.4992 43.5602L22.2975 29.1823C22.0293 28.2671 21.9285 28.1091 21.4782 28.8085C17.0802 35.6358 18.4599 39.5358 20.2805 45.7975L24.6882 60.942L25.9914 59.5812L25.9961 59.5717L26.0009 59.5671Z" fill="#F9F7F8"/>
<path fill-rule="evenodd" clip-rule="evenodd" d="M26 59.5671C27.2552 58.2735 29.3393 58.2353 30.6376 59.4808C31.9263 60.7169 31.9886 62.7675 30.786 64.0803L31.9934 62.8203L32.4053 62.3892L41.8338 52.5531C47.4823 46.6554 50.5101 43.8381 49.7676 35.7461C49.691 34.922 49.528 35.0083 48.8669 35.7029L29.9429 55.4564L26 59.5671Z" fill="#F9F7F8"/>
<path fill-rule="evenodd" clip-rule="evenodd" d="M30.7385 64.133L29.6414 65.2733L26.834 68.2006L29.6701 77.9361C30.9685 82.3966 35.6348 84.9598 40.0952 83.6614C44.5555 82.363 47.1187 77.6966 45.83 73.2218C45.0395 70.4717 42.9794 68.4451 40.4736 67.5828C35.0934 65.7335 32.9232 66.0209 31.9937 62.8205L30.7385 64.133ZM35.0407 72.915C36.3918 71.5016 38.6339 71.4489 40.0473 72.8C41.4607 74.1558 41.5086 76.398 40.1575 77.8114C38.8064 79.2248 36.5644 79.2727 35.151 77.9217C33.7376 76.5706 33.6849 74.3284 35.0407 72.915Z" fill="#EC5469"/>
<path fill-rule="evenodd" clip-rule="evenodd" d="M29.924 61.1338L28.7214 62.389L24.7688 66.5093L17.731 73.8445C14.9763 76.7 10.7028 77.2078 7.42578 75.3058C7.57426 75.4687 7.72766 75.6317 7.89057 75.7849C11.2442 78.9997 16.5669 78.8847 19.8009 75.5309L26.8339 68.2006L30.7863 64.0803C31.8452 62.9257 31.9218 61.2009 31.0498 59.9601L30.3407 60.6979L29.924 61.1338Z" fill="#E5374E"/>
<path fill-rule="evenodd" clip-rule="evenodd" d="M31.0506 59.9601C31.9226 61.2009 31.846 62.9257 30.7871 64.0803L31.9944 62.8203L32.4064 62.3892L41.8349 52.5531C47.4834 46.6554 50.5112 43.8381 49.7687 35.7461C49.692 34.922 49.5291 35.0083 48.8679 35.7029L47.8091 36.8097C47.6606 42.8848 44.7285 45.6875 39.7651 50.8618L31.0506 59.9601Z" fill="#E5E1E5"/>
<path fill-rule="evenodd" clip-rule="evenodd" d="M42.1368 71.9711C43.4255 76.4459 40.8623 81.1125 36.4019 82.4107C35.3528 82.7126 34.2987 82.8084 33.2734 82.7126C35.2378 83.9439 37.6954 84.3608 40.0956 83.6612C44.556 82.3628 47.1192 77.6964 45.8305 73.2216C45.04 70.4716 42.9799 68.4449 40.4741 67.5826C39.4345 67.2281 38.5146 66.9501 37.7002 66.7106C39.7844 67.7119 41.4469 69.5661 42.1368 71.9711Z" fill="#E5374E"/>
<path fill-rule="evenodd" clip-rule="evenodd" d="M23.5575 43.1243L26.9974 55.0157L23.9025 58.245L24.6882 60.9423C26.4377 59.1115 28.1896 57.2829 29.9438 55.4566L26.4992 43.5604L22.2975 29.1825C22.0293 28.2673 21.9285 28.1093 21.4782 28.8087C20.9273 29.6663 20.4672 30.4759 20.084 31.2474L23.5575 43.1243Z" fill="#E5E1E5"/>
<path fill-rule="evenodd" clip-rule="evenodd" d="M61.2654 6.81287H49.6091C51.0752 9.34255 52.3304 12.0591 53.3412 14.9241C55.2384 20.2949 56.2828 26.2023 56.2828 32.3971C56.2828 44.5904 52.2202 55.6577 45.623 63.769H58.3622V57.4209C58.3622 56.7884 58.8796 56.271 59.5121 56.271H60.5852L62.492 51.1637C62.8609 50.1767 63.7136 49.621 64.7629 49.621H65.8936L68.3275 34.5819C68.4185 33.9639 68.7683 33.5375 69.209 33.3122V7.30505C69.209 7.17452 69.1571 7.04933 69.0648 6.95702C68.9725 6.86472 68.8473 6.81287 68.7168 6.81287H61.2654Z" fill="#23A6FE"/>
<path fill-rule="evenodd" clip-rule="evenodd" d="M57.4277 75.4783V82.8949C57.4277 83.4986 57.9212 83.992 58.5248 83.992H78.5846C79.1882 83.992 79.6817 83.4985 79.6817 82.8949V75.4783H57.4277ZM57.4277 66.0447H79.6815V56.3141C79.6815 55.7056 79.188 55.2121 78.5844 55.2121H58.525C57.9214 55.2121 57.4279 55.7056 57.4279 56.3141V66.0447H57.4277Z" fill="#FFC243"/>
<path fill-rule="evenodd" clip-rule="evenodd" d="M59.5508 55.2121H77.5598L75.7344 50.3301C75.3799 49.3862 74.5655 48.8545 73.5593 48.8545H63.5513C62.5453 48.8545 61.7307 49.3862 61.3761 50.3301L59.5508 55.2121Z" fill="#EC5469"/>
<path fill-rule="evenodd" clip-rule="evenodd" d="M71.8733 50.33L73.6987 55.212H77.5602L75.7349 50.33C75.3803 49.3861 74.5659 48.8544 73.5597 48.8544H69.7031C70.7092 48.8544 71.5236 49.3861 71.8733 50.33Z" fill="#E5374E"/>
<path fill-rule="evenodd" clip-rule="evenodd" d="M75.8263 56.314V66.0445H79.6829V56.314C79.6829 55.7054 79.1894 55.2119 78.5858 55.2119H74.7387C75.3377 55.2169 75.8263 55.7104 75.8263 56.314ZM79.6831 75.4783H75.8265V82.8949C75.8265 83.4986 75.333 83.992 74.7246 83.992H78.586C79.1896 83.992 79.6831 83.4985 79.6831 82.8949V75.4783Z" fill="#FEA610"/>
<path fill-rule="evenodd" clip-rule="evenodd" d="M66.9617 34.4669L64.6286 48.8544H72.4808L70.1477 34.4669C69.8986 33.1877 68.6673 32.814 67.8049 33.2501C67.3834 33.4655 67.048 33.8776 66.9617 34.4669ZM57.4277 66.0447H79.6815V75.4783H57.4277V66.0447Z" fill="#F9F7F8"/>
<path fill-rule="evenodd" clip-rule="evenodd" d="M75.8257 66.0447H79.6823V75.4783H75.8257V66.0447ZM67.8585 37.4852L69.2095 45.812L69.7028 48.8544H72.4817L70.1486 34.4669C70.0241 33.8297 69.6551 33.4128 69.2095 33.2164C68.7639 33.0151 68.2369 33.0343 67.8058 33.2499C67.531 33.3896 67.3041 33.6081 67.1543 33.8776C67.2549 34.0453 67.3267 34.2416 67.3699 34.4669L67.8585 37.4852Z" fill="#E5E1E5"/>
</svg>
