<svg width="123" height="123" viewBox="0 0 123 123" fill="none" xmlns="http://www.w3.org/2000/svg">
<path d="M-7.92742e-06 1.324C-7.92742e-06 0.529602 0.529594 0 1.324 0H81.5587C81.6911 0 81.9559 3.02843e-06 82.0883 0.132403C82.2207 0.264804 82.3531 0.264805 82.4855 0.397205L122.603 40.5145C122.868 40.7793 123 41.1765 123 41.4413V121.676C123 121.808 123 122.073 122.868 122.206C122.735 122.47 122.47 122.735 122.206 122.868C122.073 123 121.808 123 121.676 123H41.4413C41.0441 123 40.7793 122.868 40.5145 122.603L0.397201 82.6179C0.264801 82.4855 0.132393 82.3531 0.132393 82.2207C-7.92742e-06 82.0883 -7.92742e-06 81.8235 -7.92742e-06 81.6911V1.324ZM2.648 80.2347H80.2347V2.64801H2.648V80.2347ZM59.5802 120.352L22.1109 82.8827H12.9752L50.4446 120.352H59.5802ZM69.6426 120.352L32.1733 82.8827H23.0377L60.507 120.352H69.6426ZM79.7051 120.352L42.2357 82.8827H33.1001L70.5694 120.352H79.7051ZM89.7675 120.352L52.2982 82.8827H43.1625L80.6319 120.352H89.7675ZM99.8299 120.352L62.3606 82.8827H53.225L90.6943 120.352H99.8299ZM109.892 120.352L72.423 82.8827H63.2874L100.757 120.352H109.892ZM118.498 120.352L81.0291 82.8827H73.3498L110.819 120.352H118.498ZM120.352 60.3746L82.8827 22.9053V32.0409L120.352 69.5102V60.3746ZM120.352 70.437L82.8827 32.9677V42.1033L120.352 79.5727V70.437ZM120.352 80.4995L82.8827 43.0301V52.1658L120.352 89.6351V80.4995ZM120.352 90.5619L82.8827 53.0926V62.2282L120.352 99.8299V90.5619ZM120.352 100.757L82.8827 63.2874V72.423L120.352 109.892V100.757ZM82.8827 21.9785L120.352 59.4478V50.3122L82.8827 12.8428V21.9785ZM120.352 110.819L82.8827 73.3498V81.0291L120.352 118.498V110.819ZM82.8827 4.63402V11.916L120.352 49.3854V42.1033L82.8827 4.63402ZM41.9709 120.352H49.5178L12.0484 82.8827H4.50161L41.9709 120.352Z" fill="#2FCD81"/>
</svg>
