<svg width="309" height="305" viewBox="0 0 309 305" fill="none" xmlns="http://www.w3.org/2000/svg">
<g opacity="0.2">
<path d="M270.561 229.818C249.439 266.806 201.515 279.045 163.716 257.103L68.5426 201.857C30.7437 179.916 17.1797 131.985 38.3019 94.9973C59.4241 58.0091 107.348 45.7708 145.146 67.7121L240.32 122.958C278.119 144.9 291.683 192.83 270.561 229.818ZM67.116 111.723C54.874 133.161 62.7366 160.944 84.644 173.661L179.818 228.907C201.725 241.624 229.505 234.53 241.747 213.092C253.989 191.655 246.126 163.871 224.219 151.154L129.045 95.9082C107.138 83.1914 79.358 90.2856 67.116 111.723Z" fill="white"/>
</g>
<g opacity="0.6">
<path d="M270.129 209.567C249.15 246.306 201.535 258.479 163.964 236.67L68.7902 181.423C31.2193 159.614 17.7544 111.986 38.7338 75.248C59.7132 38.5099 107.328 26.3368 144.899 48.1458L240.072 103.392C277.643 125.201 291.108 172.829 270.129 209.567ZM66.6841 91.4725C54.2993 113.16 62.261 141.246 84.3963 154.095L179.57 209.341C201.705 222.19 229.794 215.031 242.179 193.343C254.563 171.655 246.602 143.57 224.466 130.721L129.293 75.4745C107.157 62.6254 79.0689 69.7848 66.6841 91.4725Z" stroke="white"/>
</g>
</svg>
