<svg width="118" height="114" viewBox="0 0 118 114" fill="none" xmlns="http://www.w3.org/2000/svg">
<path d="M75.2663 113.058C70.9601 112.987 66.8526 111.354 63.636 107.999C57.2027 101.287 57.38 90.8606 64.0378 84.3652C72.9732 75.6477 73.2214 61.0505 64.5873 52.0429C55.9532 43.0353 41.4842 42.7965 32.5487 51.514C25.8909 58.0094 15.5559 57.8388 9.12268 51.1272C2.68943 44.4157 2.86669 33.9892 9.52448 27.4938C31.6003 5.95636 66.9116 6.53932 88.4152 28.7962C109.747 51.0503 109.141 86.6743 87.0621 108.385C83.7332 111.633 79.5726 113.129 75.2663 113.058Z" fill="#FF3276" fill-opacity="0.1"/>
<path d="M85.1033 103.018C80.797 102.947 76.6896 101.315 73.473 97.9591C67.0397 91.2475 67.217 80.821 73.8748 74.3256C82.8102 65.608 83.0584 51.0109 74.4243 42.0033C65.7902 32.9957 51.3211 32.7568 42.3857 41.4743C35.7279 47.9698 25.3928 47.7991 18.9596 41.0876C12.5263 34.3761 12.7036 23.9495 19.3614 17.4541C41.4372 -4.08333 76.7485 -3.50036 98.2521 18.7565C119.583 41.0106 118.978 76.6346 96.899 98.3458C93.5701 101.594 89.4095 103.089 85.1033 103.018Z" stroke="#FF3276" stroke-width="2.5624" stroke-miterlimit="10"/>
</svg>
