<svg width="500" height="500" viewBox="0 0 500 500" fill="none" xmlns="http://www.w3.org/2000/svg">
<mask id="mask0_29_5616" style="mask-type:alpha" maskUnits="userSpaceOnUse" x="0" y="0" width="500" height="500">
<rect width="500" height="500" rx="60" fill="#6CC3A4"/>
</mask>
<g mask="url(#mask0_29_5616)">
<g opacity="0.2">
<path d="M595.561 239.893C574.439 276.881 526.515 289.12 488.716 267.179L393.543 211.932C355.744 189.991 342.18 142.061 363.302 105.072C384.424 68.0843 432.348 55.846 470.146 77.7873L565.32 133.033C603.119 154.975 616.683 202.905 595.561 239.893ZM392.116 121.798C379.874 143.236 387.737 171.02 409.644 183.736L504.818 238.982C526.725 251.699 554.505 244.605 566.747 223.167C578.989 201.73 571.126 173.946 549.219 161.23L454.045 105.983C432.138 93.2666 404.358 100.361 392.116 121.798Z" fill="white"/>
</g>
<g opacity="0.6">
<path d="M595.129 219.643C574.15 256.381 526.535 268.554 488.964 246.745L393.79 191.499C356.219 169.69 342.754 122.061 363.734 85.3232C384.713 48.5851 432.328 36.412 469.899 58.221L565.072 113.467C602.643 135.276 616.108 182.905 595.129 219.643ZM391.684 101.548C379.299 123.235 387.261 151.321 409.396 164.17L504.57 219.416C526.705 232.265 554.794 225.106 567.179 203.418C579.563 181.73 571.602 153.645 549.466 140.796L454.293 85.5497C432.157 72.7006 404.069 79.86 391.684 101.548Z" stroke="white"/>
</g>
</g>
</svg>
