<svg width="84" height="84" viewBox="0 0 84 84" fill="none" xmlns="http://www.w3.org/2000/svg">
<path d="M50.761 51.0214C47.8999 49.46 46.67 45.8556 46.2185 44.0506C46.1435 43.7515 46.1839 43.4351 46.3316 43.1644C46.4793 42.8937 46.7235 42.6886 47.0156 42.5898C48.778 41.9929 52.4748 41.0769 55.3359 42.6383C58.197 44.1997 59.427 47.8042 59.8785 49.6092C59.9534 49.9083 59.913 50.2247 59.7653 50.4953C59.6176 50.766 59.3734 50.9712 59.0813 51.07C57.3188 51.6667 53.6221 52.5826 50.761 51.0214Z" fill="#09A76D"/>
<path d="M21.004 14.7388C23.3249 16.939 26.9899 16.8414 29.1901 14.5206C31.3903 12.1998 31.2927 8.53477 28.9719 6.33453C26.6511 4.13428 21.877 3.18059 19.6768 5.50142C17.4765 7.82225 18.6832 12.5384 21.004 14.7388Z" fill="#FE7AB6"/>
<path d="M30.3828 6.29701C28.1825 8.61784 28.2802 12.2828 30.601 14.4831C32.9218 16.6833 36.5868 16.5857 38.787 14.2649C40.9873 11.944 41.941 7.16999 39.6202 4.96974C37.2995 2.7695 32.583 3.97618 30.3828 6.29701ZM29.4468 24.1168C31.647 21.796 31.5494 18.131 29.2286 15.9308C26.9078 13.7305 23.2428 13.8281 21.0425 16.149C18.8423 18.4698 17.8886 23.2438 20.2094 25.4441C22.5303 27.6443 27.2466 26.4376 29.4468 24.1168Z" fill="#FEC0DD"/>
<path d="M30.493 20.4054C33.0612 20.4054 35.1431 18.3234 35.1431 15.7552C35.1431 13.1869 33.0612 11.105 30.493 11.105C27.9247 11.105 25.8428 13.1869 25.8428 15.7552C25.8428 18.3234 27.9247 20.4054 30.493 20.4054Z" fill="#FFD15B"/>
<path d="M13.9585 28.671C17.0859 29.5893 19.0532 32.8504 19.8777 34.5184C20.0145 34.7948 20.0423 35.1125 19.9554 35.4084C19.8685 35.7043 19.6735 35.9566 19.409 36.1152C17.8137 37.0727 14.3956 38.7528 11.2682 37.8346C8.14087 36.9163 6.1736 33.6553 5.34902 31.9872C5.21223 31.7109 5.18451 31.3931 5.27136 31.0972C5.35822 30.8013 5.55328 30.549 5.81775 30.3904C7.41326 29.4329 10.8312 27.7528 13.9585 28.671Z" fill="#09A76D"/>
<path d="M68.0402 14.762L80.824 11.2032V2.09675C80.824 0.900897 79.8245 -0.0534546 78.6301 0.00232669C38.5464 1.87149 6.22706 33.4448 3.18878 73.2123C3.00733 75.5876 4.90258 77.6091 7.28477 77.6091H14.2494L37.2844 33.9521L68.0402 14.762Z" fill="#FFE177"/>
<path d="M14.249 77.6091H24.9498C27.0406 77.6091 36.2185 52.9485 37.045 51.0278C41.7195 40.1661 80.8236 21.435 80.8236 21.435V11.2031C44.4803 12.0239 15.1589 41.2878 14.249 77.6091Z" fill="#FE7AB6"/>
<path d="M16.5605 72.7345H3.22816C3.21503 72.8938 3.20109 73.0528 3.18878 73.2123C3.00733 75.5876 4.90258 77.6091 7.28477 77.6091H14.2494L16.5605 72.7345ZM80.824 11.2032V2.09675C80.824 0.900897 79.8245 -0.0534546 78.6301 0.00232669C77.789 0.0415376 76.9516 0.095022 76.1175 0.160155V12.6396L80.824 11.2032Z" fill="#FFD15B"/>
<path d="M80.8236 21.4352V11.2031C79.2407 11.2389 77.6715 11.3298 76.117 11.4717V22.9864L80.8236 21.4352ZM25.4581 72.7344H14.545C14.3887 74.3553 14.29 75.9812 14.249 77.6091H25.4581V72.7344Z" fill="#FE5CA7"/>
<path d="M76.1178 21.7539C47.0787 24.2864 25.3552 48.1233 24.4854 77.6091L35.1432 61.1049C41.8647 45.3904 59.6136 30.6605 77.2946 28.8014L76.1178 21.7539Z" fill="#62DBFB"/>
<path d="M76.1179 21.754C76.0998 23.4276 76.5653 26.2437 74.1626 26.404C52.1848 27.9923 34.2954 44.3162 30.3184 65.5446H34.0071C35.7047 63.3937 37.3967 61.7962 37.3967 61.7962C37.499 61.5574 38.2688 59.9336 38.3727 59.6956C39.4957 57.1887 40.8297 54.7817 42.3604 52.5008C48.3259 43.5924 57.3273 36.7644 67.5402 33.4854C70.1563 32.6389 72.8404 32.0191 75.5629 31.6329C77.4292 31.1932 80.7115 31.9214 80.8243 29.1891V21.4351C79.2519 21.478 77.6818 21.5844 76.1179 21.754Z" fill="#01C0FA"/>
<path d="M33.2119 62.7022C30.9895 65.1752 31.1927 68.9816 33.6658 71.204C36.1389 73.4264 39.9453 73.2232 42.1677 70.7501C44.3901 68.277 45.2488 63.2888 42.7757 61.0666C40.3025 58.8441 35.4342 60.2291 33.2119 62.7022ZM32.7336 81.2483C34.956 78.7752 34.7527 74.9688 32.2796 72.7464C29.8066 70.524 26.0002 70.7273 23.7778 73.2003C21.5554 75.6734 20.6967 80.6616 23.1697 82.8838C25.643 85.1064 30.5112 83.7213 32.7336 81.2483Z" fill="#FE7AB6"/>
<path d="M42.2458 72.2143C39.7728 69.9919 35.9663 70.1952 33.744 72.6683C31.5216 75.1413 31.7248 78.9477 34.1979 81.1701C36.671 83.3925 41.6591 84.2512 43.8814 81.7782C46.1039 79.3049 44.7189 74.4367 42.2458 72.2143ZM23.6997 71.7361C26.1728 73.9584 29.9792 73.7552 32.2016 71.2821C34.424 68.809 34.2207 65.0026 31.7476 62.7802C29.2746 60.5578 24.2864 59.6991 22.0642 62.1722C19.8416 64.6454 21.2266 69.5137 23.6997 71.7361Z" fill="#FEC0DD"/>
<path d="M32.9727 75.9816C35.1851 75.9816 36.9786 74.188 36.9786 71.9756C36.9786 69.7632 35.1851 67.9697 32.9727 67.9697C30.7603 67.9697 28.9668 69.7632 28.9668 71.9756C28.9668 74.188 30.7603 75.9816 32.9727 75.9816Z" fill="#FFE177"/>
</svg>
