<svg width="84" height="84" viewBox="0 0 84 84" fill="none" xmlns="http://www.w3.org/2000/svg">
<g clip-path="url(#clip0_59_4762)">
<path d="M83.3168 49.4826L74.3312 41.5564L82.999 33.2878C83.1553 33.139 83.2694 32.9515 83.3299 32.7444C83.3904 32.5373 83.395 32.3178 83.3434 32.1083C83.2912 31.8986 83.1847 31.7063 83.0346 31.5508C82.8845 31.3952 82.6962 31.2819 82.4884 31.2222L70.9522 27.8931L75.2159 16.7276C75.2928 16.5261 75.315 16.3078 75.2803 16.0949C75.2456 15.882 75.1552 15.6821 75.0183 15.5154C74.8808 15.3481 74.7018 15.2199 74.4992 15.1434C74.2966 15.0669 74.0774 15.0449 73.8637 15.0795L62.0062 16.9911L61.0418 5.08659C61.0242 4.87131 60.95 4.6645 60.8269 4.48703C60.7037 4.30956 60.536 4.16772 60.3405 4.07581C60.1445 3.98341 59.9278 3.9439 59.7118 3.9612C59.4958 3.97849 59.2881 4.052 59.1094 4.17441L49.222 10.9571L43.2158 0.613923C43.1068 0.426917 42.9507 0.271792 42.763 0.164057C42.5753 0.0563212 42.3625 -0.000249297 42.1461 8.54829e-07C41.9297 -0.00025363 41.717 0.0563166 41.5293 0.164054C41.3416 0.271791 41.1855 0.426919 41.0766 0.613923L34.1822 12.4868L22.2565 5.60388C22.0688 5.49564 21.856 5.43842 21.6394 5.4379C21.4227 5.43738 21.2096 5.49359 21.0214 5.60093C20.8337 5.7077 20.6775 5.86212 20.5687 6.04859C20.4598 6.23506 20.402 6.44697 20.4013 6.66291L20.3724 18.6058L8.40158 17.6192C8.18587 17.6013 7.96926 17.6403 7.77331 17.7323C7.57737 17.8242 7.40894 17.9659 7.2848 18.1432C7.16124 18.32 7.08671 18.5263 7.06879 18.7413C7.05086 18.9562 7.09018 19.1721 7.18275 19.3669L12.3084 30.168L1.06798 34.3813C0.865545 34.4569 0.686591 34.5844 0.549125 34.7512C0.411659 34.9179 0.320531 35.1179 0.28491 35.331C0.249738 35.5439 0.271522 35.7624 0.348052 35.9642C0.424583 36.166 0.553134 36.3439 0.72066 36.48L10.0097 44.0518L1.67321 52.6503C1.52288 52.805 1.41614 52.9968 1.36382 53.2061C1.31149 53.4153 1.31544 53.6348 1.37527 53.842C1.43566 54.0496 1.54961 54.2376 1.70566 54.3872C1.86172 54.5368 2.05439 54.6426 2.26432 54.6942L13.9218 57.5736L10.0999 68.8958C10.031 69.1002 10.0174 69.3192 10.0604 69.5305C10.1035 69.7419 10.2017 69.9381 10.3451 70.0993C10.4891 70.2611 10.673 70.3823 10.8784 70.4509C11.0838 70.5194 11.3037 70.533 11.516 70.4901L23.2891 68.1206L24.7199 79.9787C24.746 80.1931 24.8282 80.3969 24.9582 80.5694C25.0882 80.7419 25.2614 80.8772 25.4603 80.9614C25.6597 81.0462 25.8778 81.0773 26.093 81.0517C26.3081 81.026 26.5128 80.9445 26.6867 80.8152L36.3001 73.6544L42.7075 83.4269C42.8237 83.6096 42.9858 83.7585 43.1776 83.8589C43.3694 83.9593 43.5842 84.0075 43.8005 83.9989C44.0168 83.9907 44.2271 83.9259 44.4104 83.811C44.5938 83.696 44.7437 83.535 44.8453 83.3439L50.4409 73.1056L60.5864 79.4998C60.7698 79.6152 60.9802 79.6807 61.1967 79.6896C61.4132 79.6985 61.6282 79.6506 61.8205 79.5506C62.0122 79.4512 62.1743 79.3029 62.2904 79.1208C62.4064 78.9387 62.4724 78.7292 62.4817 78.5134L62.9789 66.5805L74.902 68.0308C75.1169 68.057 75.3349 68.0264 75.5343 67.9422C75.7337 67.8579 75.9076 67.7229 76.0386 67.5506C76.169 67.3787 76.2515 67.1754 76.2778 66.9613C76.3042 66.7472 76.2734 66.53 76.1886 66.3316L71.4905 55.3399L82.8871 51.566C83.0924 51.4983 83.2762 51.3778 83.4201 51.2166C83.564 51.0553 83.663 50.859 83.7069 50.6474C83.7503 50.4361 83.7371 50.2171 83.6686 50.0125C83.6001 49.8079 83.4787 49.6251 83.3168 49.4826Z" fill="#FFA600"/>
<path d="M41.7291 67.2064C55.7798 67.2064 67.1701 55.8249 67.1701 41.7851C67.1701 27.7453 55.7798 16.3638 41.7291 16.3638C27.6784 16.3638 16.2881 27.7453 16.2881 41.7851C16.2881 55.8249 27.6784 67.2064 41.7291 67.2064Z" fill="#FFDB2D"/>
<path d="M41.7307 16.3643C41.0935 16.3643 40.4622 16.3884 39.8369 16.4345C53.0029 17.4026 63.384 28.3823 63.384 41.7856C63.384 55.1887 53.0029 66.1684 39.8369 67.1367C40.4622 67.1826 41.0936 67.2069 41.7307 67.2069C55.7812 67.2069 67.1715 55.8254 67.1715 41.7857C67.1715 27.7458 55.7812 16.3643 41.7307 16.3643Z" fill="#FFCA00"/>
</g>
<defs>
<clipPath id="clip0_59_4762">
<rect width="84" height="84" fill="white"/>
</clipPath>
</defs>
</svg>
