<svg width="84" height="84" viewBox="0 0 84 84" fill="none" xmlns="http://www.w3.org/2000/svg">
<path d="M74.9669 15.5228C74.82 15.5254 74.674 15.499 74.5374 15.4451C74.4007 15.3912 74.276 15.311 74.1703 15.2089C74.0646 15.1068 73.9801 14.9849 73.9216 14.8502C73.863 14.7154 73.8316 14.5705 73.8291 14.4236C73.829 14.2398 73.761 14.0625 73.6381 13.9258C73.5152 13.7891 73.3461 13.7026 73.1633 13.683C73.0626 13.6749 72.9612 13.6879 72.8658 13.7212C72.7703 13.7546 72.683 13.8076 72.6092 13.8767C72.5355 13.9459 72.4771 14.0298 72.4377 14.1229C72.3983 14.216 72.3789 14.3163 72.3806 14.4174L72.3811 14.4485C72.3862 14.7452 72.2732 15.0317 72.0671 15.2451C71.8609 15.4584 71.5785 15.5812 71.2819 15.5863C71.0981 15.5864 70.9208 15.6545 70.7842 15.7773C70.6475 15.9002 70.5611 16.0692 70.5414 16.2519C70.5333 16.3527 70.5462 16.454 70.5796 16.5495C70.6129 16.6449 70.6659 16.7323 70.735 16.806C70.8042 16.8797 70.888 16.9382 70.9811 16.9776C71.0742 17.0169 71.1746 17.0364 71.2756 17.0347L71.3068 17.0342C71.6034 17.0291 71.8899 17.142 72.1033 17.3482C72.3167 17.5543 72.4394 17.8368 72.4446 18.1334C72.4447 18.3172 72.5127 18.4944 72.6356 18.6311C72.7585 18.7678 72.9276 18.8542 73.1103 18.8738C73.2111 18.8819 73.3124 18.8689 73.4078 18.8356C73.5032 18.8022 73.5906 18.7492 73.6643 18.6801C73.738 18.6109 73.7964 18.5271 73.8358 18.434C73.8751 18.341 73.8946 18.2407 73.8929 18.1396L73.8924 18.1085C73.8899 17.9616 73.9163 17.8156 73.9702 17.6789C74.024 17.5423 74.1043 17.4175 74.2064 17.3119C74.3084 17.2062 74.4303 17.1217 74.5651 17.0632C74.6998 17.0046 74.8448 16.9732 74.9916 16.9707L75.0228 16.9702C75.1239 16.9685 75.2235 16.9456 75.3152 16.903C75.4069 16.8605 75.4887 16.7992 75.5553 16.7231C75.6219 16.6471 75.6718 16.5579 75.7018 16.4614C75.7319 16.3648 75.7414 16.2631 75.7298 16.1627C75.7039 15.9807 75.6117 15.8147 75.4709 15.6966C75.33 15.5785 75.1505 15.5166 74.9669 15.5228Z" fill="#F9D129"/>
<path d="M51.5913 5.68057C51.6649 4.6354 52.1305 3.65659 52.895 2.94015C53.6595 2.2237 54.6665 1.8225 55.7142 1.81689C56.6501 1.81694 57.5579 2.13707 58.2867 2.72416C58.5128 2.90826 58.7948 3.01001 59.0864 3.01269C59.378 3.01538 59.6618 2.91884 59.8912 2.73893C60.6305 2.16428 61.544 1.85977 62.4802 1.87596C63.4895 1.893 64.4575 2.27936 65.2012 2.96195C65.9449 3.64455 66.4126 4.57603 66.5158 5.58018C66.6191 6.58433 66.3508 7.5915 65.7616 8.41117C65.1724 9.23083 64.3032 9.80612 63.3185 10.0282C63.0462 10.0944 62.8041 10.2503 62.6312 10.4709C62.4583 10.6914 62.3646 10.9637 62.3653 11.2439L62.2784 21.0286C61.9949 20.9593 61.704 20.9246 61.4121 20.9253H56.5395C56.2144 20.9248 55.8906 20.9667 55.5764 21.0499L55.6634 11.1849C55.669 10.9047 55.5801 10.6307 55.4111 10.4072C55.242 10.1837 55.0026 10.0236 54.7315 9.95275C53.7898 9.72267 52.9591 9.16851 52.3849 8.3874C51.8108 7.60628 51.5298 6.64803 51.5913 5.68057Z" fill="#B44031"/>
<path d="M59.1685 82.0901C70.545 82.0323 80.0048 72.4283 79.9069 61.052C79.8766 56.9214 78.6139 52.8938 76.2804 49.4853C74.521 46.8765 73.6283 43.7798 73.7289 40.6348C73.7299 40.5949 73.7302 40.5552 73.7306 40.5153C73.7868 34.1305 71.3331 29.8565 67.549 27.5158C66.931 27.1283 66.3966 26.6211 65.9774 26.0242C65.5582 25.4272 65.2625 24.7524 65.1078 24.0395C65.0975 23.9932 65.0873 23.9466 65.0772 23.8997C64.8992 23.0592 64.438 22.3052 63.7707 21.7638C63.1035 21.2224 62.2707 20.9264 61.4114 20.9253H56.5393C55.6531 20.9249 54.7956 21.2387 54.119 21.8109C53.4425 22.3832 52.9907 23.1768 52.8441 24.0507L52.83 24.134C52.7023 24.8809 52.4262 25.5946 52.018 26.2329C51.6098 26.8713 51.0778 27.4213 50.4534 27.8505C47.03 30.2163 44.8009 34.2988 44.7483 40.2601C44.7483 40.2929 44.7478 40.3257 44.7478 40.3583C44.7676 43.5454 43.7995 46.6604 41.9766 49.2748C39.7826 52.4074 38.4924 56.0831 38.2471 59.8997C38.0017 63.7163 38.8107 67.5269 40.5856 70.9146C42.3604 74.3024 45.0327 77.1368 48.3102 79.1078C51.5877 81.0788 55.3441 82.1105 59.1685 82.0901Z" fill="#F9BF29"/>
<path d="M51.9685 53.1765C67.2058 47.3216 69.0261 44.3549 73.441 36.7407C73.6495 37.9874 73.7461 39.2503 73.7298 40.5142C73.7298 40.5552 73.7298 40.5946 73.7281 40.6339C73.6282 43.7792 74.5214 46.8761 76.2809 49.4851C78.6133 52.894 79.8757 56.9212 79.9067 61.0515C80.0052 72.4276 70.5453 82.0318 59.1676 82.0892C56.1976 82.1084 53.258 81.4913 50.5464 80.2796C47.8348 79.0678 45.4141 77.2894 43.4471 75.0641C42.9434 67.929 43.3607 56.484 51.9685 53.1765Z" fill="#F9A213"/>
<path d="M62.2597 64.496C58.8784 70.3531 60.2939 77.5679 65.3511 81.0893C73.7746 78.3445 79.9868 70.2815 79.9069 61.0517C79.9022 60.6519 79.8861 60.2524 79.8587 59.8536C79.5863 59.6604 79.3053 59.4795 79.0167 59.3115C73.3157 56.0199 65.8135 58.3411 62.2599 64.496H62.2597Z" fill="#FF9200"/>
<path d="M57.3673 61.8072C58.0465 61.8072 58.597 61.0028 58.597 60.0105C58.597 59.0183 58.0465 58.2139 57.3673 58.2139C56.6882 58.2139 56.1377 59.0183 56.1377 60.0105C56.1377 61.0028 56.6882 61.8072 57.3673 61.8072Z" fill="#F05D00"/>
<path d="M65.1808 69.0879C65.8599 69.0879 66.4105 68.2835 66.4105 67.2913C66.4105 66.299 65.8599 65.4946 65.1808 65.4946C64.5017 65.4946 63.9512 66.299 63.9512 67.2913C63.9512 68.2835 64.5017 69.0879 65.1808 69.0879Z" fill="#FF9200"/>
<path d="M68.8527 56.3345C69.5318 56.3345 70.0823 55.5301 70.0823 54.5379C70.0823 53.5456 69.5318 52.7412 68.8527 52.7412C68.1736 52.7412 67.623 53.5456 67.623 54.5379C67.623 55.5301 68.1736 56.3345 68.8527 56.3345Z" fill="#F05D00"/>
<path d="M54.0431 45.9248C54.7222 45.9248 55.2728 45.1205 55.2728 44.1282C55.2728 43.1359 54.7222 42.3315 54.0431 42.3315C53.364 42.3315 52.8135 43.1359 52.8135 44.1282C52.8135 45.1205 53.364 45.9248 54.0431 45.9248Z" fill="#FF9200"/>
<path d="M63.9513 42.7373C64.6304 42.7373 65.181 41.933 65.181 40.9407C65.181 39.9484 64.6304 39.144 63.9513 39.144C63.2722 39.144 62.7217 39.9484 62.7217 40.9407C62.7217 41.933 63.2722 42.7373 63.9513 42.7373Z" fill="#F05D00"/>
<path d="M45.5763 63.2622C46.2554 63.2622 46.806 62.4579 46.806 61.4656C46.806 60.4733 46.2554 59.6689 45.5763 59.6689C44.8972 59.6689 44.3467 60.4733 44.3467 61.4656C44.3467 62.4579 44.8972 63.2622 45.5763 63.2622Z" fill="#F05D00"/>
<path d="M54.7948 6.87678C55.5364 6.87678 56.1375 6.27564 56.1375 5.53409C56.1375 4.79255 55.5364 4.19141 54.7948 4.19141C54.0533 4.19141 53.4521 4.79255 53.4521 5.53409C53.4521 6.27564 54.0533 6.87678 54.7948 6.87678Z" fill="white"/>
<path d="M62.2781 21.0286L62.3287 15.3459L62.225 14.6821C61.2455 16.2282 59.9006 17.5094 58.3088 18.4126C56.8362 19.269 56.0221 20.0496 55.5793 20.6908L55.5762 21.0499C55.8904 20.9667 56.2142 20.9248 56.5392 20.9252H61.4119C61.7037 20.9245 61.9946 20.9592 62.2781 21.0286Z" fill="#97260D"/>
<path d="M52.3511 34.3732C52.9946 32.8861 52.693 31.3242 51.6773 30.8847C50.6616 30.4452 49.3165 31.2944 48.673 32.7815C48.0295 34.2686 48.3312 35.8304 49.3469 36.2699C50.3625 36.7095 51.7076 35.8602 52.3511 34.3732Z" fill="#F9EA76"/>
<path d="M37.9785 15.2827C37.862 14.9626 37.6656 14.6777 37.4079 14.4551C37.1502 14.2324 36.8398 14.0794 36.5062 14.0107C34.9415 13.7017 33.5382 12.8452 32.5479 11.5949C31.5577 10.3447 31.0453 8.78253 31.1028 7.18867C31.1301 6.4121 31.2944 5.64646 31.5881 4.92706C31.6507 4.76644 31.6807 4.59499 31.6766 4.42265C31.6724 4.25032 31.6341 4.08052 31.5638 3.92311C31.4935 3.76569 31.3927 3.6238 31.2672 3.50564C31.1417 3.38748 30.9939 3.2954 30.8326 3.23476C28.4305 2.29944 25.8756 1.81866 23.2978 1.81693C11.9342 1.7956 2.57067 11.0138 2.41268 22.3763C2.34712 26.5814 3.56075 30.7071 5.89277 34.207C7.69765 36.8876 8.63855 40.0566 8.58898 43.2878C8.58832 43.3224 8.58799 43.3572 8.58766 43.392C8.53139 49.7768 10.9853 54.0508 14.7692 56.3915C15.3872 56.779 15.9216 57.2862 16.3408 57.8832C16.76 58.4802 17.0557 59.1549 17.2105 59.8678C17.2214 59.9175 17.2322 59.9674 17.2429 60.0175C17.422 60.8564 17.8835 61.6084 18.5503 62.148C19.2172 62.6876 20.049 62.982 20.9068 62.9821H25.779C26.6651 62.9825 27.5227 62.6687 28.1993 62.0965C28.8759 61.5242 29.3277 60.7306 29.4743 59.8567L29.4882 59.7733C29.6159 59.0265 29.892 58.3128 30.3002 57.6744C30.7084 57.0361 31.2404 56.486 31.8648 56.0568C35.2882 53.691 37.5175 49.6085 37.57 43.6473C37.5701 43.6133 37.5706 43.5795 37.5705 43.5456C37.5647 40.3316 38.55 37.194 40.3922 34.5604C42.7859 31.1227 44.0832 27.0412 44.1134 22.8524C44.1187 22.2558 44.0991 21.6653 44.0547 21.0808C44.0247 20.6951 43.8731 20.3288 43.6218 20.0346C43.3704 19.7405 43.0322 19.5336 42.6559 19.4438C41.597 19.182 40.6178 18.6664 39.8029 17.9414C38.9879 17.2164 38.3618 16.3039 37.9785 15.2827Z" fill="#FF9200"/>
<path d="M30.7264 78.2268C30.6529 79.272 30.1873 80.2508 29.4227 80.9672C28.6582 81.6837 27.6513 82.0849 26.6035 82.0905C25.6676 82.0904 24.7599 81.7703 24.031 81.1832C23.8049 80.9991 23.5229 80.8974 23.2314 80.8947C22.9398 80.892 22.656 80.9885 22.4265 81.1684C21.6873 81.7431 20.7738 82.0476 19.8376 82.0314C18.8283 82.0144 17.8603 81.628 17.1166 80.9454C16.3729 80.2628 15.9052 79.3313 15.8019 78.3272C15.6987 77.323 15.967 76.3159 16.5562 75.4962C17.1454 74.6765 18.0145 74.1012 18.9993 73.8791C19.2716 73.8129 19.5137 73.657 19.6866 73.4365C19.8595 73.216 19.9531 72.9437 19.9525 72.6634L20.0394 62.8788C20.3229 62.9481 20.6138 62.9828 20.9057 62.9821H25.7783C26.1034 62.9825 26.4271 62.9406 26.7414 62.8574L26.6544 72.7225C26.6488 73.0027 26.7376 73.2766 26.9067 73.5001C27.0757 73.7237 27.3151 73.8838 27.5863 73.9546C28.528 74.1847 29.3587 74.7388 29.9328 75.52C30.507 76.3011 30.7879 77.2593 30.7264 78.2268Z" fill="#B44031"/>
<path d="M26.6859 69.2252L26.742 62.8574C26.4278 62.9406 26.104 62.9825 25.779 62.9821H20.9063C20.6144 62.9828 20.3236 62.9481 20.0401 62.8788L20.0371 63.2121C20.4791 63.8541 21.2938 64.6362 22.7697 65.4947C24.3615 66.3979 25.7065 67.6791 26.6859 69.2252Z" fill="#97260D"/>
<path d="M8.58766 43.392C8.57113 44.6551 8.66871 45.917 8.8792 47.1625C13.2925 39.5511 15.1147 36.5846 30.3496 30.7305C36.1265 28.5107 38.2142 22.6258 38.8103 16.8383L38.8109 16.8355C38.4662 16.3569 38.1862 15.8348 37.9785 15.2827C37.862 14.9626 37.6656 14.6777 37.4079 14.4551C37.1502 14.2324 36.8398 14.0794 36.5062 14.0107C34.9415 13.7017 33.5382 12.8452 32.5479 11.5949C31.5577 10.3447 31.0453 8.78253 31.1028 7.18867C31.1301 6.4121 31.2944 5.64647 31.5881 4.92706C31.6507 4.76644 31.6807 4.59499 31.6766 4.42265C31.6724 4.25032 31.6341 4.08052 31.5638 3.92311C31.4935 3.76569 31.3927 3.6238 31.2672 3.50564C31.1417 3.38748 30.9939 3.2954 30.8326 3.23476C28.4305 2.29944 25.8756 1.81866 23.2978 1.81693C11.9342 1.7956 2.57067 11.0138 2.41268 22.3763C2.3471 26.5814 3.56073 30.7071 5.89277 34.207C7.69769 36.8876 8.63864 40.0566 8.58914 43.2878C8.58832 43.3226 8.58816 43.3574 8.58766 43.392Z" fill="#F9A213"/>
<path d="M12.4169 66.1345C12.1203 66.1395 11.8338 66.0266 11.6205 65.8204C11.4071 65.6143 11.2844 65.3319 11.2793 65.0353C11.2791 64.8515 11.2111 64.6742 11.0882 64.5375C10.9653 64.4009 10.7963 64.3144 10.6135 64.2948C10.5128 64.2867 10.4114 64.2997 10.316 64.333C10.2206 64.3664 10.1332 64.4194 10.0595 64.4885C9.98574 64.5577 9.92731 64.6415 9.88792 64.7346C9.84853 64.8277 9.82906 64.928 9.83077 65.029L9.83126 65.0602C9.83635 65.3568 9.7234 65.6433 9.51727 65.8567C9.31113 66.0701 9.02868 66.1928 8.73204 66.198C8.54825 66.1981 8.37098 66.2661 8.23431 66.389C8.09764 66.5119 8.01121 66.681 7.99163 66.8637C7.98346 66.9645 7.99647 67.0658 8.02983 67.1612C8.06318 67.2566 8.11614 67.344 8.18529 67.4177C8.25445 67.4914 8.33826 67.5499 8.43136 67.5892C8.52445 67.6286 8.62475 67.648 8.7258 67.6463L8.75698 67.6458C8.90386 67.6433 9.04981 67.6697 9.18649 67.7236C9.32316 67.7774 9.44789 67.8577 9.55354 67.9598C9.6592 68.0618 9.74371 68.1837 9.80226 68.3185C9.8608 68.4532 9.89223 68.5982 9.89475 68.745C9.89484 68.9289 9.96287 69.1062 10.0858 69.2429C10.2087 69.3796 10.3777 69.466 10.5605 69.4856C10.6613 69.4938 10.7626 69.4808 10.858 69.4474C10.9535 69.414 11.0409 69.3611 11.1146 69.2919C11.1883 69.2227 11.2467 69.1389 11.2861 69.0458C11.3254 68.9527 11.3448 68.8523 11.3431 68.7513L11.3426 68.7201C11.3401 68.5732 11.3665 68.4273 11.4203 68.2906C11.4742 68.1539 11.5545 68.0292 11.6565 67.9235C11.7586 67.8179 11.8805 67.7334 12.0152 67.6748C12.15 67.6163 12.2949 67.5849 12.4418 67.5823L12.473 67.5818C12.5741 67.5801 12.6737 67.5572 12.7653 67.5146C12.857 67.4721 12.9388 67.4108 13.0054 67.3347C13.072 67.2587 13.1219 67.1695 13.152 67.073C13.182 66.9765 13.1916 66.8747 13.1799 66.7743C13.1541 66.5924 13.0619 66.4264 12.921 66.3083C12.7802 66.1902 12.6006 66.1283 12.4169 66.1345Z" fill="#F9D129"/>
<path d="M20.058 19.4112C23.4395 13.5541 22.0239 6.33931 16.9667 2.81787C8.54325 5.5628 2.33102 13.626 2.41092 22.8556C2.41453 23.2581 2.43307 23.6569 2.45915 24.0538C2.73157 24.247 3.0125 24.4278 3.30112 24.5959C9.00229 27.8873 16.5045 25.5661 20.058 19.4112Z" fill="#F9BF29"/>
<path d="M12.0588 14.3561C13.3618 12.8541 13.5863 10.915 12.5604 10.025C11.5345 9.13509 9.64652 9.63129 8.34357 11.1333C7.04062 12.6354 6.81606 14.5745 7.84199 15.4644C8.86793 16.3544 10.7559 15.8582 12.0588 14.3561Z" fill="#F9EA76"/>
<path d="M25.5832 27.8882C26.2623 27.8882 26.8128 27.0838 26.8128 26.0916C26.8128 25.0993 26.2623 24.2949 25.5832 24.2949C24.904 24.2949 24.3535 25.0993 24.3535 26.0916C24.3535 27.0838 24.904 27.8882 25.5832 27.8882Z" fill="#F05D00"/>
<path d="M17.1379 18.4126C17.817 18.4126 18.3675 17.6082 18.3675 16.616C18.3675 15.6237 17.817 14.8193 17.1379 14.8193C16.4587 14.8193 15.9082 15.6237 15.9082 16.616C15.9082 17.6082 16.4587 18.4126 17.1379 18.4126Z" fill="#FF9200"/>
<path d="M13.466 31.1661C14.1451 31.1661 14.6956 30.3617 14.6956 29.3694C14.6956 28.3771 14.1451 27.5728 13.466 27.5728C12.7869 27.5728 12.2363 28.3771 12.2363 29.3694C12.2363 30.3617 12.7869 31.1661 13.466 31.1661Z" fill="#F05D00"/>
<path d="M30.7345 38.3824C31.4136 38.3824 31.9642 37.578 31.9642 36.5857C31.9642 35.5934 31.4136 34.7891 30.7345 34.7891C30.0554 34.7891 29.5049 35.5934 29.5049 36.5857C29.5049 37.578 30.0554 38.3824 30.7345 38.3824Z" fill="#F05D00"/>
<path d="M20.6105 42.7373C21.2896 42.7373 21.8402 41.933 21.8402 40.9407C21.8402 39.9484 21.2896 39.144 20.6105 39.144C19.9314 39.144 19.3809 39.9484 19.3809 40.9407C19.3809 41.933 19.9314 42.7373 20.6105 42.7373Z" fill="#F05D00"/>
<path d="M27.5234 79.7161C28.2649 79.7161 28.866 79.115 28.866 78.3735C28.866 77.6319 28.2649 77.0308 27.5234 77.0308C26.7818 77.0308 26.1807 77.6319 26.1807 78.3735C26.1807 79.115 26.7818 79.7161 27.5234 79.7161Z" fill="white"/>
<path d="M31.5878 4.92848C31.2944 5.6475 31.1303 6.41268 31.103 7.18877C31.0455 8.78311 31.5581 10.3458 32.5489 11.5962C33.5397 12.8466 34.9438 13.7029 36.509 14.0115C36.6635 14.0424 36.8135 14.0924 36.9556 14.1603C32.1115 10.9881 31.6948 5.89743 31.6695 4.60889C31.6565 4.71862 31.6291 4.82598 31.5878 4.92848Z" fill="#F9BF29"/>
<path d="M34.1508 43.737C34.147 43.8182 34.1417 43.8502 34.1368 43.9015C34.1321 43.9508 34.1258 43.9895 34.1202 44.0339C34.1094 44.1215 34.0953 44.2019 34.082 44.2838C34.0551 44.4434 34.0241 44.6022 33.9892 44.7602C33.9221 45.067 33.8427 45.3709 33.7513 45.6713C33.5732 46.2589 33.3598 46.8353 33.1122 47.3972C32.9826 47.6722 32.8625 47.9508 32.7185 48.2167L32.5092 48.6177L32.2844 49.009C32.1397 49.2721 31.9694 49.5195 31.8119 49.7732C31.6482 50.023 31.472 50.2639 31.303 50.5082C31.1735 50.6961 30.9775 50.828 30.7547 50.8772C30.5318 50.9264 30.2986 50.8893 30.102 50.7733C29.9054 50.6574 29.7601 50.4712 29.6953 50.2524C29.6305 50.0335 29.6511 49.7983 29.7529 49.594L29.78 49.5399C29.8986 49.3005 30.0244 49.0659 30.1368 48.8255C30.243 48.5819 30.3619 48.3455 30.4543 48.0979C30.6527 47.6127 30.8241 47.1169 30.9676 46.6127C31.1061 46.1169 31.2145 45.6132 31.2925 45.1044C31.3322 44.8538 31.3584 44.6036 31.3768 44.3586C31.3859 44.2386 31.3917 44.1185 31.3944 43.9982C31.3952 43.9401 31.3971 43.8807 31.3953 43.8279C31.3945 43.8021 31.3953 43.7706 31.3934 43.7496C31.3917 43.7309 31.3912 43.6925 31.3884 43.7035C31.388 43.5204 31.424 43.3391 31.4943 43.17C31.5645 43.0009 31.6677 42.8475 31.7978 42.7187C31.9279 42.5899 32.0823 42.4882 32.2521 42.4196C32.4218 42.3509 32.6035 42.3167 32.7866 42.3189C32.9697 42.3212 33.1505 42.3598 33.3185 42.4325C33.4865 42.5052 33.6384 42.6106 33.7654 42.7425C33.8923 42.8745 33.9917 43.0303 34.0579 43.2011C34.1241 43.3718 34.1556 43.554 34.1508 43.737Z" fill="white"/>
<path d="M28.2229 55.0274C29.0014 55.0274 29.6324 54.3964 29.6324 53.618C29.6324 52.8395 29.0014 52.2085 28.2229 52.2085C27.4445 52.2085 26.8135 52.8395 26.8135 53.618C26.8135 54.3964 27.4445 55.0274 28.2229 55.0274Z" fill="white"/>
</svg>
