<svg width="84" height="84" viewBox="0 0 84 84" fill="none" xmlns="http://www.w3.org/2000/svg">
<g clip-path="url(#clip0_59_4710)">
<mask id="mask0_59_4710" style="mask-type:luminance" maskUnits="userSpaceOnUse" x="0" y="0" width="84" height="84">
<path d="M0 0.000244141H83.9998V84H0V0.000244141Z" fill="white"/>
</mask>
<g mask="url(#mask0_59_4710)">
<path d="M74.4241 77.3973C74.4241 81.0439 59.9073 84 41.9998 84C24.0922 84 9.5752 81.0439 9.5752 77.3973C9.5752 73.7509 24.0922 70.7948 41.9998 70.7948C59.9073 70.7948 74.4241 73.7509 74.4241 77.3973Z" fill="#B6F0FF"/>
<path d="M41.9993 70.7944C36.4202 70.7944 31.1712 71.0815 26.5871 71.587C25.2874 71.7304 24.3047 72.8288 24.3047 74.1365C24.3047 75.6621 25.6282 76.8524 27.1448 76.6855C31.6629 76.1884 36.7882 75.9207 41.9993 75.9207C45.2306 75.9207 48.4285 76.024 51.4702 76.2208C52.947 76.3164 54.1955 75.1419 54.1955 73.662V73.6609C54.1955 72.3113 53.1499 71.189 51.8031 71.102C48.7102 70.9024 45.4168 70.7944 41.9993 70.7944Z" fill="#DCFEFF"/>
<path d="M33.5388 71.0241C33.2433 71.0402 32.9478 71.0573 32.6524 71.0753C31.3011 71.1576 30.25 72.2816 30.25 73.6353C30.25 75.1115 31.4926 76.2854 32.9662 76.1953C33.2499 76.1779 33.5348 76.1614 33.821 76.1456C35.1825 76.0708 36.2501 74.9485 36.2501 73.5849C36.2501 72.111 35.0106 70.9437 33.5388 71.0241Z" fill="white"/>
<path d="M45.3229 78.1162H38.6758V51.444H45.3229V78.1162Z" fill="#DB765A"/>
<path d="M45.3229 51.4445V60.3472C44.1259 60.1488 42.9895 59.6814 41.9993 58.9802C41.0092 59.6814 39.8728 60.1488 38.6758 60.3472V51.4445H45.3229Z" fill="#A74B2B"/>
<path d="M45.3229 68.3814V78.1162H38.6758V73.7213C38.8667 73.7384 39.0583 73.747 39.25 73.7469C42.3752 73.7469 44.9521 71.4043 45.3229 68.3814Z" fill="#A74B2B"/>
<path d="M38.6768 63.6416V68.6066C38.6768 69.9888 39.7973 71.1094 41.1794 71.1094C42.5617 71.1094 43.6821 69.9888 43.6821 68.6066V63.6416C43.6821 62.2594 42.5617 61.139 41.1794 61.139C39.7973 61.139 38.6768 62.2594 38.6768 63.6416Z" fill="#F4A698"/>
<path d="M42 5.36083C42 22.0084 18.4625 47.75 14.6257 51.8355C14.2563 52.2289 14.0843 52.7751 14.1898 53.3045C14.6148 55.4347 16.4949 57.04 18.7499 57.04C21.318 57.04 23.3999 54.9581 23.3999 52.39C23.3999 54.9581 25.4819 57.04 28.05 57.04C30.6182 57.04 32.7 54.9581 32.7 52.39C32.7 54.9581 34.7818 57.04 37.35 57.04C39.918 57.04 42 54.9581 42 52.39C42 54.9581 44.0818 57.04 46.65 57.04C49.2181 57.04 51.3 54.9581 51.3 52.39C51.3 54.9581 53.3818 57.04 55.95 57.04C58.5181 57.04 60.6 54.9581 60.6 52.39C60.6 54.9581 62.6818 57.04 65.2499 57.04C67.5051 57.04 69.3852 55.4347 69.81 53.3045C69.9156 52.7751 69.7437 52.2289 69.3742 51.8355C65.5375 47.75 42 22.0084 42 5.36083Z" fill="#12ADB5"/>
<path d="M69.3736 51.8357C65.5375 47.75 41.9992 22.0074 41.9992 5.36066C41.9992 17.2246 30.0447 33.7073 21.7861 43.6796C22.3171 43.7869 22.8575 43.8407 23.3992 43.8403C25.065 43.8426 26.6902 43.326 28.0489 42.3622C28.0774 42.3824 28.1068 42.4014 28.1357 42.4213C28.8411 44.5712 30.8665 46.1296 33.25 46.1296C35.4597 46.1296 37.3614 44.7902 38.1894 42.8818C39.3602 43.5123 40.6694 43.8416 41.9992 43.8403C43.665 43.8426 45.2901 43.326 46.6487 42.3622C48.008 43.326 49.6336 43.8426 51.2999 43.8403C52.2728 43.8403 53.206 43.6673 54.0706 43.3502C55.1357 42.9594 56.2816 43.709 56.2895 44.8437L56.2897 44.8689C56.2897 48.9716 55.0933 52.7943 53.0293 56.0084C53.8551 56.678 54.8864 57.0425 55.9496 57.0405C58.5178 57.0405 60.5991 54.9576 60.5991 52.3894C60.5991 54.9576 62.6804 57.0405 65.2486 57.0405C67.5041 57.0405 69.3838 55.4344 69.8094 53.3052C69.9154 52.7754 69.7428 52.2287 69.3736 51.8357Z" fill="#0D8BA0"/>
<path d="M64.6048 35.2039C62.5567 33.3511 56.0046 27.094 50.4783 18.1741H33.5202C27.9938 27.094 21.4418 33.3511 19.3935 35.2039C18.9344 35.6191 18.7321 36.2521 18.8755 36.8542C19.3628 38.901 21.2032 40.4233 23.3992 40.4233C25.9673 40.4233 28.0492 38.3414 28.0492 35.7733C28.0492 38.3414 30.1312 40.4233 32.6992 40.4233C35.2673 40.4233 37.3492 38.3414 37.3492 35.7733C37.3492 38.3414 39.4312 40.4233 41.9992 40.4233C44.5673 40.4233 46.6492 38.3414 46.6492 35.7733C46.6492 38.3414 48.731 40.4233 51.2991 40.4233C53.8673 40.4233 55.9493 38.3414 55.9493 35.7733C55.9493 38.3414 58.031 40.4233 60.5991 40.4233C62.7952 40.4233 64.6357 38.901 65.123 36.8542C65.2662 36.2521 65.0639 35.6191 64.6048 35.2039Z" fill="#57EAE6"/>
<path d="M65.1225 36.855C64.6353 38.9008 62.7961 40.4233 60.5994 40.4233C59.3147 40.4233 58.1532 39.9033 57.3115 39.0616C56.4699 38.22 55.9498 37.0584 55.9498 35.7738C55.9498 38.3414 53.8679 40.4233 51.2987 40.4233C50.6769 40.4233 50.083 40.3019 49.5416 40.0788C50.7461 39.4128 51.7891 38.4897 52.5964 37.3751C53.1034 36.6762 52.603 35.7164 51.74 35.7197H51.7187C49.5449 35.7197 47.668 34.4252 46.8198 32.5664C45.8406 33.4256 44.582 33.8986 43.2793 33.897C41.8421 33.897 40.4903 33.3375 39.4747 32.3203C39.149 31.9957 38.8661 31.6307 38.6331 31.2342V38.9796C37.8077 38.1167 37.3479 36.968 37.3501 35.7738C37.3501 38.3414 35.2682 40.4233 32.699 40.4233C30.1314 40.4233 28.0494 38.3414 28.0494 35.7738C28.0494 36.2217 28.1134 27.4936 28.1134 27.4936C27.7592 27.4854 27.1652 27.4542 26.8223 27.4017C28.9879 24.8145 31.3356 21.7022 33.5209 18.1749H50.4784C56.0056 27.0933 62.5566 33.3506 64.6057 35.2045C65.0635 35.6196 65.2669 36.2512 65.1225 36.855Z" fill="#3CD3D3"/>
<path d="M47.0485 78.9519L48.6078 77.3928C49.1055 76.8949 48.9879 76.2472 48.3235 76.0147C48.1768 75.9627 48.0184 75.9533 47.8665 75.9875C47.7147 76.0218 47.5757 76.0983 47.4656 76.2083L46.4671 77.207V75.176C46.464 74.9598 46.376 74.7535 46.222 74.6017C46.068 74.4498 45.8605 74.3647 45.6442 74.3647C45.428 74.3647 45.2205 74.4498 45.0665 74.6017C44.9125 74.7535 44.8245 74.9598 44.8214 75.176V77.2063L43.8418 76.2269C43.6848 76.0699 43.4746 75.9703 43.2526 75.9676C42.5121 75.9586 42.1387 76.8513 42.6597 77.3723L44.2391 78.9519C44.4237 79.1365 44.6428 79.2829 44.884 79.3827C45.1252 79.4825 45.3836 79.5338 45.6447 79.5337C46.1712 79.5336 46.6762 79.3243 47.0485 78.9519Z" fill="#57EAE6"/>
<path d="M62.5476 74.0579L64.1068 72.4988C64.6046 72.0009 64.4869 71.3532 63.8223 71.1207C63.6757 71.0687 63.5173 71.0592 63.3655 71.0935C63.2137 71.1278 63.0747 71.2043 62.9646 71.3143L61.9661 72.3129V70.2822C61.9631 70.0659 61.875 69.8596 61.7211 69.7078C61.5671 69.556 61.3595 69.4708 61.1433 69.4708C60.927 69.4708 60.7195 69.556 60.5655 69.7078C60.4115 69.8596 60.3235 70.0659 60.3204 70.2822V72.3123L59.3408 71.3328C59.1838 71.1758 58.9736 71.0762 58.7517 71.0736C58.0111 71.0646 57.6377 71.9572 58.1587 72.4785L59.7382 74.0579C59.9227 74.2425 60.1418 74.3888 60.383 74.4887C60.6242 74.5885 60.8827 74.6398 61.1437 74.6396C61.6703 74.6395 62.1752 74.4303 62.5476 74.0579Z" fill="#12ADB5"/>
<path d="M40.2663 79.8599L41.8254 78.3009C42.3233 77.8029 42.2057 77.1552 41.5411 76.9227C41.3944 76.8707 41.236 76.8613 41.0842 76.8956C40.9324 76.9298 40.7935 77.0064 40.6834 77.1163L39.6849 78.115V76.0841C39.6818 75.8678 39.5938 75.6615 39.4398 75.5097C39.2858 75.3579 39.0783 75.2727 38.862 75.2727C38.6458 75.2727 38.4382 75.3579 38.2842 75.5097C38.1303 75.6615 38.0422 75.8678 38.0392 76.0841V78.1143L37.0596 77.1349C36.9025 76.9779 36.6924 76.8783 36.4704 76.8757C35.7298 76.8666 35.3564 77.7593 35.8775 78.2804L37.4569 79.8599C37.6414 80.0444 37.8604 80.1908 38.1014 80.2906C38.3424 80.3905 38.6007 80.4419 38.8616 80.4419C39.1225 80.4419 39.3808 80.3905 39.6219 80.2906C39.8629 80.1908 40.0819 80.0444 40.2663 79.8599Z" fill="#12ADB5"/>
<path d="M20.4343 74.9441L21.9935 73.385C22.4913 72.8871 22.3737 72.2394 21.709 72.0069C21.5624 71.9549 21.404 71.9455 21.2522 71.9797C21.1004 72.014 20.9614 72.0905 20.8513 72.2005L19.8528 73.1992V71.1684C19.8498 70.9522 19.7618 70.7458 19.6078 70.594C19.4538 70.4422 19.2462 70.3571 19.03 70.3571C18.8137 70.3571 18.6062 70.4422 18.4522 70.594C18.2982 70.7458 18.2102 70.9522 18.2071 71.1684V73.1985L17.2275 72.219C17.0705 72.062 16.8604 71.9625 16.6384 71.9598C15.8978 71.9508 15.5244 72.8435 16.0455 73.3647L17.6249 74.9441C17.8094 75.1287 18.0286 75.2751 18.2697 75.3749C18.5109 75.4747 18.7694 75.526 19.0304 75.5259C19.557 75.5257 20.062 75.3165 20.4343 74.9441Z" fill="#3CD3D3"/>
<path d="M20.0551 45.7399C19.7933 46.0472 19.5306 46.3537 19.2669 46.6593C17.835 48.3194 19.017 50.894 21.2094 50.894H21.2097C21.9549 50.894 22.6628 50.5708 23.1494 50.0065C23.4121 49.7018 23.6817 49.3873 23.9573 49.0638C25.374 47.3997 24.1914 44.8388 22.0061 44.8388C21.2555 44.8388 20.5418 45.1686 20.0551 45.7399Z" fill="#3CD3D3"/>
<path d="M25.1032 35.7436C26.7683 34.0104 28.3606 32.2087 29.876 30.3432C30.9986 28.961 30.0149 26.8935 28.2344 26.8935C27.9257 26.8939 27.6208 26.9617 27.3411 27.0921C27.0613 27.2226 26.8134 27.4126 26.6147 27.6488C24.8655 29.7237 23.2439 31.4501 21.9332 32.77C21.0258 33.6838 21.1351 35.1899 22.1692 35.9574L22.2048 35.9838C23.095 36.6442 24.3351 36.5426 25.1032 35.7436Z" fill="#A5F9F3"/>
<path d="M59.8576 18.9921C57.077 16.8044 47.2368 8.71242 43.4769 0.925541C43.3425 0.647964 43.1326 0.413914 42.8712 0.250267C42.6098 0.0866203 42.3076 1.14441e-05 41.9992 0.000392914C41.6908 2.28882e-05 41.3886 0.0866356 41.1272 0.250282C40.8659 0.413929 40.656 0.647976 40.5216 0.925541C36.7617 8.71225 26.9215 16.8044 24.1407 18.9921C23.6168 19.4043 23.3801 20.0872 23.547 20.7326C24.0649 22.7358 25.8842 24.2153 28.0493 24.2153L28.0849 24.2151C29.7659 24.2025 31.1491 25.5266 31.1491 27.2076V40.7477C31.1491 41.9081 32.0897 42.8486 33.2499 42.8486C34.4103 42.8486 35.3509 41.9081 35.3509 40.7477V26.5215C35.3509 25.1093 36.3538 23.8896 37.7427 23.6342L37.8185 23.6201C39.5633 23.29 41.1787 24.6273 41.1787 26.4031V28.5155C41.1787 29.6758 42.1193 30.6165 43.2797 30.6165C44.4399 30.6165 45.3805 29.6758 45.3805 28.5155V25.9722C45.3805 24.9432 46.1345 24.0757 47.151 23.9172L47.2052 23.9087C48.4701 23.7067 49.6176 24.6783 49.6176 25.9593L49.6174 30.3382C49.6174 31.4985 50.5581 32.4391 51.7184 32.4391C52.8786 32.4391 53.8192 31.4985 53.8192 30.3382V26.2712C53.8192 25.1155 54.7706 24.2095 55.9262 24.2151L55.9492 24.2153C58.1142 24.2153 59.9336 22.7358 60.4515 20.7326C60.6184 20.0872 60.3817 19.4043 59.8576 18.9921Z" fill="#B6F0FF"/>
<path d="M60.4517 20.7326C59.9332 22.7358 58.1138 24.2157 55.95 24.2157H55.9268C54.7702 24.2091 53.8186 25.1147 53.8186 26.2714V30.3385C53.8186 30.9193 53.584 31.4443 53.2034 31.8232C53.0089 32.0188 52.7775 32.1739 52.5227 32.2795C52.2679 32.3851 51.9946 32.4391 51.7188 32.4385C50.5587 32.4385 49.617 31.4984 49.617 30.3385V25.9597C49.617 24.6783 48.4702 23.7071 47.2053 23.9089C47.1872 23.9105 47.1692 23.9138 47.1512 23.9171C46.134 24.0762 45.3809 24.9425 45.3809 25.9728V28.5157C45.3809 29.0949 45.1463 29.6199 44.7657 30.0005C44.5707 30.196 44.339 30.351 44.0839 30.4566C43.8288 30.5621 43.5554 30.6162 43.2793 30.6157C42.1194 30.6157 41.1793 29.6757 41.1793 28.5157V26.4026C41.1793 25.643 40.884 24.9638 40.4082 24.4618C46.6787 23.6759 51.6399 18.6819 52.3751 12.3967C55.5282 15.5056 58.5157 17.937 59.8578 18.9919C60.3811 19.4037 60.6192 20.0862 60.4517 20.7326Z" fill="#73E1FF"/>
<path d="M35.351 35.0955V30.9731C35.351 29.8127 34.4105 28.8721 33.2502 28.8721C32.09 28.8721 31.1494 29.8127 31.1494 30.9731V35.0955C31.1494 36.2557 32.09 37.1963 33.2502 37.1963C34.4105 37.1963 35.351 36.2557 35.351 35.0955Z" fill="#DCFEFF"/>
<path d="M47.1038 46.022C46.0072 46.022 45.1182 45.1331 45.1182 44.0363V43.4606C45.1182 42.364 46.0072 41.4752 47.1038 41.4752C48.2004 41.4752 49.0894 42.364 49.0894 43.4606V44.0363C49.0894 45.1331 48.2004 46.022 47.1038 46.022Z" fill="#DCFEFF"/>
<path d="M50.4563 21.6494C49.3598 21.6494 48.4707 20.7605 48.4707 19.6638V19.0881C48.4707 17.9915 49.3598 17.1026 50.4563 17.1026C51.5529 17.1026 52.442 17.9915 52.442 19.0881V19.6638C52.442 20.7605 51.5529 21.6494 50.4563 21.6494Z" fill="#DCFEFF"/>
<path d="M44.3567 16.8936C43.2601 16.8936 42.3711 16.0047 42.3711 14.9079V14.3322C42.3711 13.2356 43.2601 12.3467 44.3567 12.3467C45.4533 12.3467 46.3424 13.2356 46.3424 14.3322V14.9079C46.3424 16.0047 45.4533 16.8936 44.3567 16.8936Z" fill="#DCFEFF"/>
<path d="M39.1937 36.9756C38.0971 36.9756 37.208 36.0867 37.208 34.9899V34.4142C37.208 33.3177 38.0971 32.4288 39.1937 32.4288C40.2902 32.4288 41.1793 33.3177 41.1793 34.4142V34.9899C41.1793 36.0867 40.2902 36.9756 39.1937 36.9756Z" fill="#DCFEFF"/>
<path d="M31.1497 49.127C30.0531 49.127 29.1641 48.2381 29.1641 47.1413V46.5656C29.1641 45.469 30.0531 44.5801 31.1497 44.5801C32.2463 44.5801 33.1353 45.469 33.1353 46.5656V47.1413C33.1353 48.2381 32.2463 49.127 31.1497 49.127Z" fill="#DCFEFF"/>
<path d="M55.2425 52.2754C54.1459 52.2754 53.2568 51.3865 53.2568 50.2897V49.7141C53.2568 48.6175 54.1459 47.7286 55.2425 47.7286C56.3391 47.7286 57.2281 48.6175 57.2281 49.7141V50.2897C57.2281 51.3865 56.3391 52.2754 55.2425 52.2754Z" fill="#DCFEFF"/>
<path d="M39.3475 7.49091L39.3096 7.45957C38.2816 6.60973 36.7674 6.75181 35.9117 7.77457C34.0264 10.0276 31.9406 12.1391 30.0209 13.9351C28.9148 14.97 28.9955 16.7474 30.1907 17.6782L30.2302 17.7089C31.1623 18.4345 32.4851 18.3795 33.3485 17.5735C35.4216 15.6381 37.6439 13.3835 39.6741 10.9533C40.5466 9.90918 40.3965 8.35748 39.3475 7.49091Z" fill="#DCFEFF"/>
<path d="M32.724 11.2864L32.6914 11.32C31.8062 12.2279 31.793 13.6704 32.6603 14.5952L32.7885 14.7317C33.7125 15.7179 35.2729 15.7353 36.2159 14.7673L36.2561 14.7259C37.1775 13.779 37.1497 12.2624 36.1923 11.352L36.0566 11.2231C35.116 10.3273 33.6301 10.3558 32.724 11.2864Z" fill="white"/>
</g>
</g>
<defs>
<clipPath id="clip0_59_4710">
<rect width="84" height="84" fill="white"/>
</clipPath>
</defs>
</svg>
