<svg width="28" height="28" viewBox="0 0 28 28" fill="none" xmlns="http://www.w3.org/2000/svg">
<g clip-path="url(#clip0_12_1478)">
<path d="M14 0C11.2311 0 8.52431 0.821086 6.22202 2.35943C3.91973 3.89777 2.12532 6.08427 1.06569 8.64243C0.00606595 11.2006 -0.271181 14.0155 0.269012 16.7313C0.809205 19.447 2.14258 21.9416 4.10051 23.8995C6.05845 25.8574 8.55301 27.1908 11.2687 27.731C13.9845 28.2712 16.7994 27.9939 19.3576 26.9343C21.9157 25.8747 24.1022 24.0803 25.6406 21.778C27.1789 19.4757 28 16.7689 28 14C28 10.287 26.525 6.72601 23.8995 4.1005C21.274 1.475 17.713 0 14 0ZM20.9724 9.76316C20.6415 10.2602 20.2371 10.7043 19.7732 11.0803C19.7147 11.129 19.6678 11.1902 19.6359 11.2593C19.6041 11.3285 19.588 11.4039 19.589 11.48V11.5261C19.5835 12.5244 19.4002 13.5137 19.0474 14.4476C18.6839 15.4278 18.1438 16.3332 17.454 17.1187C16.5269 18.174 15.3343 18.9621 14 19.4011C13.1232 19.6856 12.2065 19.828 11.2847 19.8229C9.82236 19.8227 8.38606 19.4357 7.12159 18.7011C7.07627 18.6753 7.04061 18.6355 7.01999 18.5876C6.99938 18.5397 6.99495 18.4864 7.00737 18.4358C7.02012 18.386 7.04918 18.3419 7.08991 18.3105C7.13064 18.2791 7.1807 18.2623 7.23211 18.2626H7.58211C8.69333 18.2646 9.77986 17.9349 10.7026 17.3158C10.1529 17.226 9.63858 16.9865 9.21611 16.6235C8.79365 16.2605 8.4794 15.7881 8.3079 15.2582C8.29913 15.2316 8.29754 15.2032 8.30329 15.1759C8.30904 15.1485 8.32192 15.1232 8.34062 15.1024C8.35933 15.0817 8.3832 15.0662 8.4098 15.0577C8.43641 15.0491 8.46481 15.0477 8.49211 15.0537C8.65975 15.0852 8.82995 15.1013 9.00053 15.1016H9.06501C8.53356 14.8577 8.0842 14.465 7.77132 13.971C7.45845 13.477 7.29547 12.9029 7.30211 12.3182C7.3023 12.2908 7.30957 12.264 7.32322 12.2402C7.33686 12.2165 7.35641 12.1968 7.37997 12.1828C7.40353 12.1689 7.43029 12.1614 7.45764 12.1609C7.48499 12.1604 7.51201 12.167 7.53606 12.18C7.75216 12.3007 7.98405 12.3906 8.22501 12.4471C7.74916 11.976 7.44308 11.3604 7.35474 10.6966C7.2664 10.0329 7.40079 9.35862 7.73685 8.77947C7.74974 8.75734 7.76781 8.73867 7.78951 8.72505C7.8112 8.71143 7.83587 8.70328 7.86141 8.70129C7.88694 8.6993 7.91258 8.70352 7.93612 8.71361C7.95967 8.7237 7.98041 8.73935 7.99659 8.75921C8.66258 9.58212 9.48678 10.2632 10.4205 10.7621C11.3542 11.2611 12.3784 11.5678 13.4326 11.6642H13.4474C13.4629 11.6638 13.4781 11.6602 13.4922 11.6536C13.5062 11.6471 13.5188 11.6378 13.5291 11.6262C13.5395 11.6147 13.5474 11.6012 13.5523 11.5865C13.5573 11.5718 13.5592 11.5562 13.5579 11.5408C13.5169 11.1711 13.5406 10.7971 13.6279 10.4355C13.7468 9.94408 13.9907 9.49174 14.3361 9.12247C14.6815 8.7532 15.1165 8.47956 15.599 8.32816C15.9085 8.23147 16.2307 8.1818 16.555 8.18079C17.2902 8.17994 18.0004 8.4479 18.5518 8.93421C18.6233 8.99812 18.7157 9.03353 18.8116 9.03368C18.8427 9.03302 18.8736 9.02869 18.9037 9.02079C19.4215 8.88971 19.9178 8.68499 20.3774 8.41289C20.4049 8.39594 20.4369 8.3879 20.4691 8.38987C20.5014 8.39184 20.5322 8.40372 20.5574 8.42389C20.5826 8.44406 20.601 8.47153 20.61 8.50254C20.619 8.53355 20.6181 8.56658 20.6076 8.59711C20.4543 9.07934 20.1812 9.51477 19.8137 9.86263C20.145 9.78454 20.4682 9.67537 20.779 9.53658C20.8094 9.52514 20.8427 9.52336 20.8742 9.53149C20.9057 9.53963 20.934 9.55727 20.9551 9.58203C20.9763 9.60679 20.9893 9.63747 20.9923 9.66987C20.9954 9.70228 20.9885 9.73485 20.9724 9.76316Z" fill="white"/>
</g>
<defs>
<clipPath id="clip0_12_1478">
<rect width="28" height="28" fill="white"/>
</clipPath>
</defs>
</svg>
