<svg width="84" height="84" viewBox="0 0 84 84" fill="none" xmlns="http://www.w3.org/2000/svg">
<path d="M65.192 14.7788C64.9689 15.5532 64.8114 16.3144 64.6933 17.0363C62.8164 15.5007 61.1102 14.8707 61.1102 14.8707C61.1102 14.8707 60.8608 14.7788 60.4277 14.6738C60.6114 12.7182 61.0708 9.90942 62.3177 7.61254C63.4727 5.48629 65.2708 3.79317 68.0927 3.55692C68.4733 3.53067 68.8408 3.58317 69.182 3.70129C69.5758 3.84567 69.9302 4.08192 70.2189 4.39692C71.4264 5.65692 71.1114 7.77004 69.5758 8.54442C67.2002 9.75192 65.9008 12.285 65.192 14.7788ZM57.2383 10.5C57.7764 11.5632 58.2227 12.8232 58.4064 14.2932C56.9627 14.1357 55.0727 14.1357 53.0645 14.7132C52.5133 13.5713 51.8308 12.6657 51.1745 11.9569C50.072 10.7494 50.0983 8.91192 51.2927 7.79629C52.1195 6.99567 53.3139 6.77254 54.3245 7.15317C54.7183 7.29754 55.112 7.54692 55.4139 7.88817C56.0439 8.55754 56.687 9.42379 57.2383 10.5ZM27.287 6.53629C28.3633 7.44192 28.442 9.13504 27.4052 10.1063C25.9089 11.4844 25.2789 13.5057 25.0952 15.5138C24.1239 15.2644 23.1789 15.1594 22.3389 15.1332V15.12C21.9977 14.4507 21.6695 13.7288 21.3808 12.9544C21.5252 10.4344 22.3127 7.80942 24.6358 6.35254C24.7933 6.24754 24.9639 6.15567 25.1608 6.09004C25.8695 5.86692 26.6702 6.02442 27.287 6.53629ZM14.7789 8.89879C15.1727 11.5632 16.4852 14.1488 17.522 15.855C17.0758 16.0388 16.4195 16.3538 15.6845 16.8C14.759 15.8214 13.6655 15.0168 12.4558 14.4244V14.4113C11.0514 12.18 9.71267 10.8544 8.66267 10.08C7.57329 9.26629 7.27142 7.71754 7.90142 6.49692C8.40017 5.52567 9.35829 4.98754 10.3295 4.98754C10.9464 4.98754 11.5633 5.21067 12.0752 5.67004C12.8758 6.39192 13.8077 7.42879 14.7658 8.88567C14.7789 8.88567 14.7789 8.89879 14.7789 8.89879Z" fill="#76991F"/>
<path d="M65.2051 14.7788C66.7932 12.9019 68.972 11.34 71.6626 11.6156C71.8595 11.6288 72.0563 11.6812 72.2401 11.7469C72.9357 11.9963 73.487 12.6131 73.6707 13.3744C73.9988 14.7394 73.067 16.1044 71.6626 16.2225C69.6676 16.38 67.9745 17.5612 66.6488 19.005C66.0188 18.2306 65.3495 17.5744 64.6932 17.0362C64.8113 16.3144 64.9688 15.5531 65.192 14.7788H65.2051ZM62.3176 7.6125C61.0707 9.90938 60.6113 12.7181 60.4276 14.6737C59.9551 14.5425 59.2595 14.385 58.4063 14.2931C58.2396 12.9706 57.8444 11.6872 57.2382 10.5C57.4351 7.88812 57.1463 6.05063 56.7657 4.81687C56.3851 3.5175 57.0413 2.13938 58.262 1.575C58.6426 1.40438 59.0363 1.3125 59.417 1.3125C60.6638 1.3125 61.8057 2.1525 62.0682 3.45188C62.2913 4.515 62.4095 5.88 62.3176 7.6125ZM22.3388 15.12V15.1331C19.9238 15.0412 18.1913 15.5925 18.1913 15.5925C18.1913 15.5925 17.942 15.6713 17.522 15.855C16.4851 14.1488 15.1726 11.5631 14.7788 8.89875C14.7788 8.89875 14.7788 8.88562 14.7657 8.88562C14.4113 6.44438 14.8182 3.9375 16.9313 1.995C17.207 1.7325 17.5351 1.54875 17.8895 1.43063C18.2832 1.29938 18.7032 1.28625 19.1232 1.35187C20.8426 1.64062 21.8663 3.54375 21.1051 5.145C19.9501 7.6125 20.4488 10.4869 21.3807 12.9544C21.6695 13.7288 21.9976 14.4506 22.3388 15.12ZM12.4557 14.4244C13.532 14.9494 14.6476 15.7106 15.6845 16.8V16.8131C14.4376 17.5744 12.9282 18.7687 11.6813 20.4881C10.5526 19.8975 9.46321 19.5694 8.51821 19.3988C6.91696 19.11 5.82759 17.5875 6.10321 15.9206C6.28696 14.7656 7.08759 13.8337 8.12446 13.5188C8.53134 13.3875 8.99071 13.3481 9.45009 13.4269C10.3426 13.5975 11.3795 13.8994 12.4557 14.4112V14.4244Z" fill="#90B541"/>
<path d="M58.4062 14.2931C59.2594 14.385 59.955 14.5425 60.4275 14.6738C60.8606 14.7788 61.11 14.8706 61.11 14.8706C61.11 14.8706 62.8163 15.5006 64.6931 17.0363C65.3494 17.5744 66.0187 18.2306 66.6487 19.005C68.7619 21.6169 70.35 25.6331 68.88 31.5263C59.4562 24.4913 50.19 22.6669 44.625 22.2731C46.9613 17.64 50.1375 15.5531 53.0644 14.7131C55.0725 14.1356 56.9625 14.1356 58.4062 14.2931Z" fill="#F9AF0B"/>
<path d="M68.8809 31.5262C68.2246 34.1118 66.9777 37.0649 64.9302 40.4249C64.0771 41.8162 63.2502 43.2206 62.4496 44.5987C54.7977 38.4299 47.1065 35.8443 41.3184 34.7943C41.4759 33.8362 41.6334 32.8781 41.7777 31.9068C42.3946 27.8643 43.3921 24.7143 44.6259 22.2731C50.1909 22.6668 59.4571 24.4912 68.8809 31.5262Z" fill="#FFC008"/>
<path d="M62.4487 44.5988C59.8893 48.9826 57.5793 53.2613 55.4399 57.2382C49.6781 52.4082 43.8637 49.6257 38.8105 48.0507C39.6768 43.8769 40.5562 39.4276 41.3174 34.7944C47.1055 35.8444 54.7968 38.4301 62.4487 44.5988Z" fill="#F9AF0B"/>
<path d="M55.4404 57.2382C52.881 62.0025 50.5841 66.3469 48.4316 69.9432C44.2185 66.2288 39.9529 63.6694 35.9629 61.8975C36.4223 59.4563 36.9604 56.8313 37.551 54.0488C37.866 52.5394 38.2073 50.9644 38.5354 49.3632C38.6273 48.93 38.7191 48.4969 38.811 48.0507C43.8641 49.6257 49.6785 52.4082 55.4404 57.2382Z" fill="#FFC008"/>
<path d="M35.9625 61.8975C39.9525 63.6693 44.2181 66.2287 48.4312 69.9431C46.3837 73.3818 44.4675 76.125 42.6037 77.91C42.2362 78.2643 41.8425 78.54 41.4225 78.7368C38.64 80.1412 35.0831 78.4087 34.7156 75.0093C34.4925 72.8831 34.6631 70.2318 35.0831 67.1475C35.3062 65.52 35.6081 63.7612 35.9625 61.8975Z" fill="#F9AF0B"/>
<path d="M66.6495 19.005C66.0195 18.2307 65.3502 17.5744 64.6939 17.0363C62.817 15.5007 61.1108 14.8707 61.1108 14.8707C61.1108 14.8707 60.8614 14.7788 60.4283 14.6738C59.9197 14.5349 59.4029 14.4284 58.8809 14.3549C59.209 18.1047 59.2457 21.9529 59.0029 25.8169C62.5099 27.3215 65.8254 29.2381 68.8795 31.5263C70.3508 25.6332 68.7627 21.6169 66.6495 19.005Z" fill="#FF7F00"/>
<path d="M59.0036 25.8169C58.69 30.7977 57.906 35.7376 56.6621 40.5707C58.6848 41.774 60.6191 43.1201 62.4502 44.5988C63.2509 43.2206 64.0777 41.8163 64.9309 40.425C66.9784 37.065 68.2252 34.1119 68.8815 31.5263C65.8261 29.2394 62.5104 27.3229 59.0036 25.8169Z" fill="#FF9700"/>
<path d="M62.4495 44.5987C60.6184 43.1201 58.6841 41.774 56.6614 40.5707C55.4263 45.3534 53.7345 49.9879 51.582 54.3139C52.9135 55.2269 54.2008 56.2027 55.4395 57.2381C57.5802 53.2612 59.8902 48.9825 62.4495 44.5987Z" fill="#FF7F00"/>
<path d="M43.709 66.2484C45.2787 67.3325 46.859 68.5571 48.4314 69.9431C50.5839 66.3468 52.8807 62.0025 55.4401 57.2381C54.2011 56.2031 52.9138 55.2273 51.5827 54.3138C49.4184 58.6622 46.7999 62.7007 43.709 66.2484Z" fill="#FF9700"/>
<path d="M34.6719 74.21C34.6876 74.4752 34.6903 74.7574 34.7165 75.0094C35.084 78.4087 38.6409 80.1412 41.4234 78.7369C41.8434 78.54 42.2371 78.2644 42.6046 77.91C44.4684 76.125 46.3846 73.3819 48.4321 69.9431C46.9325 68.6192 45.3556 67.3854 43.7097 66.2484C41.0673 69.2951 38.0275 71.973 34.6719 74.21Z" fill="#FF7F00"/>
<path d="M34.7163 75.0093C35.0838 78.4087 38.6406 80.1412 41.4231 78.7368C40.7144 82.6218 36.0681 84.0525 33.4169 81.1518C31.5925 79.1568 29.755 76.0987 27.8125 72.3056C29.6762 70.5075 32.065 68.6568 35.0837 67.1475C34.6637 70.2318 34.4931 72.8831 34.7163 75.0093Z" fill="#FF9700"/>
<path d="M37.5516 54.0487C36.961 56.8312 36.4229 59.4562 35.9635 61.8975C35.6258 63.6397 35.3326 65.3903 35.0841 67.1475C32.0654 68.6568 29.6766 70.5075 27.8129 72.3056C26.3298 69.3918 24.7679 66.0318 23.0879 62.37C26.1066 59.2068 30.766 55.7418 37.5516 54.0487Z" fill="#F9AF0B"/>
<path d="M37.5894 42.5643C37.8912 44.8875 38.2063 47.1581 38.5344 49.3631C38.2063 50.9643 37.865 52.5393 37.55 54.0487C30.7644 55.7418 26.105 59.2068 23.0862 62.37C21.6294 59.22 20.1069 55.8468 18.4531 52.3556C21.9575 48.4181 28.0081 43.7587 37.5894 42.5643Z" fill="#FF9700"/>
<path d="M36.6185 34.0725C36.8941 36.96 37.2222 39.8081 37.5897 42.5644C28.0085 43.7588 21.9578 48.4181 18.4535 52.3556C16.9572 49.2056 15.356 45.9375 13.6366 42.6431C17.2328 38.2069 24.2547 32.235 36.3035 31.5656C36.4347 32.3663 36.5397 33.1931 36.6185 34.0725ZM22.3385 15.1331C23.1785 15.1594 24.1235 15.2644 25.0947 15.5138C27.5622 16.1306 30.2922 17.6006 32.4841 20.79C20.1991 21.4331 13.1116 27.5888 9.55472 32.0644C8.57035 26.7619 9.83035 23.0344 11.681 20.4881C12.9278 18.7688 14.4372 17.5744 15.6841 16.8131V16.8C16.4769 16.314 17.3168 15.9095 18.191 15.5925C18.191 15.5925 19.9235 15.0413 22.3385 15.1331Z" fill="#F9AF0B"/>
<path d="M32.4841 20.79C34.1772 23.2313 35.5684 26.6963 36.3034 31.5657C24.2547 32.235 17.2328 38.2069 13.6366 42.6432C13.4397 42.2757 13.2559 41.9213 13.0591 41.5538C11.1428 37.9313 10.0534 34.7944 9.55469 32.0644C13.1116 27.5888 20.1991 21.4332 32.4841 20.79Z" fill="#FF9700"/>
<path d="M34.7166 75.0093C34.4935 72.8831 34.6641 70.2318 35.0841 67.1475C34.4135 67.4835 33.7848 67.8405 33.1745 68.2053C32.7108 71.6247 32.0822 75.0198 31.291 78.3785C32.005 79.4482 32.7125 80.3814 33.4173 81.1518C36.0685 84.0525 40.7148 82.6218 41.4235 78.7368C38.641 80.1412 35.0841 78.4087 34.7166 75.0093Z" fill="#FF7F00"/>
<path d="M34.0414 55.167C34.0564 59.528 33.7665 63.8847 33.1738 68.2053C33.7967 67.8285 34.4337 67.4756 35.0835 67.1475C35.3066 65.52 35.6085 63.7612 35.9629 61.8975C36.4223 59.4562 36.9604 56.8312 37.551 54.0487C36.3028 54.3598 35.1491 54.7483 34.0414 55.167Z" fill="#FF9700"/>
<path d="M38.5348 49.3631C38.2066 47.1581 37.8916 44.8875 37.5898 42.5643C36.071 42.7541 34.5669 43.047 33.0879 43.4411C33.7166 47.2893 34.0185 51.2203 34.0408 55.167C35.1877 54.7257 36.3596 54.3523 37.5504 54.0487C37.8654 52.5393 38.2066 50.9643 38.5348 49.3631Z" fill="#FF7F00"/>
<path d="M36.619 34.0724C36.5403 33.1931 36.4353 32.3662 36.304 31.5656C34.2604 31.676 32.23 31.9609 30.235 32.4174C31.5357 35.9651 32.4715 39.6611 33.0884 43.4398C34.5675 43.0463 36.0716 42.7534 37.5903 42.563C37.2228 39.8081 36.8946 36.9599 36.619 34.0724ZM25.0953 15.5137C24.124 15.2643 23.179 15.1593 22.339 15.1331C21.4136 15.0982 20.487 15.1532 19.5723 15.2971C21.5838 17.3515 23.3962 19.5919 24.985 21.9883C27.4341 21.3185 29.9488 20.9167 32.4846 20.7899C30.2928 17.6006 27.5628 16.1306 25.0953 15.5137Z" fill="#FF9700"/>
<path d="M32.484 20.79C29.9481 20.9168 27.4335 21.3186 24.9844 21.9884C27.1592 25.2578 28.8917 28.7582 30.2344 32.4175C32.2292 31.9599 34.2597 31.6749 36.3034 31.5657C35.5684 26.6963 34.1771 23.2313 32.484 20.79Z" fill="#FF7F00"/>
<path d="M56.1747 18.4092C56.47 18.1257 56.558 17.6847 56.2167 17.1741C55.9424 16.7646 55.4345 16.5572 54.9423 16.5441C53.4027 16.5021 50.8027 17.6453 50.6189 19.1678C50.5257 19.9343 51.3329 19.6639 51.7687 19.5261C52.6152 19.261 53.4815 19.0943 54.3556 18.9499C54.9554 18.8528 55.7088 18.8567 56.1747 18.4092ZM18.3196 20.1561C18.46 19.7728 18.3458 19.3358 17.8143 19.0287C17.3877 18.7819 16.8404 18.8173 16.3928 19.0221C14.9911 19.66 13.1575 21.8295 13.6615 23.2785C13.9148 24.0083 14.5212 23.4098 14.852 23.0961C15.4951 22.4858 16.2012 21.9555 16.9231 21.4437C17.4179 21.0906 18.0978 20.7625 18.3196 20.1561Z" fill="#F4E38C"/>
</svg>
