<svg width="500" height="576" viewBox="0 0 500 576" fill="none" xmlns="http://www.w3.org/2000/svg">
<mask id="mask0_59_3054" style="mask-type:alpha" maskUnits="userSpaceOnUse" x="0" y="0" width="500" height="576">
<rect width="500" height="576" rx="60" fill="#6CC3A4"/>
</mask>
<g mask="url(#mask0_59_3054)">
<g opacity="0.2">
<path d="M599.038 253.209C577.628 290.533 529.608 303.206 491.979 281.462L397.234 226.715C359.605 204.972 346.414 156.93 367.825 119.606C389.235 82.282 437.255 69.6096 474.883 91.3528L569.629 146.1C607.257 167.843 620.449 215.886 599.038 253.209ZM396.509 136.181C384.1 157.813 391.746 185.661 413.555 198.263L508.301 253.011C530.109 265.612 557.945 258.267 570.354 236.635C582.763 215.003 575.116 187.154 553.308 174.552L458.562 119.805C436.753 107.203 408.918 114.549 396.509 136.181Z" fill="#666D59"/>
</g>
<g opacity="0.6">
<path d="M598.605 232.959C577.334 270.04 529.622 282.636 492.228 261.029L397.483 206.281C360.089 184.674 346.987 136.936 368.258 99.8559C389.528 62.7757 437.241 50.179 474.635 71.7865L569.38 126.534C606.774 148.141 619.876 195.879 598.605 232.959ZM396.076 115.931C383.527 137.806 391.263 165.959 413.306 178.697L508.052 233.444C530.096 246.182 558.238 238.76 570.787 216.885C583.335 195.009 575.6 166.856 553.556 154.118L458.811 99.3711C436.767 86.6334 408.625 94.0549 396.076 115.931Z" stroke="#666D59"/>
</g>
</g>
</svg>
