<svg width="121" height="121" viewBox="0 0 121 121" fill="none" xmlns="http://www.w3.org/2000/svg">
<path d="M100.645 79.3294L42.9761 101.658C42.0652 102.011 41.0346 101.556 40.6819 100.645L18.3527 42.9763C18 42.0655 18.4554 41.0347 19.3662 40.6821L77.035 18.3529C77.9458 18.0003 78.9765 18.4556 79.3291 19.3664L101.658 77.0352C102.011 77.946 101.563 78.9601 100.645 79.3294Z" stroke="#FF3276" stroke-width="1.6628" stroke-miterlimit="10"/>
<path d="M79.1203 72.6422L54.4086 82.2105C51.6042 83.2963 48.4621 81.9083 47.3763 79.1039L37.808 54.3922C36.7222 51.5878 38.1102 48.4458 40.9145 47.36L65.6263 37.7917C68.4306 36.7058 71.5727 38.0939 72.6585 40.8982L82.2268 65.61C83.3127 68.4143 81.9247 71.5563 79.1203 72.6422Z" fill="#FFAB31"/>
</svg>
