<svg width="28" height="28" viewBox="0 0 28 28" fill="none" xmlns="http://www.w3.org/2000/svg">
<g clip-path="url(#clip0_57_852)">
<path d="M12.3252 11.3179L16.6928 14L12.3252 16.684V11.3179Z" fill="#FF3276"/>
<path d="M14 0C11.2311 0 8.52431 0.821086 6.22202 2.35943C3.91973 3.89777 2.12532 6.08427 1.06569 8.64243C0.00606595 11.2006 -0.271181 14.0155 0.269012 16.7313C0.809205 19.447 2.14258 21.9416 4.10051 23.8995C6.05845 25.8574 8.55301 27.1908 11.2687 27.731C13.9845 28.2712 16.7994 27.9939 19.3576 26.9343C21.9157 25.8747 24.1022 24.0803 25.6406 21.778C27.1789 19.4757 28 16.7689 28 14C28 10.287 26.525 6.72601 23.8995 4.1005C21.274 1.475 17.713 0 14 0ZM20.6721 17.3692C20.3921 18.2295 19.4655 18.7526 18.6126 18.8724C15.5462 19.1984 12.4538 19.1984 9.38737 18.8724C8.53448 18.7526 7.6079 18.2295 7.3279 17.3692C6.89134 15.1449 6.89134 12.8569 7.3279 10.6326C7.6079 9.76316 8.53448 9.24921 9.39474 9.12947C12.4612 8.80342 15.5536 8.80342 18.62 9.12947C19.4729 9.24921 20.3995 9.77053 20.6795 10.6326C21.1136 12.8574 21.1111 15.1454 20.6721 17.3692Z" fill="#FF3276"/>
</g>
<defs>
<clipPath id="clip0_57_852">
<rect width="28" height="28" fill="white"/>
</clipPath>
</defs>
</svg>
